# Blender v2.90.1 OBJ File: 'Wood.blend'
# www.blender.org
mtllib Door.mtl
o Door_Cube.019
v -2.818496 4.277318 -1.883871
v -2.642193 -3.988850 -1.868790
v -2.817308 4.272974 0.537544
v -2.655297 -3.987424 0.502827
v 2.162581 4.300872 -1.911707
v 2.219800 -3.987705 -1.872980
v 2.151922 4.302949 0.548263
v 2.201447 -3.982539 0.547527
v -2.043317 -4.000273 0.466645
v 1.686720 -4.003756 0.444174
v -2.174888 3.730926 0.398461
v 1.480141 3.702068 0.397314
v 0.925486 4.253482 0.527260
v -0.329563 4.210383 0.552440
v -1.602215 4.275208 0.523894
v -1.602215 4.277318 -1.883871
v -0.350680 4.242435 -1.861395
v 0.919576 4.263569 -1.881783
v 1.005838 -3.991436 -1.871762
v -0.208259 -3.993034 -1.872496
v -1.414319 -3.995652 -1.876156
v -1.329424 3.749349 0.437813
v -0.355133 3.690910 0.465026
v 0.555528 3.686412 0.469298
v -2.768358 1.530660 -1.922623
v -2.574511 -1.264549 -1.864300
v -2.622334 -1.257610 0.501414
v -2.814471 1.545297 0.470600
v 2.244030 -1.164839 0.476460
v 2.089931 1.584542 0.486021
v 2.221662 -1.152110 -1.937560
v 2.194911 1.549867 -1.956015
v -2.121348 -1.432599 0.497040
v -2.181643 1.183506 0.442728
v 1.468378 1.158397 0.440542
v 1.618519 -1.443206 0.450450
v 1.005559 -1.231063 -1.894353
v 0.984770 1.488342 -1.905986
v -0.180086 -1.266099 -1.891858
v -0.239325 1.459497 -1.870995
v -1.398654 -1.270464 -1.864612
v -1.471070 1.473508 -1.893174
v 0.737843 -3.963981 0.126531
v 1.638283 -3.986206 0.132832
v -2.104703 1.169742 0.108258
v -2.035505 3.586223 0.142948
v 0.557072 3.606695 0.148778
v 1.419610 3.512617 0.143915
v 1.525561 -1.397580 0.131599
v -1.984081 -3.967417 0.132938
v -1.159719 -3.968123 0.141448
v -0.179986 -4.002212 0.122883
v -1.337193 3.634217 0.132702
v -0.349306 3.617528 0.173742
v -0.226095 -1.417592 0.166678
v -1.217278 -1.423846 0.169527
v -1.987073 -1.443788 0.133578
v 1.421606 1.159860 0.093871
v 0.526590 1.157666 0.151581
v -0.437003 1.148283 0.159361
v -1.289110 1.127392 0.174506
v -2.155941 1.172635 0.085224
v -2.204561 3.730113 0.110723
v -2.084275 -3.985385 0.145708
v -1.066940 -3.967736 0.153567
v -1.238058 3.446269 0.150387
v -1.136622 -1.423264 0.175420
v -2.129330 -1.439596 0.145798
v -1.153725 1.162334 0.152837
v -1.158908 -3.983432 0.147647
v -0.105381 -3.977220 0.110333
v -1.261525 3.664155 0.177590
v -0.314799 3.493025 0.149133
v -0.140382 -1.428905 0.164040
v -0.350083 1.146935 0.163517
v -0.156599 -4.013530 0.116044
v 0.797481 -3.978750 0.132570
v -0.347055 3.673344 0.173221
v 0.613590 3.607409 0.139702
v 0.715251 -1.392362 0.146999
v 0.629638 1.135218 0.169507
v 0.724272 -3.993402 0.137364
v 1.689323 -4.010482 0.120454
v 0.574788 3.713282 0.145314
v 1.490692 3.722898 0.139885
v 1.581018 -1.371314 0.121235
v 0.635037 -1.384303 0.147457
v 1.544285 1.185510 0.099048
v -0.201717 -1.429527 0.250615
v -1.142534 -1.426306 0.230648
v -0.420004 1.136463 0.230730
v -1.149945 1.139221 0.229520
v 0.649024 -1.417890 0.196015
v -0.125983 -1.432358 0.206422
v 0.504499 1.129402 0.234649
v -0.345587 1.148863 0.219799
v 1.519864 -1.436727 0.211479
v 0.722774 -1.413332 0.192648
v 1.404425 1.159557 0.216348
v 0.640386 1.174935 0.203515
v -1.205768 -1.443184 0.208934
v -2.079626 -1.433956 0.213159
v -1.295840 1.149334 0.221738
v -2.055792 1.118958 0.199030
v -2.027835 3.580486 0.205041
v -1.990139 -3.955332 0.196784
v -1.150245 -3.964371 0.198143
v -1.302354 3.634477 0.218923
v -1.052960 -3.954733 0.186719
v -0.189089 -3.974706 0.201440
v -1.213622 3.439727 0.233153
v -0.391506 3.615919 0.206403
v -0.107542 -3.987965 0.179317
v 0.739523 -3.959866 0.185659
v -0.319845 3.498110 0.207056
v 0.563726 3.596775 0.216450
v 0.807133 -3.982439 0.187955
v 1.632308 -3.988989 0.174394
v 0.616416 3.565544 0.231492
v 1.396265 3.500090 0.194532
v -2.214437 1.606519 -0.497143
v -2.214437 1.437251 -0.497143
v -2.214437 1.652683 0.385648
v -2.214437 1.365922 0.385648
v 1.028101 1.606519 -0.497143
v 1.028101 1.437251 -0.497143
v 1.028101 1.606519 0.298455
v 1.028101 1.437251 0.298455
v -0.112838 1.582982 0.372635
v -1.163636 1.678009 0.356584
v -1.163636 1.430413 0.356584
v -0.112836 1.374550 0.372635
v -1.163636 1.647234 -0.497143
v -0.112836 1.567595 -0.452028
v -0.112838 1.398327 -0.452028
v -1.163636 1.477966 -0.497143
v -2.143063 -1.567730 -0.468151
v -2.143063 -1.736998 -0.468151
v -2.143063 -1.521567 0.414640
v -2.143063 -1.808327 0.414640
v 0.888546 -1.646546 -0.468151
v 0.888546 -1.815814 -0.468151
v 0.888546 -1.646546 0.327447
v 0.888546 -1.815814 0.327447
v -0.041464 -1.735998 0.453568
v -1.092263 -1.656799 0.341683
v -1.092263 -1.904395 0.341684
v -0.041464 -1.944430 0.453568
v -1.092263 -1.687575 -0.512044
v -0.041464 -1.794638 -0.468151
v -0.041464 -1.963906 -0.468151
v -1.092263 -1.856843 -0.512044
v 0.993234 0.013419 0.206358
v 1.003871 -0.141621 0.205828
v 1.161217 -0.134157 0.208817
v 1.185479 0.030055 0.209634
v 0.989850 0.012756 0.397718
v 1.000487 -0.142284 0.397188
v 1.157833 -0.134820 0.400176
v 1.182095 0.029392 0.400993
v 1.036750 -0.024342 0.428166
v 1.041896 -0.099342 0.427910
v 1.118011 -0.095731 0.429356
v 1.129748 -0.016295 0.429751
v 1.367149 -0.259328 0.324503
v 1.338889 -0.259451 0.275554
v 1.282367 -0.259451 0.275554
v 1.254106 -0.259328 0.324503
v 1.282367 -0.259204 0.373452
v 1.338889 -0.259204 0.373452
v 1.225845 -0.504072 0.325122
v 1.211715 -0.479721 0.276112
v 1.183454 -0.430772 0.275988
v 1.169325 -0.406174 0.324875
v 1.183454 -0.430525 0.373885
v 1.211715 -0.479473 0.374009
v 0.943238 -0.504072 0.325122
v 0.957369 -0.479721 0.276112
v 0.985629 -0.430772 0.275988
v 0.999760 -0.406174 0.324875
v 0.985629 -0.430525 0.373885
v 0.957369 -0.479473 0.374009
v 0.801936 -0.259328 0.324503
v 0.830197 -0.259451 0.275554
v 0.886718 -0.259451 0.275554
v 0.914977 -0.259328 0.324503
v 0.886718 -0.259204 0.373452
v 0.830197 -0.259204 0.373452
v 0.943238 -0.014584 0.323884
v 0.957369 -0.039182 0.274997
v 0.985629 -0.088131 0.275121
v 0.999760 -0.112481 0.324132
v 0.985629 -0.087883 0.373018
v 0.957369 -0.038934 0.372894
v 1.225845 -0.014584 0.323884
v 1.211715 -0.039182 0.274997
v 1.183454 -0.088131 0.275121
v 1.169325 -0.112481 0.324132
v 1.183454 -0.087883 0.373018
v 1.211715 -0.038934 0.372894
vt 0.296875 0.824219
vt 0.296875 0.824219
vt 0.296875 0.824219
vt 0.296875 0.824219
vt 0.296875 0.824219
vt 0.296875 0.824219
vt 0.296875 0.824219
vt 0.296875 0.824219
vt 0.296875 0.824219
vt 0.296875 0.824219
vt 0.296875 0.824219
vt 0.296875 0.824219
vt 0.296875 0.824219
vt 0.296875 0.824219
vt 0.296875 0.824219
vt 0.296875 0.824219
vt 0.296875 0.824219
vt 0.296875 0.824219
vt 0.296875 0.824219
vt 0.296875 0.824219
vt 0.296875 0.824219
vt 0.296875 0.824219
vt 0.296875 0.824219
vt 0.296875 0.824219
vt 0.296875 0.824219
vt 0.296875 0.824219
vt 0.296875 0.824219
vt 0.296875 0.824219
vt 0.296875 0.824219
vt 0.296875 0.824219
vt 0.296875 0.824219
vt 0.296875 0.824219
vt 0.296875 0.824219
vt 0.296875 0.824219
vt 0.296875 0.824219
vt 0.296875 0.824219
vt 0.296875 0.824219
vt 0.296875 0.824219
vt 0.296875 0.824219
vt 0.296875 0.824219
vt 0.296875 0.824219
vt 0.296875 0.824219
vt 0.296875 0.824219
vt 0.296875 0.824219
vt 0.296875 0.824219
vt 0.296875 0.824219
vt 0.296875 0.824219
vt 0.296875 0.824219
vt 0.296875 0.824219
vt 0.296875 0.824219
vt 0.296875 0.824219
vt 0.296875 0.824219
vt 0.296875 0.824219
vt 0.296875 0.824219
vt 0.296875 0.824219
vt 0.296875 0.824219
vt 0.183594 0.824219
vt 0.183594 0.824219
vt 0.183594 0.824219
vt 0.183594 0.824219
vt 0.183594 0.824219
vt 0.183594 0.824219
vt 0.183594 0.824219
vt 0.183594 0.824219
vt 0.183594 0.824219
vt 0.183594 0.824219
vt 0.183594 0.824219
vt 0.183594 0.824219
vt 0.183594 0.824219
vt 0.183594 0.824219
vt 0.183594 0.824219
vt 0.183594 0.824219
vt 0.183594 0.824219
vt 0.183594 0.824219
vt 0.183594 0.824219
vt 0.183594 0.824219
vt 0.183594 0.824219
vt 0.183594 0.824219
vt 0.183594 0.824219
vt 0.183594 0.824219
vt 0.183594 0.824219
vt 0.183594 0.824219
vt 0.183594 0.824219
vt 0.183594 0.824219
vt 0.183594 0.824219
vt 0.183594 0.824219
vt 0.183594 0.824219
vt 0.183594 0.824219
vt 0.183594 0.824219
vt 0.183594 0.824219
vt 0.183594 0.824219
vt 0.183594 0.824219
vt 0.183594 0.824219
vt 0.183594 0.824219
vt 0.183594 0.824219
vt 0.183594 0.824219
vt 0.183594 0.824219
vt 0.183594 0.824219
vt 0.183594 0.824219
vt 0.183594 0.824219
vt 0.183594 0.824219
vt 0.183594 0.824219
vt 0.183594 0.824219
vt 0.183594 0.824219
vt 0.183594 0.824219
vt 0.183594 0.824219
vt 0.183594 0.824219
vt 0.183594 0.824219
vt 0.183594 0.824219
vt 0.183594 0.824219
vt 0.183594 0.824219
vt 0.183594 0.824219
vt 0.183594 0.824219
vt 0.183594 0.824219
vt 0.183594 0.824219
vt 0.183594 0.824219
vt 0.183594 0.824219
vt 0.183594 0.824219
vt 0.183594 0.824219
vt 0.183594 0.824219
vt 0.183594 0.824219
vt 0.433594 0.808594
vt 0.433594 0.808594
vt 0.433594 0.808594
vt 0.433594 0.808594
vt 0.433594 0.808594
vt 0.433594 0.808594
vt 0.433594 0.808594
vt 0.433594 0.808594
vt 0.433594 0.808594
vt 0.433594 0.808594
vt 0.433594 0.808594
vt 0.433594 0.808594
vt 0.433594 0.808594
vt 0.433594 0.808594
vt 0.433594 0.808594
vt 0.433594 0.808594
vt 0.433594 0.808594
vt 0.433594 0.808594
vt 0.433594 0.808594
vt 0.433594 0.808594
vt 0.433594 0.808594
vt 0.433594 0.808594
vt 0.433594 0.808594
vt 0.433594 0.808594
vt 0.433594 0.808594
vt 0.433594 0.808594
vt 0.433594 0.808594
vt 0.433594 0.808594
vt 0.433594 0.808594
vt 0.433594 0.808594
vt 0.433594 0.808594
vt 0.433594 0.808594
vt 0.433594 0.808594
vt 0.433594 0.808594
vt 0.433594 0.808594
vt 0.433594 0.808594
vt 0.183594 0.824219
vt 0.183594 0.824219
vt 0.183594 0.824219
vt 0.183594 0.824219
vt 0.183594 0.824219
vt 0.183594 0.824219
vt 0.183594 0.824219
vt 0.183594 0.824219
vt 0.183594 0.824219
vt 0.183594 0.824219
vt 0.183594 0.824219
vt 0.183594 0.824219
vt 0.183594 0.824219
vt 0.183594 0.824219
vt 0.183594 0.824219
vt 0.183594 0.824219
vt 0.183594 0.824219
vt 0.183594 0.824219
vt 0.183594 0.824219
vt 0.183594 0.824219
vt 0.183594 0.824219
vt 0.183594 0.824219
vt 0.183594 0.824219
vt 0.183594 0.824219
vt 0.183594 0.824219
vt 0.183594 0.824219
vt 0.183594 0.824219
vt 0.183594 0.824219
vt 0.183594 0.824219
vt 0.183594 0.824219
vt 0.183594 0.824219
vt 0.183594 0.824219
vt 0.183594 0.824219
vt 0.183594 0.824219
vt 0.183594 0.824219
vt 0.183594 0.824219
vt 0.183594 0.824219
vt 0.183594 0.824219
vt 0.183594 0.824219
vt 0.183594 0.824219
vt 0.183594 0.824219
vt 0.183594 0.824219
vt 0.183594 0.824219
vt 0.183594 0.824219
vt 0.183594 0.824219
vt 0.183594 0.824219
vt 0.183594 0.824219
vt 0.183594 0.824219
vt 0.183594 0.824219
vt 0.183594 0.824219
vt 0.183594 0.824219
vt 0.183594 0.824219
vt 0.183594 0.824219
vt 0.183594 0.824219
vt 0.183594 0.824219
vt 0.183594 0.824219
vt 0.183594 0.824219
vt 0.183594 0.824219
vt 0.183594 0.824219
vt 0.183594 0.824219
vt 0.183594 0.824219
vt 0.183594 0.824219
vt 0.183594 0.824219
vt 0.183594 0.824219
vt 0.183594 0.824219
vt 0.183594 0.824219
vt 0.183594 0.824219
vt 0.183594 0.824219
vt 0.183594 0.824219
vt 0.183594 0.824219
vt 0.183594 0.824219
vt 0.183594 0.824219
vt 0.183594 0.824219
vt 0.183594 0.824219
vt 0.183594 0.824219
vt 0.183594 0.824219
vt 0.183594 0.824219
vt 0.183594 0.824219
vt 0.183594 0.824219
vt 0.183594 0.824219
vt 0.183594 0.824219
vt 0.183594 0.824219
vt 0.183594 0.824219
vt 0.183594 0.824219
vt 0.183594 0.824219
vt 0.183594 0.824219
vt 0.183594 0.824219
vt 0.183594 0.824219
vt 0.183594 0.824219
vt 0.183594 0.824219
vt 0.183594 0.824219
vt 0.183594 0.824219
vn -0.9997 0.0185 -0.0129
vn 0.0293 -0.2013 0.9791
vn 1.0000 -0.0079 -0.0008
vn -0.0032 0.0030 -1.0000
vn -0.0351 0.9994 0.0016
vn -0.9974 -0.0365 -0.0625
vn 0.0355 -0.0052 0.9994
vn -0.1157 0.0114 0.9932
vn 0.0103 -0.9966 -0.0812
vn -0.9896 -0.0082 -0.1435
vn -0.0009 1.0000 0.0013
vn 0.0393 0.9992 0.0069
vn -0.0253 0.9996 0.0089
vn -0.0177 -0.0156 -0.9997
vn -0.0006 -0.0076 -1.0000
vn -0.0097 -0.0014 -1.0000
vn -0.0100 -0.2145 0.9767
vn -0.0338 -0.1714 0.9846
vn 0.0120 -0.1369 0.9905
vn 0.0181 0.0042 -0.9998
vn -0.0021 -0.0015 -1.0000
vn -0.0223 0.0054 -0.9997
vn -0.0156 0.0015 -0.9999
vn -0.0330 0.0118 -0.9994
vn -0.0381 -0.0059 -0.9993
vn 0.9999 0.0082 -0.0063
vn 0.9996 0.0172 0.0246
vn 0.0012 -1.0000 -0.0020
vn 0.9971 0.0244 -0.0723
vn -0.1490 -0.0015 0.9888
vn -0.0555 -0.0031 0.9985
vn 0.1268 -0.0044 0.9919
vn 0.0367 0.0174 0.9992
vn 0.0192 -0.9997 -0.0143
vn -0.0278 -0.9834 0.1792
vn 0.0119 0.0090 -0.9999
vn 0.0114 -0.0151 -0.9998
vn 0.9997 -0.0059 0.0236
vn 0.9993 0.0332 0.0169
vn -0.9999 -0.0095 -0.0093
vn -0.9974 -0.0691 -0.0194
vn -0.0089 -0.9978 -0.0663
vn 0.9662 0.0795 -0.2453
vn 0.9979 0.0316 -0.0560
vn 0.9723 -0.0224 0.2326
vn -0.1202 0.9920 0.0397
vn 0.9782 0.0088 -0.2075
vn -0.9950 -0.0325 0.0945
vn 0.0251 -0.9984 -0.0516
vn -0.9674 -0.0195 -0.2525
vn 0.9954 0.0131 -0.0948
vn -0.8249 -0.0132 -0.5651
vn -0.9982 -0.0340 0.0500
vn -0.0353 -0.9877 0.1526
vn -0.2500 -0.0107 0.9682
vn -0.0055 0.5076 0.8616
vn -0.0353 -0.0915 0.9952
vn 0.1025 0.0008 0.9947
vn -0.0553 0.0149 0.9984
vn 0.0138 -0.4554 0.8902
vn -0.0008 -0.0971 0.9953
vn -0.0012 0.0000 1.0000
vn 0.0748 -0.0072 0.9972
vn -0.0261 0.2682 0.9630
vn 0.0218 -0.0706 0.9973
vn 0.4020 0.0177 0.9155
vn 0.0064 -0.1947 0.9808
vn 0.0005 -0.0051 1.0000
vn 0.2087 0.0089 0.9779
vn 0.0165 -0.0184 0.9997
vn 0.0255 0.0124 0.9996
vn -0.0246 -0.0005 0.9997
vn 0.0156 -0.0012 0.9999
vn -0.0143 0.0067 0.9999
vn 0.0160 0.0044 0.9999
vn -0.0195 -0.0187 0.9996
vn -0.0127 0.0035 0.9999
vn 0.0027 -0.0073 1.0000
vn -0.0028 -0.0103 0.9999
vn -0.0034 -0.0083 1.0000
vn -0.0218 -0.0042 0.9998
vn 0.0016 -0.0053 1.0000
vn -0.0113 0.0001 0.9999
vn -0.9941 -0.0121 0.1077
vn -0.9852 -0.0319 0.1684
vn 0.1010 0.9245 0.3676
vn 0.9951 -0.0177 0.0974
vn -0.9998 -0.0048 -0.0171
vn 0.9930 0.0427 0.1102
vn -0.9866 -0.0325 0.1598
vn -0.9999 0.0130 -0.0056
vn 0.9737 0.0007 0.2280
vn -0.9791 -0.0820 0.1862
vn 0.9918 0.0430 0.1205
vn -0.9358 0.0157 0.3522
vn -0.9942 -0.0081 0.1071
vn -0.0066 -0.9914 0.1304
vn -0.9724 -0.0334 0.2309
vn -0.0715 0.9958 0.0573
vn -0.0261 -0.9394 0.3418
vn 0.9775 0.0234 -0.2096
vn -0.1988 0.9793 0.0386
vn -1.0000 -0.0000 0.0000
vn 0.0649 0.0000 0.9979
vn 1.0000 -0.0000 0.0000
vn -0.0000 0.0000 -1.0000
vn -0.0279 0.9996 -0.0095
vn 0.0489 -0.9965 -0.0682
vn 0.0437 -0.9989 -0.0147
vn -0.0631 -0.9971 -0.0424
vn -0.0320 0.9985 -0.0442
vn 0.0836 0.9961 -0.0274
vn -0.0395 0.0000 -0.9992
vn 0.0429 0.0000 -0.9991
vn 0.0276 -0.0000 0.9996
vn -0.0153 0.0000 0.9999
vn 0.1344 -0.0000 0.9909
vn -0.0417 0.0000 -0.9991
vn -0.1289 0.9911 -0.0338
vn -0.1057 -0.9921 -0.0679
vn 0.1479 -0.9889 0.0112
vn -0.0687 -0.9975 -0.0158
vn 0.1180 0.9920 -0.0440
vn 0.0919 0.9945 -0.0501
vn 0.0417 0.0000 -0.9991
vn 0.0693 0.0000 0.9976
vn -0.1059 0.0000 0.9944
vn 0.5346 -0.0832 0.8410
vn -0.0168 -0.0027 0.9999
vn 0.9891 -0.1462 0.0170
vn -0.9975 -0.0684 -0.0179
vn -0.0862 0.9963 0.0019
vn 0.0474 -0.9989 -0.0026
vn -0.0177 -0.0035 0.9998
vn -0.5671 -0.0417 0.8226
vn -0.0643 0.5833 0.8097
vn 0.0126 -0.5898 0.8074
vn 0.7746 -0.4483 -0.4461
vn 0.0000 -0.0025 -1.0000
vn -0.7746 0.4461 -0.4483
vn -0.7746 0.4483 0.4461
vn 0.0000 0.0025 1.0000
vn 0.7746 -0.4461 0.4483
vn 0.0000 -0.8956 -0.4450
vn -0.0000 0.8933 -0.4495
vn -0.0000 0.8956 0.4450
vn 0.0000 -0.8933 0.4495
vn -0.7746 -0.4483 -0.4461
vn 0.7746 0.4461 -0.4483
vn 0.7746 0.4483 0.4461
vn -0.7746 -0.4461 0.4483
vn 0.0000 -0.8956 -0.4449
usemtl NewMaterial
s off
f 26/1/1 2/2/1 4/3/1 27/4/1
f 13/5/2 24/6/2 12/7/2 7/8/2
f 29/9/3 8/10/3 6/11/3 31/12/3
f 41/13/4 21/14/4 2/2/4 26/1/4
f 13/5/5 7/8/5 5/15/5 18/16/5
f 36/17/6 35/18/6 88/19/6 86/20/6
f 33/21/7 27/4/7 4/3/7 9/22/7
f 29/9/8 36/17/8 10/23/8 8/10/8
f 12/7/9 24/6/9 84/24/9 85/25/9
f 35/18/10 12/7/10 85/25/10 88/19/10
f 3/26/11 15/27/11 16/28/11 1/29/11
f 15/27/12 14/30/12 17/31/12 16/28/12
f 14/30/13 13/5/13 18/16/13 17/31/13
f 31/12/14 6/11/14 19/32/14 37/33/14
f 37/33/15 19/32/15 20/34/15 39/35/15
f 39/35/16 20/34/16 21/14/16 41/13/16
f 3/26/17 11/36/17 22/37/17 15/27/17
f 15/27/18 22/37/18 23/38/18 14/30/18
f 14/30/19 23/38/19 24/6/19 13/5/19
f 17/31/20 40/39/20 42/40/20 16/28/20
f 40/39/21 39/35/21 41/13/21 42/40/21
f 18/16/22 38/41/22 40/39/22 17/31/22
f 38/41/23 37/33/23 39/35/23 40/39/23
f 5/15/24 32/42/24 38/41/24 18/16/24
f 32/42/25 31/12/25 37/33/25 38/41/25
f 11/36/26 34/43/26 62/44/26 63/45/26
f 34/43/27 33/21/27 68/46/27 62/44/27
f 4/3/28 2/2/28 21/14/28 20/34/28 19/32/28 6/11/28 8/10/28 10/23/28 83/47/28 82/48/28 76/49/28 70/50/28 64/51/28 9/22/28
f 33/21/29 9/22/29 64/51/29 68/46/29
f 7/8/30 12/7/30 35/18/30 30/52/30
f 30/52/31 35/18/31 36/17/31 29/9/31
f 11/36/32 3/26/32 28/53/32 34/43/32
f 34/43/33 28/53/33 27/4/33 33/21/33
f 24/6/34 23/38/34 78/54/34 84/24/34
f 23/38/35 22/37/35 72/55/35 78/54/35
f 16/28/36 42/40/36 25/56/36 1/29/36
f 42/40/37 41/13/37 26/1/37 25/56/37
f 7/8/38 30/52/38 32/42/38 5/15/38
f 30/52/39 29/9/39 31/12/39 32/42/39
f 1/29/40 25/56/40 28/53/40 3/26/40
f 25/56/41 26/1/41 27/4/41 28/53/41
f 77/57/42 44/58/42 118/59/42 117/60/42
f 55/61/43 60/62/43 91/63/43 89/64/43
f 56/65/44 61/66/44 103/67/44 101/68/44
f 60/62/45 54/69/45 112/70/45 91/63/45
f 47/71/46 73/72/46 115/73/46 116/74/46
f 61/66/47 53/75/47 108/76/47 103/67/47
f 67/77/48 65/78/48 109/79/48 90/80/48
f 71/81/49 43/82/49 114/83/49 113/84/49
f 45/85/50 57/86/50 102/87/50 104/88/50
f 52/89/51 55/61/51 89/64/51 110/90/51
f 57/86/52 50/91/52 106/92/52 102/87/52
f 10/23/53 36/17/53 86/20/53 83/47/53
f 22/37/54 11/36/54 63/45/54 72/55/54
f 45/85/55 46/93/55 63/94/55 62/95/55
f 51/96/56 50/91/56 64/97/56 70/98/56
f 46/93/57 53/75/57 72/99/57 63/94/57
f 50/91/58 57/86/58 68/100/58 64/97/58
f 57/86/59 45/85/59 62/95/59 68/100/59
f 52/89/60 65/78/60 70/98/60 76/101/60
f 66/102/61 54/69/61 78/103/61 72/99/61
f 51/96/62 70/98/62 65/78/62 67/77/62 69/104/62 66/102/62 72/99/62 53/75/62 61/66/62 56/65/62
f 52/89/63 76/101/63 71/81/63 74/105/63 75/106/63 73/72/63 78/103/63 54/69/63 60/62/63 55/61/63
f 43/82/64 71/81/64 76/101/64 82/107/64
f 73/72/65 47/71/65 84/108/65 78/103/65
f 43/82/66 82/107/66 77/57/66 80/109/66 81/110/66 79/111/66 84/108/66 47/71/66 59/112/66 95/113/66 93/114/66 114/83/66
f 44/58/67 77/57/67 82/107/67 83/115/67
f 79/111/68 48/116/68 85/117/68 84/108/68
f 49/118/69 44/58/69 83/115/69 86/119/69
f 48/116/70 58/120/70 88/121/70 85/117/70
f 58/120/71 49/118/71 86/119/71 88/121/71
f 103/122/72 108/123/72 105/124/72 104/125/72
f 99/126/73 120/127/73 119/128/73 100/129/73
f 95/130/74 116/131/74 115/132/74 96/133/74
f 91/134/75 112/135/75 111/136/75 92/137/75
f 110/138/76 89/139/76 90/140/76 109/141/76
f 89/139/77 91/134/77 92/137/77 90/140/77
f 114/142/78 93/143/78 94/144/78 113/145/78
f 93/143/79 95/130/79 96/133/79 94/144/79
f 118/146/80 97/147/80 98/148/80 117/149/80
f 97/147/81 99/126/81 156/150/81 155/151/81 154/152/81 153/153/81 100/129/81 98/148/81
f 107/154/82 101/155/82 102/156/82 106/157/82
f 101/155/83 103/122/83 104/125/83 102/156/83
f 74/105/84 71/81/84 113/84/84 94/158/84
f 66/102/85 69/104/85 92/159/85 111/160/85
f 48/116/86 79/111/86 119/161/86 120/162/86
f 59/112/87 47/71/87 116/74/87 95/113/87
f 69/104/88 67/77/88 90/80/88 92/159/88
f 44/58/89 49/118/89 97/163/89 118/59/89
f 80/109/90 77/57/90 117/60/90 98/164/90
f 73/72/91 75/106/91 96/165/91 115/73/91
f 58/120/92 48/116/92 120/162/92 99/166/92
f 75/106/93 74/105/93 94/158/93 96/165/93
f 49/118/94 58/120/94 99/166/94 97/163/94
f 46/93/95 45/85/95 104/88/95 105/167/95
f 79/111/96 81/110/96 100/168/96 119/161/96
f 50/91/97 51/96/97 107/169/97 106/92/97
f 81/110/98 80/109/98 98/164/98 100/168/98
f 53/75/99 46/93/99 105/167/99 108/76/99
f 65/78/100 52/89/100 110/90/100 109/79/100
f 51/96/101 56/65/101 101/68/101 107/169/101
f 54/69/102 66/102/102 111/160/102 112/70/102
f 121/170/103 122/171/103 124/172/103 123/173/103
f 129/174/104 132/175/104 128/176/104 127/177/104
f 127/177/105 128/176/105 126/178/105 125/179/105
f 133/180/106 136/181/106 122/171/106 121/170/106
f 129/174/107 127/177/107 125/179/107 134/182/107
f 131/183/108 124/172/108 122/171/108 136/181/108
f 128/176/109 132/175/109 135/184/109 126/178/109
f 132/175/110 131/183/110 136/181/110 135/184/110
f 123/173/111 130/185/111 133/180/111 121/170/111
f 130/185/112 129/174/112 134/182/112 133/180/112
f 125/179/113 126/178/113 135/184/113 134/182/113
f 134/182/114 135/184/114 136/181/114 133/180/114
f 123/173/115 124/172/115 131/183/115 130/185/115
f 130/185/116 131/183/116 132/175/116 129/174/116
f 137/186/103 138/187/103 140/188/103 139/189/103
f 145/190/117 148/191/117 144/192/117 143/193/117
f 143/193/105 144/192/105 142/194/105 141/195/105
f 149/196/118 152/197/118 138/187/118 137/186/118
f 145/190/119 143/193/119 141/195/119 150/198/119
f 147/199/120 140/188/120 138/187/120 152/197/120
f 144/192/121 148/191/121 151/200/121 142/194/121
f 148/191/122 147/199/122 152/197/122 151/200/122
f 139/189/123 146/201/123 149/196/123 137/186/123
f 146/201/124 145/190/124 150/198/124 149/196/124
f 141/195/106 142/194/106 151/200/106 150/198/106
f 150/198/125 151/200/125 152/197/125 149/196/125
f 139/189/126 140/188/126 147/199/126 146/201/126
f 146/201/127 147/199/127 148/191/127 145/190/127
f 159/202/128 160/203/128 164/204/128 163/205/128
f 100/129/129 153/153/129 156/150/129 99/126/129
f 155/206/130 156/207/130 160/203/130 159/202/130
f 153/208/131 154/209/131 158/210/131 157/211/131
f 156/207/132 153/208/132 157/211/132 160/203/132
f 154/209/133 155/206/133 159/202/133 158/210/133
f 161/212/134 162/213/134 163/205/134 164/204/134
f 157/211/135 158/210/135 162/213/135 161/212/135
f 160/203/136 157/211/136 161/212/136 164/204/136
f 158/210/137 159/202/137 163/205/137 162/213/137
f 165/214/138 171/215/138 172/216/138 166/217/138
f 166/217/139 172/216/139 173/218/139 167/219/139
f 167/219/140 173/218/140 174/220/140 168/221/140
f 168/221/141 174/220/141 175/222/141 169/223/141
f 169/223/142 175/222/142 176/224/142 170/225/142
f 170/225/143 176/224/143 171/215/143 165/214/143
f 171/215/144 177/226/144 178/227/144 172/216/144
f 172/216/139 178/227/139 179/228/139 173/218/139
f 173/218/145 179/228/145 180/229/145 174/220/145
f 174/220/146 180/229/146 181/230/146 175/222/146
f 175/222/142 181/230/142 182/231/142 176/224/142
f 176/224/147 182/231/147 177/226/147 171/215/147
f 177/226/148 183/232/148 184/233/148 178/227/148
f 178/227/139 184/233/139 185/234/139 179/228/139
f 179/228/149 185/234/149 186/235/149 180/229/149
f 180/229/150 186/235/150 187/236/150 181/230/150
f 181/230/142 187/236/142 188/237/142 182/231/142
f 182/231/151 188/237/151 183/232/151 177/226/151
f 183/232/140 189/238/140 190/239/140 184/233/140
f 184/233/139 190/239/139 191/240/139 185/234/139
f 185/234/138 191/240/138 192/241/138 186/235/138
f 186/235/143 192/241/143 193/242/143 187/236/143
f 187/236/142 193/242/142 194/243/142 188/237/142
f 188/237/141 194/243/141 189/238/141 183/232/141
f 189/238/145 195/244/145 196/245/145 190/239/145
f 190/239/139 196/245/139 197/246/139 191/240/139
f 191/240/152 197/246/152 198/247/152 192/241/152
f 192/241/147 198/247/147 199/248/147 193/242/147
f 193/242/142 199/248/142 200/249/142 194/243/142
f 194/243/146 200/249/146 195/244/146 189/238/146
f 195/244/149 165/214/149 166/217/149 196/245/149
f 196/245/139 166/217/139 167/219/139 197/246/139
f 197/246/148 167/219/148 168/221/148 198/247/148
f 198/247/151 168/221/151 169/223/151 199/248/151
f 199/248/142 169/223/142 170/225/142 200/249/142
f 200/249/150 170/225/150 165/214/150 195/244/150
l 80 87
