# Blender v2.90.1 OBJ File: 'Wood.blend'
# www.blender.org
mtllib Fence 1.mtl
o Fence_1_Cube.049
v -5.862694 0.094334 -0.428007
v -5.862694 -0.168394 -0.428007
v -5.862694 0.094334 0.481886
v -5.862694 -0.168395 0.481886
v 5.790992 0.094335 -0.461143
v 5.790992 -0.168394 -0.461143
v 5.790992 0.094334 0.448750
v 5.790992 -0.168395 0.448750
v 2.805479 0.094334 0.559320
v -0.107942 0.094334 0.559320
v -3.021363 0.094334 0.448750
v -3.021363 -0.168395 0.448750
v -0.107942 -0.168395 0.559320
v 2.805479 -0.168395 0.559320
v -3.021363 0.094335 -0.461143
v -0.107942 0.094334 -0.350573
v 2.805479 0.094334 -0.350573
v 2.805479 -0.168394 -0.350573
v -0.107942 -0.168394 -0.350573
v -3.021363 -0.168394 -0.461143
v -5.501745 -0.168394 -0.106264
v -5.501745 0.094334 -0.106264
v -5.291193 -0.168394 -0.203485
v -5.291193 0.094334 -0.203485
v -4.448148 -0.168394 -0.227684
v -4.448148 0.094334 -0.227684
v -5.693148 -0.168394 -0.282169
v -5.693148 0.094334 -0.282169
v -5.587343 -0.168394 -0.172676
v -5.587343 0.094334 -0.172676
v -5.862694 -0.168394 -0.132952
v -5.862694 0.094334 -0.132952
v -5.862694 -0.168394 -0.278340
v -5.862694 0.094334 -0.278340
v 5.017350 0.094334 0.217215
v 5.790992 0.094334 0.192430
v 5.790992 -0.168394 0.192430
v 5.017350 -0.168394 0.217215
v 4.904404 0.094334 0.047764
v 5.790992 0.094334 -0.065902
v 5.790992 -0.168394 -0.065902
v 4.904404 -0.168394 0.047764
v 4.307004 0.094334 0.148886
v 4.307004 -0.168394 0.148886
v 3.769164 0.094334 0.174455
v 3.769164 -0.168394 0.174455
v 4.527023 0.094334 0.043164
v 4.527023 -0.168394 0.043164
v 2.805479 0.094334 -0.015518
v 2.805479 0.094334 -0.072360
v 3.597311 0.094334 -0.145171
v 1.768666 0.094334 -0.192936
v 0.786396 0.094334 -0.111335
v 1.756722 0.094334 -0.139298
v 2.805479 0.073040 -0.015518
v 2.805479 0.073040 -0.072360
v 3.597311 0.073040 -0.145171
v 1.768666 0.073040 -0.192936
v 0.786396 0.073040 -0.111335
v 1.756722 0.073040 -0.139298
v -1.019759 0.094334 0.216844
v -1.756969 0.094334 0.080240
v -1.786644 0.094334 0.139701
v -2.376812 0.094334 0.261842
v -1.648745 0.094334 0.176964
v -1.019759 0.060304 0.216844
v -1.756969 0.060304 0.080240
v -1.786644 0.060304 0.139701
v -2.376812 0.060304 0.261842
v -1.648745 0.060304 0.176964
vt 0.410156 0.804688
vt 0.410156 0.804688
vt 0.410156 0.804688
vt 0.410156 0.804688
vt 0.410156 0.804688
vt 0.410156 0.804688
vt 0.410156 0.804688
vt 0.410156 0.804688
vt 0.410156 0.804688
vt 0.410156 0.804688
vt 0.410156 0.804688
vt 0.410156 0.804688
vt 0.410156 0.804688
vt 0.410156 0.804688
vt 0.410156 0.804688
vt 0.410156 0.804688
vt 0.410156 0.804688
vt 0.410156 0.804688
vt 0.410156 0.804688
vt 0.410156 0.804688
vt 0.410156 0.804688
vt 0.410156 0.804688
vt 0.410156 0.804688
vt 0.410156 0.804688
vt 0.410156 0.804688
vt 0.410156 0.804688
vt 0.410156 0.804688
vt 0.410156 0.804688
vt 0.410156 0.804688
vt 0.410156 0.804688
vt 0.410156 0.804688
vt 0.410156 0.804688
vt 0.410156 0.804688
vt 0.410156 0.804688
vt 0.410156 0.804688
vt 0.410156 0.804688
vt 0.410156 0.804688
vt 0.410156 0.804688
vt 0.410156 0.804688
vt 0.410156 0.804688
vt 0.410156 0.804688
vt 0.410156 0.804688
vt 0.410156 0.804688
vt 0.410156 0.804688
vt 0.410156 0.804688
vt 0.410156 0.804688
vt 0.410156 0.804688
vt 0.410156 0.804688
vt 0.410156 0.804688
vt 0.410156 0.804688
vt 0.410156 0.804688
vt 0.410156 0.804688
vt 0.410156 0.804688
vt 0.410156 0.804688
vt 0.410156 0.804688
vt 0.410156 0.804688
vt 0.410156 0.804688
vt 0.410156 0.804688
vt 0.296875 0.816406
vt 0.296875 0.816406
vt 0.296875 0.816406
vt 0.296875 0.816406
vt 0.296875 0.816406
vt 0.296875 0.816406
vt 0.296875 0.816406
vt 0.296875 0.816406
vt 0.296875 0.816406
vt 0.296875 0.816406
vt 0.296875 0.816406
vt 0.296875 0.816406
vt 0.296875 0.816406
vt 0.296875 0.816406
vt 0.316406 0.808594
vt 0.316406 0.808594
vt 0.316406 0.808594
vt 0.316406 0.808594
vt 0.316406 0.808594
vt 0.316406 0.808594
vt 0.316406 0.808594
vt 0.316406 0.808594
vt 0.316406 0.808594
vt 0.316406 0.808594
vt 0.316406 0.808594
vt 0.316406 0.808594
vt 0.316406 0.808594
vt 0.316406 0.808594
vt 0.308594 0.789062
vt 0.308594 0.789062
vt 0.308594 0.789062
vt 0.308594 0.789062
vt 0.308594 0.789062
vt 0.308594 0.789062
vt 0.308594 0.789062
vt 0.308594 0.789062
vt 0.308594 0.789062
vt 0.308594 0.789062
vt 0.308594 0.789062
vt 0.308594 0.789062
vt 0.308594 0.792969
vt 0.308594 0.792969
vt 0.308594 0.792969
vt 0.308594 0.792969
vt 0.308594 0.792969
vt 0.410156 0.804688
vt 0.410156 0.804688
vt 0.410156 0.804688
vt 0.308594 0.792969
vt 0.308594 0.792969
vt 0.308594 0.792969
vt 0.308594 0.792969
vt 0.308594 0.792969
vn -1.0000 -0.0000 0.0000
vn 0.0370 -0.0000 0.9993
vn 1.0000 -0.0000 0.0000
vn -0.0117 0.0000 -0.9999
vn -0.0000 1.0000 0.0000
vn -0.0000 -1.0000 -0.0000
vn -0.0370 0.0000 -0.9993
vn 0.0000 0.0000 -1.0000
vn 0.0379 0.0000 -0.9993
vn 0.0117 -0.0000 0.9999
vn -0.0379 -0.0000 0.9993
vn 0.0000 0.0000 1.0000
vn -0.1428 0.0000 -0.9898
vn -0.1145 0.0000 -0.9934
vn 0.0287 -0.0000 0.9996
vn -0.1921 -0.0000 0.9814
vn 0.6130 -0.0000 -0.7901
vn 0.0226 -0.0000 0.9997
vn 0.1272 -0.0000 0.9919
vn 0.1707 0.0000 0.9853
vn -0.0475 0.0000 -0.9989
vn 0.0957 0.0000 -0.9954
vn -0.0122 -0.0000 0.9999
vn -0.0320 0.0000 -0.9995
vn -0.1155 0.0000 0.9933
vn -0.0288 0.0000 -0.9996
vn 0.0916 0.0000 0.9958
vn 0.1172 0.0000 -0.9931
vn 0.0828 0.0000 0.9966
vn -0.1616 0.0000 -0.9869
vn 0.8948 0.0000 0.4465
vn 0.0633 0.0000 -0.9980
vn 0.2027 0.0000 0.9792
vn -0.1822 -0.0000 0.9833
vn -0.1158 0.0000 -0.9933
usemtl NewMaterial
s off
f 1/1/1 2/2/1 33/3/1 34/4/1
f 9/5/2 14/6/2 8/7/2 7/8/2
f 7/8/3 8/7/3 37/9/3 36/10/3
f 15/11/4 20/12/4 2/2/4 1/1/4
f 9/5/5 7/8/5 36/10/5 35/13/5 43/14/5 45/15/5 47/16/5 39/17/5 40/18/5 5/19/5 17/20/5 50/21/5 51/22/5 49/23/5
f 12/24/6 4/25/6 31/26/6 29/27/6 21/28/6 25/29/6 23/30/6 27/31/6 33/3/6 2/2/6 20/12/6
f 8/7/6 14/6/6 18/32/6 6/33/6 41/34/6 42/35/6 48/36/6 46/37/6 44/38/6 38/39/6 37/9/6
f 14/6/6 13/40/6 19/41/6 18/32/6
f 13/40/6 12/24/6 20/12/6 19/41/6
f 3/42/5 11/43/5 15/11/5 1/1/5 34/4/5 28/44/5 24/45/5 26/46/5 22/47/5 30/48/5 32/49/5
f 11/43/5 64/50/5 63/51/5 62/52/5 61/53/5 10/54/5 16/55/5 15/11/5
f 10/54/5 9/5/5 49/23/5 54/56/5 53/57/5 52/58/5 50/21/5 17/20/5 16/55/5
f 5/19/7 6/33/7 18/32/7 17/20/7
f 17/20/8 18/32/8 19/41/8 16/55/8
f 16/55/9 19/41/9 20/12/9 15/11/9
f 3/42/10 4/25/10 12/24/10 11/43/10
f 11/43/11 12/24/11 13/40/11 10/54/11
f 10/54/12 13/40/12 14/6/12 9/5/12
f 30/59/13 29/60/13 31/61/13 32/62/13
f 26/63/14 25/64/14 21/65/14 22/66/14
f 32/49/1 31/26/1 4/25/1 3/42/1
f 24/67/15 23/68/15 25/64/15 26/63/15
f 28/69/16 27/70/16 23/68/16 24/67/16
f 22/66/17 21/65/17 29/60/17 30/59/17
f 27/70/18 28/69/18 34/71/18 33/72/18
f 39/73/19 42/74/19 41/75/19 40/76/19
f 45/77/20 46/78/20 48/79/20 47/80/20
f 43/81/21 44/82/21 46/78/21 45/77/21
f 40/18/3 41/34/3 6/33/3 5/19/3
f 35/83/22 38/84/22 44/82/22 43/81/22
f 47/80/23 48/79/23 42/74/23 39/73/23
f 38/84/24 35/83/24 36/85/24 37/86/24
f 55/87/5 57/88/5 56/89/5
f 50/90/25 52/91/25 58/92/25 56/89/25
f 53/93/26 54/94/26 60/95/26 59/96/26
f 56/89/5 58/92/5 59/96/5 60/95/5 55/87/5
f 51/97/27 50/90/27 56/89/27 57/88/27
f 54/94/28 49/98/28 55/87/28 60/95/28
f 52/91/29 53/93/29 59/96/29 58/92/29
f 49/98/30 51/97/30 57/88/30 55/87/30
f 70/99/5 66/100/5 67/101/5 68/102/5 69/103/5
f 10/54/5 61/53/5 65/104/5 64/50/5 11/43/5
f 62/52/31 63/51/31 68/105/31 67/106/31
f 65/107/32 61/108/32 66/100/32 70/99/32
f 63/109/33 64/110/33 69/103/33 68/102/33
f 61/108/34 62/111/34 67/101/34 66/100/34
f 64/110/35 65/107/35 70/99/35 69/103/35
