# Blender v2.90.1 OBJ File: 'Wood.blend'
# www.blender.org
mtllib Fence3.mtl
o Fence_3_Cube.051
v -6.021437 0.090863 -0.402465
v -6.021437 -0.171865 -0.402465
v -6.021437 0.090862 0.443677
v -6.021437 -0.171866 0.443677
v 5.632248 0.090863 -0.433280
v 5.632248 -0.171865 -0.433280
v 5.632248 0.090862 0.412863
v 5.632248 -0.171866 0.412863
v 2.646735 0.090862 0.482839
v -0.266686 0.090862 0.442839
v -3.180108 0.090862 0.412863
v -3.180108 -0.171866 0.412863
v -0.266686 -0.171866 0.442839
v 2.646735 -0.171866 0.482839
v -3.180108 0.090863 -0.433280
v -0.266686 0.090863 -0.403304
v 2.646735 0.090863 -0.363304
v 2.646735 -0.171865 -0.363304
v -0.266686 -0.171865 -0.403304
v -3.180108 -0.171865 -0.433280
v -5.660488 -0.171866 -0.021653
v -5.660488 0.090863 -0.021653
v -5.449937 -0.171866 -0.081884
v -5.449937 0.090863 -0.081884
v -4.606892 -0.171866 0.025964
v -4.606892 0.090863 0.025964
v -6.021437 -0.171866 0.061187
v -6.021437 0.090863 0.061187
v -6.021437 -0.171866 -0.054271
v -6.021437 0.090863 -0.054271
v 5.632248 0.090863 -0.017784
v 5.632248 -0.171866 -0.017785
v 5.331099 0.090863 -0.199732
v 5.632248 0.090863 -0.108410
v 5.632248 -0.171866 -0.108410
v 5.331099 -0.171866 -0.199732
v 5.094447 0.090863 -0.116640
v 5.094447 -0.171866 -0.116640
v 4.614389 0.090863 -0.036980
v 4.614389 -0.171866 -0.036980
v 4.368279 0.090863 -0.051541
v 4.368279 -0.171866 -0.051541
v 1.614842 0.090863 -0.044102
v 1.614842 0.090863 -0.120766
v 1.892124 0.090863 0.041854
v 1.164328 0.090863 0.020130
v 0.627652 0.090863 -0.107980
v 1.153194 0.090863 0.112201
v 1.614842 0.069568 -0.044102
v 1.614842 0.069568 -0.120766
v 1.892124 0.069568 0.041854
v 1.164328 0.069568 0.020130
v 0.627652 0.069568 -0.107980
v 1.153194 0.069568 0.112201
v -1.178503 0.090863 -0.090197
v -1.492798 0.090863 0.070172
v -1.945389 0.090863 0.161818
v -2.535556 0.090863 0.239051
v -1.448743 0.090863 0.160119
v -1.178503 0.056832 -0.090197
v -1.492798 0.056832 0.070172
v -1.945389 0.056832 0.161818
v -2.535556 0.056832 0.239051
v -1.448743 0.056832 0.160119
vt 0.429688 0.800781
vt 0.429688 0.800781
vt 0.429688 0.800781
vt 0.429688 0.800781
vt 0.429688 0.800781
vt 0.429688 0.800781
vt 0.429688 0.800781
vt 0.429688 0.800781
vt 0.429688 0.800781
vt 0.429688 0.800781
vt 0.429688 0.800781
vt 0.429688 0.800781
vt 0.429688 0.800781
vt 0.429688 0.800781
vt 0.429688 0.800781
vt 0.429688 0.800781
vt 0.429688 0.800781
vt 0.429688 0.800781
vt 0.429688 0.800781
vt 0.429688 0.800781
vt 0.429688 0.800781
vt 0.429688 0.800781
vt 0.429688 0.800781
vt 0.429688 0.800781
vt 0.429688 0.800781
vt 0.429688 0.800781
vt 0.429688 0.800781
vt 0.429688 0.800781
vt 0.429688 0.800781
vt 0.429688 0.800781
vt 0.429688 0.800781
vt 0.429688 0.800781
vt 0.429688 0.800781
vt 0.429688 0.800781
vt 0.429688 0.800781
vt 0.429688 0.800781
vt 0.429688 0.800781
vt 0.429688 0.800781
vt 0.429688 0.800781
vt 0.429688 0.800781
vt 0.429688 0.800781
vt 0.429688 0.800781
vt 0.429688 0.800781
vt 0.429688 0.800781
vt 0.429688 0.800781
vt 0.429688 0.800781
vt 0.429688 0.800781
vt 0.289063 0.816406
vt 0.289063 0.816406
vt 0.289063 0.816406
vt 0.289063 0.816406
vt 0.289063 0.816406
vt 0.289063 0.816406
vt 0.289063 0.816406
vt 0.289063 0.816406
vt 0.289063 0.816406
vt 0.289063 0.816406
vt 0.292969 0.816406
vt 0.292969 0.816406
vt 0.292969 0.816406
vt 0.292969 0.816406
vt 0.292969 0.816406
vt 0.292969 0.816406
vt 0.292969 0.816406
vt 0.292969 0.816406
vt 0.292969 0.816406
vt 0.292969 0.816406
vt 0.429688 0.800781
vt 0.292969 0.816406
vt 0.292969 0.816406
vt 0.289063 0.816406
vt 0.289063 0.816406
vt 0.289063 0.816406
vt 0.289063 0.816406
vt 0.289063 0.816406
vt 0.289063 0.816406
vt 0.289063 0.816406
vt 0.289063 0.816406
vt 0.289063 0.816406
vt 0.289063 0.816406
vt 0.289063 0.816406
vt 0.289063 0.816406
vt 0.296875 0.820312
vt 0.296875 0.820312
vt 0.296875 0.820312
vt 0.296875 0.820312
vt 0.296875 0.820312
vt 0.429688 0.800781
vt 0.296875 0.820312
vt 0.296875 0.820312
vt 0.296875 0.820312
vt 0.296875 0.820312
vt 0.296875 0.820312
vt 0.429688 0.800781
vt 0.429688 0.800781
vt 0.429688 0.800781
vt 0.429688 0.800781
vn -1.0000 -0.0000 0.0000
vn 0.0234 -0.0000 0.9997
vn 1.0000 0.0000 0.0000
vn -0.0108 0.0000 -0.9999
vn -0.0000 1.0000 0.0000
vn -0.0000 -1.0000 -0.0000
vn -0.0234 0.0000 -0.9997
vn 0.0137 0.0000 -0.9999
vn 0.0103 0.0000 -0.9999
vn 0.0108 -0.0000 0.9999
vn -0.0103 -0.0000 0.9999
vn -0.0137 0.0000 0.9999
vn 0.0451 0.0000 -0.9990
vn -0.1269 -0.0000 0.9919
vn 0.0483 -0.0000 0.9988
vn -0.2237 0.0000 -0.9747
vn -0.2902 -0.0000 0.9570
vn 0.0591 0.0000 -0.9983
vn -0.1637 0.0000 -0.9865
vn 0.1808 0.0000 -0.9835
vn 0.1521 0.0000 0.9884
vn 0.2985 0.0000 0.9544
vn 0.3864 0.0000 -0.9223
vn -0.5059 0.0000 0.8626
vn -0.3207 0.0000 -0.9472
vn -0.2322 0.0000 0.9727
vn 0.2961 0.0000 -0.9552
vn 0.1985 0.0000 0.9801
vn -0.6795 0.0000 -0.7336
vn 0.1298 0.0000 0.9915
vn 0.4545 0.0000 0.8907
vn -0.0724 0.0000 -0.9974
usemtl NewMaterial
s off
f 1/1/1 2/2/1 29/3/1 30/4/1
f 9/5/2 14/6/2 8/7/2 7/8/2
f 7/8/3 8/7/3 32/9/3 31/10/3
f 15/11/4 20/12/4 2/2/4 1/1/4
f 9/5/5 17/13/5 44/14/5 45/15/5 43/16/5
f 12/17/6 4/18/6 27/19/6 21/20/6 25/21/6 23/22/6 29/3/6 2/2/6 20/12/6
f 8/7/6 14/6/6 18/23/6 6/24/6 35/25/6 36/26/6 42/27/6 40/28/6 38/29/6 32/9/6
f 14/6/6 13/30/6 19/31/6 18/23/6
f 13/30/6 12/17/6 20/12/6 19/31/6
f 3/32/5 11/33/5 15/11/5 1/1/5 30/4/5 24/34/5 26/35/5 22/36/5 28/37/5
f 11/33/5 58/38/5 57/39/5 56/40/5 55/41/5 10/42/5 16/43/5 15/11/5
f 10/42/5 9/5/5 43/16/5 48/44/5 47/45/5 46/46/5 44/14/5 17/13/5 16/43/5
f 5/47/7 6/24/7 18/23/7 17/13/7
f 17/13/8 18/23/8 19/31/8 16/43/8
f 16/43/9 19/31/9 20/12/9 15/11/9
f 3/32/10 4/18/10 12/17/10 11/33/10
f 11/33/11 12/17/11 13/30/11 10/42/11
f 10/42/12 13/30/12 14/6/12 9/5/12
f 26/48/13 25/49/13 21/50/13 22/51/13
f 28/37/1 27/19/1 4/18/1 3/32/1
f 24/52/14 23/53/14 25/49/14 26/48/14
f 30/54/15 29/55/15 23/53/15 24/52/15
f 22/51/16 21/50/16 27/56/16 28/57/16
f 33/58/17 36/59/17 35/60/17 34/61/17
f 39/62/18 40/63/18 42/64/18 41/65/18
f 37/66/19 38/67/19 40/63/19 39/62/19
f 34/68/3 35/25/3 6/24/3 5/47/3
f 31/69/20 32/70/20 38/67/20 37/66/20
f 41/65/21 42/64/21 36/59/21 33/58/21
f 49/71/5 51/72/5 50/73/5
f 44/74/22 46/75/22 52/76/22 50/73/22
f 47/77/23 48/78/23 54/79/23 53/80/23
f 50/73/5 52/76/5 53/80/5 54/79/5 49/71/5
f 45/81/24 44/74/24 50/73/24 51/72/24
f 48/78/25 43/82/25 49/71/25 54/79/25
f 46/75/26 47/77/26 53/80/26 52/76/26
f 43/82/27 45/81/27 51/72/27 49/71/27
f 64/83/5 60/84/5 61/85/5 62/86/5 63/87/5
f 10/42/5 55/41/5 59/88/5 58/38/5 11/33/5
f 56/89/28 57/90/28 62/86/28 61/85/28
f 59/91/29 55/92/29 60/84/29 64/83/29
f 57/90/30 58/93/30 63/87/30 62/86/30
f 55/92/31 56/89/31 61/85/31 60/84/31
f 58/93/32 59/91/32 64/83/32 63/87/32
f 17/13/5 9/5/5 7/8/5 31/10/5 37/94/5 39/95/5 41/96/5 33/97/5 34/68/5 5/47/5
