# Blender v2.90.1 OBJ File: 'Wood.blend'
# www.blender.org
mtllib FireLogs.mtl
o Cube.024_Cube.121
v -0.097381 1.929242 -0.063145
v 0.199614 2.231781 -0.179212
v 2.424965 -1.079093 -1.142253
v 2.831920 -0.664540 -1.301293
v 0.073603 1.929242 0.374374
v 0.370598 2.231781 0.258307
v 2.659255 -1.079093 -0.542746
v 3.066210 -0.664540 -0.701785
v 1.579069 -0.099402 -0.728782
v 0.750190 0.949555 -0.472339
v 1.083838 1.289433 -0.602730
v 1.949371 0.277813 -0.873498
v 0.942276 0.949555 0.019176
v 1.792257 -0.099402 -0.183271
v 2.162559 0.277812 -0.327987
v 1.275924 1.289432 -0.111215
v 0.296249 -0.538065 -0.441278
v 0.269443 -0.279178 -0.419825
v -1.905062 -0.966230 1.386602
v -1.941793 -0.611492 1.415997
v 0.121863 -0.538065 -0.659179
v 0.095058 -0.279178 -0.637726
v -2.144013 -0.966230 1.088025
v -2.180744 -0.611492 1.117420
v -1.187147 -0.843265 0.753304
v -0.423372 -0.661027 0.189889
v -0.453486 -0.370190 0.213989
v -1.220569 -0.520477 0.780052
v -0.619280 -0.661027 -0.054904
v -1.404576 -0.843265 0.481619
v -1.437998 -0.520478 0.508367
v -0.649394 -0.370190 -0.030804
v 0.263910 -0.497333 0.383617
v 0.263910 -0.229310 0.342851
v 0.210276 -0.998431 -2.577177
v 0.210276 -0.631176 -2.633036
v 0.553635 -0.497332 0.383617
v 0.553635 -0.229310 0.342851
v 0.607269 -0.998431 -2.577177
v 0.607269 -0.631176 -2.633036
v 0.257894 -0.851852 -1.587135
v 0.219126 -0.643909 -0.606426
v 0.219126 -0.342808 -0.652223
v 0.257894 -0.517674 -1.637963
v 0.544606 -0.643908 -0.606426
v 0.619130 -0.851852 -1.587135
v 0.619130 -0.517674 -1.637963
v 0.544606 -0.342809 -0.652223
v -0.542420 -0.847384 -0.604831
v -0.542420 -0.558410 -0.604831
v 2.490583 -0.900880 0.418203
v 2.490583 -0.504915 0.418203
v -0.646333 -0.847384 -0.314017
v -0.646333 -0.558410 -0.314017
v 2.348197 -0.900880 0.816688
v 2.348197 -0.504915 0.816688
v 1.468915 -0.905100 0.107043
v 0.478231 -0.843160 -0.290827
v 0.478231 -0.518522 -0.290827
v 1.468915 -0.544799 0.107043
v 0.361494 -0.843160 0.035877
v 1.339354 -0.905100 0.469638
v 1.339354 -0.544799 0.469638
v 0.361494 -0.518522 0.035877
v -0.504792 1.915948 0.581453
v -0.504792 2.248080 0.293536
v -0.591752 -1.334215 -3.043597
v -0.591752 -0.879114 -3.438113
v -0.035049 1.915948 0.581453
v -0.035049 2.248080 0.293536
v 0.051910 -1.334215 -3.043597
v 0.051910 -0.879114 -3.438113
v -0.514547 -0.276173 -1.813275
v -0.577403 0.857911 -0.648872
v -0.577403 1.231032 -0.972322
v -0.514547 0.137938 -2.172258
v -0.049687 0.857911 -0.648872
v 0.071142 -0.276173 -1.813274
v 0.071142 0.137938 -2.172258
v -0.049687 1.231032 -0.972323
v -0.294038 0.628546 -0.050011
v -0.434938 0.982227 -0.269703
v -1.631585 -1.502818 -2.460644
v -1.824651 -1.018189 -2.761675
v 0.115612 0.649547 -0.278930
v -0.025287 1.003229 -0.498622
v -1.070264 -1.474041 -2.774318
v -1.263331 -0.989412 -3.075350
v -0.962168 -0.543771 -1.333163
v -0.447154 0.489991 -0.187725
v -0.605443 0.887322 -0.434530
v -1.137845 -0.102791 -1.607081
v 0.013053 0.513584 -0.444895
v -0.451404 -0.517586 -1.618585
v -0.627082 -0.076606 -1.892504
v -0.145236 0.910915 -0.691701
v -0.151644 1.298265 -0.010377
v -0.076144 1.611636 -0.309218
v 1.355273 -1.563921 -2.511330
v 1.458725 -1.134526 -2.920815
v 0.273033 1.373469 0.175775
v 0.348533 1.686840 -0.123067
v 1.937183 -1.460874 -2.256257
v 2.040636 -1.031479 -2.665743
v 0.788904 -0.448307 -1.475118
v 0.113198 0.716632 -0.562830
v 0.198015 1.068678 -0.898553
v 0.883039 -0.057586 -1.847721
v 0.590286 0.801117 -0.353705
v 1.318404 -0.354541 -1.243019
v 1.412539 0.036179 -1.615623
v 0.675103 1.153162 -0.689428
v 0.339100 1.596790 0.519929
v 0.053687 1.928922 0.557818
v -3.242980 -1.653373 1.083179
v -3.634065 -1.198272 1.135096
v 0.277284 1.596790 0.054271
v -0.008130 1.928922 0.092160
v -3.327683 -1.653373 0.445114
v -3.718769 -1.198272 0.497032
v -2.033517 -0.595331 0.844738
v -0.870970 0.538752 0.753816
v -1.191607 0.911874 0.796381
v -2.389378 -0.181220 0.891979
v -0.940416 0.538753 0.230689
v -2.110592 -0.595331 0.264143
v -2.466454 -0.181220 0.311384
v -1.261053 0.911874 0.273255
v 0.259911 1.929241 0.118161
v 0.521867 2.231781 0.299976
v 2.562176 -1.079094 1.610234
v 2.921120 -0.664541 1.859365
v -0.007930 1.929241 0.504062
v 0.254026 2.231781 0.685877
v 2.195169 -1.079094 2.139012
v 2.554112 -0.664541 2.388143
v 1.747271 -0.099404 1.138614
v 1.072201 0.949554 0.593558
v 1.366486 1.289431 0.797811
v 2.073884 0.277811 1.365306
v 0.771305 0.949554 1.027084
v 1.413319 -0.099404 1.619766
v 1.739933 0.277811 1.846458
v 1.065590 1.289431 1.231338
v 0.222531 1.186761 0.049431
v 0.344117 1.517335 0.312387
v 0.964292 -1.542795 3.001887
v 1.130894 -1.089828 3.362200
v -0.222026 1.236129 0.192925
v -0.100439 1.566702 0.455880
v 0.355140 -1.475150 3.198508
v 0.521743 -1.022183 3.558820
v 0.618683 -0.483703 1.819524
v 0.433463 0.636356 0.654581
v 0.570055 1.007727 0.949989
v 0.770280 -0.071534 2.147384
v -0.065958 0.691816 0.815783
v 0.064396 -0.422150 1.998435
v 0.215993 -0.009981 2.326296
v 0.070633 1.063187 1.111191
v -0.164726 0.827077 0.340741
v -0.403181 1.186397 0.255676
v -3.050587 -1.571859 -1.282401
v -3.377328 -1.079503 -1.398961
v 0.048207 0.869777 -0.075786
v -0.190248 1.229098 -0.160850
v -2.758817 -1.513348 -1.853145
v -3.085558 -1.020992 -1.969704
v -1.864440 -0.647173 -0.668304
v -0.796377 0.347048 0.050512
v -1.064260 0.750713 -0.045051
v -2.161752 -0.199162 -0.774365
v -0.557165 0.395019 -0.417420
v -1.598949 -0.593932 -1.187642
v -1.896261 -0.145922 -1.293703
v -0.825049 0.798684 -0.512983
v 0.263035 0.820527 0.352975
v 0.118705 1.174208 0.570429
v -1.404651 -1.310838 2.548198
v -1.602419 -0.826208 2.846162
v -0.111495 0.841528 0.070231
v -0.255825 1.195210 0.287685
v -1.917849 -1.282060 2.160769
v -2.115616 -0.797431 2.458734
v -0.642309 -0.351790 1.481349
v 0.198660 0.681972 0.548591
v 0.036518 1.079302 0.792881
v -0.822264 0.089190 1.752476
v -0.222093 0.705565 0.230952
v -1.109285 -0.325605 1.128815
v -1.289239 0.115375 1.399942
v -0.384235 1.102896 0.475243
v 1.260235 -0.471595 -0.038892
v 1.233429 -0.212708 -0.017439
v -0.247055 -0.878271 2.396869
v -0.283786 -0.523533 2.426264
v 1.026694 -0.483150 -0.191260
v 0.999888 -0.224263 -0.169808
v -0.567064 -0.894105 2.188087
v -0.603794 -0.539367 2.217483
v 0.233448 -0.763655 1.567671
v 0.777447 -0.586321 0.788816
v 0.747333 -0.295483 0.812916
v 0.200025 -0.440867 1.594419
v 0.515084 -0.599302 0.617643
v -0.057738 -0.778063 1.377694
v -0.091161 -0.455275 1.404442
v 0.484970 -0.308465 0.641743
vt 0.437500 0.816406
vt 0.437500 0.816406
vt 0.437500 0.816406
vt 0.437500 0.816406
vt 0.437500 0.816406
vt 0.437500 0.816406
vt 0.437500 0.816406
vt 0.437500 0.816406
vt 0.437500 0.816406
vt 0.437500 0.816406
vt 0.437500 0.816406
vt 0.437500 0.816406
vt 0.437500 0.816406
vt 0.437500 0.816406
vt 0.437500 0.816406
vt 0.437500 0.816406
vt 0.437500 0.816406
vt 0.437500 0.816406
vt 0.437500 0.816406
vt 0.437500 0.816406
vt 0.437500 0.816406
vt 0.437500 0.816406
vt 0.437500 0.816406
vt 0.437500 0.816406
vt 0.437500 0.816406
vt 0.437500 0.816406
vt 0.437500 0.816406
vt 0.437500 0.816406
vt 0.437500 0.816406
vt 0.437500 0.816406
vt 0.437500 0.816406
vt 0.437500 0.816406
vt 0.437500 0.816406
vt 0.437500 0.816406
vt 0.437500 0.816406
vt 0.437500 0.816406
vt 0.437500 0.816406
vt 0.437500 0.816406
vt 0.437500 0.816406
vt 0.437500 0.816406
vt 0.437500 0.816406
vt 0.437500 0.816406
vt 0.437500 0.816406
vt 0.437500 0.816406
vt 0.437500 0.816406
vt 0.437500 0.816406
vt 0.437500 0.816406
vt 0.437500 0.816406
vt 0.437500 0.816406
vt 0.437500 0.816406
vt 0.437500 0.816406
vt 0.437500 0.816406
vt 0.437500 0.816406
vt 0.437500 0.816406
vt 0.437500 0.816406
vt 0.437500 0.816406
vt 0.437500 0.816406
vt 0.437500 0.816406
vt 0.437500 0.816406
vt 0.437500 0.816406
vt 0.437500 0.816406
vt 0.437500 0.816406
vt 0.437500 0.816406
vt 0.437500 0.816406
vt 0.437500 0.816406
vt 0.437500 0.816406
vt 0.437500 0.816406
vt 0.437500 0.816406
vt 0.437500 0.816406
vt 0.437500 0.816406
vt 0.437500 0.816406
vt 0.437500 0.816406
vt 0.437500 0.816406
vt 0.437500 0.816406
vt 0.437500 0.816406
vt 0.437500 0.816406
vt 0.437500 0.816406
vt 0.437500 0.816406
vt 0.437500 0.816406
vt 0.437500 0.816406
vt 0.437500 0.816406
vt 0.437500 0.816406
vt 0.437500 0.816406
vt 0.437500 0.816406
vt 0.437500 0.816406
vt 0.437500 0.816406
vt 0.437500 0.816406
vt 0.437500 0.816406
vt 0.437500 0.816406
vt 0.437500 0.816406
vt 0.437500 0.816406
vt 0.437500 0.816406
vt 0.437500 0.816406
vt 0.437500 0.816406
vt 0.437500 0.816406
vt 0.437500 0.816406
vt 0.437500 0.816406
vt 0.437500 0.816406
vt 0.437500 0.816406
vt 0.437500 0.816406
vt 0.437500 0.816406
vt 0.437500 0.816406
vt 0.437500 0.816406
vt 0.437500 0.816406
vt 0.437500 0.816406
vt 0.437500 0.816406
vt 0.437500 0.816406
vt 0.437500 0.816406
vt 0.437500 0.816406
vt 0.437500 0.816406
vt 0.437500 0.816406
vt 0.437500 0.816406
vt 0.437500 0.816406
vt 0.437500 0.816406
vt 0.437500 0.816406
vt 0.437500 0.816406
vt 0.437500 0.816406
vt 0.437500 0.816406
vt 0.437500 0.816406
vt 0.437500 0.816406
vt 0.437500 0.816406
vt 0.437500 0.816406
vt 0.437500 0.816406
vt 0.437500 0.816406
vt 0.437500 0.816406
vt 0.437500 0.816406
vt 0.437500 0.816406
vt 0.437500 0.816406
vt 0.437500 0.816406
vt 0.437500 0.816406
vt 0.437500 0.816406
vt 0.437500 0.816406
vt 0.437500 0.816406
vt 0.437500 0.816406
vt 0.437500 0.816406
vt 0.437500 0.816406
vt 0.437500 0.816406
vt 0.437500 0.816406
vt 0.437500 0.816406
vt 0.437500 0.816406
vt 0.437500 0.816406
vt 0.437500 0.816406
vt 0.437500 0.816406
vt 0.437500 0.816406
vt 0.437500 0.816406
vt 0.437500 0.816406
vt 0.437500 0.816406
vt 0.437500 0.816406
vt 0.437500 0.816406
vt 0.437500 0.816406
vt 0.437500 0.816406
vt 0.437500 0.816406
vt 0.437500 0.816406
vt 0.437500 0.816406
vt 0.437500 0.816406
vt 0.437500 0.816406
vt 0.437500 0.816406
vt 0.437500 0.816406
vt 0.437500 0.816406
vt 0.437500 0.816406
vt 0.437500 0.816406
vt 0.437500 0.816406
vt 0.437500 0.816406
vt 0.437500 0.816406
vt 0.437500 0.816406
vt 0.437500 0.816406
vt 0.437500 0.816406
vt 0.437500 0.816406
vt 0.437500 0.816406
vt 0.437500 0.816406
vt 0.437500 0.816406
vt 0.437500 0.816406
vt 0.437500 0.816406
vt 0.437500 0.816406
vt 0.437500 0.816406
vt 0.437500 0.816406
vt 0.437500 0.816406
vt 0.437500 0.816406
vt 0.437500 0.816406
vt 0.437500 0.816406
vt 0.437500 0.816406
vt 0.437500 0.816406
vt 0.437500 0.816406
vt 0.437500 0.816406
vt 0.437500 0.816406
vt 0.437500 0.816406
vt 0.437500 0.816406
vt 0.437500 0.816406
vt 0.437500 0.816406
vt 0.437500 0.816406
vt 0.437500 0.816406
vt 0.437500 0.816406
vt 0.437500 0.816406
vt 0.437500 0.816406
vt 0.437500 0.816406
vt 0.437500 0.816406
vt 0.437500 0.816406
vt 0.437500 0.816406
vt 0.437500 0.816406
vt 0.437500 0.816406
vt 0.437500 0.816406
vt 0.437500 0.816406
vt 0.437500 0.816406
vt 0.437500 0.816406
vt 0.437500 0.816406
vt 0.437500 0.816406
vt 0.437500 0.816406
vt 0.437500 0.816406
vn -0.3998 0.0412 -0.9157
vn 0.6411 -0.7254 -0.2505
vn 0.3709 -0.0078 0.9286
vn -0.6411 0.7254 0.2505
vn -0.6726 -0.6917 0.2629
vn 0.6464 0.7200 -0.2526
vn 0.6943 0.6666 -0.2713
vn -0.7185 -0.6364 0.2808
vn 0.3730 -0.0103 0.9278
vn 0.3057 0.0644 0.9500
vn -0.3977 0.0388 -0.9167
vn -0.3339 -0.0336 -0.9420
vn 0.6609 0.0062 0.7504
vn -0.7740 -0.1315 0.6194
vn -0.6318 -0.0012 -0.7751
vn 0.7740 0.1315 -0.6194
vn 0.0996 -0.9918 -0.0797
vn -0.0737 0.9955 0.0589
vn -0.1217 0.9878 0.0974
vn 0.1473 -0.9820 -0.1179
vn -0.6340 -0.0016 -0.7734
vn -0.5656 0.0098 -0.8246
vn 0.6588 0.0059 0.7523
vn 0.5944 -0.0051 0.8041
vn -0.9989 0.0071 0.0470
vn -0.0000 -0.1504 -0.9886
vn 1.0000 -0.0014 -0.0089
vn 0.0000 0.1504 0.9886
vn 0.0000 -0.9892 0.1465
vn -0.0000 0.9936 -0.1133
vn 0.0000 0.9846 -0.1747
vn 0.0000 -0.9783 0.2074
vn 0.9999 -0.0018 -0.0117
vn 0.9972 0.0112 0.0734
vn -0.9990 0.0067 0.0442
vn -0.9993 -0.0058 -0.0383
vn 0.2913 -0.0000 -0.9566
vn 0.9417 0.0000 0.3365
vn -0.3280 -0.0000 0.9447
vn -0.9417 -0.0000 -0.3365
vn 0.0037 -1.0000 0.0013
vn -0.0352 0.9993 -0.0126
vn 0.0232 0.9997 0.0083
vn -0.0546 -0.9983 -0.0195
vn -0.3253 -0.0000 0.9456
vn -0.4055 -0.0000 0.9141
vn 0.2940 0.0000 -0.9558
vn 0.3727 0.0000 -0.9280
vn -0.9989 0.0311 0.0359
vn 0.0000 -0.6550 -0.7556
vn 1.0000 -0.0059 -0.0068
vn 0.0000 0.6550 0.7556
vn 0.0000 -0.7582 0.6520
vn -0.0000 0.7796 -0.6263
vn 0.0000 0.7393 -0.6734
vn 0.0000 -0.7164 0.6977
vn 0.9999 -0.0078 -0.0090
vn 0.9972 0.0486 0.0561
vn -0.9990 0.0293 0.0338
vn -0.9993 -0.0254 -0.0292
vn -0.8535 -0.0165 0.5208
vn -0.3698 -0.5921 -0.7160
vn 0.8476 0.0082 -0.5305
vn 0.3698 0.5921 0.7160
vn 0.3104 -0.8204 0.4802
vn -0.2189 0.9262 -0.3068
vn -0.3065 0.8262 -0.4727
vn -0.3296 0.7898 -0.5173
vn 0.3191 -0.8070 0.4970
vn 0.3414 -0.7690 0.5405
vn 0.8676 0.0377 -0.4958
vn 0.8971 0.0886 -0.4328
vn -0.7257 0.1305 0.6755
vn -0.8857 -0.0676 0.4592
vn -0.9216 -0.1275 -0.3665
vn 0.3914 -0.6827 -0.6170
vn 0.9107 0.1482 0.3855
vn -0.3914 0.6827 0.6170
vn -0.1688 -0.7181 0.6751
vn 0.1432 0.7602 -0.6337
vn 0.1570 0.7379 -0.6563
vn 0.1813 0.6959 -0.6949
vn -0.1702 -0.7156 0.6774
vn -0.1942 -0.6722 0.7145
vn 0.9086 0.1520 0.3889
vn 0.8725 0.2103 0.4410
vn -0.9344 -0.1008 -0.3418
vn -0.8882 -0.1864 -0.4199
vn 0.1670 0.0311 0.9855
vn -0.7490 -0.6550 0.0994
vn -0.1383 -0.0059 -0.9904
vn 0.7490 0.6550 -0.0994
vn 0.6464 -0.7582 -0.0858
vn -0.6209 0.7796 0.0824
vn -0.6676 0.7393 0.0886
vn 0.6917 -0.7164 -0.0918
vn -0.1405 -0.0078 -0.9901
vn -0.0756 0.0486 -0.9960
vn 0.1649 0.0293 0.9859
vn 0.1025 -0.0254 0.9944
vn 0.5371 0.0412 -0.8425
vn 0.5654 -0.7254 0.3925
vn -0.5641 -0.0078 0.8257
vn -0.5654 0.7254 -0.3925
vn -0.5933 -0.6917 -0.4118
vn 0.5701 0.7200 0.3957
vn 0.6124 0.6666 0.4250
vn -0.6337 -0.6364 -0.4398
vn -0.5621 -0.0103 0.8270
vn -0.6181 0.0644 0.7835
vn 0.5391 0.0388 -0.8413
vn 0.5957 -0.0336 -0.8025
vn 0.9374 -0.0741 -0.3403
vn 0.1669 -0.6507 0.7408
vn -0.9433 0.0938 0.3183
vn -0.1669 0.6507 -0.7408
vn -0.2753 -0.7570 -0.5926
vn 0.2639 0.7969 0.5434
vn 0.2702 0.7759 0.5701
vn 0.2806 0.7358 0.6163
vn -0.2759 -0.7546 -0.5953
vn -0.2858 -0.7131 -0.6402
vn -0.9443 0.0974 0.3142
vn -0.9562 0.1531 0.2496
vn 0.9285 -0.0488 -0.3680
vn 0.9521 -0.1302 -0.2766
vn -0.4192 -0.0638 0.9057
vn -0.7073 -0.5688 -0.4199
vn 0.4409 0.0810 -0.8939
vn 0.7073 0.5688 0.4199
vn 0.5371 -0.8218 0.1903
vn -0.4902 0.8562 -0.1628
vn -0.5157 0.8381 -0.1777
vn -0.5597 0.8032 -0.2038
vn 0.5397 -0.8197 0.1919
vn 0.5826 -0.7831 0.2175
vn 0.4449 0.0842 -0.8916
vn 0.5046 0.1329 -0.8531
vn -0.3908 -0.0417 0.9195
vn -0.4803 -0.1128 0.8698
vn 0.8205 -0.0165 0.5714
vn -0.5064 -0.5921 0.6269
vn -0.8270 0.0082 -0.5622
vn 0.5064 0.5921 -0.6269
vn 0.3145 -0.8204 -0.4776
vn -0.1926 0.9262 0.3240
vn -0.3092 0.8262 0.4709
vn -0.3407 0.7898 0.5100
vn 0.3263 -0.8070 -0.4922
vn 0.3572 -0.7690 -0.5302
vn -0.8033 0.0377 -0.5944
vn -0.7575 0.0886 -0.6468
vn 0.9106 0.1305 0.3921
vn 0.7771 -0.0676 0.6257
vn 0.8614 0.0473 0.5057
vn -0.5378 -0.1248 0.8338
vn -0.8416 -0.0425 -0.5384
vn 0.5378 0.1248 -0.8338
vn 0.1005 -0.9918 -0.0788
vn -0.0825 0.9953 0.0509
vn -0.1159 0.9879 0.1027
vn 0.1336 -0.9824 -0.1303
vn -0.8431 -0.0429 -0.5360
vn -0.7945 -0.0320 -0.6064
vn 0.8600 0.0469 0.5081
vn 0.8154 0.0365 0.5778
usemtl NewMaterial
s off
f 9/1/1 12/2/1 4/3/1 3/4/1
f 3/4/2 4/3/2 8/5/2 7/6/2
f 13/7/3 16/8/3 6/9/3 5/10/3
f 5/10/4 6/9/4 2/11/4 1/12/4
f 10/13/5 13/7/5 5/10/5 1/12/5
f 16/8/6 11/14/6 2/11/6 6/9/6
f 8/5/6 4/3/6 12/2/6 15/15/6
f 15/15/7 12/2/7 11/14/7 16/8/7
f 3/4/5 7/6/5 14/16/5 9/1/5
f 9/1/8 14/16/8 13/7/8 10/13/8
f 7/6/9 8/5/9 15/15/9 14/16/9
f 14/16/10 15/15/10 16/8/10 13/7/10
f 1/12/11 2/11/11 11/14/11 10/13/11
f 10/13/12 11/14/12 12/2/12 9/1/12
f 25/17/13 28/18/13 20/19/13 19/20/13
f 19/20/14 20/19/14 24/21/14 23/22/14
f 29/23/15 32/24/15 22/25/15 21/26/15
f 21/26/16 22/25/16 18/27/16 17/28/16
f 26/29/17 29/23/17 21/26/17 17/28/17
f 32/24/18 27/30/18 18/27/18 22/25/18
f 24/21/18 20/19/18 28/18/18 31/31/18
f 31/31/19 28/18/19 27/30/19 32/24/19
f 19/20/17 23/22/17 30/32/17 25/17/17
f 25/17/20 30/32/20 29/23/20 26/29/20
f 23/22/21 24/21/21 31/31/21 30/32/21
f 30/32/22 31/31/22 32/24/22 29/23/22
f 17/28/23 18/27/23 27/30/23 26/29/23
f 26/29/24 27/30/24 28/18/24 25/17/24
f 41/33/25 44/34/25 36/35/25 35/36/25
f 35/36/26 36/35/26 40/37/26 39/38/26
f 45/39/27 48/40/27 38/41/27 37/42/27
f 37/42/28 38/41/28 34/43/28 33/44/28
f 42/45/29 45/39/29 37/42/29 33/44/29
f 48/40/30 43/46/30 34/43/30 38/41/30
f 40/37/30 36/35/30 44/34/30 47/47/30
f 47/47/31 44/34/31 43/46/31 48/40/31
f 35/36/29 39/38/29 46/48/29 41/33/29
f 41/33/32 46/48/32 45/39/32 42/45/32
f 39/38/33 40/37/33 47/47/33 46/48/33
f 46/48/34 47/47/34 48/40/34 45/39/34
f 33/44/35 34/43/35 43/46/35 42/45/35
f 42/45/36 43/46/36 44/34/36 41/33/36
f 57/49/37 60/50/37 52/51/37 51/52/37
f 51/52/38 52/51/38 56/53/38 55/54/38
f 61/55/39 64/56/39 54/57/39 53/58/39
f 53/58/40 54/57/40 50/59/40 49/60/40
f 58/61/41 61/55/41 53/58/41 49/60/41
f 64/56/42 59/62/42 50/59/42 54/57/42
f 56/53/42 52/51/42 60/50/42 63/63/42
f 63/63/43 60/50/43 59/62/43 64/56/43
f 51/52/41 55/54/41 62/64/41 57/49/41
f 57/49/44 62/64/44 61/55/44 58/61/44
f 55/54/45 56/53/45 63/63/45 62/64/45
f 62/64/46 63/63/46 64/56/46 61/55/46
f 49/60/47 50/59/47 59/62/47 58/61/47
f 58/61/48 59/62/48 60/50/48 57/49/48
f 73/65/49 76/66/49 68/67/49 67/68/49
f 67/68/50 68/67/50 72/69/50 71/70/50
f 77/71/51 80/72/51 70/73/51 69/74/51
f 69/74/52 70/73/52 66/75/52 65/76/52
f 74/77/53 77/71/53 69/74/53 65/76/53
f 80/72/54 75/78/54 66/75/54 70/73/54
f 72/69/54 68/67/54 76/66/54 79/79/54
f 79/79/55 76/66/55 75/78/55 80/72/55
f 67/68/53 71/70/53 78/80/53 73/65/53
f 73/65/56 78/80/56 77/71/56 74/77/56
f 71/70/57 72/69/57 79/79/57 78/80/57
f 78/80/58 79/79/58 80/72/58 77/71/58
f 65/76/59 66/75/59 75/78/59 74/77/59
f 74/77/60 75/78/60 76/66/60 73/65/60
f 89/81/61 92/82/61 84/83/61 83/84/61
f 83/84/62 84/83/62 88/85/62 87/86/62
f 93/87/63 96/88/63 86/89/63 85/90/63
f 85/90/64 86/89/64 82/91/64 81/92/64
f 90/93/65 93/87/65 85/90/65 81/92/65
f 96/88/66 91/94/66 82/91/66 86/89/66
f 88/85/67 84/83/67 92/82/67 95/95/67
f 95/95/68 92/82/68 91/94/68 96/88/68
f 83/84/69 87/86/69 94/96/69 89/81/69
f 89/81/70 94/96/70 93/87/70 90/93/70
f 87/86/71 88/85/71 95/95/71 94/96/71
f 94/96/72 95/95/72 96/88/72 93/87/72
f 81/92/73 82/91/73 91/94/73 90/93/73
f 90/93/74 91/94/74 92/82/74 89/81/74
f 105/97/75 108/98/75 100/99/75 99/100/75
f 99/100/76 100/99/76 104/101/76 103/102/76
f 109/103/77 112/104/77 102/105/77 101/106/77
f 101/106/78 102/105/78 98/107/78 97/108/78
f 106/109/79 109/103/79 101/106/79 97/108/79
f 112/104/80 107/110/80 98/107/80 102/105/80
f 104/101/81 100/99/81 108/98/81 111/111/81
f 111/111/82 108/98/82 107/110/82 112/104/82
f 99/100/83 103/102/83 110/112/83 105/97/83
f 105/97/84 110/112/84 109/103/84 106/109/84
f 103/102/85 104/101/85 111/111/85 110/112/85
f 110/112/86 111/111/86 112/104/86 109/103/86
f 97/108/87 98/107/87 107/110/87 106/109/87
f 106/109/88 107/110/88 108/98/88 105/97/88
f 121/113/89 124/114/89 116/115/89 115/116/89
f 115/116/90 116/115/90 120/117/90 119/118/90
f 125/119/91 128/120/91 118/121/91 117/122/91
f 117/122/92 118/121/92 114/123/92 113/124/92
f 122/125/93 125/119/93 117/122/93 113/124/93
f 128/120/94 123/126/94 114/123/94 118/121/94
f 120/117/94 116/115/94 124/114/94 127/127/94
f 127/127/95 124/114/95 123/126/95 128/120/95
f 115/116/93 119/118/93 126/128/93 121/113/93
f 121/113/96 126/128/96 125/119/96 122/125/96
f 119/118/97 120/117/97 127/127/97 126/128/97
f 126/128/98 127/127/98 128/120/98 125/119/98
f 113/124/99 114/123/99 123/126/99 122/125/99
f 122/125/100 123/126/100 124/114/100 121/113/100
f 137/129/101 140/130/101 132/131/101 131/132/101
f 131/132/102 132/131/102 136/133/102 135/134/102
f 141/135/103 144/136/103 134/137/103 133/138/103
f 133/138/104 134/137/104 130/139/104 129/140/104
f 138/141/105 141/135/105 133/138/105 129/140/105
f 144/136/106 139/142/106 130/139/106 134/137/106
f 136/133/106 132/131/106 140/130/106 143/143/106
f 143/143/107 140/130/107 139/142/107 144/136/107
f 131/132/105 135/134/105 142/144/105 137/129/105
f 137/129/108 142/144/108 141/135/108 138/141/108
f 135/134/109 136/133/109 143/143/109 142/144/109
f 142/144/110 143/143/110 144/136/110 141/135/110
f 129/140/111 130/139/111 139/142/111 138/141/111
f 138/141/112 139/142/112 140/130/112 137/129/112
f 153/145/113 156/146/113 148/147/113 147/148/113
f 147/148/114 148/147/114 152/149/114 151/150/114
f 157/151/115 160/152/115 150/153/115 149/154/115
f 149/154/116 150/153/116 146/155/116 145/156/116
f 154/157/117 157/151/117 149/154/117 145/156/117
f 160/152/118 155/158/118 146/155/118 150/153/118
f 152/149/119 148/147/119 156/146/119 159/159/119
f 159/159/120 156/146/120 155/158/120 160/152/120
f 147/148/121 151/150/121 158/160/121 153/145/121
f 153/145/122 158/160/122 157/151/122 154/157/122
f 151/150/123 152/149/123 159/159/123 158/160/123
f 158/160/124 159/159/124 160/152/124 157/151/124
f 145/156/125 146/155/125 155/158/125 154/157/125
f 154/157/126 155/158/126 156/146/126 153/145/126
f 169/161/127 172/162/127 164/163/127 163/164/127
f 163/164/128 164/163/128 168/165/128 167/166/128
f 173/167/129 176/168/129 166/169/129 165/170/129
f 165/170/130 166/169/130 162/171/130 161/172/130
f 170/173/131 173/167/131 165/170/131 161/172/131
f 176/168/132 171/174/132 162/171/132 166/169/132
f 168/165/133 164/163/133 172/162/133 175/175/133
f 175/175/134 172/162/134 171/174/134 176/168/134
f 163/164/135 167/166/135 174/176/135 169/161/135
f 169/161/136 174/176/136 173/167/136 170/173/136
f 167/166/137 168/165/137 175/175/137 174/176/137
f 174/176/138 175/175/138 176/168/138 173/167/138
f 161/172/139 162/171/139 171/174/139 170/173/139
f 170/173/140 171/174/140 172/162/140 169/161/140
f 185/177/141 188/178/141 180/179/141 179/180/141
f 179/180/142 180/179/142 184/181/142 183/182/142
f 189/183/143 192/184/143 182/185/143 181/186/143
f 181/186/144 182/185/144 178/187/144 177/188/144
f 186/189/145 189/183/145 181/186/145 177/188/145
f 192/184/146 187/190/146 178/187/146 182/185/146
f 184/181/147 180/179/147 188/178/147 191/191/147
f 191/191/148 188/178/148 187/190/148 192/184/148
f 179/180/149 183/182/149 190/192/149 185/177/149
f 185/177/150 190/192/150 189/183/150 186/189/150
f 183/182/151 184/181/151 191/191/151 190/192/151
f 190/192/152 191/191/152 192/184/152 189/183/152
f 177/188/153 178/187/153 187/190/153 186/189/153
f 186/189/154 187/190/154 188/178/154 185/177/154
f 201/193/155 204/194/155 196/195/155 195/196/155
f 195/196/156 196/195/156 200/197/156 199/198/156
f 205/199/157 208/200/157 198/201/157 197/202/157
f 197/202/158 198/201/158 194/203/158 193/204/158
f 202/205/159 205/199/159 197/202/159 193/204/159
f 208/200/160 203/206/160 194/203/160 198/201/160
f 200/197/160 196/195/160 204/194/160 207/207/160
f 207/207/161 204/194/161 203/206/161 208/200/161
f 195/196/159 199/198/159 206/208/159 201/193/159
f 201/193/162 206/208/162 205/199/162 202/205/162
f 199/198/163 200/197/163 207/207/163 206/208/163
f 206/208/164 207/207/164 208/200/164 205/199/164
f 193/204/165 194/203/165 203/206/165 202/205/165
f 202/205/166 203/206/166 204/194/166 201/193/166
