# Blender v2.90.1 OBJ File: 'Wood.blend'
# www.blender.org
mtllib Firefly.mtl
o Fire_Fly_Icosphere.003
v -0.000000 -0.207523 -0.264714
v 0.089676 -0.113229 -0.436815
v 0.145101 -0.113229 -0.198979
v -0.000000 -0.113229 -0.051985
v -0.145101 -0.113229 -0.198979
v -0.089677 -0.113229 -0.436815
v 0.145101 0.039341 -0.330450
v -0.089677 0.039341 -0.092614
v -0.145101 0.039341 -0.330449
v -0.000000 0.039341 -0.477443
v -0.000000 0.133635 -0.264714
v -0.051174 -0.081072 0.172812
v 0.113844 0.000347 0.063785
v -0.116473 0.024291 0.111578
v 0.096919 0.018039 -0.048075
v 0.113844 0.008533 0.080892
v 0.089677 0.039341 -0.092614
v 0.105382 0.008293 -0.026104
v 0.194847 0.043784 -0.043038
v 0.213338 0.043644 0.064946
v 0.220279 0.054853 0.083698
v 0.187600 0.055653 -0.070520
v 0.346341 0.047854 -0.070169
v 0.363711 0.041509 0.037815
v 0.374015 0.049735 0.056567
v 0.343504 0.061469 -0.097651
v 0.399861 0.029038 -0.049540
v 0.406953 0.026447 -0.005444
v 0.411161 0.029806 0.002214
v 0.398702 0.034597 -0.060763
v 0.000000 -0.157436 0.073734
v 0.116473 -0.098179 0.035890
v -0.113844 0.000347 0.063785
v 0.116473 0.024291 0.111578
v -0.096919 0.018039 -0.048074
v -0.113844 0.008533 0.080892
v 0.000000 0.095099 0.038498
v -0.116473 -0.098179 0.035890
v -0.105382 0.008293 -0.026104
v -0.194847 0.043784 -0.043038
v -0.213338 0.043644 0.064946
v -0.220279 0.054853 0.083698
v -0.187600 0.055653 -0.070519
v -0.346342 0.047854 -0.070169
v -0.363711 0.041509 0.037815
v -0.374015 0.049735 0.056567
v -0.343504 0.061469 -0.097650
v -0.399861 0.029038 -0.049540
v -0.406953 0.026447 -0.005443
v -0.411161 0.029806 0.002214
v -0.398702 0.034597 -0.060762
v 0.000000 -0.116759 0.247817
v 0.051174 -0.081072 0.172812
v 0.083929 -0.072638 0.269877
v 0.000000 -0.072638 0.319205
v -0.083929 -0.072638 0.269877
v 0.083929 -0.001250 0.225757
v 0.051871 -0.001250 0.305571
v -0.051870 -0.001250 0.305571
v -0.083929 -0.001250 0.225757
v 0.000000 0.005184 0.169302
v 0.000000 0.042871 0.247817
vt 0.570312 0.072129
vt 0.570312 0.072129
vt 0.570312 0.072129
vt 0.570312 0.072129
vt 0.570312 0.072129
vt 0.570312 0.072129
vt 0.570312 0.072129
vt 0.570312 0.072129
vt 0.570312 0.072129
vt 0.570312 0.072129
vt 0.570312 0.072129
vt 0.570312 0.072129
vt 0.570312 0.072129
vt 0.570312 0.072129
vt 0.570312 0.072129
vt 0.570312 0.072129
vt 0.570312 0.072129
vt 0.570312 0.072129
vt 0.570312 0.072129
vt 0.570312 0.072129
vt 0.570312 0.072129
vt 0.570312 0.072129
vt 0.570312 0.072129
vt 0.570312 0.072129
vt 0.570312 0.072129
vt 0.570312 0.072129
vt 0.570312 0.072129
vt 0.570312 0.072129
vt 0.570312 0.072129
vt 0.570312 0.072129
vt 0.570312 0.072129
vt 0.570312 0.072129
vt 0.570312 0.072129
vt 0.570312 0.072129
vt 0.570312 0.072129
vt 0.570312 0.072129
vt 0.570312 0.072129
vt 0.570312 0.072129
vt 0.570312 0.072129
vt 0.570312 0.072129
vt 0.570312 0.072129
vt 0.570312 0.072129
vt 0.570312 0.072129
vt 0.570312 0.072129
vt 0.570312 0.072129
vt 0.570312 0.072129
vt 0.570312 0.072129
vt 0.570312 0.072129
vt 0.570312 0.072129
vt 0.570312 0.072129
vt 0.570312 0.072129
vt 0.570312 0.072129
vt 0.570312 0.072129
vt 0.570312 0.072129
vt 0.570312 0.072129
vt 0.570312 0.072129
vt 0.570312 0.072129
vt 0.570312 0.072129
vt 0.570312 0.072129
vt 0.570312 0.072129
vt 0.570312 0.072129
vt 0.570312 0.072129
vn 0.5824 -0.8015 -0.1357
vn -0.0000 -0.8770 -0.4805
vn 0.3798 -0.8457 0.3749
vn -0.3798 -0.8457 0.3749
vn -0.5824 -0.8015 -0.1357
vn 0.0000 -0.2573 -0.9663
vn 0.9558 -0.1919 -0.2227
vn 0.6934 -0.2253 0.6845
vn -0.6934 -0.2253 0.6845
vn -0.9558 -0.1919 -0.2227
vn 0.6934 0.2253 -0.6845
vn 0.9558 0.1919 0.2227
vn 0.0000 0.2573 0.9663
vn -0.9558 0.1919 0.2227
vn -0.6934 0.2253 -0.6845
vn 0.3798 0.8457 -0.3749
vn 0.5824 0.8015 0.1357
vn 0.0000 0.8770 0.4805
vn -0.5824 0.8015 0.1357
vn -0.3798 0.8457 -0.3749
vn -0.5121 -0.7877 0.3426
vn 0.0000 -0.7920 0.6105
vn -0.3488 -0.8841 -0.3109
vn 0.3488 -0.8841 -0.3109
vn 0.5121 -0.7877 0.3426
vn 0.0000 0.0407 0.9992
vn -0.8546 -0.2730 0.4417
vn -0.5606 -0.5044 -0.6567
vn 0.5606 -0.5044 -0.6567
vn 0.8546 -0.2730 0.4417
vn -0.3921 0.2684 0.8799
vn -0.9893 0.0767 -0.1242
vn 0.2484 -0.8561 -0.4531
vn 0.3921 0.2684 0.8799
vn -0.1440 0.8155 0.5606
vn -0.5220 0.8529 -0.0056
vn -0.0000 0.9202 -0.3913
vn 0.5220 0.8529 -0.0056
vn 0.1440 0.8155 0.5606
vn 0.9894 0.0316 -0.1415
vn 0.9946 0.0603 -0.0849
vn 0.9893 0.0767 -0.1242
vn 0.0569 -0.8969 0.4386
vn -0.3813 0.9190 0.1002
vn 0.3770 -0.9219 -0.0890
vn 0.3614 -0.8476 0.3885
vn 0.4488 0.8934 -0.0208
vn 0.0047 0.9992 0.0396
vn 0.0010 -0.9995 -0.0302
vn -0.0438 -0.9094 -0.4136
vn 0.9028 -0.3852 -0.1914
vn -0.3309 -0.9437 -0.0022
vn -0.1492 -0.8921 -0.4265
vn 0.0540 -0.9250 0.3761
vn -0.2484 -0.8561 -0.4531
vn -0.9894 0.0316 -0.1415
vn -0.9946 0.0603 -0.0849
vn -0.0569 -0.8969 0.4386
vn 0.3813 0.9190 0.1002
vn -0.3770 -0.9219 -0.0890
vn -0.3614 -0.8476 0.3885
vn -0.4488 0.8934 -0.0208
vn -0.0047 0.9992 0.0396
vn -0.0010 -0.9995 -0.0302
vn 0.0438 -0.9094 -0.4136
vn -0.9028 -0.3852 -0.1914
vn 0.3309 -0.9437 -0.0022
vn 0.1492 -0.8921 -0.4265
vn -0.0540 -0.9250 0.3761
vn 0.4813 -0.8723 -0.0866
vn -0.0000 -0.9030 -0.4296
vn 0.2952 -0.8127 0.5023
vn -0.2952 -0.8127 0.5023
vn -0.4813 -0.8723 -0.0866
vn 0.9359 -0.1852 -0.2997
vn 0.4965 -0.1994 0.8448
vn -0.4965 -0.1994 0.8448
vn -0.9359 -0.1852 -0.2997
vn 0.5489 0.2938 -0.7825
vn 0.9043 0.2245 0.3632
vn 0.0000 0.1876 0.9822
vn -0.9043 0.2245 0.3632
vn -0.5489 0.2938 -0.7825
vn 0.3389 0.8482 -0.4071
vn 0.4965 0.8448 0.1994
vn 0.0000 0.7947 0.6071
vn -0.4965 0.8448 0.1994
vn -0.3389 0.8482 -0.4071
usemtl NewMaterial
s off
f 1/1/1 2/2/1 3/3/1
f 2/2/2 1/1/2 6/4/2
f 1/1/3 3/3/3 4/5/3
f 1/1/4 4/5/4 5/6/4
f 1/1/5 5/6/5 6/4/5
f 2/2/6 6/4/6 10/7/6
f 3/3/7 2/2/7 7/8/7
f 4/5/8 3/3/8 17/9/8
f 5/6/9 4/5/9 8/10/9
f 6/4/10 5/6/10 9/11/10
f 2/2/11 10/7/11 7/8/11
f 3/3/12 7/8/12 17/9/12
f 4/5/13 17/9/13 8/10/13
f 5/6/14 8/10/14 9/11/14
f 6/4/15 9/11/15 10/7/15
f 7/8/16 10/7/16 11/12/16
f 17/9/17 7/8/17 11/12/17
f 8/10/18 17/9/18 11/12/18
f 9/11/19 8/10/19 11/12/19
f 10/7/20 9/11/20 11/12/20
f 31/13/21 12/14/21 38/15/21
f 12/14/22 31/13/22 53/16/22
f 31/13/23 38/15/23 4/5/23
f 31/13/24 4/5/24 32/17/24
f 31/13/25 32/17/25 53/16/25
f 12/14/26 53/16/26 61/18/26
f 38/15/27 12/14/27 14/19/27
f 4/5/28 38/15/28 8/10/28
f 32/17/29 4/5/29 17/9/29
f 53/16/30 32/17/30 34/20/30
f 12/14/31 61/18/31 14/19/31
f 38/15/32 14/19/32 8/10/32
f 18/21/33 15/22/33 22/23/33 19/24/33
f 53/16/34 34/20/34 61/18/34
f 14/19/35 61/18/35 37/25/35
f 8/10/36 14/19/36 37/25/36
f 17/9/37 8/10/37 37/25/37
f 34/20/38 17/9/38 37/25/38
f 61/18/39 34/20/39 37/25/39
f 15/22/40 18/21/40 13/26/40 32/17/40 17/9/40
f 13/26/41 16/27/41 34/20/41 32/17/41
f 16/27/42 15/22/42 17/9/42 34/20/42
f 21/28/43 20/29/43 24/30/43 25/31/43
f 15/22/44 16/27/44 21/28/44 22/23/44
f 13/26/45 18/21/45 19/24/45 20/29/45
f 16/27/46 13/26/46 20/29/46 21/28/46
f 26/32/47 25/31/47 29/33/47 30/34/47
f 22/23/48 21/28/48 25/31/48 26/32/48
f 20/29/49 19/24/49 23/35/49 24/30/49
f 19/24/50 22/23/50 26/32/50 23/35/50
f 28/36/51 27/37/51 30/34/51 29/33/51
f 24/30/52 23/35/52 27/37/52 28/36/52
f 23/35/53 26/32/53 30/34/53 27/37/53
f 25/31/54 24/30/54 28/36/54 29/33/54
f 32/17/42 17/9/42 34/20/42
f 39/38/55 40/39/55 43/40/55 35/41/55
f 35/41/56 8/10/56 38/15/56 33/42/56 39/38/56
f 33/42/57 38/15/57 14/19/57 36/43/57
f 36/43/32 14/19/32 8/10/32 35/41/32
f 42/44/58 46/45/58 45/46/58 41/47/58
f 35/41/59 43/40/59 42/44/59 36/43/59
f 33/42/60 41/47/60 40/39/60 39/38/60
f 36/43/61 42/44/61 41/47/61 33/42/61
f 47/48/62 51/49/62 50/50/62 46/45/62
f 43/40/63 47/48/63 46/45/63 42/44/63
f 41/47/64 45/46/64 44/51/64 40/39/64
f 40/39/65 44/51/65 47/48/65 43/40/65
f 49/52/66 50/50/66 51/49/66 48/53/66
f 45/46/67 49/52/67 48/53/67 44/51/67
f 44/51/68 48/53/68 51/49/68 47/48/68
f 46/45/69 50/50/69 49/52/69 45/46/69
f 52/54/70 53/16/70 54/55/70
f 53/16/71 52/54/71 12/14/71
f 52/54/72 54/55/72 55/56/72
f 52/54/73 55/56/73 56/57/73
f 52/54/74 56/57/74 12/14/74
f 54/55/75 53/16/75 57/58/75
f 55/56/76 54/55/76 58/59/76
f 56/57/77 55/56/77 59/60/77
f 12/14/78 56/57/78 60/61/78
f 53/16/79 61/18/79 57/58/79
f 54/55/80 57/58/80 58/59/80
f 55/56/81 58/59/81 59/60/81
f 56/57/82 59/60/82 60/61/82
f 12/14/83 60/61/83 61/18/83
f 57/58/84 61/18/84 62/62/84
f 58/59/85 57/58/85 62/62/85
f 59/60/86 58/59/86 62/62/86
f 60/61/87 59/60/87 62/62/87
f 61/18/88 60/61/88 62/62/88
