# Blender v2.90.1 OBJ File: 'Wood.blend'
# www.blender.org
mtllib IslandSmall1.mtl
o Small_Island_1_Low_Sphere.004
v 1.369192 -2.574442 -6.437960
v 0.906677 4.203215 -10.201418
v 0.998901 -2.979721 -4.569575
v 1.901588 6.609501 -9.067986
v 6.222955 5.083955 -6.609604
v 6.556365 -2.325546 -4.011839
v 9.425599 6.261535 -3.898342
v 2.291063 -8.261609 0.778280
v 12.082821 5.413926 -1.162133
v 9.736715 0.485264 0.434939
v 5.963080 -4.888676 1.241869
v 6.954173 -4.631798 1.048395
v 8.670890 -0.304045 0.376433
v 3.666028 -5.366907 4.543525
v 1.981107 -8.404852 2.595394
v -1.354463 1.005219 8.697246
v 2.382315 -3.455960 5.868890
v 0.421522 -8.263342 1.129588
v -6.233124 3.092154 9.154189
v 3.979696 6.970179 -2.983009
v -1.913066 -6.296855 3.199661
v -10.740236 6.311153 6.237913
v -2.139344 -4.477481 3.919796
v -10.118824 2.679013 2.091725
v -10.085608 1.422950 0.453525
v -10.713174 5.012577 -3.337883
v -8.737673 1.643610 -4.072969
v -3.915544 -5.086289 0.858237
v -9.697596 5.955793 -6.715881
v -4.098542 -3.416743 -1.538400
v -0.731274 -5.157324 -2.366844
v -2.754473 2.897374 -9.828601
v -0.823693 -1.789284 -6.808294
v 0.201253 6.067652 -11.863672
v 3.326804 5.424436 -9.575570
v 0.288713 -8.668160 -2.507131
v 5.403292 4.554675 -8.056262
v 3.870585 -3.157501 -5.524478
v 2.314447 -5.164719 -3.925919
v 3.073635 0.409522 -7.925646
v 5.035544 6.377271 -7.744344
v 3.691624 -1.870377 -5.548048
v 7.482654 6.413185 -5.889527
v 7.444135 2.396542 -4.321484
v 4.456104 -3.572407 -3.648309
v 4.716231 1.933148 -6.201879
v 7.965915 4.165636 -2.660366
v 6.036157 -4.167307 -2.316502
v 5.950555 -0.829924 -4.045651
v 3.854132 -4.779602 -1.368811
v 5.053078 -5.727666 -1.567532
v 5.989644 -1.992756 -1.289673
v 9.605345 6.091323 0.791970
v 9.062871 -1.045689 2.491164
v 10.283380 6.553126 2.985247
v 12.322680 4.120471 3.991105
v 5.307571 -6.525947 2.915230
v 10.553177 4.007903 9.072308
v 7.962811 0.760858 5.135162
v 4.447509 2.135168 8.850212
v 5.887409 -2.324547 6.637008
v 5.858511 0.276358 6.357802
v 2.270367 3.831186 12.380718
v 2.979449 0.686107 8.422026
v 9.088345 6.145159 8.258400
v 0.596701 3.462751 13.828444
v -0.475041 -7.447760 5.261218
v 0.196641 -4.664216 6.393830
v -0.854564 -2.814327 6.350537
v -1.863886 -1.002926 7.896958
v -3.032669 3.317302 12.198402
v -2.639024 6.794349 9.578883
v -1.816464 -4.760756 5.580256
v -5.539660 1.485100 6.893746
v -6.356651 6.036322 9.690066
v -1.462050 -8.511045 1.947990
v -6.399267 -1.237418 4.559460
v -2.960588 -5.767193 1.819203
v -12.636299 6.439710 0.389474
v -3.154820 -3.280234 1.449090
v -5.435224 -2.083787 3.695695
v -6.629457 6.907536 -2.313538
v -1.844313 -6.043410 -2.568564
v -2.512246 -6.702065 -0.087052
v -6.981644 -1.814078 -2.175411
v -7.275249 2.060217 -7.156818
v -5.700419 -1.482887 -3.589098
v 0.158256 -4.682057 -2.403515
v -5.510930 6.057485 -8.063179
v -2.682562 -1.222224 -5.934019
v -5.159662 4.837832 -10.423147
v 0.736596 -5.911811 -3.287336
v -1.568513 -8.736036 0.239654
v -0.750060 -7.953785 -0.963716
v -3.315434 6.089482 -9.703667
v 7.664226 -2.843932 2.153851
vt 0.572266 0.678403
vt 0.572266 0.678403
vt 0.572266 0.678403
vt 0.572266 0.678403
vt 0.572266 0.678403
vt 0.572266 0.678403
vt 0.572266 0.678403
vt 0.572266 0.678403
vt 0.572266 0.678403
vt 0.572266 0.678403
vt 0.572266 0.678403
vt 0.572266 0.678403
vt 0.330078 0.936216
vt 0.330078 0.936216
vt 0.330078 0.936216
vt 0.572266 0.678403
vt 0.572266 0.678403
vt 0.572266 0.678403
vt 0.572266 0.678403
vt 0.572266 0.678403
vt 0.572266 0.678403
vt 0.572266 0.678403
vt 0.572266 0.678403
vt 0.572266 0.678403
vt 0.572266 0.678403
vt 0.572266 0.678403
vt 0.572266 0.678403
vt 0.572266 0.678403
vt 0.572266 0.678403
vt 0.572266 0.678403
vt 0.330078 0.936216
vt 0.330078 0.936216
vt 0.330078 0.936216
vt 0.572266 0.678403
vt 0.572266 0.678403
vt 0.330078 0.936216
vt 0.330078 0.936216
vt 0.572266 0.678403
vt 0.572266 0.678403
vt 0.572266 0.678403
vt 0.572266 0.678403
vt 0.572266 0.678403
vt 0.572266 0.678403
vt 0.330078 0.936216
vt 0.330078 0.936216
vt 0.572266 0.678403
vt 0.572266 0.678403
vt 0.330078 0.936216
vt 0.572266 0.678403
vt 0.572266 0.678403
vt 0.572266 0.678403
vt 0.572266 0.678403
vt 0.330078 0.936216
vt 0.572266 0.678403
vt 0.572266 0.678403
vt 0.572266 0.678403
vt 0.572266 0.678403
vt 0.572266 0.678403
vt 0.572266 0.678403
vt 0.572266 0.678403
vt 0.330078 0.936216
vt 0.330078 0.936216
vt 0.572266 0.678403
vt 0.572266 0.678403
vt 0.572266 0.678403
vt 0.572266 0.678403
vt 0.330078 0.936216
vt 0.572266 0.678403
vt 0.572266 0.678403
vt 0.572266 0.678403
vt 0.572266 0.678403
vt 0.572266 0.678403
vt 0.572266 0.678403
vt 0.572266 0.678403
vt 0.572266 0.678403
vt 0.572266 0.678403
vt 0.572266 0.678403
vt 0.572266 0.678403
vt 0.572266 0.678403
vt 0.330078 0.936216
vt 0.330078 0.936216
vt 0.330078 0.936216
vt 0.572266 0.678403
vt 0.572266 0.678403
vt 0.572266 0.678403
vt 0.572266 0.678403
vt 0.572266 0.678403
vt 0.572266 0.678403
vt 0.572266 0.678403
vt 0.572266 0.678403
vt 0.572266 0.678403
vt 0.572266 0.678403
vt 0.572266 0.678403
vt 0.572266 0.678403
vt 0.330078 0.936216
vt 0.330078 0.936216
vt 0.572266 0.678403
vt 0.572266 0.678403
vt 0.572266 0.678403
vt 0.572266 0.678403
vt 0.572266 0.678403
vt 0.330078 0.936216
vt 0.330078 0.936216
vt 0.572266 0.678403
vt 0.572266 0.678403
vt 0.572266 0.678403
vt 0.572266 0.678403
vt 0.572266 0.678403
vt 0.330078 0.936216
vt 0.572266 0.678403
vt 0.572266 0.678403
vt 0.572266 0.678403
vt 0.572266 0.678403
vt 0.330078 0.936216
vt 0.572266 0.678403
vt 0.330078 0.936216
vn -0.1380 -0.9619 -0.2360
vn 0.8584 -0.1199 -0.4988
vn 0.0240 0.4179 -0.9082
vn 0.0216 -0.9937 0.1098
vn 0.6381 0.2532 -0.7271
vn 0.4181 -0.4142 -0.8085
vn 0.7044 0.7065 0.0682
vn 0.5884 -0.7312 -0.3453
vn 0.7985 0.2545 -0.5455
vn 0.8400 -0.4424 -0.3141
vn 0.6193 -0.2921 -0.7288
vn 0.4869 0.1779 -0.8552
vn 0.5694 -0.3674 -0.7354
vn 0.5176 0.7434 -0.4236
vn 0.0508 -0.8881 -0.4569
vn 0.1872 -0.9635 -0.1915
vn 0.9159 0.3743 0.1449
vn 0.4696 0.8828 -0.0102
vn 0.9385 -0.1975 -0.2833
vn 0.2813 0.9593 0.0240
vn 0.6764 -0.7365 0.0008
vn 0.6464 -0.6747 -0.3564
vn 0.7350 -0.4823 -0.4766
vn 0.2988 -0.5849 0.7541
vn 0.7840 0.5124 -0.3503
vn 0.7782 0.0581 -0.6253
vn 0.6500 -0.6546 -0.3859
vn 0.6310 -0.7233 0.2805
vn 0.8016 -0.2828 0.5267
vn 0.7423 0.6124 0.2721
vn 0.4907 -0.8712 0.0150
vn 0.4828 0.0988 0.8701
vn 0.3083 0.5157 0.7994
vn 0.9317 -0.3566 -0.0694
vn 0.1359 -0.4049 0.9042
vn 0.0005 -0.5097 0.8604
vn 0.1129 0.7750 0.6218
vn 0.6072 -0.5655 0.5581
vn -0.1439 -0.9046 0.4012
vn 0.5858 -0.4227 0.6915
vn 0.3903 -0.3331 0.8583
vn -0.3507 0.5885 0.7284
vn 0.4427 -0.4266 0.7887
vn -0.4072 -0.2471 0.8793
vn 0.2267 -0.9450 0.2357
vn -0.0999 0.6059 0.7892
vn -0.3042 -0.8180 0.4882
vn -0.9126 -0.3256 0.2471
vn -0.4717 -0.5961 0.6498
vn -0.9528 0.0152 -0.3031
vn -0.5864 -0.8097 -0.0241
vn -0.8119 -0.2994 0.5012
vn -0.5161 -0.4578 0.7239
vn 0.1795 -0.9767 0.1175
vn -0.6459 -0.7345 0.2083
vn -0.7767 -0.3540 0.5210
vn -0.9082 -0.4038 0.1098
vn -0.0592 0.9974 0.0411
vn -0.6275 -0.7763 0.0604
vn -0.5738 -0.8044 -0.1540
vn -0.7787 -0.5054 0.3717
vn -0.8629 0.2136 0.4581
vn -0.7806 -0.6007 -0.1727
vn -0.6188 -0.3961 -0.6784
vn -0.9148 0.2952 0.2755
vn -0.7991 -0.4918 -0.3456
vn -0.5188 -0.5985 -0.6104
vn 0.3546 -0.8756 -0.3280
vn -0.3397 -0.9286 0.1497
vn -0.8355 -0.4101 -0.3657
vn -0.0755 0.9842 -0.1602
vn -0.4968 -0.7908 -0.3577
vn 0.0771 -0.2193 -0.9726
vn -0.8955 0.3267 -0.3022
vn -0.0870 0.9915 -0.0971
vn -0.2844 0.4677 -0.8369
vn -0.4410 -0.8901 0.1152
vn -0.2870 -0.9228 -0.2570
vn 0.3076 0.0911 -0.9471
vn -0.1870 -0.3795 -0.9061
vn 0.1457 -0.6271 -0.7652
vn 0.4386 -0.5890 -0.6788
vn 0.3493 0.0314 -0.9365
vn 0.3284 0.6770 -0.6587
vn -0.2745 -0.2203 -0.9360
vn -0.0072 -0.4429 -0.8965
vn 0.0339 -0.4998 -0.8655
vn 0.8094 -0.3044 -0.5022
vn 0.7294 -0.5731 -0.3736
vn 0.1145 0.9886 -0.0977
vn 0.4317 -0.2697 -0.8607
vn 0.9545 0.1278 -0.2696
vn 0.5987 -0.7624 -0.2457
vn 0.2707 -0.6603 -0.7005
vn 0.2880 -0.8005 -0.5256
vn 0.5732 -0.3295 -0.7503
vn -0.3897 0.6960 -0.6031
vn 0.2959 -0.6908 -0.6597
vn 0.6781 -0.2729 -0.6824
vn 0.1218 0.9916 -0.0433
vn 0.8569 -0.4639 0.2249
vn 0.4231 -0.4553 -0.7834
vn 0.6449 -0.3573 -0.6756
vn 0.8824 -0.4283 -0.1946
vn 0.2114 -0.9588 -0.1900
vn 0.4254 -0.6612 -0.6179
vn 0.5285 0.7512 -0.3955
vn 0.3938 -0.4733 -0.7880
vn 0.1341 0.9905 0.0308
vn 0.6128 -0.0359 0.7894
vn 0.5655 -0.7829 0.2593
vn 0.8643 0.5027 0.0161
vn -0.0143 -0.9966 -0.0810
vn 0.7060 -0.6150 0.3511
vn 0.3361 0.8953 -0.2924
vn 0.0653 0.9936 0.0917
vn 0.7040 0.6778 0.2120
vn 0.7685 0.2803 0.5752
vn 0.6305 -0.7491 0.2030
vn 0.0353 0.9988 0.0326
vn 0.0032 -0.5685 0.8227
vn 0.4665 -0.6499 0.5999
vn 0.2823 -0.6239 0.7287
vn 0.5153 -0.5211 0.6804
vn 0.8869 0.0590 0.4581
vn 0.0072 -0.5768 0.8168
vn 0.2673 -0.6208 0.7370
vn -0.0275 -0.8402 0.5417
vn 0.0157 -0.5219 0.8528
vn -0.5530 -0.5060 0.6619
vn -0.3481 -0.2800 0.8946
vn -0.2214 -0.9647 0.1424
vn -0.8069 -0.4485 0.3843
vn 0.1692 0.1190 0.9784
vn -0.3607 -0.1836 0.9144
vn -0.6882 -0.7119 0.1403
vn 0.0158 -0.1784 0.9838
vn -0.5839 -0.6902 0.4274
vn 0.0834 -0.6637 0.7434
vn -0.5099 -0.0867 0.8559
vn -0.9704 -0.1830 0.1575
vn -0.1815 0.9349 0.3049
vn -0.9291 -0.3064 0.2071
vn -0.0052 0.9999 0.0113
vn -0.0735 0.9967 0.0342
vn -0.7795 -0.5244 0.3426
vn -0.8524 -0.4500 0.2664
vn -0.6865 -0.7036 0.1836
vn -0.9148 0.3113 -0.2572
vn -0.6561 -0.7418 0.1387
vn -0.2744 0.8422 -0.4641
vn -0.8677 -0.4841 -0.1131
vn -0.7942 -0.5478 -0.2632
vn -0.4937 -0.7308 -0.4714
vn -0.4847 0.7215 -0.4945
vn -0.6522 -0.6706 -0.3535
vn -0.4992 -0.8616 0.0919
vn -0.3369 -0.8020 -0.4932
vn -0.4418 0.8896 0.1156
vn -0.0094 0.9984 -0.0560
vn -0.7868 -0.4403 -0.4326
vn -0.6298 -0.6721 -0.3895
vn -0.3628 0.8047 -0.4699
vn -0.2673 -0.6417 -0.7188
vn -0.3752 -0.7352 -0.5645
vn -0.0953 0.9819 -0.1637
vn -0.3035 -0.0813 -0.9493
vn -0.2562 -0.8676 -0.4262
vn 0.4620 -0.4002 -0.7914
vn -0.4823 -0.6062 -0.6323
vn -0.3660 -0.9117 -0.1868
vn -0.8946 -0.1094 -0.4332
vn -0.5227 -0.0586 -0.8505
vn -0.0810 0.9866 -0.1419
vn -0.3083 -0.4348 -0.8461
vn 0.0953 -0.5112 -0.8542
vn 0.8088 -0.4659 -0.3589
vn 0.6383 -0.6917 0.3377
vn 0.2314 -0.8171 0.5280
vn -0.7426 -0.1901 -0.6422
vn 0.2329 0.8435 0.4840
vn -0.2547 -0.7098 -0.6567
vn -0.3538 -0.6458 -0.6766
usemtl NewMaterial
s off
f 3/1/1 1/2/1 38/3/1
f 34/4/2 4/5/2 2/6/2
f 4/5/3 35/7/3 2/6/3
f 36/8/4 8/9/4 18/10/4
f 41/11/5 37/12/5 35/7/5
f 35/7/6 37/12/6 2/6/6
f 20/13/7 5/14/7 41/15/7
f 38/3/8 45/16/8 39/17/8
f 41/11/9 5/18/9 37/12/9
f 37/12/10 5/18/10 46/19/10
f 46/19/11 49/20/11 42/21/11
f 42/21/12 49/20/12 6/22/12
f 5/18/13 44/23/13 46/19/13
f 39/17/14 50/24/14 51/25/14
f 48/26/15 50/24/15 45/16/15
f 48/26/16 11/27/16 50/24/16
f 6/22/17 49/20/17 52/28/17
f 52/28/18 96/29/18 6/22/18
f 48/26/19 96/29/19 12/30/19
f 7/31/20 53/32/20 9/33/20
f 51/25/21 11/27/21 8/9/21
f 13/34/22 54/35/22 52/28/22
f 54/35/23 96/29/23 52/28/23
f 96/29/24 11/27/24 12/30/24
f 53/32/25 55/36/25 56/37/25
f 53/38/26 56/39/26 10/40/26
f 11/27/27 57/41/27 8/9/27
f 10/40/28 56/39/28 59/42/28
f 54/35/29 59/42/29 61/43/29
f 56/37/30 65/44/30 58/45/30
f 8/9/31 57/41/31 15/46/31
f 61/43/32 59/42/32 62/47/32
f 58/45/33 65/44/33 63/48/33
f 49/20/34 44/23/34 47/49/34 52/28/34
f 61/43/35 60/50/35 64/51/35
f 61/43/36 64/51/36 69/52/36
f 65/44/37 72/53/37 63/48/37
f 63/54/38 66/55/38 64/51/38
f 66/55/39 71/56/39 64/51/39
f 15/46/40 68/57/40 67/58/40
f 17/59/41 68/57/41 14/60/41
f 72/53/42 71/61/42 66/62/42
f 69/52/43 16/63/43 70/64/43
f 16/63/44 74/65/44 70/64/44
f 67/58/45 76/66/45 18/10/45
f 72/53/46 75/67/46 71/61/46
f 16/63/47 19/68/47 74/65/47
f 73/69/48 21/70/48 76/66/48
f 69/52/49 74/65/49 81/71/49
f 19/68/50 75/72/50 74/65/50
f 73/69/51 81/71/51 23/73/51
f 21/70/52 23/73/52 78/74/52
f 74/65/53 22/75/53 77/76/53
f 76/66/54 93/77/54 18/10/54
f 78/74/55 84/78/55 21/70/55
f 78/74/56 23/73/56 28/79/56
f 84/78/57 93/77/57 76/66/57
f 82/80/58 79/81/58 22/82/58
f 77/76/59 25/83/59 81/71/59
f 81/71/60 80/84/60 23/73/60
f 24/85/61 25/83/61 77/76/61
f 23/73/62 80/84/62 28/79/62
f 79/86/63 26/87/63 24/85/63
f 93/77/64 84/78/64 94/88/64
f 80/84/65 30/89/65 28/79/65
f 84/78/66 28/79/66 83/90/66
f 27/91/67 87/92/67 85/93/67
f 93/77/68 94/88/68 18/10/68
f 81/71/69 30/89/69 80/84/69
f 26/87/70 29/94/70 27/91/70
f 82/80/71 89/95/71 29/96/71
f 30/89/72 87/92/72 31/97/72
f 31/97/73 87/92/73 88/98/73
f 89/99/74 91/100/74 86/101/74
f 89/95/75 4/102/75 95/103/75
f 88/98/76 92/104/76 31/97/76
f 18/10/77 94/88/77 36/8/77
f 3/1/78 33/105/78 1/2/78
f 91/100/79 95/106/79 32/107/79
f 3/1/80 39/17/80 92/104/80
f 34/4/81 2/6/81 32/107/81
f 1/2/82 40/108/82 42/21/82
f 1/2/83 42/21/83 38/3/83
f 35/7/84 4/5/84 41/11/84
f 36/8/85 92/104/85 39/17/85
f 1/2/86 33/105/86 40/108/86
f 33/105/87 2/6/87 40/108/87
f 42/21/88 40/108/88 46/19/88
f 39/17/89 8/9/89 36/8/89
f 4/102/90 20/13/90 41/15/90
f 2/6/91 37/12/91 40/108/91
f 42/21/92 45/16/92 38/3/92
f 39/17/93 45/16/93 50/24/93
f 42/21/94 6/22/94 45/16/94
f 8/9/95 39/17/95 51/25/95
f 46/19/96 44/23/96 49/20/96
f 5/14/97 20/13/97 43/109/97
f 45/16/98 6/22/98 48/26/98
f 5/18/99 43/110/99 7/111/99
f 43/109/100 20/13/100 7/31/100
f 44/23/99 5/18/99 7/111/99
f 44/23/101 7/111/101 47/49/101
f 10/40/102 47/49/102 9/112/102
f 52/28/103 47/49/103 13/34/103
f 48/26/104 6/22/104 96/29/104
f 48/26/105 12/30/105 11/27/105
f 47/49/106 7/111/106 9/112/106
f 51/25/107 50/24/107 11/27/107
f 13/34/108 47/49/108 10/40/108
f 20/13/109 53/32/109 7/31/109
f 10/40/110 9/112/110 53/38/110
f 13/34/111 10/40/111 59/42/111
f 54/35/112 13/34/112 59/42/112
f 8/9/113 15/46/113 18/10/113
f 96/29/114 54/35/114 61/43/114
f 53/32/115 20/13/115 55/36/115
f 65/44/116 55/36/116 72/53/116
f 55/36/117 65/44/117 56/37/117
f 57/41/118 11/27/118 14/60/118
f 56/39/119 58/113/119 59/42/119
f 20/13/120 72/53/120 55/36/120
f 61/43/121 17/59/121 14/60/121
f 60/50/122 63/54/122 64/51/122
f 15/46/123 57/41/123 14/60/123
f 62/47/124 59/42/124 60/50/124
f 62/47/125 60/50/125 61/43/125
f 17/59/126 61/43/126 69/52/126
f 14/60/127 68/57/127 15/46/127
f 64/51/128 71/56/128 16/63/128
f 64/51/129 16/63/129 69/52/129
f 75/72/130 22/75/130 74/65/130
f 67/58/131 68/57/131 73/69/131
f 15/46/132 67/58/132 18/10/132
f 67/58/133 73/69/133 76/66/133
f 68/57/134 17/59/134 69/52/134
f 73/69/135 68/57/135 69/52/135
f 71/56/136 75/72/136 16/63/136
f 16/63/137 75/72/137 19/68/137
f 70/64/138 74/65/138 69/52/138
f 74/65/139 77/76/139 81/71/139
f 69/52/140 81/71/140 73/69/140
f 21/70/141 73/69/141 23/73/141
f 75/67/142 72/53/142 22/82/142
f 21/70/143 84/78/143 76/66/143
f 72/53/144 20/13/144 82/80/144
f 22/82/145 72/53/145 82/80/145
f 77/76/146 22/75/146 24/85/146
f 22/75/147 79/86/147 24/85/147
f 78/74/148 28/79/148 84/78/148
f 25/83/149 24/85/149 27/91/149
f 81/71/150 25/83/150 85/93/150
f 79/81/151 82/80/151 26/114/151
f 24/85/152 26/87/152 27/91/152
f 85/93/153 25/83/153 27/91/153
f 28/79/154 30/89/154 31/97/154
f 83/90/155 28/79/155 31/97/155
f 84/78/156 83/90/156 94/88/156
f 81/71/157 85/93/157 30/89/157
f 30/89/158 85/93/158 87/92/158
f 26/114/159 82/80/159 29/96/159
f 82/80/160 20/13/160 4/102/160
f 27/91/161 29/94/161 86/101/161
f 27/91/162 86/101/162 87/92/162
f 91/100/163 89/99/163 95/106/163
f 90/115/164 86/101/164 91/100/164
f 86/101/165 90/115/165 87/92/165
f 89/95/166 82/80/166 4/102/166
f 86/101/167 29/94/167 89/99/167
f 87/92/168 90/115/168 3/1/168
f 94/88/169 83/90/169 31/97/169
f 90/115/170 32/107/170 33/105/170
f 3/1/171 90/115/171 33/105/171
f 88/98/172 3/1/172 92/104/172
f 32/107/173 95/106/173 34/4/173
f 95/103/174 4/102/174 34/116/174
f 3/1/175 38/3/175 39/17/175
f 32/107/176 2/6/176 33/105/176
f 46/19/177 40/108/177 37/12/177
f 96/29/178 61/43/178 14/60/178 11/27/178
f 59/42/179 58/113/179 63/54/179 60/50/179
f 31/97/180 92/104/180 36/8/180 94/88/180
f 72/53/181 66/62/181 63/48/181
f 88/98/182 87/92/182 3/1/182
f 32/107/183 90/115/183 91/100/183
