# Blender v2.90.1 OBJ File: 'Wood.blend'
# www.blender.org
mtllib IslandSmall2.mtl
o Small_Island_2_Low_Sphere.003
v 4.339337 2.417474 -5.064862
v 1.078071 -2.148312 -5.237738
v 3.036789 -1.857376 -3.435126
v 4.176554 2.152194 -2.276731
v 2.685242 -5.373426 -2.582111
v 7.595644 6.119637 -1.578012
v 6.655014 2.155314 4.150307
v 9.994524 3.528279 5.456977
v 4.813861 -1.610226 3.265938
v 3.387940 -1.239074 4.769847
v 2.760809 -0.210981 7.001404
v 0.850872 -3.230393 5.788973
v -2.377641 6.206486 9.229684
v 1.319352 -9.592999 2.622472
v -5.558572 -7.448272 2.886741
v 3.027741 6.885590 0.321947
v -12.330587 6.662885 7.619905
v -9.413109 2.163367 6.956615
v -6.638302 -3.801277 5.289971
v -13.866212 5.919979 6.667276
v -9.757197 -1.619557 4.546907
v -12.174442 6.690242 -6.595000
v -11.577068 2.077359 -6.851809
v -10.141165 -0.986650 -3.780861
v -7.582865 -2.639048 -2.566557
v 1.508129 6.217696 -10.835753
v 0.479254 -7.950029 -2.367037
v -3.107214 -4.484275 -3.751222
v 0.591627 2.691373 -8.910946
v 0.655379 -5.881907 -3.016390
v 1.934548 1.904406 -5.907951
v 2.014874 -6.310882 -0.892383
v 0.150683 -3.439209 -3.023260
v 4.076773 6.671541 -6.232938
v -0.775137 -1.899781 -6.761656
v 5.112142 4.479494 -7.470955
v 2.551122 -4.435182 -0.239522
v 7.339592 5.551295 -4.816077
v 2.848533 0.205772 -3.515673
v 0.832611 -9.727315 0.073855
v 9.570679 4.306866 -0.749344
v 4.242211 -2.094179 -0.868988
v 3.299164 -1.454968 0.266493
v 7.850433 5.436871 1.056804
v 5.102524 -6.030742 1.829371
v 9.800671 5.558536 3.120803
v 8.350918 2.281880 1.445287
v 3.031740 -3.799391 2.460501
v 6.741694 3.616552 8.950122
v 5.928866 0.936165 5.759231
v 2.702552 3.142540 6.971104
v 5.701875 6.207609 7.735934
v 2.855259 3.426080 9.541147
v 3.014049 -5.603900 3.873199
v -0.172060 1.315427 8.463987
v 0.937927 1.487749 6.718777
v -0.054543 -7.067041 4.824068
v 0.894508 6.371646 8.421278
v -0.473546 3.134655 11.337055
v 1.098391 6.706677 5.958661
v -4.267121 3.504992 9.949821
v -3.559373 -7.585830 5.082382
v -3.016623 0.298479 7.407814
v -3.934290 -10.018122 0.533741
v -3.290109 -2.077569 5.603686
v -6.656425 -0.403024 7.474254
v -2.116629 -4.905986 5.667768
v -7.094189 -6.323236 5.846529
v -10.810413 0.663007 5.731162
v -14.726783 2.218858 0.825578
v -6.865418 -4.376600 4.145640
v -15.970908 6.465585 1.730641
v -6.414540 -3.859470 2.649049
v -12.812451 1.115098 -2.619220
v -10.092201 -1.467188 1.798759
v -8.053468 -6.030671 1.526134
v -11.461697 7.205097 -2.515570
v -13.444603 5.249588 -4.098659
v -6.515544 -5.165658 -0.694257
v -5.157850 3.035918 -8.169134
v -3.934627 6.204000 -9.874369
v -5.859141 -6.130791 -2.266442
v -4.043014 -9.033612 -1.158801
v -2.967717 4.226926 -10.251349
v -5.808060 -8.687490 1.233260
vt 0.566404 0.685914
vt 0.566404 0.685914
vt 0.566404 0.685914
vt 0.328123 0.935914
vt 0.328123 0.935914
vt 0.328123 0.935914
vt 0.566404 0.685914
vt 0.566404 0.685914
vt 0.566404 0.685914
vt 0.566404 0.685914
vt 0.566404 0.685914
vt 0.566404 0.685914
vt 0.566404 0.685914
vt 0.566404 0.685914
vt 0.566404 0.685914
vt 0.566404 0.685914
vt 0.566404 0.685914
vt 0.566404 0.685914
vt 0.566404 0.685914
vt 0.566404 0.685914
vt 0.566404 0.685914
vt 0.328123 0.935914
vt 0.566404 0.685914
vt 0.566404 0.685914
vt 0.566404 0.685914
vt 0.566404 0.685914
vt 0.566404 0.685914
vt 0.328123 0.935914
vt 0.328123 0.935914
vt 0.566404 0.685914
vt 0.566404 0.685914
vt 0.566404 0.685914
vt 0.566404 0.685914
vt 0.566404 0.685914
vt 0.328123 0.935914
vt 0.328123 0.935914
vt 0.566404 0.685914
vt 0.566404 0.685914
vt 0.566404 0.685914
vt 0.328123 0.935914
vt 0.566404 0.685914
vt 0.566404 0.685914
vt 0.566404 0.685914
vt 0.566404 0.685914
vt 0.566404 0.685914
vt 0.566404 0.685914
vt 0.566404 0.685914
vt 0.566404 0.685914
vt 0.566404 0.685914
vt 0.566404 0.685914
vt 0.566404 0.685914
vt 0.566404 0.685914
vt 0.566404 0.685914
vt 0.566404 0.685914
vt 0.566404 0.685914
vt 0.566404 0.685914
vt 0.566404 0.685914
vt 0.566404 0.685914
vt 0.566404 0.685914
vt 0.328123 0.935914
vt 0.328123 0.935914
vt 0.328123 0.935914
vt 0.566404 0.685914
vt 0.566404 0.685914
vt 0.566404 0.685914
vt 0.566404 0.685914
vt 0.566404 0.685914
vt 0.566404 0.685914
vt 0.566404 0.685914
vt 0.566404 0.685914
vt 0.566404 0.685914
vt 0.566404 0.685914
vt 0.566404 0.685914
vt 0.328123 0.935914
vt 0.328123 0.935914
vt 0.566404 0.685914
vt 0.566404 0.685914
vt 0.566404 0.685914
vt 0.566404 0.685914
vt 0.566404 0.685914
vt 0.566404 0.685914
vt 0.328123 0.935914
vt 0.566404 0.685914
vt 0.566404 0.685914
vt 0.566404 0.685914
vt 0.566404 0.685914
vt 0.566404 0.685914
vt 0.328123 0.935914
vt 0.566404 0.685914
vt 0.566404 0.685914
vt 0.566404 0.685914
vt 0.566404 0.685914
vt 0.566404 0.685914
vt 0.566404 0.685914
vt 0.566404 0.685914
vt 0.566404 0.685914
vt 0.566404 0.685914
vt 0.566404 0.685914
vt 0.328123 0.935914
vt 0.328123 0.935914
vn 0.4452 -0.7971 -0.4080
vn 0.6892 0.5747 -0.4413
vn 0.4385 -0.5157 -0.7361
vn 0.4200 -0.8495 -0.3193
vn 0.4575 -0.8252 0.3313
vn 0.3526 -0.7635 -0.5411
vn 0.7296 -0.3943 -0.5587
vn -0.0074 -0.8089 -0.5879
vn 0.8200 -0.3996 -0.4097
vn 0.6742 0.0327 -0.7378
vn 0.4833 0.5923 -0.6446
vn -0.0100 -0.2348 -0.9720
vn 0.9931 -0.0779 0.0881
vn 0.7231 -0.6904 -0.0235
vn 0.9930 0.0875 -0.0799
vn 0.1629 0.9866 -0.0062
vn 0.8098 -0.5866 -0.0060
vn 0.7514 -0.6574 0.0560
vn 0.3072 -0.0980 -0.9466
vn 0.6624 0.6943 -0.2814
vn 0.6557 0.0741 -0.7514
vn 0.2497 0.9430 0.2202
vn 0.3181 0.8801 -0.3524
vn 0.7256 0.0305 -0.6874
vn 0.1827 0.9829 0.0240
vn 0.9200 -0.2548 -0.2978
vn 0.6688 0.4542 0.5886
vn 0.7553 -0.4753 0.4513
vn 0.5915 -0.4468 0.6711
vn 0.5728 -0.4567 0.6807
vn 0.9095 -0.4019 0.1059
vn 0.7454 -0.5007 0.4401
vn 0.8078 0.3585 0.4680
vn 0.1117 0.4581 0.8819
vn -0.2395 -0.7125 0.6595
vn 0.3604 0.0147 0.9327
vn 0.4140 -0.3127 0.8549
vn 0.3651 0.5332 0.7632
vn 0.6217 -0.7126 0.3251
vn 0.0647 -0.9971 0.0402
vn 0.0985 -0.8361 0.5397
vn 0.1884 -0.4662 0.8644
vn 0.1578 0.6233 0.7659
vn -0.2746 0.4224 0.8638
vn 0.1103 -0.2684 0.9570
vn 0.0178 0.9854 0.1696
vn -0.2424 -0.6590 0.7120
vn -0.1186 -0.8715 0.4758
vn -0.4329 -0.2931 0.8525
vn -0.3017 -0.7405 0.6005
vn -0.9758 0.1972 0.0945
vn -0.3624 -0.3635 0.8582
vn -0.5678 0.7561 0.3256
vn -0.1226 0.9915 0.0425
vn 0.0276 0.9992 -0.0282
vn -0.6264 -0.7788 0.0332
vn -0.6862 -0.7261 0.0434
vn -0.7910 0.6112 -0.0271
vn -0.8836 -0.1655 -0.4380
vn -0.4823 0.7920 -0.3742
vn -0.9047 -0.2593 -0.3380
vn -0.8436 -0.5365 -0.0229
vn -0.7569 -0.4241 -0.4971
vn -0.8297 0.4729 0.2965
vn 0.0024 0.9912 -0.1324
vn -0.7572 -0.3196 -0.5697
vn -0.9478 -0.1060 -0.3007
vn -0.6684 -0.6590 -0.3449
vn -0.3660 -0.3275 -0.8711
vn -0.4330 -0.6476 -0.6271
vn 0.1363 -0.4530 -0.8810
vn -0.3063 -0.5025 -0.8085
vn -0.0685 -0.6025 -0.7952
vn 0.2021 0.0293 -0.9789
vn 0.2042 0.0446 -0.9779
vn 0.2994 -0.8798 -0.3693
vn 0.7687 -0.4443 -0.4602
vn 0.7941 -0.2426 -0.5573
vn 0.0712 -0.8602 -0.5049
vn 0.3565 -0.8644 -0.3546
vn 0.6394 0.0786 -0.7648
vn 0.3666 -0.6868 -0.6277
vn 0.6958 -0.6403 -0.3253
vn 0.3913 0.9006 -0.1890
vn 0.6967 -0.6064 -0.3832
vn 0.8275 -0.5614 -0.0051
vn 0.8665 -0.4107 -0.2836
vn 0.9260 -0.3291 0.1848
vn 0.5591 -0.5643 -0.6074
vn 0.4463 0.8857 -0.1279
vn 0.8079 0.3509 0.4734
vn 0.6388 0.7575 0.1345
vn 0.4388 -0.7687 -0.4654
vn 0.6250 -0.4050 -0.6673
vn 0.7742 -0.4773 -0.4157
vn 0.7685 0.1969 0.6088
vn 0.6335 0.6093 0.4769
vn 0.3219 -0.9335 0.1581
vn 0.6089 -0.7145 -0.3445
vn 0.6824 -0.6970 -0.2202
vn 0.4860 -0.6217 0.6143
vn 0.6727 -0.7344 -0.0898
vn 0.6307 0.5221 0.5741
vn 0.6206 -0.5968 0.5086
vn 0.4583 -0.7513 0.4749
vn 0.4493 -0.4355 0.7800
vn -0.1474 0.0064 0.9891
vn -0.2028 0.6706 0.7135
vn 0.7971 0.5860 0.1457
vn 0.5768 0.6914 0.4351
vn 0.1117 -0.2671 0.9572
vn -0.1255 -0.5240 0.8424
vn -0.0434 0.0046 0.9990
vn -0.3136 -0.6620 0.6808
vn -0.1347 0.3421 0.9299
vn -0.1965 -0.5785 0.7917
vn -0.0171 0.9909 0.1334
vn -0.0865 -0.0133 0.9962
vn -0.3903 -0.3769 0.8400
vn 0.2587 -0.8507 0.4576
vn -0.0168 0.1803 0.9835
vn -0.1521 0.1168 0.9814
vn 0.1317 -0.6090 0.7821
vn -0.5807 -0.6753 0.4547
vn -0.0277 0.2202 0.9751
vn -0.8971 -0.2262 -0.3795
vn -0.7440 -0.5095 0.4324
vn -0.8809 -0.3303 0.3390
vn -0.4297 -0.8056 -0.4078
vn -0.6320 -0.4659 -0.6193
vn -0.6091 -0.7885 -0.0858
vn -0.6334 -0.7714 -0.0609
vn -0.5308 -0.8439 -0.0786
vn -0.5180 -0.8526 -0.0689
vn -0.7166 0.6965 0.0373
vn -0.4890 -0.6432 -0.5892
vn 0.0081 0.9919 -0.1266
vn -0.6258 -0.6910 -0.3618
vn -0.0362 -0.7159 -0.6973
vn -0.2049 0.0279 -0.9784
vn -0.6313 -0.1642 -0.7580
vn -0.3926 -0.5572 -0.7317
vn -0.4104 -0.5101 -0.7559
vn -0.6252 0.5211 -0.5810
vn -0.1733 0.1020 -0.9796
vn -0.0181 0.9959 -0.0881
vn 0.1092 -0.4980 -0.8603
vn 0.0148 0.9992 0.0368
vn 0.0034 0.9986 0.0537
vn 0.2884 -0.8254 -0.4853
vn 0.0845 0.9946 0.0605
vn 0.2712 -0.9222 0.2758
vn 0.0647 -0.9923 0.1056
vn -0.6990 -0.3675 0.6134
vn 0.1471 -0.6032 0.7839
vn -0.2659 -0.7574 0.5964
vn -0.3597 -0.3601 0.8607
vn -0.6182 -0.5385 0.5726
vn -0.1196 -0.3657 -0.9230
vn -0.7296 -0.5486 0.4085
vn -0.2527 -0.7958 -0.5504
usemtl NewMaterial
s off
f 36/1/1 31/2/1 29/3/1
f 26/4/2 34/5/2 36/6/2
f 26/7/3 36/1/3 29/3/3
f 2/8/4 3/9/4 33/10/4
f 53/11/5 59/12/5 55/13/5 51/14/5
f 36/1/6 1/15/6 31/2/6
f 35/16/7 31/2/7 39/17/7
f 64/18/8 27/19/8 40/20/8
f 27/19/9 32/21/9 40/20/9
f 2/8/10 39/17/10 3/9/10
f 34/5/11 38/22/11 36/6/11
f 33/10/12 3/9/12 5/23/12
f 3/9/13 37/24/13 5/23/13
f 1/15/14 38/25/14 4/26/14
f 3/9/15 39/17/15 43/27/15
f 16/28/16 6/29/16 34/5/16
f 37/24/17 42/30/17 48/31/17
f 38/25/18 6/32/18 4/26/18
f 4/26/19 6/32/19 41/33/19
f 37/24/20 48/31/20 45/34/20
f 32/21/21 37/24/21 45/34/21
f 6/29/22 16/28/22 44/35/22
f 44/35/23 16/28/23 46/36/23
f 44/37/24 46/38/24 47/39/24
f 16/28/25 52/40/25 46/36/25
f 46/38/26 8/41/26 47/39/26
f 48/31/27 54/42/27 45/34/27
f 47/39/28 7/43/28 9/44/28
f 9/44/29 7/43/29 10/45/29
f 45/34/30 54/42/30 14/46/30
f 7/43/31 49/47/31 50/48/31
f 10/45/32 11/49/32 48/31/32
f 54/42/33 48/31/33 12/50/33
f 49/47/34 52/51/34 53/11/34
f 50/48/35 49/47/35 51/14/35
f 50/48/36 51/14/36 11/49/36
f 54/42/37 12/50/37 57/52/37
f 58/53/38 59/12/38 53/11/38
f 51/14/39 55/13/39 56/54/39
f 40/20/40 14/46/40 64/18/40
f 59/12/41 63/55/41 55/13/41
f 11/49/42 55/13/42 12/50/42
f 58/53/43 13/56/43 59/12/43
f 13/56/44 61/57/44 59/12/44
f 57/52/45 67/58/45 62/59/45
f 13/60/46 60/61/46 17/62/46
f 61/57/47 18/63/47 63/55/47
f 62/59/48 64/18/48 14/46/48
f 66/64/49 18/63/49 69/65/49
f 15/66/50 85/67/50 64/18/50
f 68/68/51 19/69/51 71/70/51
f 20/71/52 69/65/52 18/63/52
f 17/72/53 72/73/53 20/71/53
f 17/62/54 77/74/54 72/75/54
f 77/74/55 16/28/55 34/5/55
f 70/76/56 75/77/56 21/78/56
f 21/78/57 75/77/57 71/70/57
f 71/70/58 73/79/58 76/80/58
f 70/76/59 72/73/59 74/81/59
f 77/74/60 78/82/60 72/75/60
f 72/73/61 78/83/61 74/81/61
f 79/84/62 82/85/62 83/86/62
f 79/84/63 83/86/63 85/67/63
f 73/79/64 25/87/64 76/80/64
f 34/5/65 81/88/65 77/74/65
f 78/83/66 22/89/66 74/81/66
f 74/81/67 22/89/67 23/90/67
f 74/81/68 23/90/68 24/91/68
f 22/89/69 81/92/69 80/93/69
f 25/87/70 28/94/70 79/84/70
f 84/95/71 29/3/71 35/16/71
f 80/93/72 35/16/72 24/91/72
f 28/94/73 30/96/73 82/85/73
f 30/96/74 28/94/74 5/23/74
f 5/23/75 28/94/75 33/10/75
f 32/21/76 30/96/76 5/23/76
f 35/16/77 29/3/77 31/2/77
f 30/96/78 32/21/78 27/19/78
f 64/18/79 83/86/79 27/19/79
f 28/94/80 2/8/80 33/10/80
f 2/8/81 35/16/81 39/17/81
f 31/2/82 1/15/82 39/17/82
f 36/1/83 38/25/83 1/15/83
f 38/22/84 34/5/84 6/29/84
f 3/9/85 42/30/85 37/24/85
f 39/17/86 1/15/86 4/26/86
f 39/17/87 4/26/87 43/27/87
f 32/21/88 5/23/88 37/24/88
f 43/27/89 4/26/89 47/39/89
f 3/9/90 43/27/90 42/30/90
f 42/30/91 43/27/91 48/31/91
f 41/33/92 6/32/92 44/37/92
f 47/39/93 4/26/93 41/33/93
f 40/20/94 32/21/94 45/34/94
f 43/27/95 9/44/95 48/31/95
f 47/39/96 41/33/96 44/37/96
f 46/38/97 52/51/97 8/41/97
f 47/39/98 8/41/98 7/43/98
f 43/27/99 47/39/99 9/44/99
f 7/43/100 50/48/100 10/45/100
f 48/31/101 9/44/101 10/45/101
f 40/20/102 45/34/102 14/46/102
f 8/41/103 52/51/103 49/47/103
f 48/31/104 11/49/104 12/50/104
f 11/49/105 10/45/105 50/48/105
f 14/46/106 54/42/106 57/52/106
f 11/49/107 51/14/107 56/54/107
f 52/51/108 60/97/108 53/11/108
f 53/11/109 60/97/109 58/53/109
f 11/49/110 56/54/110 55/13/110
f 12/50/111 67/58/111 57/52/111
f 12/50/112 55/13/112 63/55/112
f 67/58/113 12/50/113 65/98/113
f 63/55/114 59/12/114 61/57/114
f 61/57/115 13/56/115 17/72/115
f 12/50/116 63/55/116 65/98/116
f 13/60/117 58/99/117 60/61/117
f 65/98/118 19/69/118 67/58/118
f 61/57/119 17/72/119 18/63/119
f 15/66/120 67/58/120 68/68/120
f 63/55/121 18/63/121 66/64/121
f 19/69/122 65/98/122 21/78/122
f 65/98/123 63/55/123 66/64/123
f 19/69/124 21/78/124 71/70/124
f 68/68/125 67/58/125 19/69/125
f 15/66/126 68/68/126 71/70/126
f 69/65/127 20/71/127 70/76/127
f 20/71/128 72/73/128 70/76/128
f 71/70/129 75/77/129 73/79/129
f 85/67/130 76/80/130 79/84/130
f 75/77/131 70/76/131 74/81/131
f 75/77/132 74/81/132 24/91/132
f 75/77/133 25/87/133 73/79/133
f 75/77/134 24/91/134 25/87/134
f 78/82/135 77/74/135 22/100/135
f 76/80/136 25/87/136 79/84/136
f 77/74/137 81/88/137 22/100/137
f 64/18/138 85/67/138 83/86/138
f 23/90/139 80/93/139 24/91/139
f 23/90/140 22/89/140 80/93/140
f 84/95/141 80/93/141 81/92/141
f 80/93/142 84/95/142 35/16/142
f 25/87/143 35/16/143 28/94/143
f 79/84/144 28/94/144 82/85/144
f 84/95/145 81/92/145 26/7/145
f 81/88/146 34/5/146 26/4/146
f 84/95/147 26/7/147 29/3/147
f 60/61/148 16/28/148 77/74/148
f 17/62/149 60/61/149 77/74/149
f 35/16/150 2/8/150 28/94/150
f 60/61/151 52/40/151 16/28/151
f 49/47/152 7/43/152 8/41/152
f 53/11/153 51/14/153 49/47/153
f 15/66/154 64/18/154 62/59/154 67/58/154
f 62/59/155 14/46/155 57/52/155
f 66/64/156 69/65/156 21/78/156 65/98/156
f 20/71/157 18/63/157 17/72/157
f 76/80/158 85/67/158 15/66/158 71/70/158
f 82/85/159 30/96/159 27/19/159 83/86/159
f 70/76/160 21/78/160 69/65/160
f 35/16/161 25/87/161 24/91/161
