# Blender v2.90.1 OBJ File: 'Wood.blend'
# www.blender.org
mtllib IslandMini2.mtl
o Mini_Island_2_Sphere.007
v -1.179833 1.978525 -7.339690
v -1.076967 -1.538218 -3.288411
v -0.219560 3.156635 -6.323574
v 8.480465 2.746873 -4.691049
v 6.202392 -1.217936 -2.887202
v 8.824985 2.986272 -2.805557
v 0.022236 -4.197964 1.459784
v 9.295462 2.571285 -0.837259
v 8.766163 -0.115906 0.322863
v 2.677738 -2.443339 0.778719
v 0.805113 -2.706977 3.267119
v -2.806389 0.412796 6.265314
v -5.469809 1.434553 6.322897
v 7.860754 3.333222 -2.147110
v -9.358307 3.010565 4.485981
v -9.072224 0.819347 0.825550
v -9.347492 2.374786 -2.402390
v -8.557988 0.725350 -2.931176
v -4.648708 -2.569587 0.616099
v -8.768868 2.836582 -4.735836
v -4.780349 -1.752182 -1.107928
v -3.813489 1.339190 -6.569922
v -1.520845 -1.186738 -4.795164
v -1.687281 2.891347 -7.229043
v -1.624366 -4.323260 -0.754997
v 7.249069 2.150599 -5.796566
v 0.220249 -2.607986 -2.825395
v 6.285368 0.121145 -5.702608
v 6.906977 2.931348 -6.223354
v 6.537499 -1.415044 -3.928979
v 8.397340 2.936639 -3.324889
v 8.230834 -0.469802 -2.900305
v 3.667865 -1.828395 -2.625696
v 8.566538 1.960126 -1.915017
v 2.949691 -2.119656 -1.667657
v 0.953918 -2.419434 -0.985933
v 1.802891 -2.883603 -1.128884
v 8.216627 -1.055003 -0.929006
v 9.315289 2.902937 0.568429
v 7.057053 -0.591322 1.790748
v 8.976860 3.129035 2.146168
v 9.337930 1.938014 2.869735
v 1.985961 -3.274439 2.095801
v 5.270685 1.882901 6.613690
v 4.910937 0.293158 6.781179
v 4.425654 0.496033 7.087037
v 4.292395 -1.217446 4.773070
v 0.311220 0.256560 7.195387
v 5.668720 2.929295 6.511122
v -1.404609 2.032942 7.832751
v -2.173775 -3.725756 3.783393
v -1.690599 -2.362941 4.598140
v -2.191804 -1.502691 4.620151
v -3.172844 -0.570385 5.679419
v -3.271918 1.544785 7.429514
v -3.730441 3.247136 6.504875
v -3.138731 -2.410207 4.012894
v -5.817019 0.647745 6.038038
v -6.404724 2.876009 6.390429
v -3.039272 -4.395652 0.364966
v -6.109185 -0.961317 2.838934
v -3.222114 -3.190259 2.204736
v -10.116064 3.073506 0.278893
v -3.797998 -1.919750 2.080176
v -7.715445 3.302552 -4.135936
v -3.158764 -3.038190 -0.842858
v -3.639243 -3.360666 -0.063897
v -6.854315 -0.967523 -1.566163
v -7.065521 0.929320 -5.704583
v -5.932663 -0.805372 -2.583102
v -2.079720 -2.542621 -1.688004
v -5.796353 2.886370 -5.998136
v -5.543668 2.289232 -6.193175
v -1.302181 -2.973760 -2.366029
v -2.323320 -4.143689 -0.510166
v -4.217018 2.902036 -6.529459
v 4.368905 -1.471736 1.548101
vt 0.574219 0.678403
vt 0.574219 0.678403
vt 0.574219 0.678403
vt 0.339844 0.922544
vt 0.339844 0.922544
vt 0.339844 0.922544
vt 0.339844 0.922544
vt 0.574219 0.678403
vt 0.574219 0.678403
vt 0.574219 0.678403
vt 0.574219 0.678403
vt 0.574219 0.678403
vt 0.574219 0.678403
vt 0.574219 0.678403
vt 0.574219 0.678403
vt 0.574219 0.678403
vt 0.574219 0.678404
vt 0.332031 0.920591
vt 0.332031 0.920591
vt 0.332031 0.920591
vt 0.574219 0.678403
vt 0.574219 0.678403
vt 0.574219 0.678403
vt 0.574219 0.678403
vt 0.574219 0.678403
vt 0.574219 0.678403
vt 0.574219 0.678403
vt 0.574219 0.678403
vt 0.574219 0.678403
vt 0.332031 0.920591
vt 0.332031 0.920591
vt 0.332031 0.920591
vt 0.574219 0.678403
vt 0.574219 0.678403
vt 0.574219 0.678403
vt 0.574219 0.678403
vt 0.574219 0.678403
vt 0.574219 0.678403
vt 0.574219 0.678403
vt 0.574219 0.678403
vt 0.574219 0.678403
vt 0.574219 0.678403
vt 0.574219 0.678403
vt 0.574219 0.678403
vt 0.574219 0.678403
vt 0.332031 0.920591
vt 0.332031 0.920591
vt 0.332031 0.920591
vt 0.574219 0.678404
vt 0.574219 0.678403
vt 0.574219 0.678403
vt 0.574219 0.678403
vt 0.574219 0.678403
vt 0.574219 0.678403
vt 0.574219 0.678403
vt 0.574219 0.678403
vt 0.574219 0.678403
vt 0.574219 0.678403
vt 0.574219 0.678403
vt 0.574219 0.678403
vt 0.574219 0.678403
vt 0.574219 0.678403
vt 0.574219 0.678403
vt 0.574219 0.678403
vt 0.332031 0.920591
vt 0.332031 0.920591
vt 0.332031 0.920591
vt 0.574219 0.678403
vt 0.574219 0.678403
vt 0.574219 0.678403
vt 0.574219 0.678403
vt 0.574219 0.678403
vt 0.574219 0.678403
vt 0.574219 0.678403
vt 0.574219 0.678403
vt 0.574219 0.678403
vt 0.574219 0.678403
vt 0.332031 0.920591
vt 0.332031 0.920591
vt 0.574219 0.678403
vt 0.574219 0.678403
vt 0.574219 0.678403
vt 0.574219 0.678403
vt 0.332031 0.920591
vt 0.332031 0.920591
vt 0.574219 0.678403
vt 0.574219 0.678403
vt 0.574219 0.678403
vt 0.574219 0.678403
vt 0.574219 0.678403
vt 0.339844 0.922544
vt 0.332031 0.920591
vt 0.339844 0.922544
vt 0.339844 0.922544
vt 0.339844 0.922544
vt 0.574219 0.678403
vt 0.574219 0.678403
vt 0.574219 0.678403
vt 0.332031 0.920591
vt 0.332031 0.920591
vt 0.332031 0.920591
vt 0.332031 0.920591
vn -0.0033 -0.9741 -0.2263
vn 0.4459 0.3479 -0.8247
vn 0.0310 0.6382 -0.7692
vn -0.1815 -0.9649 0.1895
vn 0.3793 -0.9164 0.1279
vn 0.1721 -0.4134 -0.8942
vn 0.2630 0.9522 -0.1554
vn 0.2094 -0.9655 0.1548
vn 0.6893 -0.0909 -0.7188
vn 0.6302 -0.4144 -0.6566
vn 0.3340 -0.9007 0.2778
vn 0.4292 0.8650 -0.2599
vn 0.0602 -0.9667 -0.2487
vn 0.1077 -0.9871 -0.1186
vn 0.3320 -0.9049 -0.2662
vn 0.0969 -0.9951 -0.0169
vn 0.5163 -0.8546 -0.0557
vn 0.8870 0.4465 -0.1179
vn 0.5407 -0.8394 -0.0543
vn 0.5204 -0.7769 0.3543
vn 0.2767 -0.9208 0.2750
vn 0.9191 0.3665 0.1446
vn 0.9817 -0.1719 -0.0817
vn 0.4805 -0.8333 -0.2735
vn 0.6124 -0.6769 0.4084
vn 0.5698 -0.7314 0.3747
vn 0.6672 -0.1830 0.7221
vn 0.0378 -0.8041 0.5933
vn 0.1802 0.0278 0.9832
vn 0.0624 -0.8038 0.5916
vn 0.0239 -0.8361 0.5480
vn 0.0252 0.7594 0.6502
vn -0.0885 -0.4110 0.9073
vn 0.5395 -0.5647 0.6246
vn 0.4821 0.2595 0.8368
vn -0.2914 0.3948 0.8713
vn 0.2919 -0.5676 0.7699
vn -0.1032 -0.4805 0.8709
vn 0.4105 -0.9088 0.0742
vn -0.1009 0.4537 0.8854
vn -0.0951 -0.3015 0.9487
vn -0.8086 -0.5257 0.2641
vn -0.3194 -0.8345 0.4489
vn -0.2710 -0.2197 0.9372
vn -0.4070 -0.9088 -0.0918
vn -0.6234 -0.6742 0.3960
vn -0.7656 -0.2907 0.5739
vn -0.0509 0.9984 0.0241
vn -0.8855 -0.4436 -0.1382
vn -0.5473 -0.5709 -0.6121
vn -0.8404 0.4621 0.2832
vn -0.7043 -0.3874 -0.5948
vn -0.3931 -0.7836 -0.4812
vn -0.3644 -0.9291 0.0635
vn -0.8963 -0.3364 -0.2888
vn -0.1796 0.9044 -0.3872
vn -0.3283 -0.8905 -0.3151
vn -0.4032 0.1255 -0.9065
vn -0.0559 0.9890 -0.1371
vn -0.2306 -0.0344 -0.9724
vn -0.1291 -0.5216 -0.8433
vn -0.2725 -0.0350 -0.9615
vn 0.0494 -0.7515 -0.6579
vn -0.0102 -0.7655 -0.6433
vn 0.0146 -0.6274 -0.7785
vn 0.7527 -0.4409 -0.4889
vn 0.4556 -0.8413 -0.2911
vn 0.0329 0.9939 -0.1057
vn 0.1811 -0.1311 -0.9747
vn 0.2199 -0.9755 0.0123
vn 0.2513 -0.9331 0.2574
vn 0.1965 -0.9222 -0.3331
vn 0.4459 0.8899 -0.0965
vn 0.2196 -0.9670 -0.1294
vn 0.0485 0.9897 -0.1345
vn 0.1799 0.9541 -0.2393
vn 0.9740 -0.1631 -0.1573
vn 0.9813 -0.1711 0.0876
vn 0.8575 -0.3368 -0.3889
vn 0.9435 -0.1967 -0.2666
vn 0.2891 -0.9551 0.0649
vn 0.8322 -0.4678 -0.2976
vn 0.3954 0.8386 -0.3749
vn 0.3241 0.9457 -0.0237
vn 0.9830 -0.1812 0.0289
vn 0.5254 -0.7698 0.3624
vn 0.3035 -0.9493 0.0821
vn 0.3727 0.9265 -0.0528
vn 0.0337 0.9969 0.0711
vn 0.6671 0.5240 0.5296
vn 0.7403 0.3205 0.5910
vn 0.6759 -0.0757 0.7331
vn 0.0235 0.9989 0.0414
vn 0.0159 -0.7291 0.6842
vn 0.0426 -0.3007 0.9528
vn 0.1881 -0.7961 0.5753
vn 0.1955 -0.7964 0.5723
vn -0.2255 -0.7420 0.6313
vn -0.2416 -0.6757 0.6965
vn -0.5308 -0.2672 0.8043
vn -0.3333 -0.3939 0.8566
vn -0.1069 -0.9892 0.1000
vn -0.7418 -0.5973 0.3049
vn -0.3580 -0.2317 0.9045
vn -0.4741 -0.7184 0.5090
vn 0.0049 -0.0437 0.9990
vn -0.3274 -0.8388 0.4350
vn -0.4264 -0.1517 0.8917
vn -0.8983 -0.3868 0.2083
vn -0.1437 0.9463 0.2897
vn -0.8814 -0.4304 0.1944
vn -0.0028 1.0000 0.0062
vn -0.0506 0.9984 0.0242
vn -0.6466 -0.6757 0.3540
vn -0.9101 -0.3831 0.1582
vn -0.5392 -0.8266 0.1612
vn -0.5598 -0.8231 0.0958
vn -0.7202 0.5926 -0.3609
vn -0.9099 -0.3988 -0.1146
vn -0.6726 -0.7363 -0.0736
vn -0.3343 -0.8612 -0.3828
vn -0.6572 0.1850 -0.7306
vn -0.5518 -0.5934 -0.5860
vn -0.3653 -0.9287 0.0631
vn -0.2550 -0.8920 -0.3733
vn -0.4363 0.8971 0.0693
vn 0.0045 0.9987 -0.0510
vn -0.7679 -0.4588 -0.4470
vn -0.4495 -0.8401 -0.3037
vn -0.3157 0.1713 -0.9333
vn 0.0176 -0.3555 -0.9345
vn -0.2717 -0.8797 -0.3903
vn -0.0627 0.9583 -0.2788
vn -0.3899 0.1158 -0.9136
vn -0.1718 -0.9694 -0.1755
vn -0.3707 -0.5131 -0.7742
vn -0.7156 -0.2946 -0.6333
vn -0.2665 -0.0439 -0.9628
vn -0.0519 0.9779 -0.2025
vn -0.0668 -0.4635 -0.8836
vn -0.0779 -0.6195 -0.7811
vn 0.7135 -0.3665 -0.5971
vn -0.2041 -0.7665 -0.6089
vn -0.5054 -0.7538 -0.4200
vn 0.9917 -0.1249 -0.0299
vn 0.2135 0.1965 0.9570
vn -0.5988 -0.4865 -0.6362
usemtl NewMaterial
s off
f 2/1/1 23/2/1 30/3/1
f 24/4/2 3/5/2 1/6/2
f 3/5/3 29/7/3 1/6/3
f 25/8/4 7/9/4 75/10/4
f 11/11/5 10/12/5 77/13/5 47/14/5
f 29/15/6 26/16/6 1/17/6
f 14/18/7 4/19/7 29/20/7
f 30/3/8 33/21/8 27/22/8
f 29/15/9 4/23/9 26/16/9
f 4/23/10 32/24/10 30/3/10
f 30/3/11 32/24/11 5/25/11
f 27/22/12 36/26/12 37/27/12
f 35/28/13 36/26/13 33/21/13
f 35/28/14 10/12/14 36/26/14
f 5/25/15 32/24/15 38/29/15
f 38/29/16 77/13/16 5/25/16
f 35/28/17 77/13/17 10/12/17
f 6/30/18 39/31/18 8/32/18
f 37/27/19 10/12/19 7/9/19
f 9/33/20 40/34/20 38/29/20
f 40/34/21 77/13/21 38/29/21
f 39/35/22 41/36/22 42/37/22
f 39/35/23 42/37/23 9/33/23
f 10/12/24 43/38/24 7/9/24
f 9/33/25 42/37/25 45/39/25
f 40/34/26 45/39/26 47/14/26
f 42/37/27 49/40/27 44/41/27
f 47/14/28 45/39/28 46/42/28
f 44/41/29 49/40/29 50/43/29
f 47/14/30 46/42/30 48/44/30
f 47/14/31 48/44/31 53/45/31
f 49/46/32 56/47/32 50/48/32
f 50/43/33 55/49/33 48/44/33
f 7/9/34 52/50/34 51/51/34
f 53/45/35 52/50/35 11/11/35
f 56/52/36 55/49/36 50/43/36
f 53/45/37 12/53/37 54/54/37
f 12/53/38 58/55/38 54/54/38
f 51/51/39 60/56/39 75/10/39
f 56/52/40 59/57/40 55/49/40
f 12/53/41 13/58/41 58/55/41
f 57/59/42 62/60/42 60/56/42
f 53/45/43 58/55/43 61/61/43
f 13/58/44 59/57/44 58/55/44
f 57/59/45 61/61/45 64/62/45
f 58/55/46 15/63/46 61/61/46
f 62/60/47 64/62/47 19/64/47
f 65/65/48 63/66/48 15/67/48
f 63/68/49 17/69/49 16/70/49
f 60/56/50 67/71/50 75/10/50
f 64/62/51 21/72/51 19/64/51
f 67/71/52 19/64/52 66/73/52
f 18/74/53 70/75/53 68/76/53
f 61/61/54 21/72/54 64/62/54
f 17/69/55 20/77/55 18/74/55
f 65/65/56 72/78/56 20/79/56
f 21/72/57 70/75/57 71/80/57
f 72/81/58 73/82/58 69/83/58
f 72/78/59 3/84/59 76/85/59
f 73/82/60 76/86/60 22/87/60
f 2/1/61 27/22/61 74/88/61
f 24/89/62 1/17/62 22/87/62
f 23/2/63 28/90/63 30/3/63
f 25/8/64 74/88/64 27/22/64
f 23/2/65 1/17/65 28/90/65
f 30/3/66 28/90/66 4/23/66
f 27/22/67 7/9/67 25/8/67
f 3/5/68 14/91/68 29/7/68
f 1/17/69 26/16/69 28/90/69
f 27/22/70 33/21/70 36/26/70
f 30/3/71 5/25/71 33/21/71
f 7/9/72 27/22/72 37/27/72
f 4/19/73 14/18/73 31/92/73
f 33/21/74 5/25/74 35/28/74
f 4/93/75 31/94/75 6/95/75
f 31/92/76 14/18/76 6/30/76
f 32/24/77 4/23/77 6/96/77
f 32/24/78 6/96/78 34/97/78
f 9/33/79 34/97/79 8/98/79
f 38/29/80 34/97/80 9/33/80
f 35/28/81 5/25/81 77/13/81
f 34/97/82 6/96/82 8/98/82
f 37/27/83 36/26/83 10/12/83
f 14/18/84 39/31/84 6/30/84
f 9/33/85 8/98/85 39/35/85
f 40/34/86 9/33/86 45/39/86
f 77/13/87 40/34/87 47/14/87
f 39/31/88 14/18/88 41/99/88
f 49/46/89 41/99/89 56/47/89
f 41/36/90 49/40/90 42/37/90
f 43/38/91 10/12/91 11/11/91
f 42/37/92 44/41/92 45/39/92
f 14/18/93 56/47/93 41/99/93
f 47/14/94 53/45/94 11/11/94
f 46/42/95 50/43/95 48/44/95
f 7/9/96 43/38/96 11/11/96
f 11/11/97 52/50/97 7/9/97
f 48/44/98 55/49/98 12/53/98
f 48/44/99 12/53/99 53/45/99
f 59/57/100 15/63/100 58/55/100
f 51/51/101 52/50/101 57/59/101
f 7/9/102 51/51/102 75/10/102
f 51/51/103 57/59/103 60/56/103
f 57/59/104 52/50/104 53/45/104
f 55/49/105 59/57/105 12/53/105
f 12/53/106 59/57/106 13/58/106
f 54/54/107 58/55/107 53/45/107
f 53/45/108 61/61/108 57/59/108
f 62/60/109 57/59/109 64/62/109
f 59/100/110 56/47/110 15/67/110
f 62/60/111 67/71/111 60/56/111
f 56/47/112 14/18/112 65/65/112
f 15/67/113 56/47/113 65/65/113
f 61/61/114 15/63/114 16/70/114
f 15/63/115 63/68/115 16/70/115
f 62/60/116 19/64/116 67/71/116
f 61/61/117 16/70/117 68/76/117
f 63/66/118 65/65/118 17/101/118
f 16/70/119 17/69/119 18/74/119
f 68/76/120 16/70/120 18/74/120
f 19/64/121 21/72/121 71/80/121
f 66/73/122 19/64/122 71/80/122
f 67/71/123 66/73/123 75/10/123
f 61/61/124 68/76/124 21/72/124
f 21/72/125 68/76/125 70/75/125
f 17/101/126 65/65/126 20/79/126
f 65/65/127 14/18/127 3/84/127
f 18/74/128 20/77/128 69/83/128
f 18/74/129 69/83/129 70/75/129
f 73/82/130 72/81/130 76/86/130
f 23/2/131 69/83/131 73/82/131
f 69/83/132 23/2/132 70/75/132
f 72/78/133 65/65/133 3/84/133
f 69/83/134 20/77/134 72/81/134
f 70/75/135 23/2/135 2/1/135
f 75/10/136 66/73/136 71/80/136
f 71/80/137 2/1/137 74/88/137
f 22/87/138 76/86/138 24/89/138
f 76/85/139 3/84/139 24/102/139
f 2/1/140 30/3/140 27/22/140
f 22/87/141 1/17/141 23/2/141
f 4/23/142 28/90/142 26/16/142
f 71/80/143 70/75/143 2/1/143
f 22/87/144 23/2/144 73/82/144
f 32/24/145 34/97/145 38/29/145
f 46/42/146 45/39/146 44/41/146 50/43/146
f 75/10/147 71/80/147 74/88/147 25/8/147
