# Blender v2.90.1 OBJ File: 'Wood.blend'
# www.blender.org
mtllib LanternStand.mtl
o Lantern_Holder_Cube.023
v -0.157063 1.000000 -0.265798
v -0.118040 -1.000000 -0.265799
v -0.125229 0.951860 0.265799
v -0.121371 0.270122 0.265799
v 0.157063 1.000000 -0.265798
v 0.118040 -1.000000 -0.265799
v 0.125229 0.951860 0.265799
v 0.109497 0.270122 0.265799
v -0.126860 -0.148868 0.265798
v -0.157063 1.000000 0.265799
v 0.157063 1.000000 0.265799
v 0.126860 -0.148868 0.265798
v -0.094674 0.728498 1.410867
v -0.094674 0.936370 1.410867
v 0.094674 0.936370 1.410867
v 0.094674 0.728498 1.410867
v -0.118040 -1.000000 0.265798
v 0.118040 -1.000000 0.265798
v -0.125229 0.713010 0.265799
v 0.125229 0.713010 0.265799
v -0.125230 0.713010 0.743935
v 0.125230 0.713010 0.743977
v -0.125231 0.713010 0.537785
v 0.125231 0.713010 0.541058
v 0.125229 0.951859 1.327435
v -0.125229 0.951859 1.327988
v 0.125229 0.951859 1.092205
v -0.125229 0.951859 1.091162
v -0.125229 0.917578 1.273306
v 0.125229 0.917578 1.272153
v -0.125229 0.917578 1.152825
v 0.125229 0.917578 1.150070
v -0.145840 -0.489439 0.265798
v 0.172475 -0.502734 0.265798
v 0.199132 -0.503848 0.265798
v -0.131771 -0.490028 0.265798
v 0.199132 -0.503574 -0.265799
v 0.185429 -0.503275 0.265798
v -0.145840 -0.503374 -0.265799
v -0.118531 -0.490581 0.265798
v -0.208173 0.507766 0.265799
v -0.208093 0.498633 -0.265798
v 0.136521 0.518678 0.265799
v -0.170833 0.508951 0.265799
v 0.136844 0.500529 -0.265798
v 0.090426 0.517218 0.265799
v 0.079027 0.516858 0.265799
v -0.167946 0.509042 0.265799
v -0.165402 0.282071 0.504867
v -0.162658 0.491566 0.401792
v 0.086688 0.282071 0.504888
v 0.083944 0.491566 0.403428
v 0.168957 0.951859 0.845891
v 0.168957 0.713010 0.839920
v -0.081502 0.713010 0.855426
v -0.081502 0.951859 0.832272
v -0.111534 0.713009 1.113344
v 0.139002 0.713009 1.102276
vt 0.308594 0.808594
vt 0.308594 0.808594
vt 0.308594 0.808594
vt 0.308594 0.808594
vt 0.308594 0.808594
vt 0.308594 0.808594
vt 0.308594 0.808594
vt 0.308594 0.808594
vt 0.308594 0.808594
vt 0.308594 0.808594
vt 0.308594 0.808594
vt 0.308594 0.808594
vt 0.308594 0.808594
vt 0.308594 0.808594
vt 0.308594 0.808594
vt 0.308594 0.808594
vt 0.308594 0.808594
vt 0.308594 0.808594
vt 0.308594 0.808594
vt 0.308594 0.808594
vt 0.308594 0.808594
vt 0.308594 0.808594
vt 0.308594 0.808594
vt 0.308594 0.808594
vt 0.308594 0.808594
vt 0.308594 0.808594
vt 0.308594 0.808594
vt 0.308594 0.808594
vt 0.308594 0.808594
vt 0.308594 0.808594
vt 0.308594 0.808594
vt 0.308594 0.808594
vt 0.308594 0.808594
vt 0.308594 0.808594
vt 0.308594 0.808594
vt 0.308594 0.808594
vt 0.308594 0.808594
vt 0.308594 0.808594
vt 0.308594 0.808594
vt 0.308594 0.808594
vt 0.308594 0.808594
vt 0.308594 0.808594
vt 0.308594 0.808594
vt 0.308594 0.808594
vt 0.308594 0.808594
vt 0.308594 0.808594
vt 0.308594 0.808594
vt 0.308594 0.808594
vt 0.308594 0.808594
vt 0.308594 0.808594
vt 0.308594 0.808594
vt 0.308594 0.808594
vt 0.308594 0.808594
vt 0.308594 0.808594
vt 0.308594 0.808594
vt 0.308594 0.808594
vt 0.308594 0.808594
vt 0.308594 0.808594
vn -0.9948 0.1023 -0.0010
vn -0.0000 -1.0000 0.0000
vn 0.9991 -0.0415 0.0010
vn 0.0000 0.0000 -1.0000
vn 0.0000 1.0000 0.0000
vn -0.0000 -0.0000 1.0000
vn -0.9947 0.0888 0.0513
vn -0.9956 0.0834 0.0417
vn -0.0001 -0.4851 0.8744
vn 0.9943 -0.0834 -0.0663
vn 0.0084 0.5245 -0.8514
vn 0.0002 0.9831 0.1831
vn 0.0017 0.8674 0.4976
vn -0.0018 0.8486 -0.5291
vn 0.9869 -0.1613 -0.0000
vn -0.9985 -0.0551 0.0007
vn 0.9981 0.0615 -0.0007
vn -0.9981 -0.0622 0.0013
vn 0.0029 0.5259 -0.8505
vn 0.9946 0.0468 0.0926
vn -0.0000 -0.4851 0.8744
vn -0.9835 -0.0167 -0.1803
vn 0.9892 0.0298 0.1433
vn -0.9891 -0.0418 -0.1412
vn 0.0013 -0.9987 0.0511
vn -0.9931 -0.0840 0.0814
vn 0.9918 -0.0188 0.1262
vn 0.9962 -0.0425 -0.0755
vn -0.9304 0.0354 0.3649
usemtl NewMaterial
s off
f 1/1/1 42/2/1 41/3/1 10/4/1
f 19/5/2 20/6/2 24/7/2 23/8/2
f 11/9/3 43/10/3 45/11/3 5/12/3
f 5/12/4 45/11/4 42/2/4 1/1/4
f 10/4/5 11/9/5 5/12/5 1/1/5
f 18/13/2 17/14/2 2/15/2 6/16/2
f 19/5/6 3/17/6 10/4/6 41/3/6 44/18/6
f 3/17/6 7/19/6 11/9/6 10/4/6
f 50/20/7 49/21/7 21/22/7 23/8/7
f 7/19/6 20/6/6 46/23/6 43/10/6 11/9/6
f 14/24/6 13/25/6 16/26/6 15/27/6
f 3/17/8 19/5/8 23/8/8 21/22/8 56/28/8
f 24/7/2 54/29/2 22/30/2
f 7/19/5 3/17/5 56/28/5 53/31/5
f 21/22/2 22/30/2 54/29/2 55/32/2
f 12/33/6 9/34/6 40/35/6 34/36/6
f 4/37/6 8/38/6 47/39/6 48/40/6
f 9/34/6 4/37/6 48/40/6 44/18/6 36/41/6 40/35/6
f 8/38/6 12/33/6 34/36/6 38/42/6 46/23/6 47/39/6
f 49/21/9 51/43/9 22/30/9 21/22/9
f 51/43/10 52/44/10 24/7/10 22/30/10
f 52/44/11 50/20/11 23/8/11 24/7/11
f 25/45/12 26/46/12 14/24/12 15/27/12
f 27/47/13 28/48/13 31/49/13 32/50/13
f 30/51/14 29/52/14 26/46/14 25/45/14
f 32/50/5 31/49/5 29/52/5 30/51/5
f 38/42/6 34/36/6 18/13/6
f 34/36/6 40/35/6 17/14/6 18/13/6
f 37/53/15 35/54/15 18/13/15 6/16/15
f 35/54/6 38/42/6 18/13/6
f 36/41/6 33/55/6 17/14/6
f 39/56/4 37/53/4 6/16/4 2/15/4
f 40/35/6 36/41/6 17/14/6
f 33/55/16 39/56/16 2/15/16 17/14/16
f 47/39/6 46/23/6 20/6/6
f 45/11/17 43/10/17 35/54/17 37/53/17
f 43/10/6 46/23/6 38/42/6 35/54/6
f 48/40/6 47/39/6 20/6/6 19/5/6
f 44/18/6 41/3/6 33/55/6 36/41/6
f 42/2/4 45/11/4 37/53/4 39/56/4
f 41/3/18 42/2/18 39/56/18 33/55/18
f 44/18/6 48/40/6 19/5/6
f 8/38/19 4/37/19 50/20/19 52/44/19
f 12/33/20 8/38/20 52/44/20 51/43/20
f 9/34/21 12/33/21 51/43/21 49/21/21
f 4/37/22 9/34/22 49/21/22 50/20/22
f 54/29/23 53/31/23 27/47/23 58/57/23
f 53/31/5 56/28/5 28/48/5 27/47/5
f 55/32/2 54/29/2 58/57/2 57/58/2
f 56/28/24 55/32/24 57/58/24 28/48/24
f 57/58/25 58/57/25 16/26/25 13/25/25
f 28/48/26 57/58/26 13/25/26 14/24/26 26/46/26 29/52/26 31/49/26
f 58/57/27 27/47/27 32/50/27 30/51/27 25/45/27 15/27/27 16/26/27
f 20/6/28 7/19/28 53/31/28 54/29/28 24/7/28
f 56/28/29 21/22/29 55/32/29
