# Blender v2.90.1 OBJ File: 'Wood.blend'
# www.blender.org
mtllib Log1Moss.mtl
o Log_4_Moss_Cylinder.030
v -3.210979 0.070709 0.681576
v 3.231154 0.039286 0.649050
v -3.199452 0.723521 0.570464
v 3.208346 0.500780 0.430182
v -3.183754 0.798171 -0.082127
v 3.180994 0.625279 -0.082792
v -3.180706 0.410549 -0.597203
v 3.178360 0.392038 -0.587911
v -3.185538 -0.166790 -0.639970
v 3.189389 -0.142267 -0.739312
v -3.202264 -0.527798 -0.251499
v 3.219974 -0.608126 -0.278349
v -3.214857 -0.287833 0.318764
v 3.240803 -0.543836 0.424847
v -1.748632 -0.121082 0.868708
v -0.405502 -0.235297 1.002707
v 0.925342 -0.379005 0.807330
v 2.028149 0.061354 0.827248
v 1.843447 0.646968 0.437646
v 0.594286 0.417397 0.501137
v -0.628367 0.467987 0.582027
v -1.863600 0.491391 0.651721
v 1.755549 0.832623 -0.296414
v 0.399698 0.446159 -0.167987
v -0.775447 0.495146 -0.074722
v -1.936918 0.685778 -0.005739
v 1.857792 0.399096 -0.804134
v 0.495146 0.066203 -0.595508
v -0.775986 -0.063568 -0.716665
v -1.945020 0.368041 -0.550320
v 2.037744 -0.268626 -0.919140
v 0.652022 -0.522595 -0.790640
v -0.608360 -0.702075 -0.753221
v -1.863458 -0.179927 -0.696555
v 2.221418 -0.805842 -0.265501
v 0.902882 -0.963286 -0.253289
v -0.389275 -1.062097 -0.100269
v -1.758712 -0.627945 -0.207852
v 2.216630 -0.641342 0.605013
v 1.104041 -1.006467 0.559168
v -0.235773 -0.931270 0.774152
v -1.672886 -0.695909 0.558448
v 3.207003 0.665494 0.455810
v 3.207003 0.081054 0.924405
v 3.207003 0.933016 -0.212141
v 3.207003 0.380821 -0.764854
v 3.207003 -0.302404 -0.910880
v 3.207003 -0.843448 -0.231249
v 3.207003 -0.650352 0.599646
v 3.022778 0.485835 0.416239
v 3.045586 -0.006670 0.609269
v 2.995425 0.713014 -0.069802
v 2.992791 0.391575 -0.591804
v 3.003820 -0.147149 -0.733298
v 3.034405 -0.613848 -0.271640
v 3.055235 -0.549463 0.400906
v -3.196793 0.131480 0.988693
v -3.196793 0.913312 0.650043
v -3.196793 1.106408 -0.231732
v -3.196793 0.428915 -0.781538
v -3.196793 -0.302403 -0.911841
v -3.196793 -0.843448 -0.232055
v -3.196793 -0.650351 0.616459
v -2.948936 0.066783 0.779279
v -2.937409 0.719595 0.598092
v -2.921710 0.794245 -0.076568
v -2.918663 0.406623 -0.591948
v -2.923495 -0.170716 -0.634230
v -2.940221 -0.531724 -0.246013
v -2.952814 -0.291759 0.306993
v -3.180706 0.410549 -0.596827
v -0.550327 0.501967 -0.074595
v -0.135721 0.403640 0.549434
v -1.113344 0.568598 -0.027568
v -0.562868 0.209303 0.705664
v -0.779529 0.311176 -0.299640
v -1.422870 0.578889 0.553052
v -0.953525 0.255282 -0.380440
v -1.656535 0.655513 0.189554
v -1.644994 0.554153 0.478375
v -1.125267 0.354917 0.659036
v 0.005758 0.500665 0.105773
v -0.406289 0.352026 0.649869
v -0.535635 0.433150 -0.167758
v -0.780650 0.429742 -0.167697
v -1.134919 0.508189 -0.118075
v -1.753516 0.602519 0.128421
v -1.732780 0.485158 0.548184
v -1.479157 0.461191 0.630030
v -1.158408 0.197117 0.700397
v -0.562131 0.364065 0.658985
v -0.218160 0.507073 0.506445
v 0.142614 0.431651 0.052240
v -0.366109 0.199471 0.701947
v 1.819812 0.560730 -0.562728
v 1.632289 0.347635 -0.776606
v 1.923322 0.245222 -0.845369
v 2.695394 0.371970 -0.763626
v 2.434768 0.712889 -0.506538
v 2.717438 0.611119 -0.611692
v 2.071432 0.626512 -0.586792
v 2.560354 0.342613 -0.819423
v 2.071831 0.238245 -0.843940
v 1.636165 0.230093 -0.802522
v 1.614482 0.441004 -0.681575
v 2.452414 0.737849 -0.399062
v 2.839710 0.598322 -0.543047
v 2.605750 0.442893 -0.789116
v 1.843466 0.547704 -0.662851
v 2.049411 0.641942 -0.487976
v 2.631763 0.228530 -0.793895
v 2.089320 0.112621 -0.821022
v 1.932363 0.119748 -0.821468
v 1.564151 0.099991 -0.764826
v 1.557592 0.291786 -0.724093
v 1.532653 0.424631 -0.584172
vt 0.445313 0.809687
vt 0.445313 0.809687
vt 0.445313 0.809687
vt 0.445313 0.809687
vt 0.445313 0.809687
vt 0.445313 0.809687
vt 0.445313 0.809687
vt 0.445313 0.809687
vt 0.445313 0.809687
vt 0.445313 0.809687
vt 0.445313 0.809687
vt 0.445313 0.809687
vt 0.441406 0.941043
vt 0.441406 0.941043
vt 0.441406 0.941043
vt 0.441406 0.941043
vt 0.441406 0.941043
vt 0.445313 0.809687
vt 0.445313 0.809687
vt 0.445313 0.809687
vt 0.445313 0.809687
vt 0.445313 0.809687
vt 0.445313 0.809687
vt 0.445313 0.809687
vt 0.445313 0.809687
vt 0.445313 0.809687
vt 0.445313 0.809687
vt 0.445313 0.809687
vt 0.445313 0.809687
vt 0.445313 0.809687
vt 0.445313 0.809687
vt 0.445313 0.809687
vt 0.445313 0.809687
vt 0.445313 0.809687
vt 0.445313 0.809687
vt 0.445313 0.809687
vt 0.445313 0.809687
vt 0.445313 0.809687
vt 0.445313 0.809687
vt 0.445313 0.809687
vt 0.445313 0.809687
vt 0.445313 0.809687
vt 0.445313 0.809687
vt 0.445313 0.809687
vt 0.445313 0.809687
vt 0.445313 0.809687
vt 0.445313 0.809687
vt 0.445313 0.809687
vt 0.445313 0.809687
vt 0.445313 0.809687
vt 0.445313 0.809687
vt 0.445313 0.809687
vt 0.445313 0.809687
vt 0.445313 0.809687
vt 0.445313 0.809687
vt 0.445313 0.809687
vt 0.445313 0.809687
vt 0.445313 0.809687
vt 0.445313 0.809687
vt 0.445313 0.809687
vt 0.445313 0.809687
vt 0.445313 0.809687
vt 0.445313 0.809687
vt 0.445313 0.809687
vt 0.445313 0.809687
vt 0.445313 0.809687
vt 0.445313 0.809687
vt 0.445313 0.809687
vt 0.441406 0.941043
vt 0.441406 0.941043
vt 0.441406 0.941043
vt 0.441406 0.941043
vt 0.441406 0.941043
vt 0.445313 0.809687
vt 0.445313 0.809687
vt 0.445313 0.809687
vt 0.445313 0.809687
vt 0.445313 0.809687
vt 0.445313 0.809687
vt 0.445313 0.809687
vt 0.445313 0.809687
vt 0.445313 0.809687
vt 0.445313 0.809687
vt 0.564453 0.792109
vt 0.564453 0.792109
vt 0.564453 0.792109
vt 0.564453 0.792109
vt 0.564453 0.792109
vt 0.564453 0.792109
vt 0.564453 0.792109
vt 0.445313 0.809687
vt 0.445313 0.809687
vt 0.445313 0.809687
vt 0.445313 0.809687
vt 0.445313 0.809687
vt 0.445313 0.809687
vt 0.445313 0.809687
vt 0.445313 0.809687
vt 0.445313 0.809687
vt 0.445313 0.809687
vt 0.564453 0.792109
vt 0.564453 0.792109
vt 0.564453 0.792109
vt 0.564453 0.792109
vt 0.564453 0.792109
vt 0.564453 0.792109
vt 0.564453 0.792109
vt 0.445313 0.809687
vt 0.445313 0.809687
vt 0.445313 0.809687
vt 0.445313 0.809687
vt 0.445313 0.809687
vt 0.441406 0.941043
vt 0.441406 0.941043
vt 0.441406 0.941043
vt 0.441406 0.941043
vt 0.441406 0.941043
vt 0.441406 0.941043
vt 0.445313 0.809687
vt 0.441406 0.941043
vt 0.441406 0.941043
vt 0.441406 0.941043
vt 0.441406 0.941043
vt 0.441406 0.941043
vt 0.441406 0.941043
vt 0.441406 0.941043
vt 0.441406 0.941043
vt 0.441406 0.941043
vt 0.441406 0.941043
vt 0.441406 0.941043
vt 0.441406 0.941043
vt 0.441406 0.941043
vt 0.441406 0.941043
vt 0.441406 0.941043
vt 0.441406 0.941043
vt 0.445313 0.809687
vt 0.445313 0.809687
vt 0.441406 0.941043
vt 0.441406 0.941043
vt 0.441406 0.941043
vt 0.441406 0.941043
vt 0.441406 0.941043
vt 0.441406 0.941043
vt 0.441406 0.941043
vt 0.441406 0.941043
vt 0.441406 0.941043
vt 0.441406 0.941043
vt 0.441406 0.941043
vt 0.441406 0.941043
vt 0.441406 0.941043
vt 0.441406 0.941043
vn -0.0455 0.5861 0.8089
vn -0.0514 0.9493 0.3101
vn -0.0093 0.7053 -0.7088
vn 0.0023 0.2602 -0.9656
vn -0.0134 -0.7784 -0.6277
vn -0.1817 -0.9306 -0.3177
vn -0.0261 -0.9783 0.2055
vn -0.0377 -0.3604 0.9320
vn 0.1175 0.7529 -0.6476
vn 0.0085 -0.4490 0.8935
vn -0.1645 -0.4118 0.8963
vn 0.1197 -0.3084 0.9437
vn 0.0851 -0.3112 0.9465
vn 0.0580 -0.9956 0.0741
vn -0.2393 -0.9683 0.0720
vn 0.0158 -0.9987 0.0486
vn 0.2093 -0.9768 0.0460
vn 0.1472 -0.7484 -0.6467
vn -0.2885 -0.8182 -0.4973
vn 0.0469 -0.8202 -0.5702
vn 0.0811 -0.7556 -0.6500
vn 0.1610 0.2183 -0.9625
vn -0.0338 0.1452 -0.9888
vn 0.0095 0.1879 -0.9821
vn -0.1487 0.2417 -0.9589
vn 0.2555 0.7143 -0.6515
vn 0.1594 0.7981 -0.5810
vn -0.0105 0.7437 -0.6684
vn -0.2424 0.6728 -0.6990
vn 0.2837 0.9330 0.2214
vn 0.2263 0.9468 0.2290
vn -0.0384 0.9990 0.0218
vn -0.2127 0.9586 0.1893
vn 0.1303 0.3763 0.9173
vn 0.0088 0.4680 0.8837
vn 0.1228 0.4795 0.8689
vn -0.1020 0.4167 0.9033
vn 0.9974 0.0533 0.0479
vn 0.9971 -0.0616 -0.0436
vn 0.9916 -0.1049 0.0754
vn 0.9892 -0.0263 0.1442
vn 0.9998 0.0158 -0.0129
vn 0.9915 -0.1302 0.0084
vn 0.9917 -0.0434 0.1214
vn 0.9989 0.0329 -0.0339
vn 0.1094 0.3581 -0.9272
vn 0.0043 0.7034 0.7107
vn -0.1915 -0.8632 0.4671
vn 0.1934 -0.3811 -0.9041
vn -0.0262 0.9954 -0.0923
vn 0.0093 -0.2631 0.9647
vn -0.9993 0.0180 0.0319
vn -0.9996 -0.0228 -0.0142
vn -0.9981 -0.0454 0.0426
vn -0.9981 -0.0044 0.0609
vn -0.9999 0.0147 -0.0033
vn -0.9994 -0.0340 0.0015
vn -0.9989 -0.0234 0.0416
vn -0.9996 0.0175 -0.0215
vn -0.0036 0.7325 0.6808
vn -0.0244 -0.7989 0.6009
vn 0.2240 -0.2167 -0.9502
vn 0.0091 0.9196 -0.3927
vn -0.0220 -0.0733 0.9971
vn -0.0078 -0.9937 -0.1120
vn 0.0710 0.7422 -0.6664
vn 0.1443 0.9873 0.0671
vn -0.0115 0.7448 -0.6672
vn 0.0193 0.5034 0.8638
vn -0.0152 0.9987 0.0481
vn 0.0868 0.6216 0.7785
vn -0.0176 0.8106 -0.5854
vn 0.0986 0.8139 -0.5725
vn -0.5210 0.8086 0.2733
vn -0.2233 0.7031 0.6751
vn -0.0901 0.8301 -0.5503
vn 0.0395 0.3835 0.9227
vn -0.0093 0.2720 0.9622
vn 0.5899 0.7289 0.3475
vn 0.1850 0.8043 -0.5646
vn 0.0539 0.3118 0.9486
vn 0.2387 0.4365 0.8675
vn -0.0159 0.7103 -0.7037
vn 0.0039 0.2261 -0.9741
vn -0.1586 0.1987 -0.9671
vn -0.2437 0.6609 -0.7098
vn 0.2416 0.9358 -0.2566
vn 0.5029 0.4300 -0.7498
vn -0.2655 0.9440 -0.1960
vn -0.1866 0.9634 -0.1926
vn 0.3689 0.0654 -0.9272
vn 0.0849 -0.1670 -0.9823
vn -0.0024 -0.1835 -0.9830
vn -0.1366 -0.2002 -0.9702
vn -0.6419 0.1408 -0.7538
vn -0.7201 0.4298 -0.5448
vn -0.4042 0.8924 -0.2007
usemtl NewMaterial
s off
f 18/1/1 44/2/1 43/3/1 19/4/1
f 19/4/2 43/3/2 45/5/2 23/6/2
f 23/6/3 45/5/3 46/7/3 98/8/3 107/9/3 106/10/3 110/11/3 95/12/3
f 27/13/4 108/14/4 102/15/4 103/16/4 97/17/4
f 31/18/5 47/19/5 48/20/5 35/21/5
f 6/22/6 4/23/6 50/24/6 52/25/6
f 35/21/7 48/20/7 49/26/7 39/27/7
f 39/27/8 49/26/8 44/2/8 18/1/8
f 13/28/9 1/29/9 64/30/9 70/31/9
f 63/32/10 42/33/10 15/34/10 57/35/10
f 42/33/11 41/36/11 16/37/11 15/34/11
f 41/36/12 40/38/12 17/39/12 16/37/12
f 40/38/13 39/27/13 18/1/13 17/39/13
f 62/40/14 38/41/14 42/33/14 63/32/14
f 38/41/15 37/42/15 41/36/15 42/33/15
f 37/42/16 36/43/16 40/38/16 41/36/16
f 36/43/17 35/21/17 39/27/17 40/38/17
f 61/44/18 34/45/18 38/41/18 62/40/18
f 34/45/19 33/46/19 37/42/19 38/41/19
f 33/46/20 32/47/20 36/43/20 37/42/20
f 32/47/21 31/18/21 35/21/21 36/43/21
f 60/48/22 30/49/22 34/45/22 61/44/22
f 30/49/23 29/50/23 33/46/23 34/45/23
f 29/50/24 28/51/24 32/47/24 33/46/24
f 28/51/25 115/52/25 114/53/25 113/54/25 31/18/25 32/47/25
f 59/55/26 26/56/26 30/49/26 60/48/26
f 26/56/27 86/57/27 78/58/27 76/59/27 29/50/27 30/49/27
f 85/60/28 84/61/28 76/59/28
f 24/62/29 23/6/29 95/12/29 116/63/29 115/52/29 28/51/29
f 58/64/30 22/65/30 26/56/30 59/55/30
f 22/65/31 89/66/31 88/67/31 87/68/31 86/57/31 26/56/31
f 21/69/32 92/70/32 82/71/32 72/72/32 25/73/32
f 20/74/33 19/4/33 23/6/33 24/62/33
f 57/35/34 15/34/34 22/65/34 58/64/34
f 15/34/35 16/37/35 75/75/35 90/76/35 89/66/35 22/65/35
f 16/37/36 17/39/36 20/74/36 73/77/36 94/78/36 75/75/36
f 17/39/37 18/1/37 19/4/37 20/74/37
f 2/79/38 4/23/38 43/3/38 44/2/38
f 4/23/39 6/22/39 45/5/39 43/3/39
f 6/22/40 8/80/40 46/7/40 45/5/40
f 8/80/41 10/81/41 47/19/41 46/7/41
f 10/81/42 12/82/42 48/20/42 47/19/42
f 12/82/43 14/83/43 49/26/43 48/20/43
f 14/83/44 2/79/44 44/2/44 49/26/44
f 50/84/45 51/85/45 56/86/45 55/87/45 54/88/45 53/89/45 52/90/45
f 2/79/46 14/83/46 56/91/46 51/92/46
f 12/82/47 10/81/47 54/93/47 55/94/47
f 8/80/48 6/22/48 52/25/48 53/95/48
f 4/23/49 2/79/49 51/92/49 50/24/49
f 14/83/50 12/82/50 55/94/50 56/91/50
f 10/81/51 8/80/51 53/95/51 54/93/51
f 3/96/52 1/29/52 57/35/52 58/64/52
f 5/97/53 3/96/53 58/64/53 59/55/53
f 7/98/54 5/97/54 59/55/54 60/48/54
f 9/99/55 7/98/55 60/48/55 61/44/55
f 11/100/56 9/99/56 61/44/56 62/40/56
f 13/28/57 11/100/57 62/40/57 63/32/57
f 1/29/58 13/28/58 63/32/58 57/35/58
f 64/101/59 65/102/59 66/103/59 67/104/59 68/105/59 69/106/59 70/107/59
f 9/99/60 11/100/60 69/108/60 68/109/60
f 5/97/61 7/98/61 67/110/61 66/111/61
f 1/29/62 3/96/62 65/112/62 64/30/62
f 11/100/63 13/28/63 70/31/63 69/108/63
f 7/98/64 9/99/64 68/109/64 67/110/64
f 3/96/65 5/97/65 66/111/65 65/112/65
f 76/59/66 78/58/66 86/57/66 85/60/66
f 74/113/67 79/114/67 80/115/67 77/116/67 21/69/67 25/73/67
f 76/59/68 84/61/68 24/62/68 28/51/68 29/50/68
f 77/116/69 81/117/69 91/118/69 21/69/69
f 84/61/70 93/119/70 73/77/70 20/74/70 24/62/70
f 91/118/71 83/120/71 92/70/71 21/69/71
f 25/73/72 72/72/72 84/121/72 85/122/72
f 74/113/73 25/73/73 85/122/73 86/123/73
f 80/115/74 79/114/74 87/124/74 88/125/74
f 77/116/75 80/115/75 88/125/75 89/126/75
f 79/114/76 74/113/76 86/123/76 87/124/76
f 81/117/77 77/116/77 89/126/77 90/127/77
f 91/118/78 81/117/78 90/127/78 75/128/78
f 82/71/79 92/70/79 73/129/79 93/130/79
f 72/72/80 82/71/80 93/130/80 84/121/80
f 83/120/81 91/118/81 75/128/81 94/131/81
f 92/70/82 83/120/82 94/131/82 73/129/82
f 109/132/83 101/133/83 99/134/83 100/135/83 108/14/83 27/13/83
f 113/54/84 112/136/84 111/137/84 98/8/84 46/7/84 47/19/84 31/18/84
f 97/17/85 104/138/85 96/139/85 27/13/85
f 96/139/86 105/140/86 109/132/86 27/13/86
f 100/135/87 99/134/87 106/141/87 107/142/87
f 108/14/88 100/135/88 107/142/88 98/143/88
f 101/133/89 109/132/89 95/144/89 110/145/89
f 99/134/90 101/133/90 110/145/90 106/141/90
f 102/15/91 108/14/91 98/143/91 111/146/91
f 103/16/92 102/15/92 111/146/92 112/147/92
f 97/17/93 103/16/93 112/147/93 113/148/93
f 104/138/94 97/17/94 113/148/94 114/149/94
f 96/139/95 104/138/95 114/149/95 115/150/95
f 105/140/96 96/139/96 115/150/96 116/151/96
f 109/132/97 105/140/97 116/151/97 95/144/97
l 71 7
