# Blender v2.90.1 OBJ File: 'Wood.blend'
# www.blender.org
mtllib Log2Moss.mtl
o Log_3_Moss_Cylinder.032
v -3.166760 -0.025322 0.670239
v 3.275373 -0.046161 0.644901
v -3.155233 0.627490 0.552133
v 3.252565 0.590730 0.553536
v -3.139535 0.832589 -0.076497
v 3.225212 0.808619 -0.041138
v -3.136487 0.314518 -0.580119
v 3.222578 0.322782 -0.548780
v -3.141319 -0.262821 -0.738334
v 3.233608 -0.229992 -0.722141
v -3.158045 -0.737192 -0.243515
v 3.264192 -0.704157 -0.262044
v -3.170639 -0.645979 0.435687
v 3.285022 -0.639663 0.395581
v -1.768246 -0.180442 0.970364
v -0.361283 -0.034365 0.860741
v 0.969560 -0.178072 0.667811
v 2.040040 0.035082 0.705506
v 2.040040 0.816913 0.488966
v 0.638504 0.629673 0.476443
v -0.584148 0.598026 0.587759
v -1.768246 0.601390 0.753824
v 2.034032 1.042416 -0.371024
v 0.443917 0.814833 -0.208054
v -0.736431 0.637858 -0.170448
v -1.768246 0.794486 -0.092187
v 2.035403 0.442812 -0.726861
v 0.539365 0.282880 -0.603051
v -0.731767 0.139257 -0.700875
v -1.802237 0.332884 -0.763968
v 2.040040 -0.398435 -0.894270
v 0.696240 -0.302400 -0.773474
v -0.564141 -0.501143 -0.735651
v -1.802237 -0.398434 -0.894271
v 2.040040 -0.939479 -0.215823
v 0.947101 -0.762354 -0.257533
v -0.345057 -0.861164 -0.086004
v -1.802237 -0.939479 -0.215823
v 2.040040 -0.746109 0.630188
v 1.148260 -0.805535 0.538683
v -0.191555 -0.730338 0.756243
v -1.768246 -0.962273 0.753824
v 3.251221 0.817281 0.630188
v 3.251221 0.035449 0.846728
v 3.251221 1.010377 -0.215822
v 3.251221 0.332883 -0.763968
v 3.251221 -0.398435 -0.894270
v 3.251221 -0.939479 -0.215823
v 3.251221 -0.746383 0.630188
v 3.066996 0.585008 0.559975
v 3.089804 -0.051883 0.651340
v 3.039644 0.802897 -0.034699
v 3.037010 0.317060 -0.542341
v 3.048039 -0.235713 -0.715702
v 3.078624 -0.709879 -0.255606
v 3.099454 -0.645385 0.402020
v -3.152574 0.035449 0.846727
v -3.152574 0.817281 0.630188
v -3.152574 1.010377 -0.215823
v -3.152574 0.332884 -0.763968
v -3.152574 -0.398434 -0.894271
v -3.152574 -0.939479 -0.215823
v -3.152574 -0.746382 0.630188
v -2.904717 -0.029248 0.675979
v -2.893190 0.623564 0.557873
v -2.877492 0.828663 -0.070757
v -2.874444 0.310592 -0.574378
v -2.879276 -0.266747 -0.732594
v -2.896002 -0.741118 -0.237775
v -2.908595 -0.649906 0.441427
v -3.139535 0.832589 -0.076497
v -3.136487 0.314518 -0.580119
v 2.040040 0.265197 -0.776028
v 2.576215 0.442691 -0.726683
v 0.594663 0.827245 -0.284283
v 2.937202 1.010282 -0.252437
v 2.040040 0.892914 0.155985
v 0.491780 0.755126 -0.293644
v 0.517062 0.456310 -0.516432
v 1.848209 0.437388 -0.708065
v 1.316744 0.538187 -0.565837
v 2.210762 0.944641 0.078199
v 0.764253 0.788536 0.070809
v 2.860194 0.616679 -0.618035
v 0.449067 0.447697 -0.510269
v 0.380998 0.692999 -0.324768
v 2.612248 0.332883 -0.763968
v 2.040040 0.332883 -0.763968
v 1.839280 0.326194 -0.742440
v 1.311522 0.426303 -0.601227
v 0.527766 0.347522 -0.555051
v 0.449319 0.784726 -0.230409
v 0.515249 0.823556 -0.214712
v 2.237602 0.891144 0.187039
v 2.840868 1.052336 -0.317539
v 2.039083 0.947437 0.051505
v 0.714154 0.726256 0.175705
v 2.960694 0.544004 -0.626958
v 0.381958 0.331981 -0.545871
v 0.282689 0.689722 -0.275342
vt 0.445313 0.809687
vt 0.445313 0.809687
vt 0.445313 0.809687
vt 0.445313 0.809687
vt 0.445313 0.809687
vt 0.445313 0.809687
vt 0.445313 0.809687
vt 0.445313 0.809687
vt 0.441406 0.941043
vt 0.441406 0.941043
vt 0.441406 0.941043
vt 0.441406 0.941043
vt 0.441406 0.941043
vt 0.445313 0.809687
vt 0.445313 0.809687
vt 0.445313 0.809687
vt 0.445313 0.809687
vt 0.445313 0.809687
vt 0.445313 0.809687
vt 0.445313 0.809687
vt 0.445313 0.809687
vt 0.445313 0.809687
vt 0.445313 0.809687
vt 0.445313 0.809687
vt 0.445313 0.809687
vt 0.445313 0.809687
vt 0.445313 0.809687
vt 0.445313 0.809687
vt 0.445313 0.809687
vt 0.445313 0.809687
vt 0.445313 0.809687
vt 0.445313 0.809687
vt 0.445313 0.809687
vt 0.445313 0.809687
vt 0.445313 0.809687
vt 0.445313 0.809687
vt 0.445313 0.809687
vt 0.445313 0.809687
vt 0.445313 0.809687
vt 0.445313 0.809687
vt 0.445313 0.809687
vt 0.445313 0.809687
vt 0.445313 0.809687
vt 0.445313 0.809687
vt 0.445313 0.809687
vt 0.445313 0.809687
vt 0.445313 0.809687
vt 0.445313 0.809687
vt 0.445313 0.809687
vt 0.445313 0.809687
vt 0.445313 0.809687
vt 0.445313 0.809687
vt 0.445313 0.809687
vt 0.445313 0.809687
vt 0.445313 0.809687
vt 0.445313 0.809687
vt 0.445313 0.809687
vt 0.445313 0.809687
vt 0.445313 0.809687
vt 0.445313 0.809687
vt 0.445313 0.809687
vt 0.445313 0.809687
vt 0.445313 0.809687
vt 0.445313 0.809687
vt 0.445313 0.809687
vt 0.445313 0.809687
vt 0.445313 0.809687
vt 0.445313 0.809687
vt 0.445313 0.809687
vt 0.445313 0.809687
vt 0.564453 0.792109
vt 0.564453 0.792109
vt 0.564453 0.792109
vt 0.564453 0.792109
vt 0.564453 0.792109
vt 0.564453 0.792109
vt 0.564453 0.792109
vt 0.445313 0.809687
vt 0.445313 0.809687
vt 0.445313 0.809687
vt 0.445313 0.809687
vt 0.445313 0.809687
vt 0.445313 0.809687
vt 0.445313 0.809687
vt 0.445313 0.809687
vt 0.445313 0.809687
vt 0.445313 0.809687
vt 0.564453 0.792109
vt 0.564453 0.792109
vt 0.564453 0.792109
vt 0.564453 0.792109
vt 0.564453 0.792109
vt 0.564453 0.792109
vt 0.564453 0.792109
vt 0.445313 0.809687
vt 0.445313 0.809687
vt 0.445313 0.809687
vt 0.445313 0.809687
vt 0.445313 0.809687
vt 0.445313 0.809687
vt 0.445313 0.809687
vt 0.441406 0.941043
vt 0.441406 0.941043
vt 0.441406 0.941043
vt 0.441406 0.941043
vt 0.441406 0.941043
vt 0.445313 0.809687
vt 0.445313 0.809687
vt 0.441406 0.941043
vt 0.441406 0.941043
vt 0.441406 0.941043
vt 0.445313 0.809687
vt 0.441406 0.941043
vt 0.441406 0.941043
vt 0.441406 0.941043
vt 0.441406 0.941043
vt 0.441406 0.941043
vt 0.441406 0.941043
vt 0.441406 0.941043
vt 0.441406 0.941043
vt 0.441406 0.941043
vt 0.441406 0.941043
vt 0.441406 0.941043
vt 0.441406 0.941043
vt 0.441406 0.941043
vt 0.441406 0.941043
vt 0.441406 0.941043
vt 0.441406 0.941043
vn -0.1117 0.2652 0.9577
vn -0.0262 0.9746 0.2224
vn 0.0213 0.5350 -0.8446
vn 0.0000 -0.7818 -0.6235
vn 0.0170 -0.9386 -0.3447
vn -0.0001 -0.9749 0.2227
vn -0.0572 -0.1833 0.9814
vn 0.0258 0.3532 -0.9352
vn -0.1267 -0.2648 0.9560
vn 0.0611 -0.2052 0.9768
vn 0.1396 -0.1364 0.9808
vn -0.0443 -0.1490 0.9878
vn -0.0826 -0.9921 0.0946
vn 0.0995 -0.9938 0.0490
vn 0.0163 -0.9986 0.0499
vn -0.0655 -0.9929 0.0988
vn 0.0532 -0.8222 -0.5666
vn 0.0461 -0.8082 -0.5871
vn -0.1069 -0.7730 -0.6254
vn 0.0000 0.1754 -0.9845
vn 0.1116 0.1322 -0.9849
vn 0.0010 0.1654 -0.9862
vn 0.0882 0.7268 -0.6811
vn 0.1244 0.7738 -0.6211
vn -0.0636 0.6713 -0.7384
vn -0.1454 0.5729 -0.8066
vn 0.1310 0.9665 0.2206
vn 0.0862 0.9871 0.1351
vn -0.0747 0.9824 0.1712
vn -0.1193 0.9603 0.2521
vn -0.0444 0.2667 0.9628
vn 0.0812 0.3374 0.9378
vn 0.1260 0.3480 0.9290
vn -0.0581 0.2368 0.9698
vn 0.9978 0.0289 0.0593
vn 0.9971 -0.0661 -0.0378
vn 0.9920 -0.0860 0.0923
vn 0.9916 -0.0216 0.1273
vn 0.9998 0.0155 -0.0130
vn 0.9916 -0.1288 0.0083
vn 0.9909 -0.0369 0.1295
vn 0.9989 0.0308 -0.0347
vn -0.0439 0.3863 -0.9213
vn 0.0034 0.6965 0.7176
vn 0.0462 -0.7218 0.6906
vn -0.0299 -0.1430 -0.9893
vn -0.0340 0.9948 -0.0965
vn 0.0423 -0.2982 0.9536
vn -0.9987 0.0191 0.0473
vn -0.9993 -0.0314 -0.0191
vn -0.9969 -0.0532 0.0576
vn -0.9962 -0.0151 0.0854
vn -0.9999 0.0170 0.0004
vn -0.9973 -0.0735 0.0055
vn -0.9962 -0.0243 0.0840
vn -0.9997 0.0140 -0.0204
vn -0.0043 0.7219 0.6920
vn -0.0261 -0.6969 0.7167
vn 0.0189 -0.1783 -0.9838
vn 0.0178 0.9910 -0.1328
vn -0.0251 -0.2640 0.9642
vn -0.0074 -0.9506 -0.3103
vn 0.0000 0.0000 1.0000
vn -0.1265 0.5193 -0.8452
vn -0.1059 0.5805 -0.8074
vn -0.0253 0.9747 0.2221
vn -0.1264 0.9725 0.1956
vn 0.0662 0.6057 -0.7929
vn -0.1184 0.5829 -0.8039
vn -0.0929 0.2112 -0.9730
vn 0.0002 0.3207 -0.9472
vn -0.1079 0.3077 -0.9454
vn -0.1920 0.3040 -0.9331
vn -0.0890 0.3147 -0.9450
vn -0.4122 0.7455 -0.5237
vn 0.1089 0.9018 0.4183
vn -0.0605 0.8873 0.4572
vn -0.1514 0.9565 0.2493
vn -0.1030 0.8787 0.4660
vn 0.5044 0.5326 -0.6796
vn 0.1491 0.3461 -0.9263
vn -0.1051 0.3359 -0.9360
vn -0.4076 0.4761 -0.7792
vn -0.2929 0.7829 -0.5489
usemtl NewMaterial
s off
f 18/1/1 44/2/1 43/3/1 19/4/1
f 19/4/2 43/3/2 45/5/2 76/6/2 94/7/2 77/8/2
f 23/9/3 95/10/3 84/11/3 74/12/3 27/13/3
f 31/14/4 47/15/4 48/16/4 35/17/4
f 6/18/5 4/19/5 50/20/5 52/21/5
f 35/17/6 48/16/6 49/22/6 39/23/6
f 39/23/7 49/22/7 44/2/7 18/1/7
f 13/24/8 1/25/8 64/26/8 70/27/8
f 63/28/9 42/29/9 15/30/9 57/31/9
f 42/29/10 41/32/10 16/33/10 15/30/10
f 41/32/11 40/34/11 17/35/11 16/33/11
f 40/34/12 39/23/12 18/1/12 17/35/12
f 62/36/13 38/37/13 42/29/13 63/28/13
f 38/37/14 37/38/14 41/32/14 42/29/14
f 37/38/15 36/39/15 40/34/15 41/32/15
f 36/39/16 35/17/16 39/23/16 40/34/16
f 61/40/4 34/41/4 38/37/4 62/36/4
f 34/41/17 33/42/17 37/38/17 38/37/17
f 33/42/18 32/43/18 36/39/18 37/38/18
f 32/43/19 31/14/19 35/17/19 36/39/19
f 60/44/20 30/45/20 34/41/20 61/40/20
f 30/45/21 29/46/21 33/42/21 34/41/21
f 29/46/22 28/47/22 32/43/22 33/42/22
f 31/14/20 73/48/20 88/49/20 87/50/20 46/51/20 47/15/20
f 59/52/23 26/53/23 30/45/23 60/44/23
f 26/53/24 25/54/24 29/46/24 30/45/24
f 25/54/25 24/55/25 92/56/25 100/57/25 99/58/25 91/59/25 28/47/25 29/46/25
f 24/55/26 93/60/26 92/56/26
f 58/61/27 22/62/27 26/53/27 59/52/27
f 22/62/28 21/63/28 25/54/28 26/53/28
f 21/63/29 20/64/29 24/55/29 25/54/29
f 20/64/30 19/4/30 77/8/30 97/65/30 93/60/30 24/55/30
f 57/31/31 15/30/31 22/62/31 58/61/31
f 15/30/32 16/33/32 21/63/32 22/62/32
f 16/33/33 17/35/33 20/64/33 21/63/33
f 17/35/34 18/1/34 19/4/34 20/64/34
f 2/66/35 4/19/35 43/3/35 44/2/35
f 4/19/36 6/18/36 45/5/36 43/3/36
f 6/18/37 8/67/37 46/51/37 45/5/37
f 8/67/38 10/68/38 47/15/38 46/51/38
f 10/68/39 12/69/39 48/16/39 47/15/39
f 12/69/40 14/70/40 49/22/40 48/16/40
f 14/70/41 2/66/41 44/2/41 49/22/41
f 50/71/42 51/72/42 56/73/42 55/74/42 54/75/42 53/76/42 52/77/42
f 2/66/43 14/70/43 56/78/43 51/79/43
f 12/69/44 10/68/44 54/80/44 55/81/44
f 8/67/45 6/18/45 52/21/45 53/82/45
f 4/19/46 2/66/46 51/79/46 50/20/46
f 14/70/47 12/69/47 55/81/47 56/78/47
f 10/68/48 8/67/48 53/82/48 54/80/48
f 3/83/49 1/25/49 57/31/49 58/61/49
f 5/84/50 3/83/50 58/61/50 59/52/50
f 7/85/51 5/84/51 59/52/51 60/44/51
f 9/86/52 7/85/52 60/44/52 61/40/52
f 11/87/53 9/86/53 61/40/53 62/36/53
f 13/24/54 11/87/54 62/36/54 63/28/54
f 1/25/55 13/24/55 63/28/55 57/31/55
f 64/88/56 65/89/56 66/90/56 67/91/56 68/92/56 69/93/56 70/94/56
f 9/86/57 11/87/57 69/95/57 68/96/57
f 5/84/58 7/85/58 67/97/58 66/98/58
f 1/25/59 3/83/59 65/99/59 64/26/59
f 11/87/60 13/24/60 70/27/60 69/95/60
f 7/85/61 9/86/61 68/96/61 67/97/61
f 3/83/62 5/84/62 66/98/62 65/99/62
f 7/85/63 5/84/63 71/100/63 72/101/63
f 78/102/64 75/103/64 23/9/64 27/13/64 80/104/64 81/105/64 79/106/64
f 91/59/65 90/107/65 89/108/65 28/47/65
f 96/109/66 82/110/66 95/10/66 23/9/66
f 75/103/67 83/111/67 96/109/67 23/9/67
f 87/50/68 98/112/68 76/6/68 45/5/68 46/51/68
f 79/106/69 85/113/69 86/114/69 78/102/69
f 73/48/70 31/14/70 32/43/70 28/47/70 89/108/70 88/49/70
f 27/13/71 74/12/71 87/115/71 88/116/71
f 80/104/72 27/13/72 88/116/72 89/117/72
f 81/105/73 80/104/73 89/117/73 90/118/73
f 79/106/74 81/105/74 90/118/74 91/119/74
f 75/103/75 78/102/75 92/120/75 93/121/75
f 95/10/76 82/110/76 94/122/76 76/123/76
f 82/110/77 96/109/77 77/124/77 94/122/77
f 83/111/78 75/103/78 93/121/78 97/125/78
f 96/109/79 83/111/79 97/125/79 77/124/79
f 84/11/80 95/10/80 76/123/80 98/126/80
f 74/12/81 84/11/81 98/126/81 87/115/81
f 85/113/82 79/106/82 91/119/82 99/127/82
f 86/114/83 85/113/83 99/127/83 100/128/83
f 78/102/84 86/114/84 100/128/84 92/120/84
