# Blender v2.90.1 OBJ File: 'Wood.blend'
# www.blender.org
mtllib Log2.mtl
o Log_3_Cylinder.001
v -3.166760 -0.025322 0.670239
v 3.275373 -0.046161 0.644901
v -3.155233 0.627490 0.552133
v 3.252565 0.590730 0.553536
v -3.139535 0.832589 -0.076497
v 3.225212 0.808619 -0.041138
v -3.136487 0.314518 -0.580119
v 3.222578 0.322782 -0.548780
v -3.141319 -0.262821 -0.738334
v 3.233608 -0.229992 -0.722141
v -3.158045 -0.737192 -0.243515
v 3.264192 -0.704157 -0.262044
v -3.170639 -0.645979 0.435687
v 3.285022 -0.639663 0.395581
v -1.768246 -0.180442 0.970364
v -0.361283 -0.034365 0.860741
v 0.969560 -0.178072 0.667811
v 2.040040 0.035082 0.705506
v 2.040040 0.816913 0.488966
v 0.638504 0.629673 0.476443
v -0.584148 0.598026 0.587759
v -1.768246 0.601390 0.753824
v 2.040040 1.010010 -0.357045
v 0.443917 0.814833 -0.208054
v -0.736431 0.637858 -0.170448
v -1.768246 0.794486 -0.092187
v 2.040040 0.332883 -0.763968
v 0.539365 0.282880 -0.603051
v -0.731767 0.139257 -0.700875
v -1.802237 0.332884 -0.763968
v 2.040040 -0.398435 -0.894270
v 0.696240 -0.302400 -0.773474
v -0.564141 -0.501143 -0.735651
v -1.802237 -0.398434 -0.894271
v 2.040040 -0.939479 -0.215823
v 0.947101 -0.762354 -0.257533
v -0.345057 -0.861164 -0.086004
v -1.802237 -0.939479 -0.215823
v 2.040040 -0.746109 0.630188
v 1.148260 -0.805535 0.538683
v -0.191555 -0.730338 0.756243
v -1.768246 -0.962273 0.753824
v 3.251221 0.817281 0.630188
v 3.251221 0.035449 0.846728
v 3.251221 1.010377 -0.215822
v 3.251221 0.332883 -0.763968
v 3.251221 -0.398435 -0.894270
v 3.251221 -0.939479 -0.215823
v 3.251221 -0.746383 0.630188
v 3.066996 0.585008 0.559975
v 3.089804 -0.051883 0.651340
v 3.039644 0.802897 -0.034699
v 3.037010 0.317060 -0.542341
v 3.048039 -0.235713 -0.715702
v 3.078624 -0.709879 -0.255606
v 3.099454 -0.645385 0.402020
v -3.152574 0.035449 0.846727
v -3.152574 0.817281 0.630188
v -3.152574 1.010377 -0.215823
v -3.152574 0.332884 -0.763968
v -3.152574 -0.398434 -0.894271
v -3.152574 -0.939479 -0.215823
v -3.152574 -0.746382 0.630188
v -2.904717 -0.029248 0.675979
v -2.893190 0.623564 0.557873
v -2.877492 0.828663 -0.070757
v -2.874444 0.310592 -0.574378
v -2.879276 -0.266747 -0.732594
v -2.896002 -0.741118 -0.237775
v -2.908595 -0.649906 0.441427
v -3.139535 0.832589 -0.076497
v -3.136487 0.314518 -0.580119
vt 0.445313 0.809687
vt 0.445313 0.809687
vt 0.445313 0.809687
vt 0.445313 0.809687
vt 0.445313 0.809687
vt 0.445313 0.809687
vt 0.445313 0.809687
vt 0.445313 0.809687
vt 0.445313 0.809687
vt 0.445313 0.809687
vt 0.445313 0.809687
vt 0.445313 0.809687
vt 0.445313 0.809687
vt 0.445313 0.809687
vt 0.445313 0.809687
vt 0.445313 0.809687
vt 0.445313 0.809687
vt 0.445313 0.809687
vt 0.445313 0.809687
vt 0.445313 0.809687
vt 0.445313 0.809687
vt 0.445313 0.809687
vt 0.445313 0.809687
vt 0.445313 0.809687
vt 0.445313 0.809687
vt 0.445313 0.809687
vt 0.445313 0.809687
vt 0.445313 0.809687
vt 0.445313 0.809687
vt 0.445313 0.809687
vt 0.445313 0.809687
vt 0.445313 0.809687
vt 0.445313 0.809687
vt 0.445313 0.809687
vt 0.445313 0.809687
vt 0.445313 0.809687
vt 0.445313 0.809687
vt 0.445313 0.809687
vt 0.445313 0.809687
vt 0.445313 0.809687
vt 0.445313 0.809687
vt 0.445313 0.809687
vt 0.445313 0.809687
vt 0.445313 0.809687
vt 0.445313 0.809687
vt 0.445313 0.809687
vt 0.445313 0.809687
vt 0.445313 0.809687
vt 0.445313 0.809687
vt 0.445313 0.809687
vt 0.445313 0.809687
vt 0.445313 0.809687
vt 0.445313 0.809687
vt 0.445313 0.809687
vt 0.445313 0.809687
vt 0.564453 0.792109
vt 0.564453 0.792109
vt 0.564453 0.792109
vt 0.564453 0.792109
vt 0.564453 0.792109
vt 0.564453 0.792109
vt 0.564453 0.792109
vt 0.445313 0.809687
vt 0.445313 0.809687
vt 0.445313 0.809687
vt 0.445313 0.809687
vt 0.445313 0.809687
vt 0.445313 0.809687
vt 0.445313 0.809687
vt 0.445313 0.809687
vt 0.445313 0.809687
vt 0.445313 0.809687
vt 0.564453 0.792109
vt 0.564453 0.792109
vt 0.564453 0.792109
vt 0.564453 0.792109
vt 0.564453 0.792109
vt 0.564453 0.792109
vt 0.564453 0.792109
vt 0.445313 0.809687
vt 0.445313 0.809687
vt 0.445313 0.809687
vt 0.445313 0.809687
vt 0.445313 0.809687
vt 0.445313 0.809687
vt 0.445313 0.809687
vn -0.1117 0.2652 0.9577
vn -0.0262 0.9746 0.2224
vn 0.0475 0.5756 -0.8164
vn 0.0000 0.1754 -0.9845
vn 0.0000 -0.7818 -0.6235
vn 0.0170 -0.9386 -0.3447
vn -0.0001 -0.9749 0.2227
vn -0.0572 -0.1833 0.9814
vn 0.0258 0.3532 -0.9352
vn -0.1267 -0.2648 0.9560
vn 0.0611 -0.2052 0.9768
vn 0.1396 -0.1364 0.9808
vn -0.0443 -0.1490 0.9878
vn -0.0826 -0.9921 0.0946
vn 0.0995 -0.9938 0.0490
vn 0.0163 -0.9986 0.0499
vn -0.0655 -0.9929 0.0988
vn 0.0532 -0.8222 -0.5666
vn 0.0461 -0.8082 -0.5871
vn -0.1069 -0.7730 -0.6254
vn 0.1116 0.1322 -0.9849
vn 0.0010 0.1654 -0.9862
vn -0.0929 0.2112 -0.9730
vn 0.0882 0.7268 -0.6811
vn 0.1244 0.7738 -0.6211
vn -0.0684 0.6629 -0.7456
vn -0.1261 0.5414 -0.8313
vn 0.1310 0.9665 0.2206
vn 0.0862 0.9871 0.1351
vn -0.0747 0.9824 0.1712
vn -0.1112 0.9614 0.2517
vn -0.0444 0.2667 0.9628
vn 0.0812 0.3374 0.9378
vn 0.1260 0.3480 0.9290
vn -0.0581 0.2368 0.9698
vn 0.9978 0.0289 0.0593
vn 0.9971 -0.0661 -0.0378
vn 0.9920 -0.0860 0.0923
vn 0.9916 -0.0216 0.1273
vn 0.9998 0.0155 -0.0130
vn 0.9916 -0.1288 0.0083
vn 0.9909 -0.0369 0.1295
vn 0.9989 0.0308 -0.0347
vn -0.0439 0.3863 -0.9213
vn 0.0034 0.6965 0.7176
vn 0.0462 -0.7218 0.6906
vn -0.0299 -0.1430 -0.9893
vn -0.0340 0.9948 -0.0965
vn 0.0423 -0.2982 0.9536
vn -0.9987 0.0191 0.0473
vn -0.9993 -0.0314 -0.0191
vn -0.9969 -0.0532 0.0576
vn -0.9962 -0.0151 0.0854
vn -0.9999 0.0170 0.0004
vn -0.9973 -0.0735 0.0055
vn -0.9962 -0.0243 0.0840
vn -0.9997 0.0140 -0.0204
vn -0.0043 0.7219 0.6920
vn -0.0261 -0.6969 0.7167
vn 0.0189 -0.1783 -0.9838
vn 0.0178 0.9910 -0.1328
vn -0.0251 -0.2640 0.9642
vn -0.0074 -0.9506 -0.3103
vn 0.0000 0.0000 1.0000
usemtl NewMaterial
s off
f 18/1/1 44/2/1 43/3/1 19/4/1
f 19/4/2 43/3/2 45/5/2 23/6/2
f 23/6/3 45/5/3 46/7/3 27/8/3
f 27/8/4 46/7/4 47/9/4 31/10/4
f 31/10/5 47/9/5 48/11/5 35/12/5
f 6/13/6 4/14/6 50/15/6 52/16/6
f 35/12/7 48/11/7 49/17/7 39/18/7
f 39/18/8 49/17/8 44/2/8 18/1/8
f 13/19/9 1/20/9 64/21/9 70/22/9
f 63/23/10 42/24/10 15/25/10 57/26/10
f 42/24/11 41/27/11 16/28/11 15/25/11
f 41/27/12 40/29/12 17/30/12 16/28/12
f 40/29/13 39/18/13 18/1/13 17/30/13
f 62/31/14 38/32/14 42/24/14 63/23/14
f 38/32/15 37/33/15 41/27/15 42/24/15
f 37/33/16 36/34/16 40/29/16 41/27/16
f 36/34/17 35/12/17 39/18/17 40/29/17
f 61/35/5 34/36/5 38/32/5 62/31/5
f 34/36/18 33/37/18 37/33/18 38/32/18
f 33/37/19 32/38/19 36/34/19 37/33/19
f 32/38/20 31/10/20 35/12/20 36/34/20
f 60/39/4 30/40/4 34/36/4 61/35/4
f 30/40/21 29/41/21 33/37/21 34/36/21
f 29/41/22 28/42/22 32/38/22 33/37/22
f 28/42/23 27/8/23 31/10/23 32/38/23
f 59/43/24 26/44/24 30/40/24 60/39/24
f 26/44/25 25/45/25 29/41/25 30/40/25
f 25/45/26 24/46/26 28/42/26 29/41/26
f 24/46/27 23/6/27 27/8/27 28/42/27
f 58/47/28 22/48/28 26/44/28 59/43/28
f 22/48/29 21/49/29 25/45/29 26/44/29
f 21/49/30 20/50/30 24/46/30 25/45/30
f 20/50/31 19/4/31 23/6/31 24/46/31
f 57/26/32 15/25/32 22/48/32 58/47/32
f 15/25/33 16/28/33 21/49/33 22/48/33
f 16/28/34 17/30/34 20/50/34 21/49/34
f 17/30/35 18/1/35 19/4/35 20/50/35
f 2/51/36 4/14/36 43/3/36 44/2/36
f 4/14/37 6/13/37 45/5/37 43/3/37
f 6/13/38 8/52/38 46/7/38 45/5/38
f 8/52/39 10/53/39 47/9/39 46/7/39
f 10/53/40 12/54/40 48/11/40 47/9/40
f 12/54/41 14/55/41 49/17/41 48/11/41
f 14/55/42 2/51/42 44/2/42 49/17/42
f 50/56/43 51/57/43 56/58/43 55/59/43 54/60/43 53/61/43 52/62/43
f 2/51/44 14/55/44 56/63/44 51/64/44
f 12/54/45 10/53/45 54/65/45 55/66/45
f 8/52/46 6/13/46 52/16/46 53/67/46
f 4/14/47 2/51/47 51/64/47 50/15/47
f 14/55/48 12/54/48 55/66/48 56/63/48
f 10/53/49 8/52/49 53/67/49 54/65/49
f 3/68/50 1/20/50 57/26/50 58/47/50
f 5/69/51 3/68/51 58/47/51 59/43/51
f 7/70/52 5/69/52 59/43/52 60/39/52
f 9/71/53 7/70/53 60/39/53 61/35/53
f 11/72/54 9/71/54 61/35/54 62/31/54
f 13/19/55 11/72/55 62/31/55 63/23/55
f 1/20/56 13/19/56 63/23/56 57/26/56
f 64/73/57 65/74/57 66/75/57 67/76/57 68/77/57 69/78/57 70/79/57
f 9/71/58 11/72/58 69/80/58 68/81/58
f 5/69/59 7/70/59 67/82/59 66/83/59
f 1/20/60 3/68/60 65/84/60 64/21/60
f 11/72/61 13/19/61 70/22/61 69/80/61
f 7/70/62 9/71/62 68/81/62 67/82/62
f 3/68/63 5/69/63 66/83/63 65/84/63
f 7/70/64 5/69/64 71/85/64 72/86/64
