# Blender v2.90.1 OBJ File: 'Wood.blend'
# www.blender.org
mtllib Log3.mtl
o Log_2_Cylinder
v -3.568366 0.029185 0.822085
v 3.600263 -0.164634 0.487276
v -3.553387 0.668414 0.388014
v 3.546317 0.573782 0.322891
v -3.548963 0.612095 -0.382741
v 3.483028 0.797958 -0.398865
v -3.559516 -0.083453 -0.719426
v 3.473684 0.283718 -0.956235
v -3.574495 -0.722682 -0.285356
v 3.527630 -0.454698 -0.791849
v -3.578920 -0.666363 0.485400
v 3.590919 -0.678875 -0.070094
v -1.899203 0.129514 1.146201
v -0.151739 -0.055369 1.345063
v 1.761885 -0.027134 1.051330
v 1.761885 0.838891 0.551330
v 0.010833 0.792956 0.793531
v -1.740569 0.957287 0.608030
v 1.761885 0.838891 -0.448670
v 0.136802 0.727962 -0.221447
v -1.617652 0.893867 -0.382358
v 1.761886 -0.027134 -0.948670
v 0.100199 -0.185356 -0.684892
v -1.653369 0.002675 -0.834576
v 1.761885 -0.893160 -0.448670
v -0.062373 -1.033681 -0.133360
v -1.812002 -0.825098 -0.296405
v 1.761885 -0.893160 0.551330
v -0.188342 -0.968687 0.881618
v -1.934920 -0.761678 0.693983
v 3.558336 0.806964 0.427140
v 3.638687 -0.140054 0.738107
v 3.456472 1.006260 -0.547490
v 3.434959 0.258538 -1.211154
v 3.515311 -0.688480 -0.900186
v 3.617175 -0.887776 0.074444
v 3.372040 0.563759 0.335060
v 3.425986 -0.174657 0.499445
v 3.308751 0.787935 -0.386696
v 3.299407 0.273695 -0.944066
v 3.353353 -0.464721 -0.779680
v 3.416642 -0.688898 -0.057925
v -3.563941 -0.027134 1.051329
v -3.563941 0.838892 0.551329
v -3.563941 0.838892 -0.448671
v -3.563941 -0.027134 -0.948671
v -3.563941 -0.893159 -0.448671
v -3.563941 -0.893159 0.551329
v -3.272871 0.023686 0.824183
v -3.257892 0.662915 0.390112
v -3.253468 0.606596 -0.380643
v -3.264021 -0.088952 -0.717328
v -3.279000 -0.728181 -0.283257
v -3.283425 -0.671862 0.487498
vt 0.445313 0.809687
vt 0.445313 0.809687
vt 0.445313 0.809687
vt 0.445313 0.809687
vt 0.445313 0.809687
vt 0.445313 0.809687
vt 0.445313 0.809687
vt 0.445313 0.809687
vt 0.445313 0.809687
vt 0.445313 0.809687
vt 0.445313 0.809687
vt 0.445313 0.809687
vt 0.445313 0.809687
vt 0.445313 0.809687
vt 0.445313 0.809687
vt 0.445313 0.809687
vt 0.445313 0.809687
vt 0.445313 0.809687
vt 0.445313 0.809687
vt 0.445313 0.809687
vt 0.445313 0.809687
vt 0.445313 0.809687
vt 0.445313 0.809687
vt 0.445313 0.809687
vt 0.445313 0.809687
vt 0.445313 0.809687
vt 0.445313 0.809687
vt 0.445313 0.809687
vt 0.445313 0.809687
vt 0.445313 0.809687
vt 0.445313 0.809687
vt 0.445313 0.809687
vt 0.445313 0.809687
vt 0.445313 0.809687
vt 0.445313 0.809687
vt 0.445313 0.809687
vt 0.445313 0.809687
vt 0.445313 0.809687
vt 0.445313 0.809687
vt 0.445313 0.809687
vt 0.445313 0.809687
vt 0.445313 0.809687
vt 0.564453 0.792109
vt 0.564453 0.792109
vt 0.564453 0.792109
vt 0.564453 0.792109
vt 0.564453 0.792109
vt 0.564453 0.792109
vt 0.445313 0.809687
vt 0.445313 0.809687
vt 0.445313 0.809687
vt 0.445313 0.809687
vt 0.445313 0.809687
vt 0.445313 0.809687
vt 0.445313 0.809687
vt 0.445313 0.809687
vt 0.564453 0.792109
vt 0.564453 0.792109
vt 0.564453 0.792109
vt 0.564453 0.792109
vt 0.564453 0.792109
vt 0.564453 0.792109
vt 0.445313 0.809687
vt 0.445313 0.809687
vt 0.445313 0.809687
vt 0.445313 0.809687
vn 0.1238 0.4097 0.9038
vn -0.0321 0.9943 0.1020
vn -0.1636 0.5784 -0.7992
vn -0.1295 -0.4096 -0.9030
vn 0.0553 0.2208 0.9737
vn 0.0316 -0.9943 -0.1020
vn 0.1528 -0.5794 0.8006
vn -0.0191 -0.9972 0.0728
vn -0.0218 -0.4760 0.8792
vn -0.1475 -0.4429 0.8844
vn 0.1528 -0.4730 0.8677
vn 0.0558 -0.9978 0.0352
vn -0.1227 -0.9913 0.0483
vn 0.0633 -0.9973 0.0361
vn 0.0757 -0.5262 -0.8470
vn 0.0128 -0.5468 -0.8372
vn -0.0976 -0.5136 -0.8525
vn 0.0307 0.4757 -0.8791
vn 0.1234 0.4451 -0.8869
vn -0.1679 0.4721 -0.8654
vn -0.0448 0.9984 -0.0346
vn 0.0987 0.9938 -0.0514
vn -0.0513 0.9981 -0.0354
vn -0.0783 0.5263 0.8467
vn -0.0368 0.5497 0.8346
vn 0.1142 0.5115 0.8516
vn 0.9860 0.0324 -0.1636
vn 0.9956 0.0236 -0.0910
vn 0.9888 0.0907 -0.1188
vn 0.9862 0.0329 -0.1620
vn 0.9956 0.0239 -0.0910
vn 0.9887 0.0912 -0.1192
vn 0.9959 0.0573 -0.0695
vn 0.0340 -0.9536 -0.2992
vn -0.0340 0.9536 0.2992
vn 0.0892 -0.7328 0.6746
vn -0.0553 -0.2208 -0.9737
vn -0.0892 0.7328 -0.6746
vn -0.9999 0.0002 -0.0157
vn -0.9979 -0.0640 -0.0005
vn -0.9987 -0.0188 0.0476
vn -0.9998 0.0186 -0.0071
vn 0.0191 0.9972 -0.0728
vn -0.0145 -0.4355 0.9001
vn -0.0046 -0.5617 -0.8273
vn 0.0145 0.4355 -0.9001
vn 0.0046 0.5617 0.8273
usemtl NewMaterial
s off
f 15/1/1 32/2/1 31/3/1 16/4/1
f 16/4/2 31/3/2 33/5/2 19/6/2
f 19/6/3 33/5/3 34/7/3 22/8/3
f 22/8/4 34/7/4 35/9/4 25/10/4
f 10/11/5 8/12/5 40/13/5 41/14/5
f 25/10/6 35/9/6 36/15/6 28/16/6
f 28/16/7 36/15/7 32/2/7 15/1/7
f 3/17/8 5/18/8 51/19/8 50/20/8
f 48/21/9 30/22/9 13/23/9 43/24/9
f 30/22/10 29/25/10 14/26/10 13/23/10
f 29/25/11 28/16/11 15/1/11 14/26/11
f 47/27/12 27/28/12 30/22/12 48/21/12
f 27/28/13 26/29/13 29/25/13 30/22/13
f 26/29/14 25/10/14 28/16/14 29/25/14
f 46/30/15 24/31/15 27/28/15 47/27/15
f 24/31/16 23/32/16 26/29/16 27/28/16
f 23/32/17 22/8/17 25/10/17 26/29/17
f 45/33/18 21/34/18 24/31/18 46/30/18
f 21/34/19 20/35/19 23/32/19 24/31/19
f 20/35/20 19/6/20 22/8/20 23/32/20
f 44/36/21 18/37/21 21/34/21 45/33/21
f 18/37/22 17/38/22 20/35/22 21/34/22
f 17/38/23 16/4/23 19/6/23 20/35/23
f 43/24/24 13/23/24 18/37/24 44/36/24
f 13/23/25 14/26/25 17/38/25 18/37/25
f 14/26/26 15/1/26 16/4/26 17/38/26
f 2/39/27 4/40/27 31/3/27 32/2/27
f 4/40/28 6/41/28 33/5/28 31/3/28
f 6/41/29 8/12/29 34/7/29 33/5/29
f 8/12/30 10/11/30 35/9/30 34/7/30
f 10/11/31 12/42/31 36/15/31 35/9/31
f 12/42/32 2/39/32 32/2/32 36/15/32
f 37/43/33 38/44/33 42/45/33 41/46/33 40/47/33 39/48/33
f 6/41/34 4/40/34 37/49/34 39/50/34
f 12/42/35 10/11/35 41/14/35 42/51/35
f 8/12/36 6/41/36 39/50/36 40/13/36
f 4/40/37 2/39/37 38/52/37 37/49/37
f 2/39/38 12/42/38 42/51/38 38/52/38
f 3/17/39 1/53/39 43/24/39 44/36/39
f 5/18/40 3/17/40 44/36/40 45/33/40
f 7/54/41 5/18/41 45/33/41 46/30/41
f 9/55/39 7/54/39 46/30/39 47/27/39
f 11/56/40 9/55/40 47/27/40 48/21/40
f 1/53/41 11/56/41 48/21/41 43/24/41
f 49/57/42 50/58/42 51/59/42 52/60/42 53/61/42 54/62/42
f 9/55/43 11/56/43 54/63/43 53/64/43
f 5/18/44 7/54/44 52/65/44 51/19/44
f 1/53/45 3/17/45 50/20/45 49/66/45
f 11/56/46 1/53/46 49/66/46 54/63/46
f 7/54/47 9/55/47 53/64/47 52/65/47
