# Blender v2.90.1 OBJ File: 'Wood.blend'
# www.blender.org
mtllib Log3Moss.mtl
o Log_2_Moss_Cylinder.031
v -3.568366 0.029185 0.822085
v 3.600263 -0.164634 0.487276
v -3.553387 0.668414 0.388014
v 3.546317 0.573782 0.322891
v -3.548963 0.612095 -0.382741
v 3.483028 0.797958 -0.398865
v -3.559516 -0.083453 -0.719426
v 3.473684 0.283718 -0.956235
v -3.574495 -0.722682 -0.285356
v 3.527630 -0.454698 -0.791849
v -3.578920 -0.666363 0.485400
v 3.590919 -0.678875 -0.070094
v -1.899203 0.129514 1.146201
v -0.151739 -0.055369 1.345063
v 1.754534 -0.054875 0.989215
v 1.768401 0.827098 0.602883
v 0.010833 0.792956 0.793531
v -1.739824 0.943869 0.608263
v 1.761676 0.920321 -0.441389
v 0.136802 0.727962 -0.221447
v -1.617464 0.923979 -0.407826
v 1.761886 -0.027134 -0.948670
v 0.100199 -0.185356 -0.684892
v -1.653369 0.002675 -0.834576
v 1.761885 -0.893160 -0.448670
v -0.062373 -1.033681 -0.133360
v -1.812002 -0.825098 -0.296405
v 1.761885 -0.893160 0.551330
v -0.188342 -0.968687 0.881618
v -1.934920 -0.761678 0.693983
v 3.554393 0.844724 0.399227
v 3.646727 -0.109884 0.805598
v 3.456667 0.930928 -0.554226
v 3.434959 0.258538 -1.211154
v 3.515311 -0.688480 -0.900186
v 3.617175 -0.887776 0.074444
v 3.372040 0.563759 0.335060
v 3.425986 -0.174657 0.499445
v 3.308751 0.787935 -0.386696
v 3.299407 0.273695 -0.944066
v 3.353353 -0.464721 -0.779680
v 3.416642 -0.688898 -0.057925
v -3.563941 -0.027134 1.051329
v -3.564088 0.841534 0.551283
v -3.563128 0.824261 -0.448417
v -3.563941 -0.027134 -0.948671
v -3.563941 -0.893159 -0.448671
v -3.563941 -0.893159 0.551329
v -3.272871 0.023686 0.824183
v -3.257892 0.662915 0.390112
v -3.253468 0.606596 -0.380643
v -3.264021 -0.088952 -0.717328
v -3.279000 -0.728181 -0.283257
v -3.283425 -0.671862 0.487498
v -1.638394 0.817428 -0.469870
v -1.706466 0.940945 0.332645
v -2.782767 0.911362 -0.451191
v -0.959224 0.831605 -0.321970
v -1.095951 0.679725 -0.481401
v -2.527670 0.937600 -0.078695
v -2.217386 0.593736 -0.615459
v -1.122843 0.895286 -0.155761
v -1.061393 0.881218 -0.366815
v -0.999570 0.512198 -0.487880
v -1.626205 0.680473 -0.490641
v -2.905615 0.861173 -0.426298
v -2.601494 0.886545 0.062816
v -1.718505 0.957047 0.168517
v -2.228420 0.438477 -0.625146
v -1.025415 0.852942 -0.036447
v 3.282524 0.865513 0.451930
v 2.191622 0.863041 0.564533
v 3.208066 0.733888 0.511454
v 2.544234 0.651229 0.620357
v 2.118548 0.866993 0.425346
v 2.538194 0.877996 0.303832
v 2.745716 0.873812 0.350737
v 3.008591 0.877783 0.307428
v 3.350035 0.842708 0.422530
v 3.255003 0.663006 0.511362
v 2.541088 0.574110 0.628481
v 2.147586 0.828806 0.560532
v 2.044639 0.846693 0.374614
v 2.545410 0.859911 0.229618
v 2.756351 0.855657 0.277295
v 3.028560 0.859774 0.232449
vt 0.445313 0.809687
vt 0.445313 0.809687
vt 0.445313 0.809687
vt 0.445313 0.809687
vt 0.445313 0.809687
vt 0.445313 0.809687
vt 0.445313 0.809687
vt 0.445313 0.809687
vt 0.445313 0.809687
vt 0.445313 0.809687
vt 0.445313 0.809687
vt 0.445313 0.809687
vt 0.445313 0.809687
vt 0.445313 0.809687
vt 0.445313 0.809687
vt 0.445313 0.809687
vt 0.445313 0.809687
vt 0.445313 0.809687
vt 0.445313 0.809687
vt 0.445313 0.809687
vt 0.445313 0.809687
vt 0.445313 0.809687
vt 0.445313 0.809687
vt 0.445313 0.809687
vt 0.445313 0.809687
vt 0.445313 0.809687
vt 0.445313 0.809687
vt 0.445313 0.809687
vt 0.445313 0.809687
vt 0.445313 0.809687
vt 0.445313 0.809687
vt 0.445313 0.809687
vt 0.445313 0.809687
vt 0.445313 0.809687
vt 0.445313 0.809687
vt 0.445313 0.809687
vt 0.445313 0.809687
vt 0.445313 0.809687
vt 0.445313 0.809687
vt 0.445313 0.809687
vt 0.445313 0.809687
vt 0.445313 0.809687
vt 0.445313 0.809687
vt 0.445313 0.809687
vt 0.441406 0.941043
vt 0.441406 0.941043
vt 0.441406 0.941043
vt 0.441406 0.941043
vt 0.445313 0.809687
vt 0.445313 0.809687
vt 0.445313 0.809687
vt 0.445313 0.809687
vt 0.445313 0.809687
vt 0.445313 0.809687
vt 0.445313 0.809687
vt 0.445313 0.809687
vt 0.445313 0.809687
vt 0.445313 0.809687
vt 0.445313 0.809687
vt 0.445313 0.809687
vt 0.564453 0.792109
vt 0.564453 0.792109
vt 0.564453 0.792109
vt 0.564453 0.792109
vt 0.564453 0.792109
vt 0.564453 0.792109
vt 0.445313 0.809687
vt 0.445313 0.809687
vt 0.445313 0.809687
vt 0.445313 0.809687
vt 0.445313 0.809687
vt 0.445313 0.809687
vt 0.445313 0.809687
vt 0.445313 0.809687
vt 0.564453 0.792109
vt 0.564453 0.792109
vt 0.564453 0.792109
vt 0.564453 0.792109
vt 0.564453 0.792109
vt 0.564453 0.792109
vt 0.445313 0.809687
vt 0.445313 0.809687
vt 0.445313 0.809687
vt 0.445313 0.809687
vt 0.445313 0.809687
vt 0.441406 0.941043
vt 0.441406 0.941043
vt 0.441406 0.941043
vt 0.441406 0.941043
vt 0.441406 0.941043
vt 0.441406 0.941043
vt 0.441406 0.941043
vt 0.441406 0.941043
vt 0.441406 0.941043
vt 0.441406 0.941043
vt 0.441406 0.941043
vt 0.441406 0.941043
vt 0.441406 0.941043
vt 0.441406 0.941043
vt 0.441406 0.941043
vt 0.441406 0.941043
vt 0.441406 0.941043
vt 0.441406 0.941043
vt 0.441406 0.941043
vt 0.441406 0.941043
vt 0.441406 0.941043
vt 0.441406 0.941043
vt 0.441406 0.941043
vt 0.441406 0.941043
vt 0.441406 0.941043
vt 0.441406 0.941043
vt 0.441406 0.941043
vt 0.441406 0.941043
vt 0.441406 0.941043
vn 0.1001 0.3979 0.9120
vn 0.0002 0.9959 0.0899
vn -0.1404 0.5791 -0.8031
vn -0.1295 -0.4096 -0.9030
vn 0.0553 0.2208 0.9737
vn 0.0316 -0.9943 -0.1020
vn 0.1337 -0.5820 0.8021
vn -0.0191 -0.9972 0.0728
vn -0.0218 -0.4760 0.8792
vn -0.1475 -0.4429 0.8844
vn 0.1648 -0.4535 0.8759
vn 0.0558 -0.9978 0.0352
vn -0.1227 -0.9913 0.0483
vn 0.0633 -0.9973 0.0361
vn 0.0757 -0.5262 -0.8470
vn 0.0128 -0.5468 -0.8372
vn -0.0976 -0.5136 -0.8525
vn 0.0312 0.4824 -0.8754
vn 0.1024 0.4809 -0.8708
vn -0.1771 0.4579 -0.8712
vn -0.0555 0.9983 -0.0173
vn 0.0969 0.9944 -0.0433
vn -0.0656 0.9978 0.0099
vn -0.0760 0.5286 0.8454
vn -0.0383 0.5529 0.8324
vn 0.1265 0.4627 0.8774
vn 0.9864 0.0307 -0.1617
vn 0.9955 0.0273 -0.0906
vn 0.9860 0.1058 -0.1286
vn 0.9862 0.0329 -0.1620
vn 0.9956 0.0239 -0.0910
vn 0.9878 0.0939 -0.1239
vn 0.9959 0.0573 -0.0695
vn 0.0340 -0.9536 -0.2992
vn -0.0340 0.9536 0.2992
vn 0.0892 -0.7328 0.6746
vn -0.0553 -0.2208 -0.9737
vn -0.0892 0.7328 -0.6746
vn -0.9999 -0.0001 -0.0160
vn -0.9979 -0.0643 -0.0004
vn -0.9988 -0.0179 0.0467
vn -0.9999 0.0002 -0.0157
vn -0.9979 -0.0640 -0.0005
vn -0.9987 -0.0188 0.0476
vn -0.9998 0.0186 -0.0071
vn 0.0191 0.9972 -0.0728
vn -0.0145 -0.4355 0.9001
vn -0.0046 -0.5617 -0.8273
vn 0.0145 0.4355 -0.9001
vn 0.0046 0.5617 0.8273
vn 0.1234 0.4451 -0.8869
vn -0.0072 0.9981 -0.0612
vn 0.0266 0.4970 -0.8674
vn 0.0798 0.9959 -0.0432
vn 0.5259 0.3434 -0.7781
vn 0.0175 0.0953 -0.9953
vn -0.3382 0.9267 0.1640
vn -0.1011 0.9758 0.1940
vn 0.1911 0.1025 -0.9762
vn -0.2347 0.0812 -0.9687
vn 0.3938 0.9185 0.0357
vn 0.1847 0.9742 0.1296
vn 0.0970 0.3866 0.9171
vn -0.0001 0.9982 0.0605
vn 0.4000 0.2076 0.8927
vn 0.1493 0.0976 0.9840
vn -0.1117 0.0840 0.9902
vn -0.5188 0.7871 0.3338
vn -0.0963 0.9647 -0.2450
vn 0.0715 0.9707 -0.2296
vn -0.0553 0.9674 -0.2471
vn 0.1752 0.9578 -0.2277
usemtl NewMaterial
s off
f 15/1/1 32/2/1 31/3/1 79/4/1 80/5/1 81/6/1 82/7/1 16/8/1
f 16/8/2 82/7/2 83/9/2 84/10/2 85/11/2 86/12/2 79/4/2 31/3/2 33/13/2 19/14/2
f 19/14/3 33/13/3 34/15/3 22/16/3
f 22/16/4 34/15/4 35/17/4 25/18/4
f 10/19/5 8/20/5 40/21/5 41/22/5
f 25/18/6 35/17/6 36/23/6 28/24/6
f 28/24/7 36/23/7 32/2/7 15/1/7
f 3/25/8 5/26/8 51/27/8 50/28/8
f 48/29/9 30/30/9 13/31/9 43/32/9
f 30/30/10 29/33/10 14/34/10 13/31/10
f 29/33/11 28/24/11 15/1/11 14/34/11
f 47/35/12 27/36/12 30/30/12 48/29/12
f 27/36/13 26/37/13 29/33/13 30/30/13
f 26/37/14 25/18/14 28/24/14 29/33/14
f 46/38/15 24/39/15 27/36/15 47/35/15
f 24/39/16 23/40/16 26/37/16 27/36/16
f 23/40/17 22/16/17 25/18/17 26/37/17
f 45/41/18 66/42/18 69/43/18 65/44/18 24/39/18 46/38/18
f 21/45/19 63/46/19 59/47/19 55/48/19
f 20/49/20 19/14/20 22/16/20 23/40/20
f 44/50/21 18/51/21 56/52/21 67/53/21 66/42/21 45/41/21
f 18/51/22 17/54/22 20/49/22 58/55/22 70/56/22 56/52/22
f 17/54/23 16/8/23 19/14/23 20/49/23
f 43/32/24 13/31/24 18/51/24 44/50/24
f 13/31/25 14/34/25 17/54/25 18/51/25
f 14/34/26 15/1/26 16/8/26 17/54/26
f 2/57/27 4/58/27 31/3/27 32/2/27
f 4/58/28 6/59/28 33/13/28 31/3/28
f 6/59/29 8/20/29 34/15/29 33/13/29
f 8/20/30 10/19/30 35/17/30 34/15/30
f 10/19/31 12/60/31 36/23/31 35/17/31
f 12/60/32 2/57/32 32/2/32 36/23/32
f 37/61/33 38/62/33 42/63/33 41/64/33 40/65/33 39/66/33
f 6/59/34 4/58/34 37/67/34 39/68/34
f 12/60/35 10/19/35 41/22/35 42/69/35
f 8/20/36 6/59/36 39/68/36 40/21/36
f 4/58/37 2/57/37 38/70/37 37/67/37
f 2/57/38 12/60/38 42/69/38 38/70/38
f 3/25/39 1/71/39 43/32/39 44/50/39
f 5/26/40 3/25/40 44/50/40 45/41/40
f 7/72/41 5/26/41 45/41/41 46/38/41
f 9/73/42 7/72/42 46/38/42 47/35/42
f 11/74/43 9/73/43 47/35/43 48/29/43
f 1/71/44 11/74/44 48/29/44 43/32/44
f 49/75/45 50/76/45 51/77/45 52/78/45 53/79/45 54/80/45
f 9/73/46 11/74/46 54/81/46 53/82/46
f 5/26/47 7/72/47 52/83/47 51/27/47
f 1/71/48 3/25/48 50/28/48 49/84/48
f 11/74/49 1/71/49 49/84/49 54/81/49
f 7/72/50 9/73/50 53/82/50 52/83/50
f 65/44/51 64/85/51 58/55/51 20/49/51 23/40/51 24/39/51
f 57/86/52 60/87/52 68/88/52 21/45/52
f 55/48/53 61/89/53 57/86/53 21/45/53
f 68/88/54 62/90/54 63/46/54 21/45/54
f 59/47/55 63/46/55 58/91/55 64/92/55
f 55/48/56 59/47/56 64/92/56 65/93/56
f 60/87/57 57/86/57 66/94/57 67/95/57
f 68/88/58 60/87/58 67/95/58 56/96/58
f 61/89/59 55/48/59 65/93/59 69/97/59
f 57/86/60 61/89/60 69/97/60 66/94/60
f 63/46/61 62/90/61 70/98/61 58/91/61
f 62/90/62 68/88/62 56/96/62 70/98/62
f 72/99/63 74/100/63 73/101/63 71/102/63
f 71/102/64 78/103/64 77/104/64 76/105/64 75/106/64 72/99/64
f 71/102/65 73/101/65 80/107/65 79/108/65
f 73/101/66 74/100/66 81/109/66 80/107/66
f 74/100/67 72/99/67 82/110/67 81/109/67
f 72/99/68 75/106/68 83/111/68 82/110/68
f 75/106/69 76/105/69 84/112/69 83/111/69
f 76/105/70 77/104/70 85/113/70 84/112/70
f 77/104/71 78/103/71 86/114/71 85/113/71
f 78/103/72 71/102/72 79/108/72 86/114/72
