# Blender v2.90.1 OBJ File: 'Wood.blend'
# www.blender.org
mtllib Plank2.mtl
o Plank_3_Cube.003
v -5.014170 0.090863 -0.951294
v -5.014170 -0.171865 -0.951294
v -5.014170 0.090862 1.048706
v -5.014170 -0.171866 1.048706
v 4.690084 0.090863 -1.024129
v 4.690084 -0.171865 -1.024129
v 4.690084 0.090862 0.975871
v 4.690084 -0.171866 0.975871
v 2.203989 0.090862 1.141270
v -0.222075 0.090862 1.046723
v -2.648138 0.090862 0.975871
v -2.648138 -0.171866 0.975871
v -0.222075 -0.171866 1.046723
v 2.203989 -0.171866 1.141270
v -2.648138 0.090863 -1.024129
v -0.222075 0.090863 -0.953277
v 2.203989 0.090863 -0.858730
v 2.203989 -0.171865 -0.858730
v -0.222075 -0.171865 -0.953277
v -2.648138 -0.171865 -1.024129
v -4.713600 -0.171866 -0.051181
v -4.713600 0.090863 -0.051181
v -4.538270 -0.171866 -0.193547
v -4.538270 0.090863 -0.193546
v -3.836250 -0.171866 0.061370
v -3.836250 0.090863 0.061370
v -5.014170 -0.171866 0.144626
v -5.014170 0.090863 0.144626
v -5.014170 -0.171866 -0.128279
v -5.014170 0.090863 -0.128279
v 4.690084 0.090863 -0.042036
v 4.690084 -0.171866 -0.042037
v 4.439311 0.090863 -0.472100
v 4.690084 0.090863 -0.256245
v 4.690084 -0.171866 -0.256245
v 4.439311 -0.171866 -0.472100
v 4.242246 0.090863 -0.275698
v 4.242246 -0.171866 -0.275698
v 3.842493 0.090863 -0.087409
v 3.842493 -0.171866 -0.087409
v 3.637552 0.090863 -0.121826
v 3.637552 -0.171866 -0.121826
v 1.344711 0.090863 -0.104243
v 1.344711 0.090863 -0.285451
v 1.575609 0.090863 0.098928
v 0.969558 0.090863 0.047580
v 0.522658 0.090863 -0.255229
v 0.960287 0.090863 0.265205
v 1.344711 0.069568 -0.104243
v 1.344711 0.069568 -0.285451
v 1.575609 0.069568 0.098928
v 0.969558 0.069568 0.047580
v 0.522658 0.069568 -0.255229
v 0.960287 0.069568 0.265205
v -0.981363 0.090863 -0.213196
v -1.243083 0.090863 0.165863
v -1.619963 0.090863 0.382483
v -2.111408 0.090863 0.565036
v -1.206397 0.090863 0.378469
v -0.981363 0.056832 -0.213196
v -1.243083 0.056832 0.165863
v -1.619963 0.056832 0.382483
v -2.111408 0.056832 0.565036
v -1.206397 0.056832 0.378469
vt 0.429688 0.800781
vt 0.429688 0.800781
vt 0.429688 0.800781
vt 0.429688 0.800781
vt 0.429688 0.800781
vt 0.429688 0.800781
vt 0.429688 0.800781
vt 0.429688 0.800781
vt 0.429688 0.800781
vt 0.429688 0.800781
vt 0.429688 0.800781
vt 0.429688 0.800781
vt 0.429688 0.800781
vt 0.429688 0.800781
vt 0.429688 0.800781
vt 0.429688 0.800781
vt 0.429688 0.800781
vt 0.429688 0.800781
vt 0.429688 0.800781
vt 0.429688 0.800781
vt 0.429688 0.800781
vt 0.429688 0.800781
vt 0.429688 0.800781
vt 0.429688 0.800781
vt 0.429688 0.800781
vt 0.429688 0.800781
vt 0.429688 0.800781
vt 0.429688 0.800781
vt 0.429688 0.800781
vt 0.429688 0.800781
vt 0.429688 0.800781
vt 0.429688 0.800781
vt 0.429688 0.800781
vt 0.429688 0.800781
vt 0.429688 0.800781
vt 0.429688 0.800781
vt 0.429688 0.800781
vt 0.429688 0.800781
vt 0.429688 0.800781
vt 0.429688 0.800781
vt 0.429688 0.800781
vt 0.429688 0.800781
vt 0.429688 0.800781
vt 0.429688 0.800781
vt 0.429688 0.800781
vt 0.429688 0.800781
vt 0.429688 0.800781
vt 0.289063 0.816406
vt 0.289063 0.816406
vt 0.289063 0.816406
vt 0.289063 0.816406
vt 0.289063 0.816406
vt 0.289063 0.816406
vt 0.289063 0.816406
vt 0.289063 0.816406
vt 0.289063 0.816406
vt 0.289063 0.816406
vt 0.292969 0.816406
vt 0.292969 0.816406
vt 0.292969 0.816406
vt 0.292969 0.816406
vt 0.292969 0.816406
vt 0.292969 0.816406
vt 0.292969 0.816406
vt 0.292969 0.816406
vt 0.292969 0.816406
vt 0.292969 0.816406
vt 0.429688 0.800781
vt 0.292969 0.816406
vt 0.292969 0.816406
vt 0.289063 0.816406
vt 0.289063 0.816406
vt 0.289063 0.816406
vt 0.289063 0.816406
vt 0.289063 0.816406
vt 0.289063 0.816406
vt 0.289063 0.816406
vt 0.289063 0.816406
vt 0.289063 0.816406
vt 0.289063 0.816406
vt 0.289063 0.816406
vt 0.289063 0.816406
vt 0.296875 0.820312
vt 0.296875 0.820312
vt 0.296875 0.820312
vt 0.296875 0.820312
vt 0.296875 0.820312
vt 0.429688 0.800781
vt 0.296875 0.820312
vt 0.296875 0.820312
vt 0.296875 0.820312
vt 0.296875 0.820312
vt 0.296875 0.820312
vt 0.429688 0.800781
vt 0.429688 0.800781
vt 0.429688 0.800781
vt 0.429688 0.800781
vn -1.0000 -0.0000 0.0000
vn 0.0664 -0.0000 0.9978
vn 1.0000 0.0000 0.0000
vn -0.0308 0.0000 -0.9995
vn -0.0000 1.0000 0.0000
vn -0.0000 -1.0000 -0.0000
vn -0.0664 0.0000 -0.9978
vn 0.0389 0.0000 -0.9992
vn 0.0292 0.0000 -0.9996
vn 0.0308 -0.0000 0.9995
vn -0.0292 -0.0000 0.9996
vn -0.0389 0.0000 0.9992
vn 0.1272 0.0000 -0.9919
vn -0.3413 -0.0000 0.9399
vn 0.1359 -0.0000 0.9907
vn -0.5458 0.0000 -0.8379
vn -0.6524 -0.0000 0.7579
vn 0.1656 0.0000 -0.9862
vn -0.4261 0.0000 -0.9047
vn 0.4626 0.0000 -0.8866
vn 0.4003 -0.0000 0.9164
vn 0.6639 -0.0000 0.7478
vn 0.7654 0.0000 -0.6436
vn -0.8572 0.0000 0.5149
vn -0.6929 0.0000 -0.7210
vn -0.5609 0.0000 0.8279
vn 0.6606 0.0000 -0.7507
vn 0.4983 0.0000 0.8670
vn -0.9347 0.0000 -0.3555
vn 0.3482 0.0000 0.9374
vn 0.8229 -0.0000 0.5682
vn -0.2019 0.0000 -0.9794
usemtl NewMaterial
s off
f 1/1/1 2/2/1 29/3/1 30/4/1
f 9/5/2 14/6/2 8/7/2 7/8/2
f 7/8/3 8/7/3 32/9/3 31/10/3
f 15/11/4 20/12/4 2/2/4 1/1/4
f 9/5/5 17/13/5 44/14/5 45/15/5 43/16/5
f 12/17/6 4/18/6 27/19/6 21/20/6 25/21/6 23/22/6 29/3/6 2/2/6 20/12/6
f 8/7/6 14/6/6 18/23/6 6/24/6 35/25/6 36/26/6 42/27/6 40/28/6 38/29/6 32/9/6
f 14/6/6 13/30/6 19/31/6 18/23/6
f 13/30/6 12/17/6 20/12/6 19/31/6
f 3/32/5 11/33/5 15/11/5 1/1/5 30/4/5 24/34/5 26/35/5 22/36/5 28/37/5
f 11/33/5 58/38/5 57/39/5 56/40/5 55/41/5 10/42/5 16/43/5 15/11/5
f 10/42/5 9/5/5 43/16/5 48/44/5 47/45/5 46/46/5 44/14/5 17/13/5 16/43/5
f 5/47/7 6/24/7 18/23/7 17/13/7
f 17/13/8 18/23/8 19/31/8 16/43/8
f 16/43/9 19/31/9 20/12/9 15/11/9
f 3/32/10 4/18/10 12/17/10 11/33/10
f 11/33/11 12/17/11 13/30/11 10/42/11
f 10/42/12 13/30/12 14/6/12 9/5/12
f 26/48/13 25/49/13 21/50/13 22/51/13
f 28/37/1 27/19/1 4/18/1 3/32/1
f 24/52/14 23/53/14 25/49/14 26/48/14
f 30/54/15 29/55/15 23/53/15 24/52/15
f 22/51/16 21/50/16 27/56/16 28/57/16
f 33/58/17 36/59/17 35/60/17 34/61/17
f 39/62/18 40/63/18 42/64/18 41/65/18
f 37/66/19 38/67/19 40/63/19 39/62/19
f 34/68/3 35/25/3 6/24/3 5/47/3
f 31/69/20 32/70/20 38/67/20 37/66/20
f 41/65/21 42/64/21 36/59/21 33/58/21
f 49/71/5 51/72/5 50/73/5
f 44/74/22 46/75/22 52/76/22 50/73/22
f 47/77/23 48/78/23 54/79/23 53/80/23
f 50/73/5 52/76/5 53/80/5 54/79/5 49/71/5
f 45/81/24 44/74/24 50/73/24 51/72/24
f 48/78/25 43/82/25 49/71/25 54/79/25
f 46/75/26 47/77/26 53/80/26 52/76/26
f 43/82/27 45/81/27 51/72/27 49/71/27
f 64/83/5 60/84/5 61/85/5 62/86/5 63/87/5
f 10/42/5 55/41/5 59/88/5 58/38/5 11/33/5
f 56/89/28 57/90/28 62/86/28 61/85/28
f 59/91/29 55/92/29 60/84/29 64/83/29
f 57/90/30 58/93/30 63/87/30 62/86/30
f 55/92/31 56/89/31 61/85/31 60/84/31
f 58/93/32 59/91/32 64/83/32 63/87/32
f 17/13/5 9/5/5 7/8/5 31/10/5 37/94/5 39/95/5 41/96/5 33/97/5 34/68/5 5/47/5
