# Blender v2.90.1 OBJ File: 'Wood.blend'
# www.blender.org
mtllib Post3.mtl
o Bridge_Large_Support_2.001_Cube.005
v -0.265832 2.183533 -0.233408
v -0.428802 -2.240160 -0.493232
v -0.326866 2.136275 0.462708
v -0.428802 -2.240160 0.439423
v 0.287814 2.120329 -0.386841
v 0.422929 -2.330940 -0.487727
v 0.299364 2.096431 0.381749
v 0.424375 -2.329318 0.444830
v -0.341176 1.411325 -0.388915
v -0.406344 -0.061624 -0.342681
v -0.348142 -1.084796 -0.404546
v -0.348680 -1.082819 0.446744
v -0.446426 -0.052356 0.268795
v -0.404256 1.350634 0.418506
v 0.430772 -1.177574 0.458908
v 0.280153 -0.074058 0.281070
v 0.440103 1.311981 0.405996
v 0.425470 -1.183272 -0.400850
v 0.277887 -0.081561 -0.414436
v 0.456469 1.328134 -0.456089
v 0.327604 -0.421712 0.337096
v 0.411937 -1.039580 0.436669
v -0.355560 1.086219 -0.378710
v -0.385146 0.417517 -0.357720
v -0.384786 0.755866 -0.147605
v -0.064651 0.535905 -0.388891
v 0.147040 -0.682554 0.376510
v 0.399639 -0.952713 0.329092
vt 0.324219 0.783203
vt 0.324219 0.783203
vt 0.324219 0.783203
vt 0.324219 0.783203
vt 0.324219 0.783203
vt 0.324219 0.783203
vt 0.324219 0.783203
vt 0.324219 0.783203
vt 0.324219 0.783203
vt 0.324219 0.783203
vt 0.324219 0.783203
vt 0.324219 0.783203
vt 0.324219 0.783203
vt 0.324219 0.783203
vt 0.324219 0.783203
vt 0.324219 0.783203
vt 0.324219 0.783203
vt 0.324219 0.783203
vt 0.324219 0.783203
vt 0.324219 0.783203
vt 0.324219 0.783203
vt 0.324219 0.783203
vt 0.324219 0.783203
vt 0.324219 0.783203
vt 0.324219 0.783203
vt 0.324219 0.783203
vt 0.324219 0.783203
vt 0.181779 0.806601
vt 0.181779 0.806601
vt 0.181779 0.806601
vt 0.181779 0.806601
vt 0.324219 0.783203
vt 0.181779 0.806601
vt 0.181779 0.806601
vt 0.181779 0.806601
vt 0.181779 0.806601
vn -0.9976 0.0694 -0.0004
vn -0.0118 -0.0088 0.9999
vn 1.0000 -0.0037 -0.0037
vn 0.0144 0.0755 -0.9970
vn 0.0971 0.9939 0.0516
vn -0.1050 -0.9945 0.0009
vn -0.1457 0.1322 -0.9805
vn -0.0957 -0.0218 -0.9952
vn 0.9813 0.1923 0.0076
vn 0.9927 -0.1205 0.0083
vn 0.0629 -0.0101 0.9980
vn -0.0036 -0.0977 0.9952
vn -0.0025 0.1647 0.9863
vn -0.9915 0.1067 -0.0742
vn -0.9967 0.0396 -0.0714
vn -0.9966 -0.0772 -0.0271
vn -0.2675 0.5085 -0.8184
vn -0.7069 -0.3624 -0.6075
vn 0.9910 0.1335 -0.0060
vn -0.0451 0.0183 -0.9988
vn 0.7045 0.5893 0.3954
vn 0.1968 0.0119 0.9804
usemtl NewMaterial
s off
f 11/1/1 2/2/1 4/3/1 12/4/1
f 12/4/2 4/3/2 8/5/2 15/6/2
f 15/6/3 8/5/3 6/7/3 18/8/3
f 18/8/4 6/7/4 2/2/4 11/1/4
f 3/9/5 7/10/5 5/11/5 1/12/5
f 8/5/6 4/3/6 2/2/6 6/7/6
f 5/11/7 20/13/7 9/14/7 1/12/7
f 20/13/8 19/15/8 10/16/8 24/17/8 26/18/8 23/19/8 9/14/8
f 7/10/9 17/20/9 20/13/9 5/11/9
f 17/20/10 16/21/10 19/15/10 20/13/10
f 3/9/11 14/22/11 17/20/11 7/10/11
f 14/22/12 13/23/12 16/21/12 17/20/12
f 13/23/13 12/4/13 15/6/13 22/24/13 27/25/13 21/26/13 16/21/13
f 1/12/14 9/14/14 14/22/14 3/9/14
f 9/14/15 23/19/15 25/27/15 24/17/15 10/16/15 13/23/15 14/22/15
f 10/16/16 11/1/16 12/4/16 13/23/16
f 26/28/17 24/29/17 25/30/17
f 23/31/18 26/28/18 25/30/18
f 19/15/19 16/21/19 21/26/19 28/32/19 22/24/19 15/6/19 18/8/19
f 10/16/20 19/15/20 18/8/20 11/1/20
f 27/33/21 22/34/21 28/35/21
f 21/36/22 27/33/22 28/35/22
