# Blender v2.90.1 OBJ File: 'Wood.blend'
# www.blender.org
mtllib Rock2Platform.mtl
o Rock_2.009_Icosphere.018
v 3.283272 -1.417933 0.352511
v -3.194223 0.291842 -4.318864
v -3.903690 1.836514 3.286866
v 3.747994 -0.502178 -1.012586
v -1.531045 -0.113353 -5.930360
v -0.730797 -1.735962 5.410286
v 3.189257 0.491101 2.905112
v 0.872360 0.577410 -5.321531
v -1.455395 -2.785450 -1.714105
v 4.064478 0.474679 1.428517
v 0.522140 -4.307948 1.843224
v 2.379794 -2.007730 3.888338
v 3.041601 -0.997888 -2.719817
v 2.453456 -2.763389 1.464598
v 3.038743 0.206743 -2.811732
v -1.618435 2.586123 -4.296592
v 3.037124 -1.106938 3.342067
v 3.688565 1.758638 1.651515
v -2.183814 -2.122957 -1.321584
v -3.517385 2.596765 1.775149
v -3.545597 1.456048 -2.826548
v -3.787541 2.576794 -0.247290
v -1.064446 2.645254 2.292721
v -0.308932 -0.210004 -5.627517
v -0.768661 -1.097828 -4.263717
v -1.553212 -1.283493 -2.314297
v -3.923753 -1.218798 0.473976
v -2.749775 0.767565 4.240110
v 0.402083 0.719951 2.972535
v 1.732216 -0.214074 3.635697
v -0.093901 -3.912794 4.239551
v 0.044735 -4.539921 3.941139
v -0.265483 -0.464370 4.455088
v 1.687151 2.655762 -3.022050
v 1.981859 -2.655295 -1.425093
v 4.121541 -0.607038 0.254524
v 3.530535 -0.776805 1.955842
v 2.170163 -2.401749 3.521501
v 3.271907 -0.922806 2.643400
v -2.641389 2.582087 -2.338060
v -2.950600 2.614016 2.707096
v 0.756979 2.625687 -4.788363
v -3.420856 -0.841587 -0.686647
v 2.768759 2.707213 1.245790
v 3.243952 -1.629810 1.166200
v -0.819373 -4.857224 2.238227
v 0.048059 -1.696347 -3.460442
v -1.896168 -3.802199 1.413364
v 0.328022 -1.397639 -4.192163
v -3.287423 2.579845 -1.059917
v -3.912959 0.369490 1.911534
v -0.195563 0.667075 3.650146
v 1.845466 2.698657 2.353366
v -0.713343 2.596236 -5.150508
v -0.074265 -3.935139 0.989070
v 2.527171 -1.681674 -2.600959
v 0.956177 -3.761788 -0.671130
v 1.302417 -3.842631 3.551345
v 2.779964 -1.724987 2.499440
v -2.884650 2.370490 -2.743692
v -3.618637 2.344518 -1.482574
v -2.021191 2.253379 -4.653661
v -0.791478 2.301031 -5.776160
v 2.145485 2.397125 2.832733
v -1.012767 2.355632 2.766796
v -4.083443 2.389091 -0.545124
v -3.976881 2.312846 1.912783
v 2.189711 2.416161 -3.277474
v 1.186983 2.371726 -5.302011
v -3.203312 2.323979 3.315271
v 3.360261 2.420258 1.375146
vt 0.549365 0.709506
vt 0.549365 0.709506
vt 0.549365 0.709506
vt 0.549365 0.709507
vt 0.549365 0.709506
vt 0.549365 0.709506
vt 0.549365 0.709506
vt 0.549365 0.709506
vt 0.549365 0.709507
vt 0.549365 0.709506
vt 0.549365 0.709506
vt 0.549365 0.709506
vt 0.549365 0.709506
vt 0.549364 0.709506
vt 0.549365 0.709506
vt 0.549365 0.709506
vt 0.549365 0.709507
vt 0.549365 0.709506
vt 0.549365 0.709506
vt 0.549365 0.709506
vt 0.549365 0.709506
vt 0.549365 0.709506
vt 0.549365 0.709506
vt 0.549365 0.709507
vt 0.549365 0.709506
vt 0.549365 0.709506
vt 0.549365 0.709506
vt 0.549365 0.709506
vt 0.549365 0.709506
vt 0.549365 0.709506
vt 0.549365 0.709507
vt 0.549365 0.709506
vt 0.549365 0.709506
vt 0.549365 0.709506
vt 0.549365 0.709506
vt 0.549365 0.709506
vt 0.549365 0.709506
vt 0.549365 0.709506
vt 0.549365 0.709506
vt 0.549365 0.709506
vt 0.549365 0.709506
vt 0.549365 0.709506
vt 0.549365 0.709506
vt 0.549365 0.709506
vt 0.549365 0.709506
vt 0.549365 0.709506
vt 0.549365 0.709506
vt 0.549365 0.709506
vt 0.549365 0.709506
vt 0.549365 0.709506
vt 0.549364 0.709506
vt 0.549365 0.709506
vt 0.549365 0.709506
vt 0.549364 0.709506
vt 0.549365 0.709506
vt 0.549365 0.709506
vt 0.549365 0.709506
vt 0.549365 0.709506
vt 0.549364 0.709506
vt 0.549364 0.709506
vt 0.549365 0.709506
vt 0.549365 0.709506
vt 0.549365 0.709506
vt 0.549365 0.709506
vt 0.549365 0.709506
vt 0.549365 0.709506
vt 0.549365 0.709506
vt 0.549365 0.709507
vt 0.549365 0.709507
vt 0.549365 0.709506
vt 0.549364 0.709506
vn 0.9186 -0.2705 0.2881
vn 0.6040 -0.7866 -0.1280
vn 0.6151 -0.7856 -0.0670
vn 0.8497 0.1616 0.5019
vn 0.1960 -0.8412 -0.5040
vn -0.2060 -0.7245 -0.6577
vn 0.7526 -0.0483 -0.6567
vn 0.1051 -0.7428 -0.6612
vn -0.7218 0.5587 -0.4086
vn -0.9986 -0.0329 0.0423
vn -0.9986 -0.0329 0.0418
vn 0.8674 0.2417 -0.4349
vn -0.7456 0.5365 -0.3952
vn -0.9817 -0.1556 -0.1098
vn -0.7388 -0.4777 -0.4754
vn 0.1805 0.7272 0.6622
vn -0.6658 -0.7457 0.0230
vn 0.4664 -0.8816 -0.0724
vn 0.4256 0.4388 0.7914
vn 0.3528 0.2432 0.9035
vn 0.9190 0.3131 -0.2395
vn -0.2367 -0.9402 -0.2451
vn 0.6573 -0.7100 -0.2525
vn 0.9179 -0.2686 0.2921
vn 0.7809 -0.6078 -0.1443
vn 0.8592 -0.0441 0.5098
vn -0.0434 -0.9190 -0.3918
vn 0.3079 -0.7139 -0.6289
vn -0.2105 -0.8743 -0.4374
vn -0.2132 -0.8808 -0.4228
vn -0.0221 0.1059 0.9941
vn 0.7422 -0.1230 -0.6588
vn -0.6657 -0.3052 -0.6810
vn -0.4851 -0.7670 -0.4199
vn 0.8475 -0.4905 0.2030
vn 0.9482 -0.0034 0.3177
vn -0.7718 0.4531 -0.4462
vn 0.2033 0.5423 0.8153
vn 0.5881 0.5797 0.5640
vn -0.9986 -0.0321 0.0429
vn -0.3217 0.4126 0.8522
vn -0.6477 0.2534 -0.7185
vn -0.4734 -0.8372 -0.2738
vn 0.2431 -0.0171 -0.9698
vn -0.9488 -0.1833 -0.2573
vn 0.0467 0.2868 0.9568
vn 0.4651 -0.5212 -0.7156
vn 0.6402 0.5442 0.5422
vn 0.6562 0.3840 0.6496
vn -0.0718 -0.8174 -0.5716
vn 0.5245 -0.5270 -0.6688
vn -0.7127 -0.4812 -0.5105
vn -0.8997 0.2791 -0.3355
vn -0.2634 -0.9289 -0.2605
vn 0.2812 -0.7992 -0.5313
vn 0.3953 -0.9160 0.0689
vn -0.7746 -0.4326 0.4613
vn -0.5533 0.7775 0.2990
vn 0.4008 -0.3561 0.8441
vn -0.0182 0.9998 -0.0074
vn 0.6710 0.4019 0.6231
vn -0.4531 -0.8425 -0.2912
vn 0.9264 -0.0265 -0.3756
vn 0.9556 -0.2931 -0.0302
vn 0.6952 -0.6979 0.1719
vn 0.7248 -0.6885 -0.0244
vn 0.8238 -0.5086 0.2504
vn 0.8345 -0.5349 0.1322
vn -0.3979 0.8939 -0.2063
vn -0.4429 0.8635 -0.2412
vn -0.3642 0.8554 -0.3684
vn -0.0243 0.8456 0.5333
vn -0.3594 0.9070 -0.2197
vn -0.5372 0.8416 0.0557
vn 0.3336 0.9237 -0.1883
vn -0.4416 0.8637 0.2430
vn 0.4205 0.9004 -0.1118
vn 0.3641 0.8767 0.3143
vn 0.0741 0.9071 -0.4143
vn 0.1010 0.8691 0.4842
usemtl NewMaterial
s off
f 37/1/1 10/2/1 39/3/1
f 14/4/2 11/5/2 35/6/2
f 11/5/3 14/4/3 58/7/3
f 18/8/4 7/9/4 10/2/4
f 46/10/5 55/11/5 11/5/5
f 55/11/6 46/10/6 48/12/6
f 15/13/7 13/14/7 8/15/7
f 5/16/8 24/17/8 49/18/8
f 60/19/9 21/20/9 61/21/9
f 67/22/10 66/23/10 51/24/10
f 51/24/11 3/25/11 67/22/11
f 15/13/12 69/26/12 68/27/12
f 61/21/13 21/20/13 66/23/13
f 43/28/14 21/20/14 2/29/14
f 27/30/15 43/28/15 19/31/15
f 30/32/16 29/33/16 33/34/16
f 9/35/17 55/11/17 19/31/17
f 32/36/18 46/10/18 58/7/18
f 6/37/19 12/38/19 33/34/19
f 17/39/20 7/9/20 30/32/20 33/34/20 12/38/20
f 18/8/21 10/2/21 36/40/21 4/41/21 15/13/21 68/27/21 71/42/21
f 11/5/22 55/11/22 57/43/22
f 36/40/23 1/44/23 4/41/23
f 37/1/24 36/40/24 10/2/24
f 13/14/25 4/41/25 1/44/25 45/45/25 14/4/25 35/6/25 56/46/25
f 39/3/26 10/2/26 7/9/26
f 35/6/27 47/47/27 49/18/27
f 57/43/28 47/47/28 35/6/28
f 25/48/29 49/18/29 47/47/29
f 49/18/30 25/48/30 5/16/30
f 29/33/31 64/49/31 65/50/31
f 8/15/32 69/26/32 15/13/32
f 19/31/33 43/28/33 26/51/33
f 27/30/34 19/31/34 55/11/34 48/12/34
f 59/52/35 38/53/35 58/7/35 14/4/35
f 7/9/36 17/39/36 39/3/36
f 62/54/37 2/29/37 21/20/37 60/19/37
f 70/55/38 28/56/38 6/37/38 33/34/38 52/57/38 65/50/38
f 29/33/39 65/50/39 52/57/39
f 27/30/40 51/24/40 66/23/40
f 3/25/41 28/56/41 70/55/41
f 5/16/42 2/29/42 62/54/42 63/58/42
f 25/48/43 26/51/43 2/29/43 5/16/43
f 63/58/44 69/26/44 8/15/44 24/17/44 5/16/44
f 21/20/45 43/28/45 27/30/45 66/23/45
f 29/33/46 30/32/46 7/9/46 64/49/46
f 56/46/47 49/18/47 8/15/47 13/14/47
f 71/42/48 64/49/48 18/8/48
f 64/49/49 7/9/49 18/8/49
f 25/48/50 47/47/50 57/43/50 9/35/50
f 49/18/51 24/17/51 8/15/51
f 9/35/52 19/31/52 25/48/52
f 26/51/53 25/48/53 19/31/53
f 55/11/54 9/35/54 57/43/54
f 49/18/55 56/46/55 35/6/55
f 58/7/56 46/10/56 11/5/56
f 51/24/57 27/30/57 48/12/57 46/10/57 32/36/57 31/59/57 6/37/57 28/56/57 3/25/57
f 67/22/58 3/25/58 70/55/58
f 6/37/59 31/59/59 32/36/59 58/7/59 12/38/59
f 40/60/60 50/61/60 22/62/60 20/63/60 41/64/60 23/65/60 53/66/60 44/67/60 34/68/60 42/69/60 54/70/60 16/71/60
f 33/34/61 29/33/61 52/57/61
f 2/29/62 26/51/62 43/28/62
f 4/41/63 13/14/63 15/13/63
f 37/1/64 45/45/64 1/44/64
f 36/40/65 37/1/65 1/44/65
f 35/6/66 11/5/66 57/43/66
f 14/4/67 45/45/67 37/1/67 59/52/67
f 58/7/68 38/53/68 59/52/68 37/1/68 39/3/68 17/39/68 12/38/68
f 50/61/69 40/60/69 60/19/69 61/21/69
f 40/60/70 16/71/70 62/54/70 60/19/70
f 16/71/71 54/70/71 63/58/71 62/54/71
f 53/66/72 23/65/72 65/50/72 64/49/72
f 22/62/73 50/61/73 61/21/73 66/23/73
f 20/63/74 22/62/74 66/23/74 67/22/74
f 42/69/75 34/68/75 68/27/75 69/26/75
f 41/64/76 20/63/76 67/22/76 70/55/76
f 34/68/77 44/67/77 71/42/77 68/27/77
f 44/67/78 53/66/78 64/49/78 71/42/78
f 54/70/79 42/69/79 69/26/79 63/58/79
f 23/65/80 41/64/80 70/55/80 65/50/80
