# Blender v2.90.1 OBJ File: 'Wood.blend'
# www.blender.org
mtllib Rock2Simple.mtl
o Icosphere.002_Icosphere.025
v 0.545517 -4.145041 -0.765838
v -3.731192 -0.482188 -0.632297
v 0.216011 -3.317852 -3.637008
v 3.604770 -1.874501 -2.500988
v -1.979504 2.658493 -3.055578
v 0.474185 3.485448 0.444899
v 0.770657 -2.316363 4.124297
v 3.538709 -2.058797 1.820318
v 1.505775 -3.565917 -2.940145
v -2.899147 -1.142375 -1.943235
v 4.171260 0.400600 2.318329
v 2.845036 0.377722 4.689447
v -2.721800 -0.195487 2.495796
v -4.031556 1.437138 -1.519602
v 1.672814 1.860340 -4.206420
v 2.417079 1.768753 2.972293
v -3.575654 1.119328 1.446620
v 0.218500 2.736707 1.703799
v -3.041460 3.253990 -0.814688
vt 0.554706 0.711967
vt 0.554706 0.711967
vt 0.554706 0.711967
vt 0.554706 0.711967
vt 0.554706 0.711967
vt 0.554706 0.711967
vt 0.554706 0.711967
vt 0.554706 0.711967
vt 0.554706 0.711967
vt 0.554706 0.711967
vt 0.554706 0.711967
vt 0.554706 0.711967
vt 0.554706 0.711967
vt 0.554706 0.711967
vt 0.554706 0.711967
vt 0.554706 0.711967
vt 0.554706 0.711967
vt 0.554706 0.711967
vt 0.554706 0.711967
vn -0.6834 -0.6729 0.2831
vn -0.6198 -0.7701 -0.1507
vn -0.0376 -0.9614 -0.2727
vn -0.8908 -0.3253 0.3173
vn -0.5240 -0.0909 -0.8469
vn 0.3895 -0.2082 -0.8972
vn 0.8317 -0.3075 0.4622
vn -0.3734 0.0939 0.9229
vn -0.9859 -0.0886 0.1420
vn -0.4273 0.0208 -0.9039
vn 0.9002 0.3433 -0.2679
vn 0.1117 0.9467 -0.3020
vn 0.3692 0.7639 0.5293
vn 0.0243 0.9690 -0.2460
vn -0.2228 0.8571 0.4645
vn -0.3481 0.7214 0.5987
vn -0.2646 0.4886 0.8314
vn 0.5200 0.8043 -0.2876
vn 0.6641 0.7424 -0.0882
vn -0.3559 -0.4393 -0.8248
vn -0.6842 0.5560 -0.4720
vn -0.8914 0.4153 0.1815
vn -0.3698 0.4209 0.8283
vn -0.2430 0.7232 0.6464
vn 0.6531 0.6598 0.3717
vn -0.8650 -0.3157 -0.3900
vn 0.5603 -0.5596 0.6107
vn 0.9683 -0.2499 0.0041
vn 0.4121 -0.2869 -0.8648
vn -0.3867 -0.8987 0.2071
vn -0.5734 -0.7963 0.1928
vn 0.6303 -0.7760 -0.0235
vn 0.5571 -0.8301 0.0249
vn 0.3444 -0.8844 0.3149
usemtl NewMaterial
s off
f 1/1/1 7/2/1 10/3/1
f 1/1/2 10/3/2 3/4/2
f 1/1/3 3/4/3 9/5/3
f 2/6/4 13/7/4 17/8/4
f 3/4/5 10/3/5 14/9/5
f 4/10/6 3/4/6 15/11/6
f 8/12/7 11/13/7 12/14/7
f 7/2/8 12/14/8 13/7/8
f 2/6/9 17/8/9 14/9/9
f 3/4/10 14/9/10 15/11/10
f 4/10/11 15/11/11 11/13/11
f 15/11/12 5/15/12 6/16/12
f 11/13/13 6/16/13 18/17/13
f 6/16/14 5/15/14 19/18/14
f 19/18/15 18/17/15 6/16/15
f 19/18/16 17/8/16 18/17/16
f 17/8/17 16/19/17 18/17/17
f 16/19/18 11/13/18 18/17/18
f 11/13/19 15/11/19 6/16/19
f 15/11/20 14/9/20 5/15/20
f 14/9/21 19/18/21 5/15/21
f 14/9/22 17/8/22 19/18/22
f 13/7/23 12/14/23 17/8/23
f 12/14/24 16/19/24 17/8/24
f 12/14/25 11/13/25 16/19/25
f 10/3/26 2/6/26 14/9/26
f 7/2/27 8/12/27 12/14/27
f 8/12/28 4/10/28 11/13/28
f 9/5/29 3/4/29 4/10/29
f 10/3/30 13/7/30 2/6/30
f 10/3/31 7/2/31 13/7/31
f 8/12/32 9/5/32 4/10/32
f 8/12/33 1/1/33 9/5/33
f 1/1/34 8/12/34 7/2/34
