# Blender v2.90.1 OBJ File: 'Wood.blend'
# www.blender.org
mtllib Rock1Platform.mtl
o Rock_2.008_Icosphere.016
v 2.578724 -1.662763 1.503877
v -0.524354 0.901940 -4.942059
v -4.924433 2.123909 1.036947
v 3.679548 -0.741059 0.582766
v 1.564351 0.375350 -5.840116
v -3.341559 -1.809277 4.096898
v 1.218002 -0.002425 4.409690
v 3.241715 0.776707 -4.427087
v -0.724457 -2.501222 -2.613780
v 2.886505 0.104774 2.963737
v -0.736104 -4.341683 1.320673
v 0.103239 -2.315685 4.106733
v 3.824619 -1.099664 -1.289814
v 1.242607 -2.968885 1.998265
v 3.958752 0.106655 -1.273429
v 0.983591 2.887256 -4.049815
v 0.980678 -1.442569 4.107914
v 2.558771 1.414052 3.094853
v -1.466436 -1.782007 -2.483387
v -3.146469 2.866486 0.235136
v -1.264296 1.659466 -2.850238
v -3.072906 2.884405 -1.184968
v -2.047970 2.835140 1.918728
v 2.378246 0.132785 -5.151323
v 1.358776 -0.747962 -4.124024
v -0.272374 -0.941487 -2.807173
v -3.738027 -0.784338 -1.557901
v -4.418550 0.915367 2.327819
v -1.255905 0.475406 3.256199
v -0.373967 -0.706686 4.286685
v -2.371891 -3.987228 3.185237
v -2.150232 -4.612076 2.936255
v -2.556005 -0.770560 3.994261
v 3.043900 2.841352 -1.879095
v 2.180666 -2.702132 -0.764575
v 3.398664 -0.933587 1.863370
v 2.090041 -1.111913 3.085207
v 0.056558 -2.665049 3.713741
v 1.531993 -1.260678 3.562064
v -0.394149 2.873025 -2.061275
v -3.611079 2.858513 1.148759
v 3.194768 2.863250 -3.654346
v -2.628226 -0.389236 -2.158503
v 2.021039 2.796772 2.201835
v 2.151197 -1.902437 2.188205
v -2.138852 -4.779603 1.007764
v 1.566018 -1.471252 -3.247679
v -2.637429 -3.597191 -0.135168
v 2.184876 -1.168449 -3.722793
v -2.105911 2.872337 -0.891811
v -4.382969 0.720508 -0.295474
v -2.053476 0.387667 3.451487
v 0.519060 0.832501 3.702293
v 2.143639 2.882894 -4.472698
v -0.840442 -3.881359 0.319934
v 3.271881 -1.737027 -1.475763
v 0.853865 -3.738043 -0.658284
v -0.814489 -4.019336 3.226711
v 1.114122 -2.007412 3.144932
v -0.668406 2.580267 -2.381034
v -2.282565 2.579619 -1.278252
v 0.813223 2.595571 -4.519522
v 2.327122 2.589879 -5.071398
v -3.573384 2.595727 -1.669580
v -3.670513 2.572068 0.205468
v 3.564312 2.537606 -1.875946
v 3.742244 2.563433 -3.969661
v -4.289151 2.561452 1.421975
v 2.405365 2.487095 2.747927
v -2.255703 2.531045 2.423627
vt 0.549365 0.709506
vt 0.549365 0.709506
vt 0.549365 0.709506
vt 0.549365 0.709507
vt 0.549365 0.709506
vt 0.549365 0.709506
vt 0.549365 0.709506
vt 0.549365 0.709506
vt 0.549365 0.709507
vt 0.549365 0.709506
vt 0.549365 0.709506
vt 0.549365 0.709506
vt 0.549365 0.709506
vt 0.549364 0.709506
vt 0.549365 0.709506
vt 0.549365 0.709506
vt 0.549365 0.709507
vt 0.549365 0.709506
vt 0.549365 0.709506
vt 0.549365 0.709506
vt 0.549365 0.709506
vt 0.549365 0.709506
vt 0.549365 0.709506
vt 0.549365 0.709507
vt 0.549365 0.709506
vt 0.549365 0.709506
vt 0.549365 0.709506
vt 0.549365 0.709506
vt 0.549365 0.709506
vt 0.549365 0.709506
vt 0.549365 0.709507
vt 0.549365 0.709506
vt 0.549365 0.709506
vt 0.549365 0.709506
vt 0.549365 0.709506
vt 0.549365 0.709506
vt 0.549365 0.709506
vt 0.549365 0.709506
vt 0.549365 0.709506
vt 0.549365 0.709506
vt 0.549365 0.709506
vt 0.549365 0.709506
vt 0.549365 0.709506
vt 0.549365 0.709506
vt 0.549365 0.709506
vt 0.549365 0.709506
vt 0.549365 0.709506
vt 0.549365 0.709506
vt 0.549365 0.709506
vt 0.549365 0.709506
vt 0.549364 0.709506
vt 0.549365 0.709506
vt 0.549365 0.709506
vt 0.549364 0.709506
vt 0.549365 0.709506
vt 0.549365 0.709506
vt 0.549365 0.709506
vt 0.549365 0.709506
vt 0.549364 0.709506
vt 0.549365 0.709506
vt 0.549365 0.709506
vt 0.549365 0.709506
vt 0.549365 0.709506
vt 0.549365 0.709506
vt 0.549365 0.709506
vt 0.549365 0.709506
vt 0.549365 0.709506
vt 0.549365 0.709506
vt 0.549364 0.709506
vt 0.549365 0.709506
vn 0.6591 -0.3658 0.6571
vn 0.5427 -0.8335 0.1038
vn 0.5241 -0.8359 0.1629
vn 0.6492 0.0868 0.7556
vn 0.3546 -0.8349 -0.4210
vn 0.0789 -0.6754 -0.7332
vn 0.9648 -0.1040 -0.2415
vn 0.3071 -0.7239 -0.6178
vn -0.4437 0.6179 -0.6491
vn -0.9284 0.3690 -0.0434
vn -0.6011 0.4159 -0.6824
vn 0.9799 0.1802 0.0855
vn 0.1415 0.8916 -0.4302
vn -0.8117 0.3951 -0.4302
vn -0.4288 -0.1499 -0.8909
vn -0.1236 0.5981 0.7919
vn -0.6860 -0.6476 -0.3318
vn 0.3893 -0.9175 0.0820
vn 0.0105 0.0905 0.9958
vn -0.0354 -0.1505 0.9880
vn 0.9472 0.2131 0.2398
vn -0.1543 -0.9036 -0.3996
vn 0.6567 -0.7536 0.0307
vn 0.6610 -0.3674 0.6543
vn 0.7180 -0.6709 0.1852
vn 0.6325 -0.3180 0.7063
vn 0.0809 -0.8849 -0.4587
vn 0.5158 -0.7099 -0.4796
vn -0.0951 -0.7787 -0.6202
vn -0.1479 -0.8193 -0.5540
vn -0.2817 0.2393 0.9292
vn 0.9456 -0.1990 -0.2573
vn -0.2645 0.0043 -0.9644
vn -0.2921 -0.6807 -0.6718
vn 0.6220 -0.5747 0.5318
vn 0.7215 -0.2539 0.6442
vn -0.6402 0.6255 -0.4459
vn -0.3201 0.4574 0.8297
vn 0.1678 0.4391 0.8826
vn -0.8769 0.0269 -0.4800
vn -0.6608 0.4011 0.6344
vn -0.2858 0.4166 -0.8630
vn -0.3970 -0.7294 -0.5571
vn 0.6295 0.0351 -0.7762
vn -0.4622 -0.0011 -0.8868
vn -0.2918 0.4828 0.8257
vn 0.7080 -0.5340 -0.4621
vn 0.1832 0.3260 0.9274
vn 0.0340 0.6625 0.7483
vn 0.1667 -0.7584 -0.6301
vn 0.7389 -0.5450 -0.3964
vn -0.4100 -0.2647 -0.8728
vn -0.5597 0.5598 -0.6110
vn -0.1702 -0.8891 -0.4250
vn 0.4370 -0.7988 -0.4135
vn 0.2586 -0.9507 0.1714
vn -0.9261 -0.3772 0.0086
vn -0.4567 0.8608 -0.2247
vn -0.0525 -0.4156 0.9080
vn -0.0531 0.5437 0.8376
vn 0.1864 0.3494 0.9182
vn -0.3349 -0.7324 -0.5929
vn 0.9890 -0.1113 0.0979
vn 0.8386 -0.3790 0.3912
vn 0.4943 -0.7621 0.4182
vn 0.6072 -0.7512 0.2587
vn 0.5779 -0.5923 0.5614
vn 0.6336 -0.6178 0.4657
vn -0.4073 0.3634 0.8379
vn 0.0085 0.9999 0.0131
vn -0.3234 0.8196 -0.4729
vn -0.4830 0.8116 -0.3288
vn -0.1698 0.8636 -0.4747
vn 0.2059 0.7325 -0.6489
vn -0.4891 0.8721 -0.0143
vn 0.5031 0.8626 0.0534
vn -0.4668 0.8540 -0.2299
vn 0.4989 0.8562 0.1344
vn -0.0272 0.8612 0.5075
vn 0.2879 0.8921 -0.3484
vn -0.2046 0.8734 0.4419
usemtl NewMaterial
s off
f 37/1/1 10/2/1 39/3/1
f 14/4/2 11/5/2 35/6/2
f 11/5/3 14/4/3 58/7/3
f 18/8/4 7/9/4 10/2/4
f 46/10/5 55/11/5 11/5/5
f 55/11/6 46/10/6 48/12/6
f 15/13/7 13/14/7 8/15/7
f 5/16/8 24/17/8 49/18/8
f 60/19/9 21/20/9 61/21/9
f 65/22/10 64/23/10 51/24/10
f 51/24/11 3/25/11 65/22/11
f 15/13/12 67/26/12 66/27/12
f 61/21/13 21/20/13 64/23/13
f 43/28/14 21/20/14 2/29/14
f 27/30/15 43/28/15 19/31/15
f 30/32/16 29/33/16 33/34/16
f 9/35/17 55/11/17 19/31/17
f 32/36/18 46/10/18 58/7/18
f 6/37/19 12/38/19 33/34/19
f 17/39/20 7/9/20 30/32/20 33/34/20 12/38/20
f 18/8/21 10/2/21 36/40/21 4/41/21 15/13/21 66/27/21 69/42/21
f 11/5/22 55/11/22 57/43/22
f 36/40/23 1/44/23 4/41/23
f 37/1/24 36/40/24 10/2/24
f 13/14/25 4/41/25 1/44/25 45/45/25 14/4/25 35/6/25 56/46/25
f 39/3/26 10/2/26 7/9/26
f 35/6/27 47/47/27 49/18/27
f 57/43/28 47/47/28 35/6/28
f 25/48/29 49/18/29 47/47/29
f 49/18/30 25/48/30 5/16/30
f 29/33/31 53/49/31 70/50/31
f 8/15/32 67/26/32 15/13/32
f 19/31/33 43/28/33 26/51/33
f 27/30/34 19/31/34 55/11/34 48/12/34
f 59/52/35 38/53/35 58/7/35 14/4/35
f 7/9/36 17/39/36 39/3/36
f 62/54/37 2/29/37 21/20/37 60/19/37
f 68/55/38 28/56/38 6/37/38 33/34/38 52/57/38
f 29/33/39 70/50/39 52/57/39
f 27/30/40 51/24/40 64/23/40
f 3/25/41 28/56/41 68/55/41
f 5/16/42 2/29/42 62/54/42 63/58/42
f 25/48/43 26/51/43 2/29/43 5/16/43
f 63/58/44 67/26/44 8/15/44 24/17/44 5/16/44
f 21/20/45 43/28/45 27/30/45 64/23/45
f 29/33/46 30/32/46 7/9/46 53/49/46
f 56/46/47 49/18/47 8/15/47 13/14/47
f 69/42/48 53/49/48 18/8/48
f 53/49/49 7/9/49 18/8/49
f 25/48/50 47/47/50 57/43/50 9/35/50
f 49/18/51 24/17/51 8/15/51
f 9/35/52 19/31/52 25/48/52
f 26/51/53 25/48/53 19/31/53
f 55/11/54 9/35/54 57/43/54
f 49/18/55 56/46/55 35/6/55
f 58/7/56 46/10/56 11/5/56
f 51/24/57 27/30/57 48/12/57 46/10/57 32/36/57 31/59/57 6/37/57 28/56/57 3/25/57
f 65/22/58 3/25/58 68/55/58
f 6/37/59 31/59/59 32/36/59 58/7/59 12/38/59
f 69/42/60 70/50/60 53/49/60
f 33/34/61 29/33/61 52/57/61
f 2/29/62 26/51/62 43/28/62
f 4/41/63 13/14/63 15/13/63
f 37/1/64 45/45/64 1/44/64
f 36/40/65 37/1/65 1/44/65
f 35/6/66 11/5/66 57/43/66
f 14/4/67 45/45/67 37/1/67 59/52/67
f 58/7/68 38/53/68 59/52/68 37/1/68 39/3/68 17/39/68 12/38/68
f 70/50/69 68/55/69 52/57/69
f 50/60/70 22/61/70 20/62/70 41/63/70 23/64/70 44/65/70 34/66/70 42/67/70 54/68/70 16/69/70 40/70/70
f 50/60/71 40/70/71 60/19/71 61/21/71
f 40/70/72 16/69/72 62/54/72 60/19/72
f 16/69/73 54/68/73 63/58/73 62/54/73
f 22/61/74 50/60/74 61/21/74 64/23/74
f 20/62/75 22/61/75 64/23/75 65/22/75
f 42/67/76 34/66/76 66/27/76 67/26/76
f 41/63/77 20/62/77 65/22/77 68/55/77
f 34/66/78 44/65/78 69/42/78 66/27/78
f 44/65/79 23/64/79 70/50/79 69/42/79
f 54/68/80 42/67/80 67/26/80 63/58/80
f 23/64/81 41/63/81 68/55/81 70/50/81
