# Blender v2.90.1 OBJ File: 'Wood.blend'
# www.blender.org
mtllib Rock3Simple.mtl
o Icosphere.003_Icosphere.026
v 0.501011 -2.431772 -2.239314
v -1.158032 -1.594783 3.088769
v -3.500579 -0.673181 -0.723878
v -1.020755 -2.973550 -3.946996
v 3.847455 -1.610060 -2.063870
v -1.631570 1.437267 1.570154
v -2.791809 1.441841 -3.319901
v 2.101153 1.958906 -4.047239
v 1.195711 1.467095 -0.439488
v -0.339481 -1.647293 1.479525
v 0.893086 -3.482380 1.483192
v 2.712454 -3.008147 0.028086
v 1.327291 -3.848230 -3.077114
v -2.985315 -1.043878 1.688471
v -3.094115 -1.538633 -2.213235
v 3.634147 -0.553111 1.918445
v 4.549485 1.304277 1.560580
v 2.105185 1.592741 3.963440
v -0.302465 -0.928235 3.773634
v -2.853371 0.498925 -3.659797
v -4.248936 1.165673 -1.270225
v -0.090529 -0.122657 -4.851919
v 3.051448 2.111037 3.085977
v -2.041931 1.992897 3.982449
v 0.585122 3.143417 4.110855
v 3.633666 2.307965 0.290585
v -2.535449 3.429866 1.364475
v -1.542879 1.604001 -1.535661
vt 0.554207 0.714428
vt 0.554207 0.714428
vt 0.554207 0.714428
vt 0.554207 0.714428
vt 0.554207 0.714428
vt 0.554207 0.714428
vt 0.554207 0.714428
vt 0.554207 0.714428
vt 0.554207 0.714428
vt 0.554207 0.714428
vt 0.554207 0.714428
vt 0.554207 0.714428
vt 0.554207 0.714428
vt 0.554207 0.714428
vt 0.554207 0.714428
vt 0.554207 0.714428
vt 0.554207 0.714428
vt 0.554207 0.714428
vt 0.554207 0.714428
vt 0.554207 0.714428
vt 0.554207 0.714428
vt 0.554207 0.714428
vt 0.554207 0.714428
vt 0.554207 0.714428
vt 0.554207 0.714428
vt 0.554207 0.714428
vt 0.554207 0.714428
vt 0.554207 0.714428
vn -0.8280 -0.5563 -0.0698
vn -0.2374 -0.9599 0.1488
vn -0.2108 -0.8619 0.4613
vn -0.4651 -0.6357 0.6161
vn -0.0545 -0.6807 0.7306
vn -0.8442 0.4727 0.2529
vn -0.7301 -0.3361 -0.5949
vn 0.5180 -0.2077 -0.8298
vn 0.1282 -0.6348 0.7620
vn -0.7276 -0.0942 0.6795
vn -0.4196 -0.1474 -0.8957
vn 0.9001 0.2374 -0.3653
vn 0.4907 0.4078 0.7700
vn -0.9069 -0.4174 -0.0581
vn -0.1579 0.9872 0.0208
vn -0.0878 0.9897 0.1129
vn -0.3374 0.9404 0.0435
vn 0.1174 0.9782 -0.1711
vn 0.2277 0.8573 -0.4618
vn -0.1856 0.8017 -0.5682
vn -0.7003 -0.2486 0.6691
vn 0.3342 0.8981 -0.2860
vn -0.3679 0.7842 0.4998
vn -0.0050 -0.0995 0.9950
vn -0.2050 0.9092 -0.3624
vn 0.4350 0.8873 0.1531
vn 0.6023 0.7776 0.1802
vn 0.8676 0.3665 -0.3360
vn -0.1790 0.5130 -0.8395
vn -0.3069 0.3404 -0.8888
vn -0.8598 -0.5099 -0.0288
vn -0.0024 -0.0728 0.9973
vn 0.7141 -0.1440 0.6850
vn 0.6526 -0.1798 0.7360
vn 0.5046 -0.2073 -0.8381
vn 0.2050 -0.3563 -0.9116
vn -0.8052 0.2469 -0.5392
vn -0.8683 -0.2149 -0.4471
vn -0.9229 -0.3841 -0.0287
vn -0.5835 0.3533 0.7312
vn -0.6128 -0.0250 0.7898
vn 0.4394 -0.4770 0.7612
vn 0.6250 -0.4582 0.6321
vn 0.8998 -0.4223 0.1097
vn 0.8793 -0.4397 0.1832
vn -0.8302 -0.5497 0.0929
vn -0.2108 -0.9690 0.1288
vn -0.2279 -0.9700 -0.0843
vn 0.6844 -0.7207 -0.1103
vn 0.3298 -0.9380 0.1067
vn -0.8741 -0.4836 -0.0444
vn -0.7694 -0.5175 -0.3745
usemtl NewMaterial
s off
f 1/1/1 11/2/1 10/3/1
f 1/1/2 10/3/2 15/4/2
f 1/1/3 15/4/3 4/5/3
f 1/1/4 4/5/4 13/6/4
f 2/7/5 11/2/5 19/8/5
f 3/9/6 14/10/6 6/11/6
f 4/5/7 15/4/7 20/12/7
f 5/13/8 13/6/8 8/14/8
f 12/15/9 16/16/9 18/17/9
f 3/9/10 6/11/10 21/18/10
f 4/5/11 20/12/11 22/19/11
f 5/13/12 8/14/12 17/20/12
f 18/17/13 23/21/13 25/22/13
f 6/11/14 24/23/14 27/24/14
f 7/25/15 21/18/15 28/26/15
f 8/14/16 7/25/16 9/27/16
f 26/28/17 8/14/17 9/27/17
f 9/27/18 7/25/18 28/26/18
f 28/26/19 27/24/19 9/27/19
f 28/26/20 21/18/20 27/24/20
f 21/18/21 6/11/21 27/24/21
f 27/24/22 25/22/22 9/27/22
f 27/24/23 24/23/23 25/22/23
f 24/23/24 18/17/24 25/22/24
f 25/22/25 26/28/25 9/27/25
f 25/22/26 23/21/26 26/28/26
f 23/21/27 17/20/27 26/28/27
f 17/20/28 8/14/28 26/28/28
f 22/19/29 7/25/29 8/14/29
f 22/19/30 20/12/30 7/25/30
f 19/8/31 24/23/31 6/11/31
f 19/8/32 18/17/32 24/23/32
f 18/17/33 16/16/33 23/21/33
f 16/16/34 17/20/34 23/21/34
f 8/14/35 13/6/35 22/19/35
f 13/6/36 4/5/36 22/19/36
f 20/12/37 21/18/37 7/25/37
f 20/12/38 15/4/38 21/18/38
f 15/4/39 3/9/39 21/18/39
f 6/11/40 14/10/40 19/8/40
f 14/10/41 2/7/41 19/8/41
f 19/8/42 11/2/42 18/17/42
f 11/2/43 12/15/43 18/17/43
f 16/16/44 12/15/44 17/20/44
f 12/15/45 5/13/45 17/20/45
f 15/4/46 14/10/46 3/9/46
f 15/4/47 10/3/47 14/10/47
f 10/3/48 2/7/48 14/10/48
f 12/15/49 13/6/49 5/13/49
f 12/15/50 11/2/50 13/6/50
f 11/2/51 1/1/51 13/6/51
f 10/3/52 11/2/52 2/7/52
