# Blender v2.90.1 OBJ File: 'Wood.blend'
# www.blender.org
mtllib Rock3Platform.mtl
o Rock_3.003_Icosphere.017
v -1.194718 -2.428845 1.351791
v -1.622355 2.925304 1.565170
v 0.059637 -3.056492 2.125252
v -1.091228 -3.197141 1.232573
v -1.090451 -5.214221 -1.778043
v 0.253406 2.930384 1.469942
v -1.582031 -3.265481 -2.301486
v 1.274703 -3.055697 2.063635
v -0.022438 -4.109287 -0.533955
v -0.756449 -4.178740 -2.017311
v 1.265839 0.749918 1.970331
v 0.108881 2.951243 -1.843083
v 2.533434 -3.545028 1.338705
v 2.636323 0.861630 -2.808746
v 2.881339 -2.961233 1.162287
v 2.608175 -0.763299 -2.065239
v -1.014289 1.436294 2.556666
v 0.300015 1.169006 -2.676140
v 3.088693 2.991710 0.320314
v -2.296835 -3.898574 -1.369441
v -0.939118 -4.696930 -0.270159
v -3.586835 0.138891 0.130680
v -3.449648 -1.002440 -0.233893
v -2.418486 -1.568285 1.265126
v -1.533278 -1.127740 -2.595290
v 1.934730 2.938534 0.850299
v -2.445650 0.901272 -1.397089
v -1.955348 1.286224 -2.335731
v -2.385798 -0.923931 1.312266
v -0.474725 -2.125148 2.258731
v -0.665321 -1.485853 2.334996
v -1.079238 1.075245 -2.293128
v 1.735166 2.493593 -2.323197
v 1.113016 -2.219490 2.181117
v 1.078408 -3.895209 -0.480891
v -2.280467 -3.129464 0.423237
v 1.192809 -2.562315 -1.973352
v -1.164323 1.154328 2.584253
v -1.854220 2.933758 0.183073
v -1.804392 2.926755 1.382782
v 0.001288 -4.191539 0.896449
v -0.123822 -1.479977 2.203659
v -3.350683 0.812908 0.382653
v -1.182811 0.536958 2.551963
v 3.317531 2.949406 -1.335086
v -1.648327 1.918660 2.115564
v 2.884759 2.980277 -1.809343
v -3.017235 -0.442158 -0.830977
v -0.667809 -4.511738 0.737214
v 0.052110 -3.423146 1.401999
v -0.027776 -4.509863 -0.165337
v 1.861144 -1.637076 -2.014150
v 0.764656 0.327942 -2.471702
v -0.038430 0.158201 -2.564537
v 1.983048 1.689444 1.434534
v -2.757227 1.971232 1.003957
v -2.341263 2.937505 -0.527865
v -1.112478 2.120615 2.174604
v -1.560700 -2.305205 -2.432758
v 0.649690 -4.134281 0.473146
v -2.814511 -3.149104 -0.771588
v -0.102040 2.052550 2.121506
v -0.678162 2.927467 1.562173
v -0.636476 -4.781384 -0.865790
v 3.397144 -2.040553 0.902636
v 1.598237 -1.094653 1.803154
v 0.437241 1.271125 2.196133
v -1.500868 0.107383 -2.770300
v -0.305792 1.903299 -2.523037
v -2.403673 0.704678 -1.716605
v 1.960985 2.953623 -1.423217
v 3.366314 2.954795 -0.552652
v 2.225470 -0.119843 1.696356
v 0.588988 -3.336907 -1.945728
v -3.436822 0.915387 -0.742048
v 1.799602 -3.893820 0.631552
v -1.728246 2.930058 0.887814
v -1.804280 2.699197 1.974002
v -2.244796 2.700683 1.532620
v 3.748720 2.733104 -0.491473
v 3.395520 2.768486 0.619262
v -2.148159 2.704740 0.904462
v 2.068314 2.714088 1.228831
v 0.324974 2.705528 1.871329
v 0.033985 2.729667 -2.250786
v 1.907032 2.732124 -1.826172
v -2.936063 2.712063 -0.656490
v -2.247524 2.707834 0.348585
v -0.675921 2.702245 1.970424
v 2.971553 2.759742 -2.271138
v 3.686617 2.728701 -1.487324
v 3.389589 0.317108 -0.930035
v 3.396271 0.543337 0.750379
v 3.051138 0.671016 -1.827864
v 3.273037 0.844822 0.059985
vt 0.549365 0.709506
vt 0.549365 0.709507
vt 0.549365 0.709507
vt 0.549365 0.709506
vt 0.549365 0.709506
vt 0.549365 0.709506
vt 0.549365 0.709507
vt 0.549365 0.709507
vt 0.549365 0.709507
vt 0.549365 0.709507
vt 0.549365 0.709507
vt 0.549365 0.709507
vt 0.549365 0.709507
vt 0.549365 0.709506
vt 0.549365 0.709506
vt 0.549365 0.709507
vt 0.549365 0.709507
vt 0.549365 0.709506
vt 0.549365 0.709506
vt 0.549365 0.709506
vt 0.549365 0.709507
vt 0.549365 0.709507
vt 0.549365 0.709506
vt 0.549365 0.709507
vt 0.549365 0.709506
vt 0.549365 0.709506
vt 0.549365 0.709507
vt 0.549365 0.709506
vt 0.549365 0.709507
vt 0.549365 0.709507
vt 0.549365 0.709507
vt 0.549365 0.709506
vt 0.549365 0.709507
vt 0.549365 0.709507
vt 0.549365 0.709507
vt 0.549365 0.709507
vt 0.549365 0.709507
vt 0.549365 0.709507
vt 0.549365 0.709506
vt 0.549365 0.709506
vt 0.549365 0.709507
vt 0.549365 0.709507
vt 0.549365 0.709506
vt 0.549365 0.709507
vt 0.549365 0.709507
vt 0.549365 0.709506
vt 0.549365 0.709506
vt 0.549365 0.709506
vt 0.549365 0.709506
vt 0.549365 0.709506
vt 0.549365 0.709506
vt 0.549365 0.709507
vt 0.549365 0.709507
vt 0.549365 0.709507
vt 0.549365 0.709507
vt 0.549365 0.709507
vt 0.549365 0.709507
vt 0.549365 0.709506
vt 0.549365 0.709506
vt 0.549365 0.709507
vt 0.549365 0.709506
vt 0.549365 0.709507
vt 0.549365 0.709507
vt 0.549365 0.709506
vt 0.549365 0.709507
vt 0.549365 0.709506
vt 0.549365 0.709507
vt 0.549365 0.709507
vt 0.549365 0.709507
vt 0.549365 0.709507
vt 0.549365 0.709506
vt 0.549365 0.709507
vt 0.549365 0.709507
vt 0.549365 0.709506
vt 0.549365 0.709507
vt 0.549365 0.709507
vt 0.549365 0.709507
vt 0.549365 0.709507
vt 0.549365 0.709507
vt 0.549365 0.709507
vt 0.549365 0.709506
vt 0.549365 0.709506
vt 0.549365 0.709506
vt 0.549365 0.709506
vt 0.549365 0.709506
vt 0.549365 0.709507
vt 0.549365 0.709506
vt 0.549365 0.709506
vt 0.549365 0.709506
vt 0.549365 0.709507
vt 0.549365 0.709507
vt 0.549365 0.709507
vt 0.549365 0.709506
vt 0.549365 0.709506
vt 0.549365 0.709506
vn -0.1621 0.1447 0.9761
vn -0.1801 0.9097 -0.3743
vn -0.9535 -0.2977 0.0459
vn -0.5222 -0.4401 0.7305
vn -0.0464 -0.3653 0.9297
vn 0.0235 -0.8918 0.4518
vn 0.7295 -0.4684 -0.4985
vn -0.8386 0.0717 -0.5400
vn -0.8329 -0.3179 0.4530
vn 0.5257 -0.8213 -0.2217
vn 0.3833 0.1824 0.9054
vn 0.4079 0.1470 0.9011
vn 0.3464 0.3232 0.8806
vn -0.7719 0.6254 -0.1147
vn -0.9098 0.3337 0.2469
vn -0.6173 0.4560 -0.6411
vn -0.5514 -0.2272 0.8027
vn -0.0047 0.2622 -0.9650
vn -0.5395 0.1894 -0.8204
vn -0.3887 0.5779 -0.7176
vn -0.8364 0.0655 -0.5441
vn -0.9594 -0.2783 0.0452
vn -0.7773 -0.0678 -0.6255
vn 0.1380 0.3890 -0.9109
vn 0.3243 -0.8665 0.3796
vn -0.2254 -0.5250 0.8207
vn 0.5046 -0.4976 0.7056
vn 0.1851 -0.9742 0.1292
vn -0.1919 -0.1757 0.9656
vn -0.1170 -0.0666 0.9909
vn -0.7012 -0.2869 0.6527
vn -0.5611 -0.4254 0.7101
vn 0.1662 0.2489 0.9542
vn 0.0521 0.0568 0.9970
vn 0.0929 0.3027 0.9486
vn 0.8937 -0.3524 -0.2776
vn 0.8373 -0.3762 -0.3967
vn 0.4904 -0.0291 0.8710
vn 0.3809 -0.1450 0.9132
vn 0.4904 -0.0290 0.8710
vn 0.2609 0.2686 0.9273
vn -0.5488 -0.1154 -0.8279
vn 0.1142 0.3989 -0.9099
vn 0.1453 -0.1477 -0.9783
vn 0.6999 -0.5566 -0.4476
vn 0.0503 -0.1294 0.9903
vn -0.0451 0.4820 0.8750
vn 0.1958 -0.9684 -0.1547
vn -0.7527 0.6437 0.1381
vn 0.0471 -0.0061 -0.9989
vn -0.3869 0.2915 0.8748
vn -0.0188 0.2755 -0.9611
vn -0.5215 -0.4428 0.7293
vn -0.5882 -0.7188 0.3705
vn -0.1780 -0.1743 0.9685
vn -0.0117 -0.8649 0.5019
vn -0.8533 -0.3494 0.3871
vn 0.4211 0.1849 0.8880
vn 0.1460 -0.1567 -0.9768
vn 0.3318 0.1404 0.9328
vn 0.3827 0.2196 0.8974
vn 0.3408 0.1577 0.9268
vn -0.0622 -0.3677 -0.9279
vn -0.7082 -0.0155 0.7058
vn -0.8389 -0.2545 0.4810
vn 0.0936 0.2766 -0.9564
vn 0.1029 0.8824 -0.4591
vn -0.5605 0.7322 0.3870
vn 0.0021 0.3298 0.9440
vn 0.0694 0.2837 0.9564
vn 0.3088 -0.9260 0.2171
vn -0.6209 -0.4484 0.6430
vn -0.0183 0.2758 -0.9610
vn 0.3013 -0.9108 0.2822
vn 0.0632 -0.2440 -0.9677
vn 0.7071 -0.5936 -0.3843
vn 0.1713 -0.9596 0.2231
vn 0.4899 -0.0277 0.8713
vn 0.6116 0.0467 0.7898
vn 0.4815 0.0854 0.8723
vn -0.6535 -0.6935 0.3035
vn -0.6165 -0.3455 -0.7075
vn 0.1933 -0.8936 -0.4052
vn -0.9191 0.2701 -0.2869
vn -0.2663 -0.0188 -0.9637
vn -0.2664 -0.0172 -0.9637
vn -0.0047 1.0000 0.0050
vn 0.9715 -0.1124 -0.2089
vn 0.0415 -0.1184 0.9921
vn 0.2356 -0.0456 0.9708
vn -0.9599 0.2629 0.0975
vn 0.0732 -0.7686 0.6355
vn -0.0570 -0.8706 0.4886
vn 0.2213 -0.9648 -0.1423
vn -0.6704 0.4659 -0.5774
vn 0.9944 0.0666 0.0816
vn 0.9836 -0.0103 -0.1801
vn 0.9130 -0.2257 -0.3398
vn 0.7316 -0.1147 -0.6720
vn -0.3350 0.8793 0.3385
vn 0.4913 0.8620 0.1248
vn -0.4737 0.8781 -0.0671
vn 0.1743 0.8699 0.4615
vn 0.1650 0.8728 0.4594
vn 0.1100 0.8647 -0.4901
vn -0.3914 0.8790 0.2722
vn -0.2363 0.8709 -0.4308
vn -0.0007 0.8754 0.4834
vn 0.0449 0.8749 0.4822
vn 0.3986 0.8590 -0.3214
vn -0.2122 0.8668 -0.4512
vn 0.5037 0.8631 -0.0362
vn -0.4681 0.8793 0.0884
vn 0.9411 -0.1483 0.3040
vn 0.8864 -0.2051 -0.4150
vn 0.9834 -0.0840 0.1606
vn 0.9638 -0.2600 -0.0590
vn 0.8253 -0.3449 -0.4471
usemtl NewMaterial
s off
f 78/1/1 46/2/1 58/3/1
f 86/4/2 90/5/2 33/6/2
f 48/7/3 43/8/3 75/9/3
f 36/10/4 4/11/4 24/12/4
f 4/11/5 49/13/5 41/14/5
f 50/15/6 8/16/6 3/17/6
f 60/18/7 51/19/7 9/20/7
f 48/7/8 23/21/8 22/22/8
f 24/12/9 23/21/9 36/10/9
f 10/23/10 74/24/10 9/20/10
f 73/25/11 81/26/11 55/27/11
f 55/27/12 81/26/12 83/28/12
f 67/29/13 55/27/13 62/30/13
f 82/31/14 56/32/14 79/33/14
f 87/34/15 43/8/15 56/32/15
f 22/22/16 43/8/16 48/7/16
f 44/35/17 29/36/17 31/37/17
f 18/38/18 85/39/18 33/6/18
f 75/9/19 87/34/19 27/40/19
f 28/41/20 87/34/20 85/39/20
f 70/42/21 87/34/21 28/41/21
f 27/40/22 87/34/22 70/42/22
f 7/43/23 20/44/23 61/45/23 23/21/23 48/7/23 70/42/23 28/41/23 68/46/23 25/47/23 59/48/23
f 28/41/24 32/49/24 68/46/24
f 41/14/25 49/13/25 60/18/25
f 4/11/26 41/14/26 50/15/26
f 50/15/27 41/14/27 60/18/27
f 51/19/28 49/13/28 21/50/28
f 4/11/29 1/51/29 24/12/29
f 24/12/30 1/51/30 29/36/30
f 31/37/31 1/51/31 30/52/31
f 1/51/32 31/37/32 29/36/32
f 66/53/33 42/54/33 34/55/33
f 42/54/34 30/52/34 34/55/34
f 89/56/35 62/30/35 84/57/35
f 5/58/36 10/23/36 64/59/36
f 10/23/37 9/20/37 51/19/37
f 65/60/38 8/16/38 15/61/38
f 66/53/39 65/60/39 73/25/39
f 13/62/40 15/61/40 8/16/40
f 67/29/41 62/30/41 17/63/41
f 48/7/42 75/9/42 27/40/42
f 32/49/43 54/64/43 68/46/43
f 7/43/44 59/48/44 25/47/44 68/46/44 54/64/44 53/65/44 16/66/44 52/67/44 37/68/44 74/24/44 10/23/44
f 15/61/45 13/62/45 76/69/45 35/70/45 74/24/45 37/68/45 52/67/45 16/66/45 65/60/45
f 34/55/46 3/17/46 8/16/46
f 17/63/47 62/30/47 58/3/47 46/2/47
f 35/70/48 60/18/48 9/20/48
f 56/32/49 82/31/49 88/71/49
f 85/39/50 32/49/50 28/41/50
f 46/2/51 38/72/51 17/63/51
f 14/73/52 33/6/52 90/5/52
f 4/11/53 36/10/53 49/13/53
f 3/17/54 1/51/54 50/15/54
f 4/11/55 50/15/55 1/51/55
f 8/16/56 50/15/56 76/69/56
f 61/45/57 36/10/57 23/21/57
f 55/27/58 11/74/58 73/25/58
f 18/38/59 53/65/59 54/64/59
f 62/30/60 55/27/60 84/57/60
f 11/74/61 55/27/61 67/29/61
f 83/28/62 84/57/62 55/27/62
f 14/73/63 16/66/63 53/65/63 18/38/63
f 79/33/64 56/32/64 43/8/64 22/22/64 24/12/64 29/36/64 44/35/64 38/72/64 46/2/64 78/1/64
f 24/12/65 22/22/65 23/21/65
f 18/38/66 69/75/66 85/39/66
f 33/6/67 85/39/67 86/4/67
f 87/34/68 56/32/68 88/71/68
f 58/3/69 89/56/69 78/1/69
f 62/30/70 89/56/70 58/3/70
f 51/19/71 60/18/71 49/13/71
f 3/17/72 30/52/72 1/51/72
f 14/73/73 18/38/73 33/6/73
f 5/58/74 64/59/74 21/50/74
f 5/58/75 7/43/75 10/23/75
f 64/59/76 10/23/76 51/19/76
f 21/50/77 64/59/77 51/19/77
f 8/16/78 65/60/78 34/55/78
f 73/25/79 65/60/79 93/76/79 81/26/79
f 34/55/80 65/60/80 66/53/80
f 61/45/81 20/44/81 5/58/81 21/50/81 49/13/81 36/10/81
f 7/43/82 5/58/82 20/44/82
f 9/20/83 74/24/83 35/70/83
f 27/40/84 70/42/84 48/7/84
f 32/49/85 69/75/85 18/38/85
f 32/49/86 18/38/86 54/64/86
f 2/77/87 63/78/87 6/79/87 26/80/87 19/81/87 72/82/87 45/83/87 47/84/87 71/85/87 12/86/87 57/87/87 39/88/87 77/89/87 40/90/87
f 16/66/88 14/73/88 90/5/88
f 30/52/89 3/17/89 34/55/89
f 67/29/90 17/63/90 38/72/90 44/35/90 31/37/90 30/52/90 42/54/90 66/53/90 73/25/90 11/74/90
f 87/34/91 75/9/91 43/8/91
f 50/15/92 60/18/92 76/69/92
f 13/62/93 8/16/93 76/69/93
f 35/70/94 76/69/94 60/18/94
f 69/75/95 32/49/95 85/39/95
f 65/60/96 92/91/96 95/92/96
f 81/26/97 93/76/97 95/92/97
f 65/60/98 16/66/98 94/93/98
f 91/94/99 94/93/99 16/66/99 90/5/99
f 2/77/100 40/90/100 79/33/100 78/1/100
f 72/82/101 19/81/101 81/26/101 80/95/101
f 40/90/102 77/89/102 82/31/102 79/33/102
f 19/81/103 26/80/103 83/28/103 81/26/103
f 26/80/104 6/79/104 84/57/104 83/28/104
f 12/86/105 71/85/105 86/4/105 85/39/105
f 39/88/106 57/87/106 87/34/106 88/71/106
f 57/87/107 12/86/107 85/39/107 87/34/107
f 63/78/108 2/77/108 78/1/108 89/56/108
f 6/79/109 63/78/109 89/56/109 84/57/109
f 47/84/110 45/83/110 91/94/110 90/5/110
f 71/85/111 47/84/111 90/5/111 86/4/111
f 45/83/112 72/82/112 80/95/112 91/94/112
f 77/89/113 39/88/113 88/71/113 82/31/113
f 80/95/114 81/26/114 95/92/114
f 92/91/115 94/93/115 91/94/115
f 95/92/116 92/91/116 91/94/116
f 95/92/97 93/76/97 65/60/97
f 80/95/117 95/92/117 91/94/117
f 92/91/118 65/60/118 94/93/118
