# Blender v2.90.1 OBJ File: 'Wood.blend'
# www.blender.org
mtllib Sign.mtl
o Sign_Torus.009
v -0.150463 -0.260610 -0.000000
v -0.135417 -0.234549 -0.052122
v -0.105324 -0.182427 -0.052122
v -0.090278 -0.156366 -0.000000
v -0.105324 -0.182427 0.052122
v -0.135417 -0.234549 0.052122
v -0.300926 0.000000 -0.000000
v -0.270834 0.000000 -0.052122
v -0.210648 0.000000 -0.052122
v -0.180556 0.000000 -0.000000
v -0.210648 -0.000000 0.052122
v -0.270834 0.000000 0.052122
v -0.150463 0.260610 -0.000000
v -0.135417 0.234549 -0.052122
v -0.105324 0.182427 -0.052122
v -0.090278 0.156366 -0.000000
v -0.105324 0.182427 0.052122
v -0.135417 0.234549 0.052122
v 0.150463 0.260610 0.000000
v 0.135417 0.234549 -0.052122
v 0.105324 0.182427 -0.052122
v 0.090278 0.156366 0.000000
v 0.105324 0.182427 0.052122
v 0.135417 0.234549 0.052122
v 0.300926 -0.000000 0.000000
v 0.270834 -0.000000 -0.052122
v 0.210648 -0.000000 -0.052122
v 0.180556 -0.000000 0.000000
v 0.210648 -0.000000 0.052122
v 0.270834 -0.000000 0.052122
v 0.150463 -0.260610 0.000000
v 0.135417 -0.234549 -0.052122
v 0.105324 -0.182427 -0.052122
v 0.090278 -0.156366 0.000000
v 0.105324 -0.182427 0.052122
v 0.135417 -0.234549 0.052122
v -0.082157 -1.547541 1.241294
v -0.082157 -1.453918 -0.521205
v 0.108712 -1.453918 -0.521205
v 0.108712 -1.547541 1.241295
v -0.082157 -0.000948 -0.521204
v -0.082157 -0.094571 1.241295
v 0.108711 -0.094571 1.241294
v 0.108711 -0.000948 -0.521204
v -0.082157 -1.420750 1.850024
v 0.108712 -1.420750 1.850024
v -0.082157 0.032220 1.850024
v 0.108711 0.032220 1.850024
v -0.082157 -1.409194 0.114923
v 0.108712 -1.409194 0.114923
v -0.082157 0.043776 0.114923
v 0.108711 0.043776 0.114923
v -0.137857 -0.366830 1.294036
v -0.122810 -0.340769 1.241914
v -0.092718 -0.288647 1.241914
v -0.077671 -0.262586 1.294036
v -0.092718 -0.288647 1.346158
v -0.122810 -0.340769 1.346158
v -0.288320 -0.106220 1.294036
v -0.258227 -0.106220 1.241914
v -0.198042 -0.106220 1.241914
v -0.167949 -0.106220 1.294036
v -0.198042 -0.106220 1.346158
v -0.258227 -0.106220 1.346158
v -0.137857 0.154390 1.294036
v -0.122810 0.128329 1.241914
v -0.092718 0.076207 1.241914
v -0.077672 0.050146 1.294036
v -0.092718 0.076207 1.346158
v -0.122810 0.128329 1.346158
v 0.163070 0.154390 1.294036
v 0.148023 0.128329 1.241914
v 0.117931 0.076207 1.241914
v 0.102884 0.050146 1.294036
v 0.117931 0.076207 1.346158
v 0.148023 0.128329 1.346158
v 0.313533 -0.106220 1.294036
v 0.283440 -0.106220 1.241914
v 0.223255 -0.106220 1.241914
v 0.193162 -0.106220 1.294036
v 0.223255 -0.106220 1.346158
v 0.283440 -0.106220 1.346158
v 0.163070 -0.366830 1.294036
v 0.148023 -0.340769 1.241914
v 0.117931 -0.288647 1.241914
v 0.102884 -0.262586 1.294036
v 0.117931 -0.288647 1.346158
v 0.148023 -0.340769 1.346158
vt 0.433594 0.691406
vt 0.433594 0.691406
vt 0.433594 0.691406
vt 0.433594 0.691406
vt 0.433594 0.691406
vt 0.433594 0.691406
vt 0.433594 0.691406
vt 0.433594 0.691406
vt 0.433594 0.691406
vt 0.433594 0.691406
vt 0.433594 0.691406
vt 0.433594 0.691406
vt 0.433594 0.691406
vt 0.433594 0.691406
vt 0.433594 0.691406
vt 0.433594 0.691406
vt 0.433594 0.691406
vt 0.433594 0.691406
vt 0.433594 0.691406
vt 0.433594 0.691406
vt 0.433594 0.691406
vt 0.433594 0.691406
vt 0.433594 0.691406
vt 0.433594 0.691406
vt 0.433594 0.691406
vt 0.433594 0.691406
vt 0.433594 0.691406
vt 0.433594 0.691406
vt 0.433594 0.691406
vt 0.433594 0.691406
vt 0.433594 0.691406
vt 0.433594 0.691406
vt 0.433594 0.691406
vt 0.433594 0.691406
vt 0.433594 0.691406
vt 0.433594 0.691406
vt 0.438946 0.811640
vt 0.438946 0.811640
vt 0.438946 0.811640
vt 0.438946 0.811640
vt 0.438946 0.811640
vt 0.438946 0.811640
vt 0.438946 0.811640
vt 0.438946 0.811640
vt 0.438946 0.811640
vt 0.438946 0.811640
vt 0.438946 0.811640
vt 0.438946 0.811640
vt 0.438946 0.811640
vt 0.438946 0.811640
vt 0.438946 0.811640
vt 0.438946 0.811640
vt 0.433594 0.691406
vt 0.433594 0.691406
vt 0.433594 0.691406
vt 0.433594 0.691406
vt 0.433594 0.691406
vt 0.433594 0.691406
vt 0.433594 0.691406
vt 0.433594 0.691406
vt 0.433594 0.691406
vt 0.433594 0.691406
vt 0.433594 0.691406
vt 0.433594 0.691406
vt 0.433594 0.691406
vt 0.433594 0.691406
vt 0.433594 0.691406
vt 0.433594 0.691406
vt 0.433594 0.691406
vt 0.433594 0.691406
vt 0.433594 0.691406
vt 0.433594 0.691406
vt 0.433594 0.691406
vt 0.433594 0.691406
vt 0.433594 0.691406
vt 0.433594 0.691406
vt 0.433594 0.691406
vt 0.433594 0.691406
vt 0.433594 0.691406
vt 0.433594 0.691406
vt 0.433594 0.691406
vt 0.433594 0.691406
vt 0.433594 0.691406
vt 0.433594 0.691406
vt 0.433594 0.691406
vt 0.433594 0.691406
vt 0.433594 0.691406
vt 0.433594 0.691406
vn -0.7746 -0.4472 -0.4472
vn 0.0000 0.0000 -1.0000
vn 0.7746 0.4472 -0.4472
vn 0.7746 0.4472 0.4472
vn -0.0000 -0.0000 1.0000
vn -0.7746 -0.4472 0.4472
vn -0.7746 0.4472 -0.4472
vn 0.7746 -0.4472 -0.4472
vn 0.7746 -0.4472 0.4472
vn -0.7746 0.4472 0.4472
vn -0.0000 0.8944 -0.4472
vn 0.0000 -0.8944 -0.4472
vn 0.0000 -0.8944 0.4472
vn -0.0000 0.8944 0.4472
vn 1.0000 0.0000 0.0000
vn -0.0000 0.9790 -0.2039
vn -0.0000 0.9975 -0.0701
vn 0.0000 -0.9925 -0.1219
vn -1.0000 -0.0000 0.0000
vn 0.0000 -0.9790 0.2039
vn 0.0000 -0.9975 0.0701
vn -0.0000 0.9925 0.1219
usemtl NewMaterial
s off
f 1/1/1 7/2/1 8/3/1 2/4/1
f 2/4/2 8/3/2 9/5/2 3/6/2
f 3/6/3 9/5/3 10/7/3 4/8/3
f 4/8/4 10/7/4 11/9/4 5/10/4
f 5/10/5 11/9/5 12/11/5 6/12/5
f 6/12/6 12/11/6 7/2/6 1/1/6
f 7/2/7 13/13/7 14/14/7 8/3/7
f 8/3/2 14/14/2 15/15/2 9/5/2
f 9/5/8 15/15/8 16/16/8 10/7/8
f 10/7/9 16/16/9 17/17/9 11/9/9
f 11/9/5 17/17/5 18/18/5 12/11/5
f 12/11/10 18/18/10 13/13/10 7/2/10
f 13/13/11 19/19/11 20/20/11 14/14/11
f 14/14/2 20/20/2 21/21/2 15/15/2
f 15/15/12 21/21/12 22/22/12 16/16/12
f 16/16/13 22/22/13 23/23/13 17/17/13
f 17/17/5 23/23/5 24/24/5 18/18/5
f 18/18/14 24/24/14 19/19/14 13/13/14
f 19/19/3 25/25/3 26/26/3 20/20/3
f 20/20/2 26/26/2 27/27/2 21/21/2
f 21/21/1 27/27/1 28/28/1 22/22/1
f 22/22/6 28/28/6 29/29/6 23/23/6
f 23/23/5 29/29/5 30/30/5 24/24/5
f 24/24/4 30/30/4 25/25/4 19/19/4
f 25/25/8 31/31/8 32/32/8 26/26/8
f 26/26/2 32/32/2 33/33/2 27/27/2
f 27/27/7 33/33/7 34/34/7 28/28/7
f 28/28/10 34/34/10 35/35/10 29/29/10
f 29/29/5 35/35/5 36/36/5 30/30/5
f 30/30/9 36/36/9 31/31/9 25/25/9
f 31/31/12 1/1/12 2/4/12 32/32/12
f 32/32/2 2/4/2 3/6/2 33/33/2
f 33/33/11 3/6/11 4/8/11 34/34/11
f 34/34/14 4/8/14 5/10/14 35/35/14
f 35/35/5 5/10/5 6/12/5 36/36/5
f 36/36/13 6/12/13 1/1/13 31/31/13
f 46/37/15 40/38/15 43/39/15 48/40/15
f 50/41/15 39/42/15 44/43/15 52/44/15
f 47/45/16 48/40/16 43/39/16 42/46/16
f 51/47/17 52/44/17 44/43/17 41/48/17
f 49/49/18 50/41/18 40/38/18 37/50/18
f 44/43/2 39/42/2 38/51/2 41/48/2
f 45/52/5 46/37/5 48/40/5 47/45/5
f 49/49/19 51/47/19 41/48/19 38/51/19
f 37/50/20 40/38/20 46/37/20 45/52/20
f 37/50/19 45/52/19 47/45/19 42/46/19
f 37/50/19 42/46/19 51/47/19 49/49/19
f 38/51/21 39/42/21 50/41/21 49/49/21
f 42/46/22 43/39/22 52/44/22 51/47/22
f 40/38/15 50/41/15 52/44/15 43/39/15
f 53/53/1 59/54/1 60/55/1 54/56/1
f 54/56/2 60/55/2 61/57/2 55/58/2
f 55/58/3 61/57/3 62/59/3 56/60/3
f 56/60/4 62/59/4 63/61/4 57/62/4
f 57/62/5 63/61/5 64/63/5 58/64/5
f 58/64/6 64/63/6 59/54/6 53/53/6
f 59/54/7 65/65/7 66/66/7 60/55/7
f 60/55/2 66/66/2 67/67/2 61/57/2
f 61/57/8 67/67/8 68/68/8 62/59/8
f 62/59/9 68/68/9 69/69/9 63/61/9
f 63/61/5 69/69/5 70/70/5 64/63/5
f 64/63/10 70/70/10 65/65/10 59/54/10
f 65/65/11 71/71/11 72/72/11 66/66/11
f 66/66/2 72/72/2 73/73/2 67/67/2
f 67/67/12 73/73/12 74/74/12 68/68/12
f 68/68/13 74/74/13 75/75/13 69/69/13
f 69/69/5 75/75/5 76/76/5 70/70/5
f 70/70/14 76/76/14 71/71/14 65/65/14
f 71/71/3 77/77/3 78/78/3 72/72/3
f 72/72/2 78/78/2 79/79/2 73/73/2
f 73/73/1 79/79/1 80/80/1 74/74/1
f 74/74/6 80/80/6 81/81/6 75/75/6
f 75/75/5 81/81/5 82/82/5 76/76/5
f 76/76/4 82/82/4 77/77/4 71/71/4
f 77/77/8 83/83/8 84/84/8 78/78/8
f 78/78/2 84/84/2 85/85/2 79/79/2
f 79/79/7 85/85/7 86/86/7 80/80/7
f 80/80/10 86/86/10 87/87/10 81/81/10
f 81/81/5 87/87/5 88/88/5 82/82/5
f 82/82/9 88/88/9 83/83/9 77/77/9
f 83/83/12 53/53/12 54/56/12 84/84/12
f 84/84/2 54/56/2 55/58/2 85/85/2
f 85/85/11 55/58/11 56/60/11 86/86/11
f 86/86/14 56/60/14 57/62/14 87/87/14
f 87/87/5 57/62/5 58/64/5 88/88/5
f 88/88/13 58/64/13 53/53/13 83/83/13
