# Blender v2.90.1 OBJ File: 'Wood.blend'
# www.blender.org
mtllib SignStand.mtl
o Sign_Stand_Cube.039
v -0.165750 3.399633 -0.181236
v -0.397769 -2.802009 -0.308092
v -0.209148 3.459641 0.189301
v -0.394593 -2.786573 0.383189
v 0.116984 3.389764 -0.185020
v 0.253524 -2.926457 -0.307348
v 0.180477 3.439441 0.136361
v 0.246607 -2.945006 0.361645
v -0.168183 2.396459 -0.241143
v -0.228032 0.395751 -0.280908
v -0.299531 -1.125164 -0.324990
v -0.303360 -1.031154 0.373223
v -0.259117 0.393735 0.168235
v -0.227395 2.367870 0.215626
v 0.325306 -1.022649 0.358714
v 0.255620 0.558601 0.197465
v 0.251065 2.357856 0.150293
v 0.332290 -1.046992 -0.280107
v 0.235573 0.542075 -0.298801
v 0.291956 2.428788 -0.349277
v 0.272687 -2.307967 0.360674
v 0.309447 -1.410043 0.359305
v 0.288211 -1.981038 0.127639
v 0.071752 -1.873993 0.365058
v -0.241314 0.113215 -0.289097
v -0.285589 -0.828594 -0.316394
v -0.278534 -0.618612 -0.072809
v -0.051737 -0.536579 -0.311507
v -0.161995 2.908003 2.725843
v -0.161995 3.217667 2.725843
v -0.156622 2.913375 0.072123
v -0.156622 3.212295 0.072123
v 0.147670 2.908003 2.725843
v 0.147670 3.217667 2.725843
v 0.142298 2.913375 0.072123
v 0.142298 3.212295 0.072123
v -0.193559 2.891550 0.956696
v -0.148332 2.755418 2.033392
v -0.148332 3.119539 2.033392
v -0.193559 3.218316 0.956696
v 0.215788 2.755418 2.033392
v 0.133207 2.891550 0.956696
v 0.133207 3.218316 0.956696
v 0.215788 3.119539 2.033392
vt 0.302734 0.800781
vt 0.302734 0.800781
vt 0.302734 0.800781
vt 0.302734 0.800781
vt 0.302734 0.800781
vt 0.302734 0.800781
vt 0.302734 0.800781
vt 0.302734 0.800781
vt 0.302734 0.800781
vt 0.302734 0.800781
vt 0.302734 0.800781
vt 0.302734 0.800781
vt 0.302734 0.800781
vt 0.302734 0.800781
vt 0.302734 0.800781
vt 0.302734 0.800781
vt 0.302734 0.800781
vt 0.302734 0.800781
vt 0.302734 0.800781
vt 0.302734 0.800781
vt 0.302734 0.800781
vt 0.302734 0.800781
vt 0.302734 0.800781
vt 0.302734 0.800781
vt 0.302734 0.800781
vt 0.302734 0.800781
vt 0.302734 0.800781
vt 0.302734 0.800781
vt 0.183594 0.816406
vt 0.183594 0.816406
vt 0.183594 0.816406
vt 0.183594 0.816406
vt 0.183594 0.816406
vt 0.183594 0.816406
vt 0.183594 0.816406
vt 0.183594 0.816406
vt 0.302734 0.800781
vt 0.302734 0.800781
vt 0.302734 0.800781
vt 0.302734 0.800781
vt 0.302734 0.800781
vt 0.302734 0.800781
vt 0.302734 0.800781
vt 0.302734 0.800781
vt 0.302734 0.800781
vt 0.302734 0.800781
vt 0.302734 0.800781
vt 0.302734 0.800781
vt 0.302734 0.800781
vt 0.302734 0.800781
vt 0.302734 0.800781
vt 0.302734 0.800781
vn -0.9985 0.0551 -0.0048
vn 0.0291 0.0023 0.9996
vn 0.9991 -0.0415 0.0109
vn 0.0356 0.0011 -0.9994
vn 0.0309 0.9871 -0.1574
vn -0.2138 -0.9769 -0.0028
vn -0.1512 0.0990 -0.9835
vn -0.1354 0.0013 -0.9908
vn 0.0283 0.0054 -0.9996
vn 0.9923 0.1211 -0.0242
vn 0.9997 -0.0135 0.0202
vn 0.9986 0.0517 -0.0134
vn 0.1357 0.0216 0.9905
vn 0.0364 -0.0003 0.9993
vn -0.0311 0.1206 0.9922
vn -0.9923 0.0118 -0.1235
vn -0.9948 0.0251 -0.0983
vn -0.9987 0.0359 -0.0367
vn 0.7655 0.3490 0.5406
vn 0.6275 -0.3126 0.7131
vn -0.6831 -0.1748 -0.7091
vn -0.6885 0.5591 -0.4620
vn -0.9991 0.0000 -0.0417
vn 0.0000 0.0000 -1.0000
vn 0.9952 0.0000 0.0979
vn 0.0000 0.0000 1.0000
vn 0.0000 -0.9766 0.2152
vn 0.0000 0.9901 -0.1403
vn 0.0000 1.0000 -0.0068
vn 0.0000 0.9958 0.0914
vn 0.0000 -0.9997 -0.0247
vn 0.0000 -0.9921 -0.1254
vn 0.9999 0.0000 0.0103
vn 0.9971 0.0000 -0.0765
vn -0.9998 0.0000 -0.0197
vn -0.9991 0.0000 0.0420
usemtl NewMaterial
s off
f 11/1/1 2/2/1 4/3/1 12/4/1
f 12/4/2 4/3/2 8/5/2 21/6/2 24/7/2 22/8/2 15/9/2
f 15/9/3 22/8/3 23/10/3 21/6/3 8/5/3 6/11/3 18/12/3
f 18/12/4 6/11/4 2/2/4 11/1/4
f 3/13/5 7/14/5 5/15/5 1/16/5
f 8/5/6 4/3/6 2/2/6 6/11/6
f 5/15/7 20/17/7 9/18/7 1/16/7
f 20/17/8 19/19/8 10/20/8 9/18/8
f 19/19/9 18/12/9 11/1/9 26/21/9 28/22/9 25/23/9 10/20/9
f 7/14/10 17/24/10 20/17/10 5/15/10
f 17/24/11 16/25/11 19/19/11 20/17/11
f 16/25/12 15/9/12 18/12/12 19/19/12
f 3/13/13 14/26/13 17/24/13 7/14/13
f 14/26/14 13/27/14 16/25/14 17/24/14
f 13/27/15 12/4/15 15/9/15 16/25/15
f 1/16/16 9/18/16 14/26/16 3/13/16
f 9/18/17 10/20/17 13/27/17 14/26/17
f 10/20/18 25/23/18 27/28/18 26/21/18 11/1/18 12/4/18 13/27/18
f 24/29/19 21/30/19 23/31/19
f 22/32/20 24/29/20 23/31/20
f 27/33/21 25/34/21 28/35/21
f 26/36/22 27/33/22 28/35/22
f 37/37/23 40/38/23 32/39/23 31/40/23
f 31/40/24 32/39/24 36/41/24 35/42/24
f 41/43/25 44/44/25 34/45/25 33/46/25
f 33/46/26 34/45/26 30/47/26 29/48/26
f 38/49/27 41/43/27 33/46/27 29/48/27
f 44/44/28 39/50/28 30/47/28 34/45/28
f 36/41/29 32/39/29 40/38/29 43/51/29
f 43/51/30 40/38/30 39/50/30 44/44/30
f 31/40/31 35/42/31 42/52/31 37/37/31
f 37/37/32 42/52/32 41/43/32 38/49/32
f 35/42/33 36/41/33 43/51/33 42/52/33
f 42/52/34 43/51/34 44/44/34 41/43/34
f 29/48/35 30/47/35 39/50/35 38/49/35
f 38/49/36 39/50/36 40/38/36 37/37/36
