# Blender v2.90.1 OBJ File: 'Wood.blend'
# www.blender.org
mtllib Slab4.mtl
o Slab_3_Cylinder.009
v -0.967589 -0.085203 -0.085934
v -0.838536 0.068345 -0.071055
v -0.243732 -0.085203 -0.858012
v -0.214988 0.068345 -0.736141
v 0.532411 -0.085203 -0.570843
v 0.451576 0.068345 -0.489516
v 0.820819 -0.085203 0.194346
v 0.695508 0.068345 0.157672
v 0.340828 -0.085203 0.552412
v 0.293942 0.068345 0.457234
v -0.467589 -0.085203 0.780092
v -0.417797 0.068345 0.657686
v -0.243732 0.016859 -0.858012
v -0.967589 0.016859 -0.085934
v 0.532411 0.016859 -0.570843
v 0.820819 0.016859 0.194346
v 0.340828 0.016859 0.552412
v -0.467589 0.016859 0.780092
vt 0.564453 0.689971
vt 0.564453 0.689971
vt 0.564453 0.689971
vt 0.564453 0.689971
vt 0.564453 0.689971
vt 0.564453 0.689971
vt 0.564453 0.689971
vt 0.564453 0.689971
vt 0.564453 0.689971
vt 0.564453 0.689971
vt 0.564453 0.689971
vt 0.564453 0.689971
vt 0.564453 0.689971
vt 0.564453 0.689971
vt 0.564453 0.689971
vt 0.564453 0.689971
vt 0.564453 0.689971
vt 0.564453 0.689971
vn -0.7295 0.0000 -0.6840
vn 0.3470 0.0000 -0.9379
vn 0.9357 0.0000 -0.3527
vn 0.5979 0.0000 0.8015
vn 0.0000 1.0000 -0.0000
vn 0.2711 0.0000 0.9626
vn -0.8660 0.0000 0.5000
vn 0.0000 -1.0000 0.0000
vn -0.3229 0.8967 -0.3027
vn 0.1536 0.8967 -0.4151
vn 0.4141 0.8967 -0.1561
vn 0.2646 0.8967 0.3547
vn 0.1200 0.8967 0.4260
vn -0.3833 0.8967 0.2213
usemtl NewMaterial
s off
f 1/1/1 14/2/1 13/3/1 3/4/1
f 3/4/2 13/3/2 15/5/2 5/6/2
f 5/6/3 15/5/3 16/7/3 7/8/3
f 7/8/4 16/7/4 17/9/4 9/10/4
f 4/11/5 2/12/5 12/13/5 10/14/5 8/15/5 6/16/5
f 9/10/6 17/9/6 18/17/6 11/18/6
f 11/18/7 18/17/7 14/2/7 1/1/7
f 1/1/8 3/4/8 5/6/8 7/8/8 9/10/8 11/18/8
f 2/12/9 4/11/9 13/3/9 14/2/9
f 4/11/10 6/16/10 15/5/10 13/3/10
f 6/16/11 8/15/11 16/7/11 15/5/11
f 8/15/12 10/14/12 17/9/12 16/7/12
f 10/14/13 12/13/13 18/17/13 17/9/13
f 12/13/14 2/12/14 14/2/14 18/17/14
