# Blender v2.90.1 OBJ File: 'Wood.blend'
# www.blender.org
mtllib Slab1.mtl
o Slab_6_Cylinder.007
v -0.365801 -0.104101 0.057477
v -0.365801 0.028126 0.057477
v -0.409088 -0.104101 -0.562017
v -0.409088 0.028126 -0.562017
v -0.043080 -0.104101 -0.778366
v -0.043080 0.028126 -0.778366
v 0.442859 -0.104101 -0.791644
v 0.442859 0.028126 -0.791644
v 0.765319 -0.104101 -0.468959
v 0.765319 0.028126 -0.468959
v 0.553833 -0.104101 0.574713
v 0.553833 0.028126 0.574713
v -0.125938 -0.104101 0.898764
v -0.125938 0.028126 0.898764
v -0.387012 -0.104101 0.744657
v -0.387012 0.028126 0.744657
v -0.431093 -0.104101 0.325376
v -0.431093 0.028126 0.325376
v -0.355265 0.075975 -0.488073
v -0.317673 0.075975 0.049914
v -0.037412 0.075975 -0.675958
v 0.384593 0.075975 -0.687488
v 0.664627 0.075975 -0.407258
v 0.480966 0.075975 0.499098
v -0.109369 0.075975 0.780514
v -0.336094 0.075975 0.646683
v -0.374375 0.075975 0.282567
vt 0.564453 0.689971
vt 0.564453 0.689971
vt 0.564453 0.689971
vt 0.564453 0.689971
vt 0.564453 0.689971
vt 0.564453 0.689971
vt 0.564453 0.689971
vt 0.564453 0.689971
vt 0.564453 0.689971
vt 0.564453 0.689971
vt 0.564453 0.689971
vt 0.564453 0.689971
vt 0.564453 0.689971
vt 0.564453 0.689971
vt 0.564453 0.689971
vt 0.564453 0.689971
vt 0.564453 0.689971
vt 0.564453 0.689971
vt 0.564453 0.689971
vt 0.564453 0.689971
vt 0.564453 0.689971
vt 0.564453 0.689971
vt 0.564453 0.689971
vt 0.564453 0.689971
vt 0.564453 0.689971
vt 0.564453 0.689971
vt 0.564453 0.689971
vn -0.9976 0.0000 0.0697
vn -0.5089 0.0000 -0.8609
vn -0.0273 0.0000 -0.9996
vn 0.7074 0.0000 -0.7069
vn 0.9801 0.0000 0.1986
vn 0.4303 0.0000 0.9027
vn -0.5083 0.0000 0.8612
vn 0.2721 0.9231 -0.2719
vn -0.9945 0.0000 0.1046
vn -0.9716 0.0000 -0.2368
vn 0.0000 -1.0000 0.0000
vn 0.0000 1.0000 0.0000
vn -0.7003 0.7121 0.0489
vn -0.0116 0.9062 -0.4228
vn -0.2367 0.8852 -0.4005
vn -0.7080 0.6848 -0.1725
vn -0.6145 0.7862 0.0646
vn -0.2024 0.9173 0.3428
vn 0.1863 0.9014 0.3909
vn 0.4747 0.8749 0.0962
usemtl NewMaterial
s off
f 1/1/1 2/2/1 4/3/1 3/4/1
f 3/4/2 4/3/2 6/5/2 5/6/2
f 5/6/3 6/5/3 8/7/3 7/8/3
f 7/8/4 8/7/4 10/9/4 9/10/4
f 9/10/5 10/9/5 12/11/5 11/12/5
f 11/12/6 12/11/6 14/13/6 13/14/6
f 13/14/7 14/13/7 16/15/7 15/16/7
f 10/9/8 8/7/8 22/17/8 23/18/8
f 15/16/9 16/15/9 18/19/9 17/20/9
f 17/20/10 18/19/10 2/2/10 1/1/10
f 1/1/11 3/4/11 5/6/11 7/8/11 9/10/11 11/12/11 13/14/11 15/16/11 17/20/11
f 19/21/12 20/22/12 27/23/12 26/24/12 25/25/12 24/26/12 23/18/12 22/17/12 21/27/12
f 4/3/13 2/2/13 20/22/13 19/21/13
f 8/7/14 6/5/14 21/27/14 22/17/14
f 6/5/15 4/3/15 19/21/15 21/27/15
f 2/2/16 18/19/16 27/23/16 20/22/16
f 18/19/17 16/15/17 26/24/17 27/23/17
f 16/15/18 14/13/18 25/25/18 26/24/18
f 14/13/19 12/11/19 24/26/19 25/25/19
f 12/11/20 10/9/20 23/18/20 24/26/20
