# Blender v2.90.1 OBJ File: 'Wood.blend'
# www.blender.org
mtllib Slab3.mtl
o Slab_4_Cylinder.008
v -0.981602 -0.085495 -0.079803
v -0.981602 0.016567 -0.079803
v -0.118188 -0.085495 -0.625420
v -0.118188 0.016567 -0.625420
v 0.657955 -0.085495 -0.426516
v 0.657955 0.016567 -0.426516
v 0.680011 -0.085495 0.200477
v 0.680011 0.016567 0.200477
v 0.466372 -0.085495 0.558542
v 0.466372 0.016567 0.558542
v -0.704547 -0.085495 0.372720
v -0.704547 0.016567 0.372720
v -0.097620 0.068928 -0.516583
v -0.810782 0.068928 -0.065916
v 0.543456 0.068928 -0.352293
v 0.561674 0.068928 0.165589
v 0.385213 0.068928 0.461344
v -0.581940 0.068928 0.307859
vt 0.564453 0.689971
vt 0.564453 0.689971
vt 0.564453 0.689971
vt 0.564453 0.689971
vt 0.564453 0.689971
vt 0.564453 0.689971
vt 0.564453 0.689971
vt 0.564453 0.689971
vt 0.564453 0.689971
vt 0.564453 0.689971
vt 0.564453 0.689971
vt 0.564453 0.689971
vt 0.564453 0.689971
vt 0.564453 0.689971
vt 0.564453 0.689971
vt 0.564453 0.689971
vt 0.564453 0.689971
vt 0.564453 0.689971
vn -0.5342 0.0000 -0.8454
vn 0.2482 0.0000 -0.9687
vn 0.9994 0.0000 -0.0352
vn 0.8588 0.0000 0.5124
vn -0.2421 0.8914 -0.3831
vn -0.1567 0.0000 0.9876
vn -0.8529 0.0000 0.5222
vn 0.0000 -1.0000 0.0000
vn 0.0000 1.0000 -0.0000
vn 0.4081 0.9128 -0.0144
vn -0.3017 0.9353 0.1847
vn 0.3447 0.9159 0.2056
vn 0.1149 0.8865 -0.4482
vn -0.0834 0.8466 0.5257
usemtl NewMaterial
s off
f 1/1/1 2/2/1 4/3/1 3/4/1
f 3/4/2 4/3/2 6/5/2 5/6/2
f 5/6/3 6/5/3 8/7/3 7/8/3
f 7/8/4 8/7/4 10/9/4 9/10/4
f 4/3/5 2/2/5 14/11/5 13/12/5
f 9/10/6 10/9/6 12/13/6 11/14/6
f 11/14/7 12/13/7 2/2/7 1/1/7
f 1/1/8 3/4/8 5/6/8 7/8/8 9/10/8 11/14/8
f 13/12/9 14/11/9 18/15/9 17/16/9 16/17/9 15/18/9
f 8/7/10 6/5/10 15/18/10 16/17/10
f 2/2/11 12/13/11 18/15/11 14/11/11
f 10/9/12 8/7/12 16/17/12 17/16/12
f 6/5/13 4/3/13 13/12/13 15/18/13
f 12/13/14 10/9/14 17/16/14 18/15/14
