# Blender v2.90.1 OBJ File: 'Wood.blend'
# www.blender.org
mtllib Slab5.mtl
o Slab_2_Cylinder.010
v -0.708287 -0.092171 0.117593
v -0.708287 0.012302 0.117593
v -0.610800 -0.092171 -0.920739
v -0.610800 0.012302 -0.920739
v -0.009070 -0.092171 -1.123532
v -0.009070 0.012302 -1.123532
v 0.731909 -0.092171 -0.316291
v 0.731909 0.012302 -0.316291
v 0.771645 -0.092171 0.551476
v 0.771645 0.012302 0.551476
v 0.259587 -0.092171 0.967972
v 0.259587 0.012302 0.967972
v -0.434984 -0.092171 0.723522
v -0.434984 0.012302 0.723522
v -0.519007 0.079869 -0.782368
v -0.601844 0.079869 0.099920
v -0.007707 0.079869 -0.954684
v 0.621916 0.079869 -0.268758
v 0.655680 0.079869 0.468599
v 0.220576 0.079869 0.822502
v -0.369613 0.079869 0.614789
vt 0.564453 0.689971
vt 0.564453 0.689971
vt 0.564453 0.689971
vt 0.564453 0.689971
vt 0.564453 0.689971
vt 0.564453 0.689971
vt 0.564453 0.689971
vt 0.564453 0.689971
vt 0.564453 0.689971
vt 0.564453 0.689971
vt 0.564453 0.689971
vt 0.564453 0.689971
vt 0.564453 0.689971
vt 0.564453 0.689971
vt 0.564453 0.689971
vt 0.564453 0.689971
vt 0.564453 0.689971
vt 0.564453 0.689971
vt 0.564453 0.689971
vt 0.564453 0.689971
vt 0.564453 0.689971
vn -0.9956 0.0000 -0.0935
vn -0.3194 0.0000 -0.9476
vn 0.7367 0.0000 -0.6762
vn 0.9990 0.0000 -0.0457
vn 0.6310 0.0000 0.7758
vn 0.3776 0.8586 -0.3466
vn -0.3320 0.0000 0.9433
vn -0.9116 0.0000 0.4112
vn 0.0000 -1.0000 -0.0000
vn 0.0000 1.0000 -0.0000
vn -0.1586 0.8785 0.4506
vn 0.5158 0.8564 -0.0236
vn -0.4956 0.8393 0.2236
vn -0.1240 0.9216 -0.3678
vn 0.2783 0.8975 0.3422
vn -0.5412 0.8393 -0.0508
usemtl NewMaterial
s off
f 1/1/1 2/2/1 4/3/1 3/4/1
f 3/4/2 4/3/2 6/5/2 5/6/2
f 5/6/3 6/5/3 8/7/3 7/8/3
f 7/8/4 8/7/4 10/9/4 9/10/4
f 9/10/5 10/9/5 12/11/5 11/12/5
f 8/7/6 6/5/6 17/13/6 18/14/6
f 11/12/7 12/11/7 14/15/7 13/16/7
f 13/16/8 14/15/8 2/2/8 1/1/8
f 1/1/9 3/4/9 5/6/9 7/8/9 9/10/9 11/12/9 13/16/9
f 15/17/10 16/18/10 21/19/10 20/20/10 19/21/10 18/14/10 17/13/10
f 14/15/11 12/11/11 20/20/11 21/19/11
f 10/9/12 8/7/12 18/14/12 19/21/12
f 2/2/13 14/15/13 21/19/13 16/18/13
f 6/5/14 4/3/14 15/17/14 17/13/14
f 12/11/15 10/9/15 19/21/15 20/20/15
f 4/3/16 2/2/16 16/18/16 15/17/16
