# Blender v2.90.1 OBJ File: 'Wood.blend'
# www.blender.org
mtllib Slab2.mtl
o Slab_5_Cylinder.005
v -0.918155 -0.116031 -0.219641
v -0.918155 0.016197 -0.219641
v -0.808818 -0.116031 -0.672926
v -0.808818 0.016197 -0.672926
v -0.358249 -0.116031 -1.014946
v -0.358249 0.016197 -1.014946
v 0.581846 -0.116031 -0.896164
v 0.581846 0.016197 -0.896164
v 1.021538 -0.116031 -0.372158
v 1.021538 0.016197 -0.372158
v 0.692820 -0.116031 0.671513
v 0.692820 0.016197 0.671513
v 0.338097 -0.116031 0.937003
v 0.338097 0.016197 0.937003
v -0.091803 -0.116031 0.954669
v -0.091803 0.016197 0.954669
v -0.457281 -0.116031 0.612650
v -0.457281 0.016197 0.612650
v -0.679463 0.099834 -0.565304
v -0.771314 0.099834 -0.184514
v -0.300954 0.099834 -0.852625
v 0.488791 0.099834 -0.752840
v 0.858163 0.099834 -0.312639
v 0.582016 0.099834 0.564117
v 0.284025 0.099834 0.787147
v -0.077121 0.099834 0.801988
v -0.384148 0.099834 0.514668
vt 0.564453 0.689971
vt 0.564453 0.689971
vt 0.564453 0.689971
vt 0.564453 0.689971
vt 0.564453 0.689971
vt 0.564453 0.689971
vt 0.564453 0.689971
vt 0.564453 0.689971
vt 0.564453 0.689971
vt 0.564453 0.689971
vt 0.564453 0.689971
vt 0.564453 0.689971
vt 0.564453 0.689971
vt 0.564453 0.689971
vt 0.564453 0.689971
vt 0.564453 0.689971
vt 0.564453 0.689971
vt 0.564453 0.689971
vt 0.564453 0.689971
vt 0.564453 0.689971
vt 0.564453 0.689971
vt 0.564453 0.689971
vt 0.564453 0.689971
vt 0.564453 0.689971
vt 0.564453 0.689971
vt 0.564453 0.689971
vt 0.564453 0.689971
vn -0.9721 0.0000 -0.2345
vn -0.6046 0.0000 -0.7965
vn 0.1254 0.0000 -0.9921
vn 0.7660 0.0000 -0.6428
vn 0.9538 0.0000 0.3004
vn 0.5992 0.0000 0.8006
vn 0.0411 0.0000 0.9992
vn 0.3490 0.8902 -0.2929
vn -0.6833 0.0000 0.7302
vn -0.8748 0.0000 0.4844
vn 0.0000 -1.0000 0.0000
vn 0.0000 1.0000 0.0000
vn -0.4711 0.8748 -0.1136
vn 0.0599 0.8786 -0.4738
vn -0.2748 0.8908 -0.3620
vn -0.5251 0.7998 0.2908
vn -0.3874 0.8237 0.4140
vn 0.0198 0.8761 0.4818
vn 0.2883 0.8766 0.3852
vn 0.4945 0.8551 0.1558
usemtl NewMaterial
s off
f 1/1/1 2/2/1 4/3/1 3/4/1
f 3/4/2 4/3/2 6/5/2 5/6/2
f 5/6/3 6/5/3 8/7/3 7/8/3
f 7/8/4 8/7/4 10/9/4 9/10/4
f 9/10/5 10/9/5 12/11/5 11/12/5
f 11/12/6 12/11/6 14/13/6 13/14/6
f 13/14/7 14/13/7 16/15/7 15/16/7
f 10/9/8 8/7/8 22/17/8 23/18/8
f 15/16/9 16/15/9 18/19/9 17/20/9
f 17/20/10 18/19/10 2/2/10 1/1/10
f 1/1/11 3/4/11 5/6/11 7/8/11 9/10/11 11/12/11 13/14/11 15/16/11 17/20/11
f 19/21/12 20/22/12 27/23/12 26/24/12 25/25/12 24/26/12 23/18/12 22/17/12 21/27/12
f 4/3/13 2/2/13 20/22/13 19/21/13
f 8/7/14 6/5/14 21/27/14 22/17/14
f 6/5/15 4/3/15 19/21/15 21/27/15
f 2/2/16 18/19/16 27/23/16 20/22/16
f 18/19/17 16/15/17 26/24/17 27/23/17
f 16/15/18 14/13/18 25/25/18 26/24/18
f 14/13/19 12/11/19 24/26/19 25/25/19
f 12/11/20 10/9/20 23/18/20 24/26/20
