# Blender v2.90.1 OBJ File: 'Wood.blend'
# www.blender.org
mtllib SleepingMat.mtl
o Cylinder_Cylinder.050
v -1.000000 -0.000000 -0.713433
v 5.863886 0.000000 -0.713433
v -1.000000 -0.617851 -0.356717
v 5.863886 -0.617851 -0.356717
v -1.000000 -0.617851 0.356717
v 5.863886 -0.617851 0.356717
v -1.000000 -0.000000 0.713433
v 5.863886 0.000000 0.713433
v -1.000000 0.617851 0.356717
v 5.863886 0.617851 0.356717
v -1.000000 0.617851 -0.356717
v 5.863886 0.617851 -0.356717
v -1.000000 -0.000000 -1.000000
v -1.000000 -1.302592 -0.500000
v 5.863886 -1.302592 -0.500000
v 5.863886 0.000000 -1.000000
v -1.000000 -1.302592 0.500000
v 5.863886 -1.302591 0.500000
v -1.000000 0.000000 1.000000
v 5.863886 0.000000 1.000000
v -1.000000 0.866025 0.500000
v 5.863886 0.866026 0.500000
v -1.000000 0.866025 -0.500000
v 5.863886 0.866026 -0.500000
v -0.775920 -0.000000 -0.713433
v -0.775920 -0.617851 -0.356717
v 5.639806 -0.617851 -0.356717
v 5.639806 0.000000 -0.713433
v -0.775920 -0.617851 0.356717
v 5.639806 -0.617851 0.356717
v -0.775920 -0.000000 0.713433
v 5.639806 0.000000 0.713433
v -0.775920 0.617851 0.356717
v 5.639806 0.617851 0.356717
v -0.775920 0.617851 -0.356717
v 5.639806 0.617851 -0.356717
v -1.000000 -0.602893 -0.651920
v 5.863886 -0.602893 -0.651920
v -1.000000 -0.430124 -0.465101
v 5.863886 -0.430124 -0.465101
v -0.775920 -0.430124 -0.465101
v 5.639806 -0.430124 -0.465101
v -1.192670 -0.612317 -13.825520
v -1.192670 -1.293167 -13.825520
v 5.649451 -1.293167 -13.825520
v 5.649451 -0.612317 -13.825520
v -1.000000 -0.602893 -0.651920
v -1.000000 -1.302592 -0.500000
v 5.863886 -1.302592 -0.500000
v 5.863886 -0.602893 -0.651920
v -0.805199 -0.605249 -3.945320
v -1.209154 -0.607605 -7.238720
v -0.860843 -0.609961 -10.532120
v -0.860843 -1.295523 -10.494140
v -1.209154 -1.297879 -7.162760
v -0.805199 -1.300236 -3.831380
v 5.986719 -1.295523 -10.494140
v 5.643850 -1.297879 -7.162760
v 6.053246 -1.300235 -3.831380
v 5.986719 -0.609961 -10.532120
v 5.643850 -0.607605 -7.238719
v 6.053246 -0.605249 -3.945320
v -1.000000 -0.627002 0.657918
v 5.863886 -0.627002 0.657918
v -1.000000 -0.297403 0.541728
v 5.863886 -0.297403 0.541728
v -0.775920 -0.297403 0.541728
v 5.639806 -0.297403 0.541728
vt 0.183594 0.067500
vt 0.183594 0.067500
vt 0.183594 0.067500
vt 0.183594 0.067500
vt 0.183594 0.067500
vt 0.183594 0.067500
vt 0.183594 0.067500
vt 0.183594 0.067500
vt 0.183594 0.067500
vt 0.183594 0.067500
vt 0.183594 0.067500
vt 0.183594 0.067500
vt 0.183594 0.067500
vt 0.183594 0.067500
vt 0.183594 0.067500
vt 0.183594 0.067500
vt 0.183594 0.067500
vt 0.183594 0.067500
vt 0.183594 0.067500
vt 0.183594 0.067500
vt 0.183594 0.067500
vt 0.183594 0.067500
vt 0.183594 0.067500
vt 0.183594 0.067500
vt 0.183594 0.067500
vt 0.183594 0.067500
vt 0.183594 0.067500
vt 0.183594 0.067500
vt 0.183594 0.067500
vt 0.183594 0.067500
vt 0.183594 0.067500
vt 0.183594 0.067500
vt 0.183594 0.067500
vt 0.183594 0.067500
vt 0.183594 0.067500
vt 0.183594 0.067500
vt 0.183594 0.067500
vt 0.183594 0.067500
vt 0.183594 0.067500
vt 0.183594 0.067500
vt 0.183594 0.067500
vt 0.183594 0.067500
vt 0.183594 0.067500
vt 0.183594 0.067500
vt 0.183594 0.067500
vt 0.183594 0.067500
vt 0.183594 0.067500
vt 0.183594 0.067500
vt 0.183594 0.067500
vt 0.183594 0.067500
vt 0.183594 0.067500
vt 0.183594 0.067500
vt 0.183594 0.067500
vt 0.183594 0.067500
vt 0.183594 0.067500
vt 0.183594 0.067500
vt 0.183594 0.067500
vt 0.183594 0.067500
vt 0.183594 0.067500
vt 0.183594 0.067500
vt 0.183594 0.067500
vt 0.183594 0.067500
vt 0.183594 0.067500
vt 0.183594 0.067500
vt 0.183594 0.067500
vt 0.183594 0.067500
vt 0.183594 0.067500
vt 0.183594 0.067500
vn 0.0000 0.0000 1.0000
vn 0.0000 -1.0000 0.0000
vn 0.0000 -0.4789 0.8778
vn -0.0000 0.5000 0.8660
vn -0.0000 1.0000 0.0000
vn -0.0000 0.5000 -0.8660
vn -1.0000 0.0000 0.0000
vn 1.0000 0.0000 0.0000
vn 0.0000 -0.5000 -0.8660
vn 0.0000 -0.5000 0.8660
vn 0.0000 0.0000 -1.0000
vn -0.9982 -0.0112 -0.0587
vn 0.0000 -1.0000 -0.0007
vn 0.9983 0.0109 0.0571
vn -0.0000 1.0000 -0.0007
vn 0.9949 -0.0028 -0.1013
vn 0.9946 0.0085 0.1030
vn 0.9923 -0.0168 -0.1226
vn -0.9950 0.0028 0.0997
vn -0.9945 -0.0087 -0.1046
vn -0.9925 0.0166 0.1210
vn 0.0000 -0.2276 0.9738
usemtl NewMaterial
s off
f 38/1/1 15/2/1 49/3/1 50/4/1
f 14/5/2 15/2/2 18/6/2 17/7/2
f 63/8/3 64/9/3 20/10/3 19/11/3
f 19/11/4 20/10/4 22/12/4 21/13/4
f 12/14/2 10/15/2 34/16/2 36/17/2
f 21/13/5 22/12/5 24/18/5 23/19/5
f 23/19/6 24/18/6 16/20/6 13/21/6
f 3/22/5 5/23/5 29/24/5 26/25/5
f 39/26/7 1/27/7 13/21/7 37/28/7
f 4/29/8 15/2/8 38/1/8
f 5/23/7 3/22/7 14/5/7 17/7/7
f 4/29/8 6/30/8 18/6/8 15/2/8
f 65/31/7 5/23/7 17/7/7 63/8/7
f 66/32/8 8/33/8 20/10/8 64/9/8
f 9/34/7 7/35/7 19/11/7 21/13/7
f 8/33/8 10/15/8 22/12/8 20/10/8
f 11/36/7 9/34/7 21/13/7 23/19/7
f 10/15/8 12/14/8 24/18/8 22/12/8
f 1/27/7 11/36/7 23/19/7 13/21/7
f 12/14/8 2/37/8 16/20/8 24/18/8
f 27/38/8 42/39/8 28/40/8 36/17/8 34/16/8 32/41/8 68/42/8 30/43/8
f 25/44/7 41/45/7 26/25/7 29/24/7 67/46/7 31/47/7 33/48/7 35/49/7
f 7/35/9 9/34/9 33/48/9 31/47/9
f 6/30/5 4/29/5 27/38/5 30/43/5
f 11/36/10 1/27/10 25/44/10 35/49/10
f 39/26/4 3/22/4 26/25/4 41/45/4
f 10/15/9 8/33/9 32/41/9 34/16/9
f 65/31/6 7/35/6 31/47/6 67/46/6
f 2/37/10 12/14/10 36/17/10 28/40/10
f 40/50/4 2/37/4 28/40/4 42/39/4
f 9/34/2 11/36/2 35/49/2 33/48/2
f 66/32/6 6/30/6 30/43/6 68/42/6
f 4/29/4 40/50/4 42/39/4 27/38/4
f 1/27/4 39/26/4 41/45/4 25/44/4
f 2/37/8 40/50/8 38/1/8 16/20/8
f 3/22/7 39/26/7 37/28/7
f 13/21/9 16/20/9 38/1/9 37/28/9
f 43/51/11 46/52/11 45/53/11 44/54/11
f 37/28/1 38/1/1 50/4/1 47/55/1
f 14/5/1 37/28/1 47/55/1 48/56/1
f 15/2/1 14/5/1 48/56/1 49/3/1
f 51/57/12 56/58/12 48/56/12 47/55/12
f 56/58/13 59/59/13 49/3/13 48/56/13
f 59/59/14 62/60/14 50/4/14 49/3/14
f 62/60/15 51/57/15 47/55/15 50/4/15
f 46/52/15 43/51/15 53/61/15 60/62/15
f 60/62/15 53/61/15 52/63/15 61/64/15
f 61/64/15 52/63/15 51/57/15 62/60/15
f 45/53/16 46/52/16 60/62/16 57/65/16
f 57/65/17 60/62/17 61/64/17 58/66/17
f 58/66/18 61/64/18 62/60/18 59/59/18
f 44/54/13 45/53/13 57/65/13 54/67/13
f 54/67/13 57/65/13 58/66/13 55/68/13
f 55/68/13 58/66/13 59/59/13 56/58/13
f 43/51/19 44/54/19 54/67/19 53/61/19
f 53/61/20 54/67/20 55/68/20 52/63/20
f 52/63/21 55/68/21 56/58/21 51/57/21
f 40/50/8 4/29/8 38/1/8
f 14/5/7 3/22/7 37/28/7
f 8/33/6 66/32/6 68/42/6 32/41/6
f 5/23/6 65/31/6 67/46/6 29/24/6
f 6/30/8 66/32/8 64/9/8 18/6/8
f 7/35/7 65/31/7 63/8/7 19/11/7
f 17/7/22 18/6/22 64/9/22 63/8/22
