# Blender v2.90.1 OBJ File: 'Wood.blend'
# www.blender.org
mtllib Telescope.mtl
o Cylinder.012_Cylinder.067
v 0.146887 -0.146450 0.476108
v -0.476995 -0.146450 0.115909
v -0.476995 -0.146450 -0.115695
v 0.146887 -0.146450 -0.475894
v 0.347463 -0.146450 -0.360092
v 0.347463 -0.146450 0.360306
v -0.268204 -0.389790 0.168408
v -0.268204 -0.389790 -0.168194
v -0.002973 -0.389790 -0.321325
v 0.288532 -0.389790 -0.153024
v 0.288532 -0.389790 0.153238
v -0.002973 -0.389790 0.321539
v 0.146887 -0.389790 0.583149
v -0.569696 -0.389790 0.169430
v -0.569696 -0.389790 -0.169216
v 0.146887 -0.389790 -0.582935
v 0.440163 -0.389790 -0.413612
v 0.440163 -0.389790 0.413826
v -2.013336 -4.247218 0.118633
v -2.013336 -4.247218 -0.118420
v 0.914249 -4.306167 -1.810450
v 1.119542 -4.306167 -1.691925
v 1.121405 -4.267748 1.695364
v 0.916112 -4.267748 1.813890
v -1.817645 -4.326240 0.117917
v -1.817645 -4.326240 -0.117704
v 0.816152 -4.380732 -1.639111
v 1.020206 -4.380732 -1.521301
v 1.022873 -4.346443 1.526134
v 0.818819 -4.346443 1.643945
v -0.839026 -1.893438 0.168408
v -0.839025 -1.893438 -0.168194
v -1.140517 -1.893438 -0.169216
v -1.140518 -1.893438 0.169430
v 0.433063 -1.893438 -1.079754
v 0.283203 -1.893438 -0.818143
v 0.726339 -1.893438 -0.910431
v 0.574708 -1.893438 -0.649843
v 0.724961 -1.893438 0.903000
v 0.573330 -1.893438 0.642411
v 0.431686 -1.893438 1.072322
v 0.281825 -1.893438 0.810712
v -0.913428 -1.971079 0.117917
v -1.124472 -1.971079 0.118633
v -0.913427 -1.971079 -0.117704
v -1.124472 -1.971079 -0.118419
v 0.468267 -1.971079 -1.037987
v 0.673560 -1.971079 -0.919461
v 0.363364 -1.971079 -0.854860
v 0.567418 -1.971079 -0.737049
v 0.673560 -1.971079 0.919675
v 0.468267 -1.971079 1.038201
v 0.567418 -1.971079 0.737263
v 0.363364 -1.971079 0.855074
v -0.569696 -0.200170 0.169430
v 0.146887 -0.200170 0.583149
v -0.569696 -0.200170 -0.169216
v 0.146887 -0.200170 -0.582935
v 0.440163 -0.200170 -0.413612
v 0.440163 -0.200170 0.413826
v -2.477860 1.910719 -1.211402
v -0.603951 1.211815 -0.843797
v -2.844537 0.927580 -0.605593
v -0.411686 0.407731 -0.219460
v -2.844537 0.927580 0.606025
v -0.411686 0.407731 0.219891
v -2.477860 1.910719 1.211833
v -0.603951 1.211815 0.844229
v -2.111182 2.893857 0.606025
v -0.348524 1.896669 0.422222
v -2.111182 2.893857 -0.605593
v -0.348524 1.896669 -0.421791
v -2.849133 2.049191 -0.992554
v -3.149580 1.243632 -0.496169
v -3.149580 1.243632 0.496601
v -2.849133 2.049191 0.992986
v -2.548687 2.854751 0.496601
v -2.548687 2.854751 -0.496169
v -2.477860 1.910719 -1.305608
v -2.873047 0.851139 -0.652696
v -2.873047 0.851139 0.653128
v -2.477860 1.910719 1.306039
v -2.082673 2.970298 0.653127
v -2.082673 2.970298 -0.652696
v -2.849133 2.049191 -1.305608
v -3.244321 0.989612 -0.652696
v -3.244321 0.989612 0.653128
v -2.849133 2.049191 1.306039
v -2.453946 3.108770 0.653127
v -2.453946 3.108770 -0.652696
v -2.743281 2.009712 -0.497238
v -2.893828 1.606065 -0.248511
v -2.893828 1.606065 0.248943
v -2.743281 2.009712 0.497670
v -2.592735 2.413359 0.248943
v -2.592735 2.413360 -0.248511
v -2.619122 1.963405 -0.992554
v -2.919568 1.157845 -0.496169
v -2.919568 1.157845 0.496601
v -2.619122 1.963405 0.992986
v -2.318675 2.768964 0.496601
v -2.318675 2.768964 -0.496169
v -0.906586 0.400388 -0.499784
v -0.603951 1.211815 -0.999784
v -0.906586 0.400388 0.500216
v -0.603951 1.211815 1.000216
v -0.301317 2.023241 0.500216
v -0.301317 2.023241 -0.499784
v 0.910899 0.202490 -0.240148
v 1.056384 0.592565 -0.480512
v 0.910900 0.202490 0.240580
v 1.056384 0.592565 0.480944
v 1.201869 0.982641 0.240580
v 1.201869 0.982641 -0.240148
v 0.413338 0.188011 -0.194577
v 1.056384 0.592565 -0.645294
v 0.413338 0.188012 0.195008
v 1.056384 0.592565 0.645725
v 1.251738 1.116349 0.322970
v 1.251738 1.116349 -0.322539
v 2.317260 -0.150727 -0.147479
v 2.406655 0.088960 -0.295174
v 2.317260 -0.150727 0.147911
v 2.406655 0.088960 0.295606
v 2.496051 0.328648 0.147911
v 2.496051 0.328648 -0.147479
v 2.547859 -0.162353 -0.107244
v 2.612901 0.012038 -0.214703
v 2.547859 -0.162353 0.107675
v 2.612901 0.012038 0.215134
v 2.677943 0.186428 0.107675
v 2.677943 0.186428 -0.107244
v 2.304313 -0.185441 -0.168870
v 2.406655 0.088960 -0.337956
v 2.304313 -0.185441 0.169301
v 2.406655 0.088960 0.338387
v 2.508998 0.363361 0.169301
v 2.508998 0.363361 -0.168870
v 2.510559 -0.262363 -0.168870
v 2.612901 0.012038 -0.337956
v 2.510559 -0.262363 0.169301
v 2.612901 0.012038 0.338387
v 2.715243 0.286439 0.169301
v 2.715243 0.286439 -0.168870
v 2.536265 -0.071189 -0.060267
v 2.572874 0.026966 -0.120750
v 2.536265 -0.071189 0.060699
v 2.572874 0.026966 0.121182
v 2.609482 0.125121 0.060699
v 2.609482 0.125121 -0.060267
v 2.478442 -0.136463 -0.107244
v 2.543483 0.037928 -0.214703
v 2.478442 -0.136463 0.107675
v 2.543483 0.037928 0.215134
v 2.608525 0.212319 0.107675
v 2.608525 0.212319 -0.107244
v -0.859379 0.526960 0.422222
v -0.859379 0.526960 -0.421791
v 0.861031 0.068782 0.322970
v 0.861031 0.068782 -0.322539
v -0.234361 0.151204 0.182100
v -0.234361 0.151204 -0.181668
v 0.131914 0.053657 0.154227
v 0.131914 0.053657 -0.153796
v -0.463736 0.212290 0.219891
v -0.463736 0.212290 -0.219460
v 0.361289 -0.007429 0.195008
v 0.361289 -0.007430 -0.194577
v -0.234361 -0.215652 0.182100
v -0.234361 -0.215652 -0.181668
v 0.131914 -0.215652 0.154227
v 0.131914 -0.215652 -0.153796
vt 0.441406 0.692500
vt 0.441406 0.692500
vt 0.441406 0.692500
vt 0.441406 0.692500
vt 0.441406 0.692500
vt 0.441406 0.692500
vt 0.441406 0.692500
vt 0.441406 0.692500
vt 0.441406 0.692500
vt 0.441406 0.692500
vt 0.441406 0.692500
vt 0.441406 0.692500
vt 0.441406 0.692500
vt 0.441406 0.692500
vt 0.441406 0.692500
vt 0.441406 0.692500
vt 0.441406 0.692500
vt 0.441406 0.692500
vt 0.441406 0.692500
vt 0.441406 0.692500
vt 0.441406 0.692500
vt 0.441406 0.692500
vt 0.441406 0.692500
vt 0.441406 0.692500
vt 0.429687 0.821406
vt 0.429687 0.821406
vt 0.429687 0.821406
vt 0.429687 0.821406
vt 0.429687 0.821406
vt 0.429687 0.821406
vt 0.429687 0.821406
vt 0.429687 0.821406
vt 0.429687 0.821406
vt 0.429687 0.821406
vt 0.429687 0.821406
vt 0.429687 0.821406
vt 0.429687 0.821406
vt 0.429687 0.821406
vt 0.429687 0.821406
vt 0.429687 0.821406
vt 0.429687 0.821406
vt 0.429687 0.821406
vt 0.429687 0.821406
vt 0.429687 0.821406
vt 0.429687 0.821406
vt 0.429687 0.821406
vt 0.429687 0.821406
vt 0.429687 0.821406
vt 0.429687 0.821406
vt 0.429687 0.821406
vt 0.429687 0.821406
vt 0.429687 0.821406
vt 0.429687 0.821406
vt 0.429687 0.821406
vt 0.429687 0.821406
vt 0.429687 0.821406
vt 0.429687 0.821406
vt 0.429687 0.821406
vt 0.429687 0.821406
vt 0.429687 0.821406
vt 0.429687 0.821406
vt 0.429687 0.821406
vt 0.429687 0.821406
vt 0.429687 0.821406
vt 0.429687 0.821406
vt 0.429687 0.821406
vt 0.429687 0.821406
vt 0.429687 0.821406
vt 0.429687 0.821406
vt 0.429687 0.821406
vt 0.429687 0.821406
vt 0.429687 0.821406
vt 0.433594 0.821406
vt 0.433594 0.821406
vt 0.433594 0.821406
vt 0.433594 0.821406
vt 0.433594 0.821406
vt 0.433594 0.821406
vt 0.433594 0.821406
vt 0.433594 0.821406
vt 0.433594 0.821406
vt 0.433594 0.821406
vt 0.433594 0.821406
vt 0.433594 0.821406
vt 0.433594 0.821406
vt 0.433594 0.821406
vt 0.433594 0.821406
vt 0.433594 0.821406
vt 0.445312 0.692500
vt 0.445312 0.692500
vt 0.445312 0.692500
vt 0.445312 0.692500
vt 0.445312 0.692500
vt 0.445312 0.692500
vt 0.445312 0.692500
vt 0.445312 0.692500
vt 0.445312 0.692500
vt 0.445312 0.692500
vt 0.445312 0.692500
vt 0.445312 0.692500
vt 0.445312 0.692500
vt 0.445312 0.692500
vt 0.445312 0.692500
vt 0.445312 0.692500
vt 0.445312 0.692500
vt 0.445312 0.692500
vt 0.445312 0.692500
vt 0.445312 0.692500
vt 0.445312 0.692500
vt 0.445312 0.692500
vt 0.445312 0.692500
vt 0.445312 0.692500
vt 0.445312 0.692500
vt 0.445312 0.692500
vt 0.187500 0.071406
vt 0.187500 0.071406
vt 0.187500 0.071406
vt 0.187500 0.071406
vt 0.187500 0.071406
vt 0.187500 0.071406
vt 0.445312 0.692500
vt 0.445312 0.692500
vt 0.445312 0.692500
vt 0.445312 0.692500
vt 0.187500 0.071406
vt 0.187500 0.071406
vt 0.187500 0.071406
vt 0.187500 0.071406
vt 0.187500 0.071406
vt 0.187500 0.071406
vt 0.433594 0.821406
vt 0.433594 0.821406
vt 0.433594 0.821406
vt 0.433594 0.821406
vt 0.433594 0.821406
vt 0.433594 0.821406
vt 0.433594 0.821406
vt 0.433594 0.821406
vt 0.433594 0.821406
vt 0.433594 0.821406
vt 0.437500 0.688594
vt 0.437500 0.688594
vt 0.437500 0.688594
vt 0.437500 0.688594
vt 0.433594 0.821406
vt 0.433594 0.821406
vt 0.433594 0.821406
vt 0.433594 0.821406
vt 0.433594 0.821406
vt 0.433594 0.821406
vt 0.441406 0.696406
vt 0.441406 0.696406
vt 0.441406 0.696406
vt 0.441406 0.696406
vt 0.433594 0.821406
vt 0.433594 0.821406
vt 0.433594 0.821406
vt 0.433594 0.821406
vt 0.441406 0.696406
vt 0.441406 0.696406
vt 0.441406 0.696406
vt 0.441406 0.696406
vt 0.441406 0.696406
vt 0.441406 0.696406
vt 0.441406 0.696406
vt 0.441406 0.696406
vt 0.441406 0.696406
vt 0.441406 0.696406
vt 0.441406 0.696406
vt 0.441406 0.696406
vt 0.441406 0.696406
vt 0.441406 0.696406
vt 0.441406 0.696406
vt 0.441406 0.696406
vt 0.441406 0.696406
vt 0.441406 0.696406
vt 0.441406 0.696406
vt 0.441406 0.696406
vt 0.441406 0.696406
vt 0.441406 0.696406
vt 0.187500 0.067500
vt 0.187500 0.067500
vt 0.187500 0.067500
vt 0.187500 0.067500
vt 0.187500 0.067500
vt 0.187500 0.067500
vt 0.441406 0.696406
vt 0.441406 0.696406
vt 0.441406 0.696406
vt 0.441406 0.696406
vt 0.187500 0.067500
vt 0.187500 0.067500
vt 0.187500 0.067500
vt 0.187500 0.067500
vt 0.187500 0.067500
vt 0.187500 0.067500
vt 0.433594 0.821406
vt 0.433594 0.821406
vt 0.433594 0.821406
vt 0.433594 0.821406
vt 0.437500 0.688594
vt 0.437500 0.688594
vt 0.437500 0.688594
vt 0.437500 0.688594
vt 0.437500 0.688594
vt 0.437500 0.688594
vt 0.437500 0.688594
vt 0.437500 0.688594
vt 0.437500 0.688594
vt 0.437500 0.688594
vt 0.437500 0.688594
vt 0.437500 0.688594
vn -0.5000 -0.0000 0.8660
vn -1.0000 -0.0000 -0.0000
vn -0.5000 -0.0000 -0.8660
vn 0.5000 0.0000 -0.8660
vn 0.0000 1.0000 0.0000
vn 1.0000 0.0000 0.0000
vn 0.5000 0.0000 0.8660
vn 0.0000 -1.0000 0.0000
vn 0.0033 -0.0013 -1.0000
vn 0.9336 -0.3584 0.0000
vn 0.8644 -0.0013 -0.5028
vn 0.1864 -0.9279 0.3229
vn 0.1767 -0.9355 -0.3060
vn -0.3744 -0.9273 0.0000
vn 0.4658 0.3633 0.8068
vn -0.4669 -0.3581 -0.8086
vn -0.8677 -0.0012 -0.4972
vn 0.4671 0.3568 -0.8090
vn 0.0033 -0.0013 1.0000
vn -0.9315 0.3638 -0.0000
vn -0.4680 -0.3518 0.8107
vn 0.8644 -0.0012 0.5028
vn -0.8677 -0.0013 0.4972
vn -0.9349 0.3549 -0.0000
vn 0.0034 -0.0013 1.0000
vn 0.9349 -0.3549 0.0000
vn 0.0034 -0.0013 -1.0000
vn 0.8643 -0.0017 0.5029
vn -0.4672 -0.3563 0.8092
vn 0.4672 0.3563 -0.8092
vn -0.8677 -0.0009 -0.4971
vn -0.8677 -0.0026 0.4971
vn -0.4679 -0.3523 -0.8105
vn 0.4679 0.3523 0.8105
vn 0.8643 0.0001 -0.5029
vn -0.9793 -0.2024 -0.0000
vn 0.0028 -0.5471 0.8371
vn 0.7220 -0.6919 0.0000
vn 0.0028 -0.5471 -0.8371
vn 0.7260 -0.5427 0.4224
vn -0.3669 -0.6793 0.6355
vn 0.4863 -0.2326 -0.8423
vn -0.7239 -0.5513 -0.4147
vn -0.7351 -0.5314 0.4211
vn -0.3500 -0.7140 -0.6063
vn 0.4948 -0.1435 0.8571
vn 0.7147 -0.5624 -0.4158
vn -0.2507 0.8652 0.4342
vn -0.5014 0.8652 0.0000
vn -0.2507 0.8652 -0.4342
vn 0.2507 0.8652 -0.4342
vn 0.5014 0.8652 0.0000
vn 0.2507 0.8652 0.4342
vn -0.0885 -0.4984 -0.8624
vn -0.2625 -0.9649 0.0000
vn -0.0885 -0.4984 0.8624
vn 0.2595 0.4346 0.8624
vn 0.2644 0.4325 -0.8620
vn 0.4335 0.9012 0.0000
vn 0.2595 0.4346 -0.8624
vn 0.9370 -0.3495 0.0000
vn 0.3495 0.9370 0.0000
vn -0.9370 0.3495 0.0000
vn -0.1747 -0.4685 -0.8660
vn -0.1747 -0.4685 0.8660
vn 0.1747 0.4685 -0.8660
vn 0.1747 0.4685 0.8660
vn -0.3495 -0.9370 0.0000
vn -0.9468 0.1956 -0.2556
vn -0.9984 0.0573 0.0000
vn -0.9468 0.1956 0.2556
vn -0.8436 0.4722 0.2556
vn -0.7921 0.6104 0.0000
vn -0.8436 0.4722 -0.2556
vn 0.2774 0.4269 -0.8607
vn 0.2644 0.4325 0.8620
vn 0.0282 -0.0075 0.9996
vn 0.4383 0.8988 0.0000
vn -0.0834 -0.5000 0.8620
vn -0.0834 -0.5000 -0.8620
vn 0.2774 0.4269 0.8607
vn -0.2436 -0.9699 0.0000
vn 0.4510 0.8925 0.0000
vn -0.0699 -0.5043 0.8607
vn -0.0699 -0.5043 -0.8607
vn -0.9370 0.3494 0.0000
vn 0.9370 -0.3494 0.0000
vn 0.8114 -0.4946 -0.3115
vn 0.7485 -0.6631 0.0000
vn 0.8114 -0.4946 0.3115
vn 0.9371 -0.1575 0.3115
vn 0.9999 0.0110 0.0000
vn 0.9371 -0.1575 -0.3115
vn -0.2573 -0.9663 0.0000
vn 0.0759 0.0000 0.9971
vn 0.9663 -0.2573 0.0000
vn 0.0282 -0.0075 -0.9996
vn -0.9663 0.2573 -0.0000
vn 0.0759 0.0000 -0.9971
usemtl NewMaterial
s off
f 13/1/1 56/2/1 55/3/1 14/4/1
f 14/4/2 55/3/2 57/5/2 15/6/2
f 15/6/3 57/5/3 58/7/3 16/8/3
f 16/8/4 58/7/4 59/9/4 17/10/4
f 2/11/5 1/12/5 6/13/5 5/14/5 4/15/5 3/16/5
f 17/10/6 59/9/6 60/17/6 18/18/6
f 18/18/7 60/17/7 56/2/7 13/1/7
f 12/19/8 7/20/8 8/21/8 9/22/8 10/23/8 11/24/8
f 7/20/8 12/19/8 13/1/8 14/4/8
f 9/22/8 8/21/8 15/6/8 16/8/8
f 11/24/8 10/23/8 17/10/8 18/18/8
f 46/25/9 45/26/9 26/27/9 20/28/9
f 45/26/10 43/29/10 25/30/10 26/27/10
f 53/31/11 51/32/11 23/33/11 29/34/11
f 24/35/12 30/36/12 29/34/12 23/33/12
f 22/37/13 28/38/13 27/39/13 21/40/13
f 20/28/14 26/27/14 25/30/14 19/41/14
f 51/32/15 52/42/15 24/35/15 23/33/15
f 54/43/16 53/31/16 29/34/16 30/36/16
f 49/44/17 47/45/17 21/40/17 27/39/17
f 47/45/18 48/46/18 22/37/18 21/40/18
f 43/29/19 44/47/19 19/41/19 25/30/19
f 44/47/20 46/25/20 20/28/20 19/41/20
f 50/48/21 49/44/21 27/39/21 28/38/21
f 48/46/22 50/48/22 28/38/22 22/37/22
f 52/42/23 54/43/23 30/36/23 24/35/23
f 14/49/24 15/50/24 33/51/24 34/52/24
f 7/53/25 14/49/25 34/52/25 31/54/25
f 8/55/26 7/53/26 31/54/26 32/56/26
f 15/50/27 8/55/27 32/56/27 33/51/27
f 17/57/28 10/58/28 38/59/28 37/60/28
f 10/58/29 9/61/29 36/62/29 38/59/29
f 16/63/30 17/57/30 37/60/30 35/64/30
f 9/61/31 16/63/31 35/64/31 36/62/31
f 13/65/32 12/66/32 42/67/32 41/68/32
f 12/66/33 11/69/33 40/70/33 42/67/33
f 18/71/34 13/65/34 41/68/34 39/72/34
f 11/69/35 18/71/35 39/72/35 40/70/35
f 34/52/36 33/51/36 46/25/36 44/47/36
f 31/54/37 34/52/37 44/47/37 43/29/37
f 32/56/38 31/54/38 43/29/38 45/26/38
f 33/51/39 32/56/39 45/26/39 46/25/39
f 37/60/40 38/59/40 50/48/40 48/46/40
f 38/59/41 36/62/41 49/44/41 50/48/41
f 35/64/42 37/60/42 48/46/42 47/45/42
f 36/62/43 35/64/43 47/45/43 49/44/43
f 41/68/44 42/67/44 54/43/44 52/42/44
f 42/67/45 40/70/45 53/31/45 54/43/45
f 39/72/46 41/68/46 52/42/46 51/32/46
f 40/70/47 39/72/47 51/32/47 53/31/47
f 1/12/48 2/11/48 55/3/48 56/2/48
f 2/11/49 3/16/49 57/5/49 55/3/49
f 3/16/50 4/15/50 58/7/50 57/5/50
f 4/15/51 5/14/51 59/9/51 58/7/51
f 5/14/52 6/13/52 60/17/52 59/9/52
f 6/13/53 1/12/53 56/2/53 60/17/53
f 61/73/54 104/74/54 103/75/54 63/76/54
f 63/76/55 103/75/55 105/77/55 65/78/55
f 65/78/56 105/77/56 106/79/56 67/80/56
f 67/80/57 106/79/57 107/81/57 69/82/57
f 62/83/58 72/84/58 120/85/58 116/86/58
f 69/82/59 107/81/59 108/87/59 71/88/59
f 71/88/60 108/87/60 104/74/60 61/73/60
f 61/89/61 63/90/61 80/91/61 79/92/61
f 74/93/62 75/94/62 99/95/62 98/96/62
f 67/97/61 69/98/61 83/99/61 82/100/61
f 76/101/63 75/94/63 87/102/63 88/103/63
f 69/98/61 71/104/61 84/105/61 83/99/61
f 73/106/63 78/107/63 90/108/63 85/109/63
f 71/104/61 61/89/61 79/92/61 84/105/61
f 83/99/62 84/105/62 90/108/62 89/110/62
f 79/92/64 80/91/64 86/111/64 85/109/64
f 81/112/65 82/100/65 88/103/65 87/102/65
f 84/105/66 79/92/66 85/109/66 90/108/66
f 82/100/67 83/99/67 89/110/67 88/103/67
f 80/91/68 81/112/68 87/102/68 86/111/68
f 65/113/61 67/97/61 82/100/61 81/112/61
f 77/114/63 76/101/63 88/103/63 89/110/63
f 63/90/61 65/113/61 81/112/61 80/91/61
f 74/93/63 73/106/63 85/109/63 86/111/63
f 78/107/63 77/114/63 89/110/63 90/108/63
f 75/94/63 74/93/63 86/111/63 87/102/63
f 91/115/63 92/116/63 93/117/63 94/118/63 95/119/63 96/120/63
f 77/114/68 78/107/68 102/121/68 101/122/68
f 75/94/66 76/101/66 100/123/66 99/95/66
f 73/106/67 74/93/67 98/96/67 97/124/67
f 78/107/65 73/106/65 97/124/65 102/121/65
f 76/101/64 77/114/64 101/122/64 100/123/64
f 92/116/69 91/115/69 97/125/69 98/126/69
f 93/117/70 92/116/70 98/126/70 99/127/70
f 94/118/71 93/117/71 99/127/71 100/128/71
f 95/119/72 94/118/72 100/128/72 101/129/72
f 96/120/73 95/119/73 101/129/73 102/130/73
f 91/115/74 96/120/74 102/130/74 97/125/74
f 62/83/61 158/131/61 103/75/61 104/74/61
f 158/131/61 157/132/61 105/77/61 103/75/61
f 157/132/61 68/133/61 106/79/61 105/77/61
f 68/133/61 70/134/61 107/81/61 106/79/61
f 70/134/61 72/84/61 108/87/61 107/81/61
f 72/84/61 62/83/61 104/74/61 108/87/61
f 110/135/75 114/136/75 126/137/75 122/138/75
f 70/134/76 68/133/76 118/139/76 119/140/76
f 117/141/77 66/142/77 165/143/77 167/144/77
f 72/84/78 70/134/78 119/140/78 120/85/78
f 68/133/79 157/132/79 159/145/79 118/139/79
f 158/131/80 62/83/80 116/86/80 160/146/80
f 110/135/61 109/147/61 160/146/61 116/86/61
f 109/147/61 111/148/61 159/145/61 160/146/61
f 111/148/61 112/149/61 118/139/61 159/145/61
f 112/149/61 113/150/61 119/140/61 118/139/61
f 113/150/61 114/136/61 120/85/61 119/140/61
f 114/136/61 110/135/61 116/86/61 120/85/61
f 128/151/61 127/152/61 139/153/61 140/154/61
f 113/150/81 112/149/81 124/155/81 125/156/81
f 111/148/82 109/147/82 121/157/82 123/158/82
f 114/136/83 113/150/83 125/156/83 126/137/83
f 112/149/84 111/148/84 123/158/84 124/155/84
f 109/147/85 110/135/85 122/138/85 121/157/85
f 128/151/65 132/159/65 156/160/65 152/161/65
f 122/162/63 126/163/63 138/164/63 134/165/63
f 130/166/61 131/167/61 143/168/61 142/169/61
f 123/170/86 121/171/86 133/172/86 135/173/86
f 126/163/86 125/174/86 137/175/86 138/164/86
f 129/176/61 130/166/61 142/169/61 141/177/61
f 138/164/62 137/175/62 143/168/62 144/178/62
f 136/179/65 135/173/65 141/177/65 142/169/65
f 133/172/64 134/165/64 140/154/64 139/153/64
f 134/165/66 138/164/66 144/178/66 140/154/66
f 137/175/67 136/179/67 142/169/67 143/168/67
f 135/173/68 133/172/68 139/153/68 141/177/68
f 124/180/63 123/170/63 135/173/63 136/179/63
f 131/167/61 132/159/61 144/178/61 143/168/61
f 127/152/87 129/176/87 141/177/87 139/153/87
f 125/174/63 124/180/63 136/179/63 137/175/63
f 132/159/61 128/151/61 140/154/61 144/178/61
f 121/171/63 122/162/63 134/165/63 133/172/63
f 145/181/61 146/182/61 150/183/61 149/184/61 148/185/61 147/186/61
f 131/167/64 130/166/64 154/187/64 155/188/64
f 129/176/62 127/152/62 151/189/62 153/190/62
f 132/159/68 131/167/68 155/188/68 156/160/68
f 130/166/66 129/176/66 153/190/66 154/187/66
f 127/152/67 128/151/67 152/161/67 151/189/67
f 146/182/88 145/181/88 151/191/88 152/192/88
f 145/181/89 147/186/89 153/193/89 151/191/89
f 147/186/90 148/185/90 154/194/90 153/193/90
f 148/185/91 149/184/91 155/195/91 154/194/91
f 149/184/92 150/183/92 156/196/92 155/195/92
f 150/183/93 146/182/93 152/192/93 156/196/93
f 64/197/94 66/198/94 157/132/94 158/131/94
f 117/199/94 115/200/94 160/146/94 159/145/94
f 115/200/94 64/197/94 158/131/94 160/146/94
f 66/198/94 117/199/94 159/145/94 157/132/94
f 163/201/95 161/202/95 169/203/95 171/204/95
f 115/205/96 117/141/96 167/144/96 168/206/96
f 64/207/97 115/205/97 168/206/97 166/208/97
f 66/142/98 64/207/98 166/208/98 165/143/98
f 162/209/94 161/202/94 165/143/94 166/208/94
f 163/201/94 164/210/94 168/206/94 167/144/94
f 164/210/94 162/209/94 166/208/94 168/206/94
f 161/202/94 163/201/94 167/144/94 165/143/94
f 169/203/8 170/211/8 172/212/8 171/204/8
f 164/210/6 163/201/6 171/204/6 172/212/6
f 162/209/99 164/210/99 172/212/99 170/211/99
f 161/202/2 162/209/2 170/211/2 169/203/2
