# Blender v2.90.1 OBJ File: 'Wood.blend'
# www.blender.org
mtllib TentBlue.mtl
o Tent_Red_Cylinder.036
v 0.000016 3.076086 0.713222
v 0.000000 4.163752 -4.163752
v 0.000000 4.163752 5.400729
v 3.605915 -2.081876 -4.163752
v 3.605915 -2.081877 5.400729
v -3.605915 -2.081876 -4.163752
v -3.605915 -2.081876 5.400729
v 0.000000 3.565738 0.618488
v 3.605915 -1.831920 0.618488
v -3.605915 -1.831920 0.618488
v 3.323230 -2.081877 5.400728
v -3.323199 -2.081876 5.400729
v 0.000016 3.674100 5.400729
v 0.000016 3.674100 -4.163752
v 3.323230 -1.831920 0.618488
v 3.323230 -2.081876 -4.163752
v -3.323199 -1.831920 0.618488
v -3.323199 -2.081876 -4.163752
v -0.127700 -2.299638 5.195582
v -0.127700 3.714738 5.195582
v -0.127700 -2.299639 4.923706
v -0.127700 3.714737 4.923706
v 0.144176 -2.299638 5.195582
v 0.144176 3.714738 5.195582
v 0.144176 -2.299639 4.923706
v 0.144176 3.714737 4.923706
v 0.003605 -0.294846 5.269438
v -0.242447 1.709946 5.169562
v -0.242447 1.709945 4.897686
v 0.003605 -0.294847 4.997562
v 0.029430 1.709945 4.897686
v 0.275481 -0.294847 4.997562
v 0.029430 1.709946 5.169562
v 0.275481 -0.294846 5.269438
v -0.127700 -2.299638 -3.699682
v -0.127700 3.714738 -3.699682
v -0.127700 -2.299639 -3.971558
v -0.127700 3.714737 -3.971559
v 0.144176 -2.299638 -3.699682
v 0.144176 3.714738 -3.699682
v 0.144176 -2.299639 -3.971558
v 0.144176 3.714737 -3.971559
v 0.003605 -0.294846 -3.625826
v -0.242447 1.709946 -3.725702
v -0.242447 1.709945 -3.997578
v 0.003605 -0.294847 -3.897702
v 0.029430 1.709945 -3.997578
v 0.275481 -0.294847 -3.897702
v 0.029430 1.709946 -3.725702
v 0.275481 -0.294846 -3.625826
v 0.055169 -2.542457 8.203400
v -0.004297 -1.323750 8.918673
v 0.055169 -2.484843 8.095033
v -0.004297 -1.210313 8.705305
v 0.177900 -2.542457 8.203400
v 0.237351 -1.323750 8.918673
v 0.177900 -2.484843 8.095033
v 0.237351 -1.210313 8.705305
v -0.037133 -1.290195 8.973695
v -0.037133 -1.145934 8.702350
v 0.270178 -1.145934 8.702350
v 0.270178 -1.290195 8.973695
v -0.037133 -1.217001 9.012609
v -0.037133 -1.072739 8.741264
v 0.270178 -1.072739 8.741264
v 0.270178 -1.217001 9.012609
v -0.035101 -1.217001 -7.834377
v -0.035101 -1.072739 -7.563032
v 0.272210 -1.072739 -7.563032
v 0.272210 -1.217001 -7.834377
v -0.035101 -1.290195 -7.795462
v -0.035101 -1.145934 -7.524117
v 0.272210 -1.145934 -7.524117
v 0.272210 -1.290195 -7.795462
v -0.002275 -1.210313 -7.527072
v 0.057177 -2.484843 -6.916800
v -0.002275 -1.323750 -7.740440
v 0.057177 -2.542457 -7.025167
v 0.239374 -1.210313 -7.527072
v 0.179908 -2.484843 -6.916800
v 0.239374 -1.323750 -7.740440
v 0.179908 -2.542457 -7.025167
v -0.001542 -1.524913 8.808604
v -0.000423 -1.403148 8.872073
v -0.000423 -1.293347 8.665546
v -0.001542 -1.414061 8.600100
v 0.233478 -1.293347 8.665546
v 0.234599 -1.414061 8.600100
v 0.233478 -1.403148 8.872073
v 0.234599 -1.524914 8.808604
v -0.050578 -1.551744 8.846861
v -0.049360 -1.419219 8.915938
v -0.041670 -1.271212 8.627734
v -0.042813 -1.394530 8.560876
v 0.281995 -1.272173 8.626143
v 0.283113 -1.392571 8.560868
v 0.291206 -1.420178 8.914115
v 0.292397 -1.549566 8.846672
v 0.236619 -1.524913 -7.630372
v 0.235500 -1.403148 -7.693841
v 0.235500 -1.293347 -7.487314
v 0.236619 -1.414061 -7.421867
v 0.001599 -1.293347 -7.487314
v 0.000478 -1.414061 -7.421867
v 0.001599 -1.403148 -7.693841
v 0.000478 -1.524914 -7.630372
v 0.285655 -1.551744 -7.668628
v 0.284437 -1.419219 -7.737706
v 0.276747 -1.271212 -7.449502
v 0.277890 -1.394530 -7.382643
v -0.046918 -1.272173 -7.447910
v -0.048036 -1.392571 -7.382636
v -0.056129 -1.420178 -7.735882
v -0.057320 -1.549566 -7.668439
v 0.064716 -1.391269 8.578649
v 0.064716 -1.329690 8.663575
v -0.056721 3.118786 5.140470
v -0.056721 3.180365 5.225397
v 0.169619 -1.391269 8.578649
v 0.169619 -1.329690 8.663575
v 0.048182 3.118786 5.140470
v 0.048182 3.180365 5.225397
v -0.016242 1.244432 6.223224
v 0.024237 -0.283003 7.400936
v 0.024237 -0.221424 7.485863
v -0.016242 1.306011 6.308151
v 0.129140 -0.283003 7.400936
v 0.088661 1.244432 6.223224
v 0.088661 1.306011 6.308151
v 0.129140 -0.221424 7.485863
v 0.157848 -1.391269 -7.396952
v 0.157848 -1.329690 -7.481878
v 0.041216 3.166952 -3.911267
v 0.041216 3.228531 -3.996196
v 0.052946 -1.391269 -7.396952
v 0.052946 -1.329690 -7.481878
v -0.063686 3.166952 -3.911267
v -0.063686 3.228531 -3.996196
v 0.118548 1.244432 -5.041527
v 0.157965 -0.283003 -6.219239
v 0.157965 -0.221424 -6.304166
v 0.118548 1.306011 -5.126454
v 0.053063 -0.283003 -6.219239
v 0.013645 1.244432 -5.041527
v 0.013645 1.306011 -5.126454
v 0.053063 -0.221424 -6.304166
v -0.168103 2.996737 5.180817
v -0.154564 3.202292 5.189490
v -0.154564 3.202291 4.917614
v -0.168103 2.996736 4.908941
v 0.117312 3.202291 4.917614
v 0.103773 2.996736 4.908941
v 0.117312 3.202292 5.189490
v 0.103773 2.996737 5.180817
v -0.224339 2.996737 5.232675
v -0.205465 3.202292 5.244766
v -0.205465 3.202291 4.865757
v -0.224339 2.996736 4.853665
v 0.173544 3.202291 4.865757
v 0.154670 2.996736 4.853665
v 0.173544 3.202292 5.244766
v 0.154670 2.996737 5.232675
v -0.168526 3.043261 -3.714386
v -0.154295 3.250086 -3.705713
v -0.154295 3.250085 -3.977589
v -0.168526 3.043260 -3.986262
v 0.117581 3.250085 -3.977589
v 0.103350 3.043260 -3.986262
v 0.117581 3.250086 -3.705713
v 0.103350 3.043261 -3.714386
v -0.210320 3.043261 -3.675939
v -0.191932 3.250086 -3.664732
v -0.191932 3.250085 -4.016037
v -0.210320 3.043260 -4.027244
v 0.159373 3.250085 -4.016037
v 0.140984 3.043260 -4.027244
v 0.159373 3.250086 -3.664731
v 0.140984 3.043261 -3.675939
vt 0.171875 0.066250
vt 0.171875 0.066250
vt 0.171875 0.066250
vt 0.171875 0.066250
vt 0.171875 0.066250
vt 0.171875 0.066250
vt 0.171875 0.066250
vt 0.171875 0.066250
vt 0.171875 0.066250
vt 0.171875 0.066250
vt 0.171875 0.066250
vt 0.171875 0.066250
vt 0.171875 0.066250
vt 0.171875 0.066250
vt 0.171875 0.066250
vt 0.171875 0.066250
vt 0.171875 0.066250
vt 0.171875 0.066250
vt 0.304688 0.816406
vt 0.304688 0.816406
vt 0.304688 0.816406
vt 0.304688 0.816406
vt 0.304688 0.816406
vt 0.304688 0.816406
vt 0.304688 0.816406
vt 0.304688 0.816406
vt 0.304688 0.816406
vt 0.304688 0.816406
vt 0.304688 0.816406
vt 0.304688 0.816406
vt 0.304688 0.816406
vt 0.304688 0.816406
vt 0.304688 0.816406
vt 0.304688 0.816406
vt 0.304688 0.816406
vt 0.304688 0.816406
vt 0.304688 0.816406
vt 0.304688 0.816406
vt 0.304688 0.816406
vt 0.304688 0.816406
vt 0.304688 0.816406
vt 0.304688 0.816406
vt 0.304688 0.816406
vt 0.304688 0.816406
vt 0.304688 0.816406
vt 0.304688 0.816406
vt 0.304688 0.816406
vt 0.304688 0.816406
vt 0.304688 0.816406
vt 0.304688 0.816406
vt 0.304688 0.816406
vt 0.304688 0.816406
vt 0.304688 0.816406
vt 0.304688 0.816406
vt 0.304688 0.816406
vt 0.304688 0.816406
vt 0.304688 0.816406
vt 0.304688 0.816406
vt 0.304688 0.816406
vt 0.304688 0.816406
vt 0.304688 0.816406
vt 0.304688 0.816406
vt 0.304688 0.816406
vt 0.304688 0.816406
vt 0.304688 0.816406
vt 0.304688 0.816406
vt 0.304688 0.816406
vt 0.304688 0.816406
vt 0.304688 0.816406
vt 0.304688 0.816406
vt 0.304688 0.816406
vt 0.304688 0.816406
vt 0.304688 0.816406
vt 0.304688 0.816406
vt 0.304688 0.816406
vt 0.304688 0.816406
vt 0.304688 0.816406
vt 0.304688 0.816406
vt 0.304688 0.816406
vt 0.304688 0.816406
vt 0.304688 0.816406
vt 0.304688 0.816406
vt 0.304688 0.816406
vt 0.304688 0.816406
vt 0.304688 0.816406
vt 0.304688 0.816406
vt 0.304688 0.816406
vt 0.304688 0.816406
vt 0.304688 0.816406
vt 0.304688 0.816406
vt 0.304688 0.816406
vt 0.304688 0.816406
vt 0.304688 0.816406
vt 0.304688 0.816406
vt 0.304688 0.816406
vt 0.304688 0.816406
vt 0.304688 0.816406
vt 0.304688 0.816406
vt 0.304688 0.816406
vt 0.304688 0.816406
vt 0.068359 0.064453
vt 0.068359 0.064453
vt 0.068359 0.064453
vt 0.068359 0.064453
vt 0.304688 0.816406
vt 0.068359 0.064453
vt 0.068359 0.064453
vt 0.304688 0.816406
vt 0.068359 0.064453
vt 0.068359 0.064453
vt 0.068359 0.064453
vt 0.068359 0.064453
vt 0.068359 0.064453
vt 0.068359 0.064453
vt 0.068359 0.064453
vt 0.068359 0.064453
vt 0.068359 0.064453
vt 0.068359 0.064453
vt 0.304688 0.816406
vt 0.304688 0.816406
vt 0.068359 0.064453
vt 0.068359 0.064453
vt 0.068359 0.064453
vt 0.068359 0.064453
vt 0.304688 0.816406
vt 0.068359 0.064453
vt 0.068359 0.064453
vt 0.304688 0.816406
vt 0.068359 0.064453
vt 0.068359 0.064453
vt 0.068359 0.064453
vt 0.068359 0.064453
vt 0.068359 0.064453
vt 0.068359 0.064453
vt 0.068359 0.064453
vt 0.068359 0.064453
vt 0.068359 0.064453
vt 0.068359 0.064453
vt 0.068359 0.064453
vt 0.068359 0.064453
vt 0.068359 0.064453
vt 0.068359 0.064453
vt 0.068359 0.064453
vt 0.068359 0.064453
vt 0.068359 0.064453
vt 0.068359 0.064453
vt 0.068359 0.064453
vt 0.068359 0.064453
vt 0.068359 0.064453
vt 0.068359 0.064453
vt 0.068359 0.064453
vt 0.068359 0.064453
vt 0.068359 0.064453
vt 0.068359 0.064453
vt 0.068359 0.064453
vt 0.068359 0.064453
vt 0.068359 0.064453
vt 0.068359 0.064453
vt 0.068359 0.064453
vt 0.068359 0.064453
vt 0.068359 0.064453
vt 0.068359 0.064453
vt 0.068359 0.064453
vt 0.068359 0.064453
vt 0.068359 0.064453
vt 0.068359 0.064453
vt 0.068359 0.064453
vt 0.068359 0.064453
vt 0.068359 0.064453
vt 0.068359 0.064453
vt 0.304688 0.816406
vt 0.304688 0.816406
vt 0.068359 0.064453
vt 0.068359 0.064453
vt 0.068359 0.064453
vt 0.068359 0.064453
vt 0.304687 0.816406
vt 0.068359 0.064453
vt 0.068359 0.064453
vt 0.304688 0.816406
vt 0.068359 0.064453
vt 0.068359 0.064453
vt 0.068359 0.064453
vt 0.068359 0.064453
vt 0.068359 0.064453
vt 0.068359 0.064453
vt 0.068359 0.064453
vt 0.068359 0.064453
vt 0.068359 0.064453
vt 0.068359 0.064453
vt 0.304688 0.816406
vt 0.304688 0.816406
vt 0.068359 0.064453
vt 0.068359 0.064453
vt 0.068359 0.064453
vt 0.068359 0.064453
vt 0.304688 0.816406
vt 0.068359 0.064453
vt 0.068359 0.064453
vt 0.304688 0.816406
vt 0.068359 0.064453
vt 0.068359 0.064453
vt 0.068359 0.064453
vt 0.068359 0.064453
vt 0.068359 0.064453
vt 0.068359 0.064453
vt 0.068359 0.064453
vt 0.068359 0.064453
vt 0.068359 0.064453
vt 0.068359 0.064453
vn -0.8484 -0.5290 0.0194
vn 0.8500 0.5265 -0.0192
vn 0.0000 -0.9986 -0.0522
vn -0.0000 -0.0000 1.0000
vn -0.8500 0.5265 -0.0192
vn 0.0000 0.0000 -1.0000
vn -0.8500 0.5265 0.0192
vn 0.0000 -0.9986 0.0522
vn 0.8500 0.5265 0.0192
vn -0.8486 -0.5287 -0.0191
vn 0.8486 -0.5287 -0.0191
vn 0.8484 -0.5290 0.0194
vn -0.9986 0.0524 -0.0000
vn 0.0000 0.0119 -0.9999
vn 0.9986 -0.0524 0.0000
vn 0.0000 -0.0119 0.9999
vn 0.0000 -1.0000 0.0000
vn 0.0000 1.0000 -0.0000
vn 0.0000 -0.0368 0.9993
vn 0.0000 0.0498 0.9988
vn 0.9979 -0.0654 0.0000
vn 0.9926 0.1218 -0.0000
vn 0.0000 0.0368 -0.9993
vn 0.0000 -0.0498 -0.9988
vn -0.9979 0.0654 -0.0000
vn -0.9926 -0.1218 0.0000
vn -0.9984 0.0571 -0.0000
vn 0.0000 0.0130 -0.9999
vn 0.9984 -0.0571 0.0000
vn 0.0000 -0.0130 0.9999
vn -0.9991 -0.0372 -0.0198
vn 0.0000 0.4319 -0.9019
vn 0.9991 -0.0371 -0.0197
vn 0.0000 -0.5062 0.8624
vn 0.0000 -0.8830 -0.4694
vn 0.0000 -0.0459 -0.9989
vn 1.0000 0.0000 0.0000
vn 0.8605 -0.4498 -0.2391
vn -0.8605 -0.4499 -0.2392
vn 0.0000 -0.8538 0.5207
vn 0.0000 0.8830 0.4694
vn -1.0000 0.0000 0.0000
vn 0.0000 -0.4694 0.8830
vn 0.0000 0.4694 -0.8830
vn 0.0000 0.4694 0.8830
vn 0.0000 -0.4694 -0.8830
vn 0.0000 0.8830 -0.4694
vn 0.0000 -0.8538 -0.5207
vn 0.8605 -0.4499 0.2392
vn -0.8605 -0.4498 0.2391
vn 0.0000 -0.0459 0.9989
vn 0.0000 -0.8830 0.4694
vn 0.0000 -0.5062 -0.8624
vn -0.9991 -0.0371 0.0197
vn 0.0000 0.4319 0.9019
vn 0.9991 -0.0372 0.0198
vn 0.0000 -0.5112 0.8595
vn 0.0027 0.9332 0.3593
vn 0.9989 -0.0423 -0.0225
vn -0.0460 0.8854 0.4625
vn 0.0000 0.4266 -0.9044
vn 0.0029 0.8721 0.4894
vn -0.9989 -0.0423 -0.0225
vn 0.0903 0.8826 0.4613
vn 0.0034 -0.4622 0.8868
vn 0.9996 0.0206 -0.0213
vn -0.0029 0.4766 -0.8791
vn -0.9997 0.0183 -0.0172
vn 0.0760 -0.8771 -0.4743
vn 0.0031 -0.8863 -0.4631
vn -0.0313 -0.8790 -0.4757
vn 0.0029 -0.8289 -0.5594
vn 0.0000 -0.5112 -0.8595
vn -0.0027 0.9332 -0.3593
vn -0.9989 -0.0423 0.0225
vn 0.0460 0.8854 -0.4625
vn 0.0000 0.4266 0.9044
vn -0.0029 0.8721 -0.4894
vn 0.9989 -0.0423 0.0225
vn -0.0903 0.8826 -0.4613
vn -0.0034 -0.4622 -0.8868
vn -0.9996 0.0206 0.0213
vn 0.0029 0.4766 0.8791
vn 0.9997 0.0183 0.0172
vn -0.0760 -0.8771 0.4743
vn -0.0031 -0.8863 0.4631
vn 0.0314 -0.8790 0.4757
vn -0.0029 -0.8289 0.5594
vn -0.9998 -0.0152 0.0110
vn 0.0000 0.8096 -0.5870
vn 0.9997 0.0206 -0.0150
vn 0.0000 -0.8096 0.5870
vn 0.0000 -0.7283 -0.6853
vn 0.0000 0.7283 0.6853
vn -0.0000 0.5002 0.8659
vn -0.0000 0.6106 0.7919
vn 0.0000 -0.5002 -0.8659
vn -0.0000 -0.6106 -0.7919
vn 0.9998 0.0152 -0.0110
vn 0.9998 0.0170 -0.0123
vn -0.9997 -0.0206 0.0150
vn -0.9998 -0.0170 0.0123
vn 0.9994 0.0282 0.0204
vn 0.0000 0.8096 0.5870
vn -1.0000 0.0001 0.0000
vn 0.0000 -0.8096 -0.5870
vn 0.0000 -0.7283 0.6853
vn 0.0000 0.7283 -0.6853
vn -0.0000 0.5068 -0.8621
vn 0.0000 0.6106 -0.7919
vn 0.0000 -0.5068 0.8621
vn 0.0000 -0.6106 0.7919
vn -0.9994 -0.0282 -0.0204
vn -0.9998 -0.0165 -0.0120
vn 1.0000 -0.0001 -0.0000
vn 0.9998 0.0165 0.0120
vn 0.0000 -0.0087 1.0000
vn 0.9983 -0.0577 0.0000
vn 0.0000 0.0087 -1.0000
vn -0.9983 0.0577 -0.0000
vn 0.0000 -0.0587 0.9983
vn 0.9958 -0.0914 0.0000
vn 0.0000 0.0587 -0.9983
vn -0.9958 0.0914 -0.0000
vn 0.0000 -0.0085 1.0000
vn 0.9985 -0.0554 0.0000
vn 0.0000 0.0085 -1.0000
vn -0.9985 0.0554 -0.0000
vn -0.0000 -0.0541 0.9985
vn 0.9961 -0.0886 0.0000
vn 0.0000 0.0541 -0.9985
vn -0.9961 0.0886 -0.0000
usemtl NewMaterial
s off
f 1/1/1 15/2/1 11/3/1 13/4/1
f 8/5/2 3/6/2 5/7/2 9/8/2
f 9/8/3 5/7/3 11/3/3 15/2/3
f 5/7/4 3/6/4 7/9/4 12/10/4 13/4/4 11/3/4
f 10/11/5 7/9/5 3/6/5 8/5/5
f 2/12/6 4/13/6 16/14/6 14/15/6 18/16/6 6/17/6
f 6/17/7 10/11/7 8/5/7 2/12/7
f 4/13/8 9/8/8 15/2/8 16/14/8
f 2/12/9 8/5/9 9/8/9 4/13/9
f 15/2/10 1/1/10 14/15/10 16/14/10
f 17/18/3 12/10/3 7/9/3 10/11/3
f 18/16/8 17/18/8 10/11/8 6/17/8
f 14/15/11 1/1/11 17/18/11 18/16/11
f 17/18/12 1/1/12 13/4/12 12/10/12
f 148/19/13 20/20/13 22/21/13 149/22/13
f 149/22/14 22/21/14 26/23/14 151/24/14
f 151/24/15 26/23/15 24/25/15 153/26/15
f 153/26/16 24/25/16 20/20/16 148/19/16
f 21/27/17 25/28/17 23/29/17 19/30/17
f 26/23/18 22/21/18 20/20/18 24/25/18
f 23/29/19 34/31/19 27/32/19 19/30/19
f 34/31/20 33/33/20 28/34/20 27/32/20
f 25/28/21 32/35/21 34/31/21 23/29/21
f 32/35/22 31/36/22 33/33/22 34/31/22
f 21/27/23 30/37/23 32/35/23 25/28/23
f 30/37/24 29/38/24 31/36/24 32/35/24
f 19/30/25 27/32/25 30/37/25 21/27/25
f 27/32/26 28/34/26 29/38/26 30/37/26
f 164/39/27 36/40/27 38/41/27 165/42/27
f 165/42/28 38/41/28 42/43/28 167/44/28
f 167/44/29 42/43/29 40/45/29 169/46/29
f 169/46/30 40/45/30 36/40/30 164/39/30
f 37/47/17 41/48/17 39/49/17 35/50/17
f 42/43/18 38/41/18 36/40/18 40/45/18
f 39/49/19 50/51/19 43/52/19 35/50/19
f 50/51/20 49/53/20 44/54/20 43/52/20
f 41/48/21 48/55/21 50/51/21 39/49/21
f 48/55/22 47/56/22 49/53/22 50/51/22
f 37/47/23 46/57/23 48/55/23 41/48/23
f 46/57/24 45/58/24 47/56/24 48/55/24
f 35/50/25 43/52/25 46/57/25 37/47/25
f 43/52/26 44/54/26 45/58/26 46/57/26
f 84/59/31 52/60/31 54/61/31 85/62/31
f 85/62/32 54/61/32 58/63/32 87/64/32
f 87/64/33 58/63/33 56/65/33 89/66/33
f 89/66/34 56/65/34 52/60/34 84/59/34
f 53/67/35 57/68/35 55/69/35 51/70/35
f 58/63/36 54/61/36 60/71/36 61/72/36
f 62/73/37 61/72/37 65/74/37 66/75/37
f 56/65/38 58/63/38 61/72/38 62/73/38
f 54/61/39 52/60/39 59/76/39 60/71/39
f 52/60/40 56/65/40 62/73/40 59/76/40
f 65/74/41 64/77/41 63/78/41 66/75/41
f 60/71/42 59/76/42 63/78/42 64/77/42
f 59/76/43 62/73/43 66/75/43 63/78/43
f 61/72/44 60/71/44 64/77/44 65/74/44
f 72/79/45 73/80/45 69/81/45 68/82/45
f 74/83/46 71/84/46 67/85/46 70/86/46
f 73/80/37 74/83/37 70/86/37 69/81/37
f 68/82/47 69/81/47 70/86/47 67/85/47
f 81/87/48 77/88/48 71/84/48 74/83/48
f 79/89/49 81/87/49 74/83/49 73/80/49
f 77/88/50 75/90/50 72/79/50 71/84/50
f 71/84/42 72/79/42 68/82/42 67/85/42
f 75/90/51 79/89/51 73/80/51 72/79/51
f 80/91/52 76/92/52 78/93/52 82/94/52
f 105/95/53 77/88/53 81/87/53 100/96/53
f 103/97/54 75/90/54 77/88/54 105/95/54
f 101/98/55 79/89/55 75/90/55 103/97/55
f 100/96/56 81/87/56 79/89/56 101/98/56
f 55/69/57 90/99/57 83/100/57 51/70/57
f 89/101/58 84/102/58 92/103/58 97/104/58
f 57/68/59 88/105/59 90/99/59 55/69/59
f 87/106/60 89/101/60 97/104/60 95/107/60
f 53/67/61 86/108/61 88/105/61 57/68/61
f 85/109/62 87/106/62 95/107/62 93/110/62
f 51/70/63 83/100/63 86/108/63 53/67/63
f 84/102/64 85/109/64 93/110/64 92/103/64
f 98/111/65 97/104/65 92/103/65 91/112/65
f 96/113/66 95/107/66 97/104/66 98/111/66
f 94/114/67 93/110/67 95/107/67 96/113/67
f 91/112/68 92/103/68 93/110/68 94/114/68
f 86/115/69 83/116/69 91/112/69 94/114/69
f 88/117/70 86/115/70 94/114/70 96/113/70
f 90/118/71 88/117/71 96/113/71 98/111/71
f 83/116/72 90/118/72 98/111/72 91/112/72
f 78/93/73 106/119/73 99/120/73 82/94/73
f 105/121/74 100/122/74 108/123/74 113/124/74
f 76/92/75 104/125/75 106/119/75 78/93/75
f 103/126/76 105/121/76 113/124/76 111/127/76
f 80/91/77 102/128/77 104/125/77 76/92/77
f 101/129/78 103/126/78 111/127/78 109/130/78
f 82/94/79 99/120/79 102/128/79 80/91/79
f 100/122/80 101/129/80 109/130/80 108/123/80
f 114/131/81 113/124/81 108/123/81 107/132/81
f 112/133/82 111/127/82 113/124/82 114/131/82
f 110/134/83 109/130/83 111/127/83 112/133/83
f 107/132/84 108/123/84 109/130/84 110/134/84
f 102/135/85 99/136/85 107/132/85 110/134/85
f 104/137/86 102/135/86 110/134/86 112/133/86
f 106/138/87 104/137/87 112/133/87 114/131/87
f 99/136/88 106/138/88 114/131/88 107/132/88
f 123/139/89 126/140/89 118/141/89 117/142/89
f 117/142/90 118/141/90 122/143/90 121/144/90
f 127/145/91 130/146/91 120/147/91 119/148/91
f 119/148/92 120/147/92 116/149/92 115/150/92
f 124/151/93 127/145/93 119/148/93 115/150/93
f 130/146/94 125/152/94 116/149/94 120/147/94
f 122/143/95 118/141/95 126/140/95 129/153/95
f 129/153/96 126/140/96 125/152/96 130/146/96
f 117/142/97 121/144/97 128/154/97 123/139/97
f 123/139/98 128/154/98 127/145/98 124/151/98
f 121/144/99 122/143/99 129/153/99 128/154/99
f 128/154/100 129/153/100 130/146/100 127/145/100
f 115/150/101 116/149/101 125/152/101 124/151/101
f 124/151/102 125/152/102 126/140/102 123/139/102
f 139/155/103 142/156/103 134/157/103 133/158/103
f 133/158/104 134/157/104 138/159/104 137/160/104
f 143/161/105 146/162/105 136/163/105 135/164/105
f 135/164/106 136/163/106 132/165/106 131/166/106
f 140/167/107 143/161/107 135/164/107 131/166/107
f 146/162/108 141/168/108 132/165/108 136/163/108
f 138/159/109 134/157/109 142/156/109 145/169/109
f 145/169/110 142/156/110 141/168/110 146/162/110
f 133/158/111 137/160/111 144/170/111 139/155/111
f 139/155/112 144/170/112 143/161/112 140/167/112
f 137/160/113 138/159/113 145/169/113 144/170/113
f 144/170/114 145/169/114 146/162/114 143/161/114
f 131/166/115 132/165/115 141/168/115 140/167/115
f 140/167/116 141/168/116 142/156/116 139/155/116
f 33/33/117 154/171/117 147/172/117 28/34/117
f 154/173/17 152/174/17 160/175/17 162/176/17
f 31/36/118 152/177/118 154/171/118 33/33/118
f 152/174/17 150/178/17 158/179/17 160/175/17
f 29/38/119 150/180/119 152/177/119 31/36/119
f 150/178/17 147/181/17 155/182/17 158/179/17
f 28/34/120 147/172/120 150/180/120 29/38/120
f 153/183/18 148/184/18 156/185/18 161/186/18
f 162/176/121 161/186/121 156/185/121 155/182/121
f 160/175/122 159/187/122 161/186/122 162/176/122
f 158/179/123 157/188/123 159/187/123 160/175/123
f 155/182/124 156/185/124 157/188/124 158/179/124
f 147/181/17 154/173/17 162/176/17 155/182/17
f 148/184/18 149/189/18 157/188/18 156/185/18
f 149/189/18 151/190/18 159/187/18 157/188/18
f 151/190/18 153/183/18 161/186/18 159/187/18
f 49/53/125 170/191/125 163/192/125 44/54/125
f 165/193/18 167/194/18 175/195/18 173/196/18
f 47/56/126 168/197/126 170/191/126 49/53/126
f 164/198/18 165/193/18 173/196/18 172/199/18
f 45/58/127 166/200/127 168/197/127 47/56/127
f 163/201/17 170/202/17 178/203/17 171/204/17
f 44/54/128 163/192/128 166/200/128 45/58/128
f 170/202/17 168/205/17 176/206/17 178/203/17
f 178/203/129 177/207/129 172/199/129 171/204/129
f 176/206/130 175/195/130 177/207/130 178/203/130
f 174/208/131 173/196/131 175/195/131 176/206/131
f 171/204/132 172/199/132 173/196/132 174/208/132
f 167/194/18 169/209/18 177/207/18 175/195/18
f 169/209/18 164/198/18 172/199/18 177/207/18
f 166/210/17 163/201/17 171/204/17 174/208/17
f 168/205/17 166/210/17 174/208/17 176/206/17
