# Blender v2.90.1 OBJ File: 'Wood.blend'
# www.blender.org
mtllib Tree1.mtl
o Cylinder.005_Cylinder.055
v 0.018654 -9.279495 -0.958447
v 0.018654 -5.373054 -0.586769
v 0.884679 -9.279495 -0.458447
v 0.562797 -5.373054 -0.272608
v 0.884679 -9.279495 0.541553
v 0.562797 -5.373054 0.355714
v 0.018654 -9.279495 1.041553
v 0.018654 -5.373054 0.669875
v -0.847372 -9.279495 0.541553
v -0.525489 -5.373054 0.355714
v -0.847372 -9.279495 -0.458447
v -0.525489 -5.373054 -0.272608
v 0.018654 -7.977348 -0.740569
v 0.018654 -6.675201 -0.637364
v 0.606613 -6.675201 -0.297905
v 0.695991 -7.977348 -0.349508
v 0.606613 -6.675201 0.381012
v 0.695991 -7.977348 0.432614
v 0.018654 -6.675201 0.720470
v 0.018654 -7.977348 0.823675
v -0.569306 -6.675201 0.381011
v -0.658684 -7.977348 0.432614
v -0.569306 -6.675201 -0.297905
v -0.658684 -7.977348 -0.349508
v 0.562797 -3.475331 -0.272608
v 0.018654 -3.475331 -0.586769
v 0.562797 -3.475331 0.355714
v 0.018654 -3.475331 0.669875
v -0.525489 -3.475331 0.355714
v -0.525489 -3.475331 -0.272608
v -0.006217 -5.531418 -3.288456
v 2.642640 -6.040994 -2.662709
v 3.268390 -5.531418 -0.013852
v 2.642640 -6.040994 2.635007
v -0.006218 9.851576 -0.013852
v -0.006217 -5.531418 3.260755
v -2.655077 -6.040994 2.635005
v -3.280824 -5.531418 -0.013852
v -2.655077 -6.040994 -2.662709
v -0.006218 -2.989668 -3.135560
v -0.006217 0.234915 -2.196923
v -0.006218 2.226324 -1.886876
v -0.006217 5.328608 -1.156351
v -0.006218 6.800250 -0.780465
v 0.467640 7.309826 -0.487709
v 0.917960 4.819031 -0.938029
v 1.151531 2.735899 -1.171599
v 1.759687 -0.274662 -1.779755
v 1.923363 -2.480092 -1.943432
v 0.760397 6.800250 -0.013852
v 1.136283 5.328608 -0.013852
v 1.866807 2.226322 -0.013852
v 2.176854 0.234914 -0.013852
v 3.115491 -2.989668 -0.013852
v 0.467640 7.309826 0.460006
v 0.917960 4.819031 0.910327
v 1.151531 2.735899 1.143896
v 1.759687 -0.274662 1.752056
v 1.923363 -2.480092 1.915729
v -0.006218 6.800250 0.752765
v -0.006217 5.328608 1.128648
v -0.006218 2.226322 1.859176
v -0.006217 0.234914 2.169219
v -0.006218 -2.989668 3.107858
v -0.480075 7.309826 0.460006
v -0.930397 4.819031 0.910327
v -1.163966 2.735899 1.143896
v -1.772124 -0.274662 1.752056
v -1.935798 -2.480092 1.915729
v -0.772833 6.800250 -0.013852
v -1.148717 5.328608 -0.013852
v -1.879244 2.226322 -0.013852
v -2.189288 0.234914 -0.013852
v -3.127927 -2.989668 -0.013852
v -0.480075 7.309826 -0.487709
v -0.930397 4.819031 -0.938029
v -1.163966 2.735899 -1.171599
v -1.772124 -0.274662 -1.779755
v -1.935798 -2.480092 -1.943432
v 1.435847 -1.238002 -1.455916
v 2.033170 -1.238002 -0.013852
v 1.435847 -1.238002 1.428215
v -0.006218 -1.238002 2.025539
v -1.448284 -1.238002 1.428215
v -2.045606 -1.238002 -0.013852
v -1.448284 -1.238002 -1.455916
v -0.006218 -1.238002 -2.053238
v -0.006218 1.300068 -1.507710
v 1.050100 1.300068 -1.070168
v 1.487641 1.300068 -0.013852
v 1.050100 1.300068 1.042467
v -0.006218 1.300068 1.480007
v -1.062536 1.300068 1.042467
v -1.500077 1.300068 -0.013852
v -1.062536 1.300068 -1.070168
v -0.006218 3.677199 -1.056609
v 0.731123 3.677199 -0.751191
v 1.036540 3.677199 -0.013852
v 0.731123 3.677199 0.723491
v -0.006218 3.677199 1.028907
v -0.743559 3.677199 0.723491
v -1.048976 3.677199 -0.013852
v -0.743559 3.677199 -0.751191
v -0.006218 6.110665 -0.661492
v 0.451733 6.110665 -0.471802
v 0.641423 6.110665 -0.013852
v 0.451733 6.110665 0.444101
v -0.006218 6.110665 0.633790
v -0.464170 6.110665 0.444101
v -0.653859 6.110665 -0.013852
v -0.464170 6.110665 -0.471802
v -0.006218 7.897252 -0.287274
v 0.187122 7.897252 -0.207192
v 0.267206 7.897252 -0.013852
v 0.187122 7.897252 0.179489
v -0.006218 7.897252 0.259574
v -0.199558 7.897252 0.179489
v -0.279642 7.897252 -0.013852
v -0.199558 7.897252 -0.207192
v -0.006218 -3.698411 -0.013852
vt 0.312500 0.809687
vt 0.312500 0.809687
vt 0.312500 0.809687
vt 0.312500 0.809687
vt 0.312500 0.809687
vt 0.312500 0.809687
vt 0.312500 0.809687
vt 0.312500 0.809687
vt 0.312500 0.809687
vt 0.312500 0.809687
vt 0.312500 0.809687
vt 0.312500 0.809687
vt 0.312500 0.809687
vt 0.312500 0.809687
vt 0.312500 0.809687
vt 0.312500 0.809687
vt 0.312500 0.809687
vt 0.312500 0.809687
vt 0.312500 0.809687
vt 0.312500 0.809687
vt 0.312500 0.809687
vt 0.312500 0.809687
vt 0.312500 0.809687
vt 0.312500 0.809687
vt 0.312500 0.809687
vt 0.312500 0.809687
vt 0.312500 0.809687
vt 0.312500 0.809687
vt 0.312500 0.809687
vt 0.312500 0.809687
vt 0.191406 0.934687
vt 0.191406 0.934687
vt 0.191406 0.934687
vt 0.191406 0.934687
vt 0.191406 0.934687
vt 0.191406 0.934687
vt 0.191406 0.934687
vt 0.191406 0.934687
vt 0.191406 0.934687
vt 0.191406 0.934687
vt 0.191406 0.934687
vt 0.191406 0.934687
vt 0.191406 0.934687
vt 0.191406 0.934687
vt 0.191406 0.934687
vt 0.191406 0.934687
vt 0.191406 0.934687
vt 0.191406 0.934687
vt 0.191406 0.934687
vt 0.191406 0.934687
vt 0.191406 0.934687
vt 0.191406 0.934687
vt 0.191406 0.934687
vt 0.191406 0.934687
vt 0.191406 0.934687
vt 0.191406 0.934687
vt 0.191406 0.934687
vt 0.191406 0.934687
vt 0.191406 0.934687
vt 0.191406 0.934687
vt 0.191406 0.934687
vt 0.191406 0.934687
vt 0.191406 0.934687
vt 0.191406 0.934687
vt 0.191406 0.934687
vt 0.191406 0.934687
vt 0.191406 0.934687
vt 0.191406 0.934687
vt 0.191406 0.934687
vt 0.191406 0.934687
vt 0.191406 0.934687
vt 0.191406 0.934687
vt 0.191406 0.934687
vt 0.191406 0.934687
vt 0.191406 0.934687
vt 0.191406 0.934687
vt 0.191406 0.934687
vt 0.191406 0.934687
vt 0.191406 0.934687
vt 0.191406 0.934687
vt 0.191406 0.934687
vt 0.191406 0.934687
vt 0.191406 0.934687
vt 0.191406 0.934687
vt 0.191406 0.934687
vt 0.191406 0.934687
vt 0.191406 0.934687
vt 0.191406 0.934687
vt 0.191406 0.934687
vt 0.191406 0.934687
vt 0.191406 0.934687
vt 0.191406 0.934687
vt 0.191406 0.934687
vt 0.191406 0.934687
vt 0.191406 0.934687
vt 0.191406 0.934687
vt 0.191406 0.934687
vt 0.191406 0.934687
vt 0.191406 0.934687
vt 0.191406 0.934687
vt 0.191406 0.934687
vt 0.191406 0.934687
vt 0.191406 0.934687
vt 0.191406 0.934687
vt 0.191406 0.934687
vt 0.191406 0.934687
vt 0.191406 0.934687
vt 0.191406 0.934687
vt 0.191406 0.934687
vt 0.191406 0.934687
vt 0.191406 0.934687
vt 0.191406 0.934687
vt 0.191406 0.934687
vt 0.191406 0.934687
vt 0.191406 0.934687
vt 0.191406 0.934687
vt 0.191406 0.934687
vt 0.191406 0.934687
vt 0.191406 0.934687
vt 0.191406 0.934687
vn 0.4997 0.0336 -0.8655
vn 0.9994 0.0336 0.0000
vn 0.4997 0.0336 0.8655
vn -0.4997 0.0336 0.8655
vn 0.5000 -0.0000 -0.8660
vn -0.9994 0.0336 0.0000
vn -0.4997 0.0336 -0.8655
vn 0.0000 -1.0000 0.0000
vn -0.4948 0.1434 -0.8571
vn -0.4988 0.0685 -0.8640
vn -0.9897 0.1434 0.0000
vn -0.9977 0.0685 0.0000
vn -0.4948 0.1434 0.8571
vn -0.4988 0.0685 0.8640
vn 0.4948 0.1434 0.8571
vn 0.4988 0.0685 0.8640
vn 0.9897 0.1434 0.0000
vn 0.9977 0.0685 0.0000
vn 0.4948 0.1434 -0.8571
vn 0.4988 0.0685 -0.8640
vn 0.0000 1.0000 0.0000
vn 0.5000 -0.0000 0.8660
vn -0.5000 0.0000 -0.8660
vn -0.5000 0.0000 0.8660
vn 1.0000 -0.0000 0.0000
vn -1.0000 0.0000 0.0000
vn 0.3195 0.2309 -0.9190
vn 0.9190 0.2309 -0.3195
vn 0.9190 0.2309 0.3195
vn 0.3195 0.2309 0.9190
vn -0.3195 0.2309 0.9190
vn -0.9190 0.2309 0.3195
vn -0.9190 0.2309 -0.3195
vn -0.3195 0.2309 -0.9190
vn -0.2725 -0.8396 -0.4700
vn 0.3540 -0.4789 0.8033
vn 0.3324 -0.5098 0.7935
vn 0.3111 -0.4827 0.8187
vn 0.4028 -0.4579 0.7925
vn 0.1635 -0.4341 0.8859
vn 0.8033 -0.4789 0.3540
vn 0.7935 -0.5098 0.3324
vn 0.8187 -0.4827 0.3111
vn 0.7925 -0.4579 0.4028
vn 0.8859 -0.4341 0.1635
vn 0.8033 -0.4789 -0.3540
vn 0.7935 -0.5098 -0.3324
vn 0.8187 -0.4827 -0.3111
vn 0.7925 -0.4579 -0.4028
vn 0.8859 -0.4341 -0.1635
vn 0.3540 -0.4789 -0.8033
vn 0.3324 -0.5098 -0.7935
vn 0.3111 -0.4827 -0.8187
vn 0.4028 -0.4579 -0.7925
vn 0.1635 -0.4341 -0.8859
vn -0.3540 -0.4789 -0.8033
vn -0.3324 -0.5098 -0.7935
vn -0.3111 -0.4827 -0.8187
vn -0.4028 -0.4579 -0.7925
vn -0.1635 -0.4341 -0.8859
vn -0.8033 -0.4789 -0.3540
vn -0.7935 -0.5098 -0.3324
vn -0.8187 -0.4827 -0.3111
vn -0.7925 -0.4579 -0.4028
vn -0.8859 -0.4341 -0.1635
vn -0.8033 -0.4789 0.3540
vn -0.7935 -0.5098 0.3324
vn -0.8187 -0.4827 0.3111
vn -0.7925 -0.4579 0.4028
vn -0.8859 -0.4341 0.1635
vn -0.3540 -0.4789 0.8033
vn -0.3324 -0.5098 0.7935
vn -0.3111 -0.4827 0.8187
vn -0.4028 -0.4579 0.7925
vn -0.1635 -0.4341 0.8859
vn 0.3070 0.2845 -0.9082
vn 0.9082 0.2845 -0.3070
vn 0.9082 0.2845 0.3070
vn 0.3070 0.2845 0.9082
vn -0.3070 0.2845 0.9082
vn -0.9082 0.2845 0.3070
vn -0.9082 0.2845 -0.3070
vn -0.3070 0.2845 -0.9082
vn 0.4142 0.3100 -0.8558
vn 0.8558 0.3100 -0.4142
vn 0.8558 0.3100 0.4142
vn 0.4142 0.3100 0.8558
vn -0.4142 0.3100 0.8558
vn -0.8558 0.3100 0.4142
vn -0.8558 0.3100 -0.4142
vn -0.4142 0.3100 -0.8558
vn 0.3211 0.3074 -0.8957
vn 0.8957 0.3074 -0.3211
vn 0.8957 0.3074 0.3211
vn 0.3211 0.3074 0.8957
vn -0.3211 0.3074 0.8957
vn -0.8957 0.3074 0.3211
vn -0.8957 0.3074 -0.3211
vn -0.3211 0.3074 -0.8957
vn 0.4040 0.2707 -0.8738
vn 0.8738 0.2707 -0.4040
vn 0.8738 0.2707 0.4040
vn 0.4040 0.2707 0.8738
vn -0.4040 0.2707 0.8738
vn -0.8738 0.2707 0.4040
vn -0.8738 0.2707 -0.4040
vn -0.4040 0.2707 -0.8738
vn 0.3705 0.2973 -0.8800
vn 0.8800 0.2973 -0.3705
vn 0.8800 0.2973 0.3705
vn 0.3705 0.2973 0.8800
vn -0.3705 0.2973 0.8800
vn -0.8800 0.2973 0.3705
vn -0.8800 0.2973 -0.3705
vn -0.3705 0.2973 -0.8800
vn -0.4700 -0.8396 -0.2725
vn 0.4700 -0.8396 -0.2725
vn -0.2725 -0.8396 0.4700
vn -0.4700 -0.8396 0.2725
vn 0.4700 -0.8396 0.2725
vn 0.2725 -0.8396 0.4700
vn 0.2725 -0.8396 -0.4700
usemtl NewMaterial
s off
f 14/1/1 2/2/1 4/3/1 15/4/1
f 15/4/2 4/3/2 6/5/2 17/6/2
f 17/6/3 6/5/3 8/7/3 19/8/3
f 19/8/4 8/7/4 10/9/4 21/10/4
f 4/3/5 2/2/5 26/11/5 25/12/5
f 21/10/6 10/9/6 12/13/6 23/14/6
f 23/14/7 12/13/7 2/2/7 14/1/7
f 1/15/8 3/16/8 5/17/8 7/18/8 9/19/8 11/20/8
f 11/20/9 24/21/9 13/22/9 1/15/9
f 24/21/10 23/14/10 14/1/10 13/22/10
f 9/19/11 22/23/11 24/21/11 11/20/11
f 22/23/12 21/10/12 23/14/12 24/21/12
f 7/18/13 20/24/13 22/23/13 9/19/13
f 20/24/14 19/8/14 21/10/14 22/23/14
f 5/17/15 18/25/15 20/24/15 7/18/15
f 18/25/16 17/6/16 19/8/16 20/24/16
f 3/16/17 16/26/17 18/25/17 5/17/17
f 16/26/18 15/4/18 17/6/18 18/25/18
f 1/15/19 13/22/19 16/26/19 3/16/19
f 13/22/20 14/1/20 15/4/20 16/26/20
f 25/12/21 26/11/21 30/27/21 29/28/21 28/29/21 27/30/21
f 8/7/22 6/5/22 27/30/22 28/29/22
f 2/2/23 12/13/23 30/27/23 26/11/23
f 10/9/24 8/7/24 28/29/24 29/28/24
f 6/5/25 4/3/25 25/12/25 27/30/25
f 12/13/26 10/9/26 29/28/26 30/27/26
f 44/31/27 35/32/27 45/33/27
f 45/33/28 35/32/28 50/34/28
f 50/34/29 35/32/29 55/35/29
f 55/35/30 35/32/30 60/36/30
f 60/36/31 35/32/31 65/37/31
f 65/37/32 35/32/32 70/38/32
f 70/38/33 35/32/33 75/39/33
f 75/39/34 35/32/34 44/31/34
f 120/40/35 34/41/35 36/42/35
f 86/43/36 79/44/36 40/45/36 87/46/36
f 95/47/37 78/48/37 41/49/37 88/50/37
f 103/51/38 77/52/38 42/53/38 96/54/38
f 111/55/39 76/56/39 43/57/39 104/58/39
f 119/59/40 75/39/40 44/31/40 112/60/40
f 85/61/41 74/62/41 79/44/41 86/43/41
f 94/63/42 73/64/42 78/48/42 95/47/42
f 102/65/43 72/66/43 77/52/43 103/51/43
f 110/67/44 71/68/44 76/56/44 111/55/44
f 118/69/45 70/38/45 75/39/45 119/59/45
f 84/70/46 69/71/46 74/62/46 85/61/46
f 93/72/47 68/73/47 73/64/47 94/63/47
f 101/74/48 67/75/48 72/66/48 102/65/48
f 109/76/49 66/77/49 71/68/49 110/67/49
f 117/78/50 65/37/50 70/38/50 118/69/50
f 83/79/51 64/80/51 69/71/51 84/70/51
f 92/81/52 63/82/52 68/73/52 93/72/52
f 100/83/53 62/84/53 67/75/53 101/74/53
f 108/85/54 61/86/54 66/77/54 109/76/54
f 116/87/55 60/36/55 65/37/55 117/78/55
f 82/88/56 59/89/56 64/80/56 83/79/56
f 91/90/57 58/91/57 63/82/57 92/81/57
f 99/92/58 57/93/58 62/84/58 100/83/58
f 107/94/59 56/95/59 61/86/59 108/85/59
f 115/96/60 55/35/60 60/36/60 116/87/60
f 81/97/61 54/98/61 59/89/61 82/88/61
f 90/99/62 53/100/62 58/91/62 91/90/62
f 98/101/63 52/102/63 57/93/63 99/92/63
f 106/103/64 51/104/64 56/95/64 107/94/64
f 114/105/65 50/34/65 55/35/65 115/96/65
f 80/106/66 49/107/66 54/98/66 81/97/66
f 89/108/67 48/109/67 53/100/67 90/99/67
f 97/110/68 47/111/68 52/102/68 98/101/68
f 105/112/69 46/113/69 51/104/69 106/103/69
f 113/114/70 45/33/70 50/34/70 114/105/70
f 87/46/71 40/45/71 49/107/71 80/106/71
f 88/50/72 41/49/72 48/109/72 89/108/72
f 96/54/73 42/53/73 47/111/73 97/110/73
f 104/58/74 43/57/74 46/113/74 105/112/74
f 112/60/75 44/31/75 45/33/75 113/114/75
f 31/115/76 87/46/76 80/106/76 32/116/76
f 32/116/77 80/106/77 81/97/77 33/117/77
f 33/117/78 81/97/78 82/88/78 34/41/78
f 34/41/79 82/88/79 83/79/79 36/42/79
f 36/42/80 83/79/80 84/70/80 37/118/80
f 37/118/81 84/70/81 85/61/81 38/119/81
f 38/119/82 85/61/82 86/43/82 39/120/82
f 39/120/83 86/43/83 87/46/83 31/115/83
f 40/45/84 88/50/84 89/108/84 49/107/84
f 49/107/85 89/108/85 90/99/85 54/98/85
f 54/98/86 90/99/86 91/90/86 59/89/86
f 59/89/87 91/90/87 92/81/87 64/80/87
f 64/80/88 92/81/88 93/72/88 69/71/88
f 69/71/89 93/72/89 94/63/89 74/62/89
f 74/62/90 94/63/90 95/47/90 79/44/90
f 79/44/91 95/47/91 88/50/91 40/45/91
f 41/49/92 96/54/92 97/110/92 48/109/92
f 48/109/93 97/110/93 98/101/93 53/100/93
f 53/100/94 98/101/94 99/92/94 58/91/94
f 58/91/95 99/92/95 100/83/95 63/82/95
f 63/82/96 100/83/96 101/74/96 68/73/96
f 68/73/97 101/74/97 102/65/97 73/64/97
f 73/64/98 102/65/98 103/51/98 78/48/98
f 78/48/99 103/51/99 96/54/99 41/49/99
f 42/53/100 104/58/100 105/112/100 47/111/100
f 47/111/101 105/112/101 106/103/101 52/102/101
f 52/102/102 106/103/102 107/94/102 57/93/102
f 57/93/103 107/94/103 108/85/103 62/84/103
f 62/84/104 108/85/104 109/76/104 67/75/104
f 67/75/105 109/76/105 110/67/105 72/66/105
f 72/66/106 110/67/106 111/55/106 77/52/106
f 77/52/107 111/55/107 104/58/107 42/53/107
f 43/57/108 112/60/108 113/114/108 46/113/108
f 46/113/109 113/114/109 114/105/109 51/104/109
f 51/104/110 114/105/110 115/96/110 56/95/110
f 56/95/111 115/96/111 116/87/111 61/86/111
f 61/86/112 116/87/112 117/78/112 66/77/112
f 66/77/113 117/78/113 118/69/113 71/68/113
f 71/68/114 118/69/114 119/59/114 76/56/114
f 76/56/115 119/59/115 112/60/115 43/57/115
f 33/117/116 34/41/116 120/40/116
f 120/40/117 37/118/117 38/119/117
f 31/115/118 32/116/118 120/40/118
f 32/116/119 33/117/119 120/40/119
f 39/120/120 120/40/120 38/119/120
f 39/120/121 31/115/121 120/40/121
f 37/118/122 120/40/122 36/42/122
